G04 #@! TF.GenerationSoftware,KiCad,Pcbnew,(5.1.5)-2*
G04 #@! TF.CreationDate,2020-04-23T19:17:14+02:00*
G04 #@! TF.ProjectId,Skis,536b6973-2e6b-4696-9361-645f70636258,rev?*
G04 #@! TF.SameCoordinates,Original*
G04 #@! TF.FileFunction,Soldermask,Top*
G04 #@! TF.FilePolarity,Negative*
%FSLAX46Y46*%
G04 Gerber Fmt 4.6, Leading zero omitted, Abs format (unit mm)*
G04 Created by KiCad (PCBNEW (5.1.5)-2) date 2020-04-23 19:17:14*
%MOMM*%
%LPD*%
G04 APERTURE LIST*
%ADD10C,0.100000*%
G04 APERTURE END LIST*
D10*
G36*
X86557446Y-120855781D02*
G01*
X86627783Y-120869772D01*
X86826551Y-120952105D01*
X86916600Y-121012274D01*
X87005436Y-121071632D01*
X87157568Y-121223764D01*
X87277096Y-121402651D01*
X87359428Y-121601418D01*
X87393103Y-121770714D01*
X87400216Y-121794163D01*
X87411767Y-121815774D01*
X87427312Y-121834716D01*
X87446254Y-121850261D01*
X87467865Y-121861812D01*
X87491314Y-121868925D01*
X87515700Y-121871327D01*
X87540086Y-121868925D01*
X87563535Y-121861812D01*
X87585146Y-121850261D01*
X87604088Y-121834716D01*
X87619633Y-121815774D01*
X87631184Y-121794163D01*
X87638297Y-121770714D01*
X87671972Y-121601418D01*
X87754304Y-121402651D01*
X87873832Y-121223764D01*
X88025964Y-121071632D01*
X88114800Y-121012274D01*
X88204849Y-120952105D01*
X88403617Y-120869772D01*
X88473954Y-120855781D01*
X88614626Y-120827800D01*
X88829774Y-120827800D01*
X88970446Y-120855781D01*
X89040783Y-120869772D01*
X89239551Y-120952105D01*
X89418437Y-121071633D01*
X89570567Y-121223763D01*
X89690095Y-121402649D01*
X89772428Y-121601417D01*
X89814400Y-121812428D01*
X89814400Y-122027572D01*
X89772428Y-122238583D01*
X89690095Y-122437351D01*
X89570567Y-122616237D01*
X89418437Y-122768367D01*
X89239551Y-122887895D01*
X89040783Y-122970228D01*
X88970446Y-122984219D01*
X88829774Y-123012200D01*
X88614626Y-123012200D01*
X88473954Y-122984219D01*
X88403617Y-122970228D01*
X88204849Y-122887895D01*
X88025963Y-122768367D01*
X87873833Y-122616237D01*
X87754305Y-122437351D01*
X87671972Y-122238583D01*
X87638297Y-122069286D01*
X87631184Y-122045837D01*
X87619633Y-122024226D01*
X87604088Y-122005284D01*
X87585146Y-121989739D01*
X87563535Y-121978188D01*
X87540086Y-121971075D01*
X87515700Y-121968673D01*
X87491314Y-121971075D01*
X87467865Y-121978188D01*
X87446254Y-121989739D01*
X87427312Y-122005284D01*
X87411767Y-122024226D01*
X87400216Y-122045837D01*
X87393103Y-122069286D01*
X87359428Y-122238583D01*
X87277095Y-122437351D01*
X87157567Y-122616237D01*
X87005437Y-122768367D01*
X86826551Y-122887895D01*
X86627783Y-122970228D01*
X86557446Y-122984219D01*
X86416774Y-123012200D01*
X86201626Y-123012200D01*
X86060954Y-122984219D01*
X85990617Y-122970228D01*
X85791849Y-122887895D01*
X85612963Y-122768367D01*
X85460833Y-122616237D01*
X85341305Y-122437351D01*
X85258972Y-122238583D01*
X85217000Y-122027572D01*
X85217000Y-121812428D01*
X85258972Y-121601417D01*
X85341305Y-121402649D01*
X85460833Y-121223763D01*
X85612963Y-121071633D01*
X85791849Y-120952105D01*
X85990617Y-120869772D01*
X86060954Y-120855781D01*
X86201626Y-120827800D01*
X86416774Y-120827800D01*
X86557446Y-120855781D01*
G37*
G36*
X97530246Y-120855781D02*
G01*
X97600583Y-120869772D01*
X97799351Y-120952105D01*
X97978237Y-121071633D01*
X98130367Y-121223763D01*
X98249895Y-121402649D01*
X98332228Y-121601417D01*
X98374200Y-121812428D01*
X98374200Y-122027572D01*
X98332228Y-122238583D01*
X98249895Y-122437351D01*
X98130367Y-122616237D01*
X97978237Y-122768367D01*
X97799351Y-122887895D01*
X97600583Y-122970228D01*
X97530246Y-122984219D01*
X97389574Y-123012200D01*
X97174426Y-123012200D01*
X97033754Y-122984219D01*
X96963417Y-122970228D01*
X96764649Y-122887895D01*
X96585763Y-122768367D01*
X96433633Y-122616237D01*
X96314105Y-122437351D01*
X96231772Y-122238583D01*
X96189800Y-122027572D01*
X96189800Y-121812428D01*
X96231772Y-121601417D01*
X96314105Y-121402649D01*
X96433633Y-121223763D01*
X96585763Y-121071633D01*
X96764649Y-120952105D01*
X96963417Y-120869772D01*
X97033754Y-120855781D01*
X97174426Y-120827800D01*
X97389574Y-120827800D01*
X97530246Y-120855781D01*
G37*
G36*
X71876246Y-120855781D02*
G01*
X71946583Y-120869772D01*
X72145351Y-120952105D01*
X72324237Y-121071633D01*
X72476367Y-121223763D01*
X72595895Y-121402649D01*
X72678228Y-121601417D01*
X72720200Y-121812428D01*
X72720200Y-122027572D01*
X72678228Y-122238583D01*
X72595895Y-122437351D01*
X72476367Y-122616237D01*
X72324237Y-122768367D01*
X72145351Y-122887895D01*
X71946583Y-122970228D01*
X71876246Y-122984219D01*
X71735574Y-123012200D01*
X71520426Y-123012200D01*
X71379754Y-122984219D01*
X71309417Y-122970228D01*
X71110649Y-122887895D01*
X70931763Y-122768367D01*
X70779633Y-122616237D01*
X70660105Y-122437351D01*
X70577772Y-122238583D01*
X70535800Y-122027572D01*
X70535800Y-121812428D01*
X70577772Y-121601417D01*
X70660105Y-121402649D01*
X70779633Y-121223763D01*
X70931763Y-121071633D01*
X71110649Y-120952105D01*
X71309417Y-120869772D01*
X71379754Y-120855781D01*
X71520426Y-120827800D01*
X71735574Y-120827800D01*
X71876246Y-120855781D01*
G37*
G36*
X80436046Y-120855781D02*
G01*
X80506383Y-120869772D01*
X80705151Y-120952105D01*
X80795200Y-121012274D01*
X80884036Y-121071632D01*
X81036168Y-121223764D01*
X81155696Y-121402651D01*
X81238028Y-121601418D01*
X81271703Y-121770714D01*
X81278816Y-121794163D01*
X81290367Y-121815774D01*
X81305912Y-121834716D01*
X81324854Y-121850261D01*
X81346465Y-121861812D01*
X81369914Y-121868925D01*
X81394300Y-121871327D01*
X81418686Y-121868925D01*
X81442135Y-121861812D01*
X81463746Y-121850261D01*
X81482688Y-121834716D01*
X81498233Y-121815774D01*
X81509784Y-121794163D01*
X81516897Y-121770714D01*
X81550572Y-121601418D01*
X81632904Y-121402651D01*
X81752432Y-121223764D01*
X81904564Y-121071632D01*
X81993400Y-121012274D01*
X82083449Y-120952105D01*
X82282217Y-120869772D01*
X82352554Y-120855781D01*
X82493226Y-120827800D01*
X82708374Y-120827800D01*
X82849046Y-120855781D01*
X82919383Y-120869772D01*
X83118151Y-120952105D01*
X83297037Y-121071633D01*
X83449167Y-121223763D01*
X83568695Y-121402649D01*
X83651028Y-121601417D01*
X83693000Y-121812428D01*
X83693000Y-122027572D01*
X83651028Y-122238583D01*
X83568695Y-122437351D01*
X83449167Y-122616237D01*
X83297037Y-122768367D01*
X83118151Y-122887895D01*
X82919383Y-122970228D01*
X82849046Y-122984219D01*
X82708374Y-123012200D01*
X82493226Y-123012200D01*
X82352554Y-122984219D01*
X82282217Y-122970228D01*
X82083449Y-122887895D01*
X81904563Y-122768367D01*
X81752433Y-122616237D01*
X81632905Y-122437351D01*
X81550572Y-122238583D01*
X81516897Y-122069286D01*
X81509784Y-122045837D01*
X81498233Y-122024226D01*
X81482688Y-122005284D01*
X81463746Y-121989739D01*
X81442135Y-121978188D01*
X81418686Y-121971075D01*
X81394300Y-121968673D01*
X81369914Y-121971075D01*
X81346465Y-121978188D01*
X81324854Y-121989739D01*
X81305912Y-122005284D01*
X81290367Y-122024226D01*
X81278816Y-122045837D01*
X81271703Y-122069286D01*
X81238028Y-122238583D01*
X81155695Y-122437351D01*
X81036167Y-122616237D01*
X80884037Y-122768367D01*
X80705151Y-122887895D01*
X80506383Y-122970228D01*
X80436046Y-122984219D01*
X80295374Y-123012200D01*
X80080226Y-123012200D01*
X79939554Y-122984219D01*
X79869217Y-122970228D01*
X79670449Y-122887895D01*
X79491563Y-122768367D01*
X79339433Y-122616237D01*
X79219905Y-122437351D01*
X79137572Y-122238583D01*
X79095600Y-122027572D01*
X79095600Y-121812428D01*
X79137572Y-121601417D01*
X79219905Y-121402649D01*
X79339433Y-121223763D01*
X79491563Y-121071633D01*
X79670449Y-120952105D01*
X79869217Y-120869772D01*
X79939554Y-120855781D01*
X80080226Y-120827800D01*
X80295374Y-120827800D01*
X80436046Y-120855781D01*
G37*
G36*
X80436046Y-111330781D02*
G01*
X80506383Y-111344772D01*
X80705151Y-111427105D01*
X80795200Y-111487274D01*
X80884036Y-111546632D01*
X81036168Y-111698764D01*
X81155696Y-111877651D01*
X81238028Y-112076418D01*
X81271703Y-112245714D01*
X81278816Y-112269163D01*
X81290367Y-112290774D01*
X81305912Y-112309716D01*
X81324854Y-112325261D01*
X81346465Y-112336812D01*
X81369914Y-112343925D01*
X81394300Y-112346327D01*
X81418686Y-112343925D01*
X81442135Y-112336812D01*
X81463746Y-112325261D01*
X81482688Y-112309716D01*
X81498233Y-112290774D01*
X81509784Y-112269163D01*
X81516897Y-112245714D01*
X81550572Y-112076418D01*
X81632904Y-111877651D01*
X81752432Y-111698764D01*
X81904564Y-111546632D01*
X81993400Y-111487274D01*
X82083449Y-111427105D01*
X82282217Y-111344772D01*
X82352554Y-111330781D01*
X82493226Y-111302800D01*
X82708374Y-111302800D01*
X82849046Y-111330781D01*
X82919383Y-111344772D01*
X83118151Y-111427105D01*
X83297037Y-111546633D01*
X83449167Y-111698763D01*
X83568695Y-111877649D01*
X83651028Y-112076417D01*
X83693000Y-112287428D01*
X83693000Y-112502572D01*
X83651028Y-112713583D01*
X83568695Y-112912351D01*
X83449167Y-113091237D01*
X83297037Y-113243367D01*
X83118151Y-113362895D01*
X82919383Y-113445228D01*
X82849046Y-113459219D01*
X82708374Y-113487200D01*
X82493226Y-113487200D01*
X82352554Y-113459219D01*
X82282217Y-113445228D01*
X82083449Y-113362895D01*
X81904563Y-113243367D01*
X81752433Y-113091237D01*
X81632905Y-112912351D01*
X81550572Y-112713583D01*
X81516897Y-112544286D01*
X81509784Y-112520837D01*
X81498233Y-112499226D01*
X81482688Y-112480284D01*
X81463746Y-112464739D01*
X81442135Y-112453188D01*
X81418686Y-112446075D01*
X81394300Y-112443673D01*
X81369914Y-112446075D01*
X81346465Y-112453188D01*
X81324854Y-112464739D01*
X81305912Y-112480284D01*
X81290367Y-112499226D01*
X81278816Y-112520837D01*
X81271703Y-112544286D01*
X81238028Y-112713583D01*
X81155695Y-112912351D01*
X81036167Y-113091237D01*
X80884037Y-113243367D01*
X80705151Y-113362895D01*
X80506383Y-113445228D01*
X80436046Y-113459219D01*
X80295374Y-113487200D01*
X80080226Y-113487200D01*
X79939554Y-113459219D01*
X79869217Y-113445228D01*
X79670449Y-113362895D01*
X79491563Y-113243367D01*
X79339433Y-113091237D01*
X79219905Y-112912351D01*
X79137572Y-112713583D01*
X79095600Y-112502572D01*
X79095600Y-112287428D01*
X79137572Y-112076417D01*
X79219905Y-111877649D01*
X79339433Y-111698763D01*
X79491563Y-111546633D01*
X79670449Y-111427105D01*
X79869217Y-111344772D01*
X79939554Y-111330781D01*
X80080226Y-111302800D01*
X80295374Y-111302800D01*
X80436046Y-111330781D01*
G37*
G36*
X71876246Y-111330781D02*
G01*
X71946583Y-111344772D01*
X72145351Y-111427105D01*
X72324237Y-111546633D01*
X72476367Y-111698763D01*
X72595895Y-111877649D01*
X72678228Y-112076417D01*
X72720200Y-112287428D01*
X72720200Y-112502572D01*
X72678228Y-112713583D01*
X72595895Y-112912351D01*
X72476367Y-113091237D01*
X72324237Y-113243367D01*
X72145351Y-113362895D01*
X71946583Y-113445228D01*
X71876246Y-113459219D01*
X71735574Y-113487200D01*
X71520426Y-113487200D01*
X71379754Y-113459219D01*
X71309417Y-113445228D01*
X71110649Y-113362895D01*
X70931763Y-113243367D01*
X70779633Y-113091237D01*
X70660105Y-112912351D01*
X70577772Y-112713583D01*
X70535800Y-112502572D01*
X70535800Y-112287428D01*
X70577772Y-112076417D01*
X70660105Y-111877649D01*
X70779633Y-111698763D01*
X70931763Y-111546633D01*
X71110649Y-111427105D01*
X71309417Y-111344772D01*
X71379754Y-111330781D01*
X71520426Y-111302800D01*
X71735574Y-111302800D01*
X71876246Y-111330781D01*
G37*
G36*
X86557445Y-111330781D02*
G01*
X86627782Y-111344772D01*
X86826550Y-111427105D01*
X86916599Y-111487274D01*
X87005435Y-111546632D01*
X87157567Y-111698764D01*
X87277095Y-111877651D01*
X87359427Y-112076418D01*
X87393102Y-112245714D01*
X87400215Y-112269163D01*
X87411766Y-112290774D01*
X87427311Y-112309716D01*
X87446253Y-112325261D01*
X87467864Y-112336812D01*
X87491313Y-112343925D01*
X87515699Y-112346327D01*
X87540085Y-112343925D01*
X87563534Y-112336812D01*
X87585145Y-112325261D01*
X87604087Y-112309716D01*
X87619632Y-112290774D01*
X87631183Y-112269163D01*
X87638296Y-112245714D01*
X87671971Y-112076418D01*
X87754303Y-111877651D01*
X87873831Y-111698764D01*
X88025963Y-111546632D01*
X88114799Y-111487274D01*
X88204848Y-111427105D01*
X88403616Y-111344772D01*
X88473953Y-111330781D01*
X88614625Y-111302800D01*
X88829773Y-111302800D01*
X88970445Y-111330781D01*
X89040782Y-111344772D01*
X89239550Y-111427105D01*
X89418436Y-111546633D01*
X89570566Y-111698763D01*
X89690094Y-111877649D01*
X89772427Y-112076417D01*
X89814399Y-112287428D01*
X89814399Y-112502572D01*
X89772427Y-112713583D01*
X89690094Y-112912351D01*
X89570566Y-113091237D01*
X89418436Y-113243367D01*
X89239550Y-113362895D01*
X89040782Y-113445228D01*
X88970445Y-113459219D01*
X88829773Y-113487200D01*
X88614625Y-113487200D01*
X88473953Y-113459219D01*
X88403616Y-113445228D01*
X88204848Y-113362895D01*
X88025962Y-113243367D01*
X87873832Y-113091237D01*
X87754304Y-112912351D01*
X87671971Y-112713583D01*
X87638296Y-112544286D01*
X87631183Y-112520837D01*
X87619632Y-112499226D01*
X87604087Y-112480284D01*
X87585145Y-112464739D01*
X87563534Y-112453188D01*
X87540085Y-112446075D01*
X87515699Y-112443673D01*
X87491313Y-112446075D01*
X87467864Y-112453188D01*
X87446253Y-112464739D01*
X87427311Y-112480284D01*
X87411766Y-112499226D01*
X87400215Y-112520837D01*
X87393102Y-112544286D01*
X87359427Y-112713583D01*
X87277094Y-112912351D01*
X87157566Y-113091237D01*
X87005436Y-113243367D01*
X86826550Y-113362895D01*
X86627782Y-113445228D01*
X86557445Y-113459219D01*
X86416773Y-113487200D01*
X86201625Y-113487200D01*
X86060953Y-113459219D01*
X85990616Y-113445228D01*
X85791848Y-113362895D01*
X85612962Y-113243367D01*
X85460832Y-113091237D01*
X85341304Y-112912351D01*
X85258971Y-112713583D01*
X85216999Y-112502572D01*
X85216999Y-112287428D01*
X85258971Y-112076417D01*
X85341304Y-111877649D01*
X85460832Y-111698763D01*
X85612962Y-111546633D01*
X85791848Y-111427105D01*
X85990616Y-111344772D01*
X86060953Y-111330781D01*
X86201625Y-111302800D01*
X86416773Y-111302800D01*
X86557445Y-111330781D01*
G37*
G36*
X97530245Y-111330781D02*
G01*
X97600582Y-111344772D01*
X97799350Y-111427105D01*
X97978236Y-111546633D01*
X98130366Y-111698763D01*
X98249894Y-111877649D01*
X98332227Y-112076417D01*
X98374199Y-112287428D01*
X98374199Y-112502572D01*
X98332227Y-112713583D01*
X98249894Y-112912351D01*
X98130366Y-113091237D01*
X97978236Y-113243367D01*
X97799350Y-113362895D01*
X97600582Y-113445228D01*
X97530245Y-113459219D01*
X97389573Y-113487200D01*
X97174425Y-113487200D01*
X97033753Y-113459219D01*
X96963416Y-113445228D01*
X96764648Y-113362895D01*
X96585762Y-113243367D01*
X96433632Y-113091237D01*
X96314104Y-112912351D01*
X96231771Y-112713583D01*
X96189799Y-112502572D01*
X96189799Y-112287428D01*
X96231771Y-112076417D01*
X96314104Y-111877649D01*
X96433632Y-111698763D01*
X96585762Y-111546633D01*
X96764648Y-111427105D01*
X96963416Y-111344772D01*
X97033753Y-111330781D01*
X97174425Y-111302800D01*
X97389573Y-111302800D01*
X97530245Y-111330781D01*
G37*
G36*
X74770997Y-108817551D02*
G01*
X74804652Y-108827761D01*
X74835665Y-108844338D01*
X74862851Y-108866649D01*
X74885162Y-108893835D01*
X74901739Y-108924848D01*
X74911949Y-108958503D01*
X74916000Y-108999638D01*
X74916000Y-110329362D01*
X74911949Y-110370497D01*
X74901739Y-110404152D01*
X74885162Y-110435165D01*
X74862851Y-110462351D01*
X74835665Y-110484662D01*
X74804652Y-110501239D01*
X74770997Y-110511449D01*
X74729862Y-110515500D01*
X72000138Y-110515500D01*
X71959003Y-110511449D01*
X71925348Y-110501239D01*
X71894335Y-110484662D01*
X71867149Y-110462351D01*
X71844838Y-110435165D01*
X71828261Y-110404152D01*
X71818051Y-110370497D01*
X71814000Y-110329362D01*
X71814000Y-108999638D01*
X71818051Y-108958503D01*
X71828261Y-108924848D01*
X71844838Y-108893835D01*
X71867149Y-108866649D01*
X71894335Y-108844338D01*
X71925348Y-108827761D01*
X71959003Y-108817551D01*
X72000138Y-108813500D01*
X74729862Y-108813500D01*
X74770997Y-108817551D01*
G37*
G36*
X79170997Y-108817551D02*
G01*
X79204652Y-108827761D01*
X79235665Y-108844338D01*
X79262851Y-108866649D01*
X79285162Y-108893835D01*
X79301739Y-108924848D01*
X79311949Y-108958503D01*
X79316000Y-108999638D01*
X79316000Y-110329362D01*
X79311949Y-110370497D01*
X79301739Y-110404152D01*
X79285162Y-110435165D01*
X79262851Y-110462351D01*
X79235665Y-110484662D01*
X79204652Y-110501239D01*
X79170997Y-110511449D01*
X79129862Y-110515500D01*
X76400138Y-110515500D01*
X76359003Y-110511449D01*
X76325348Y-110501239D01*
X76294335Y-110484662D01*
X76267149Y-110462351D01*
X76244838Y-110435165D01*
X76228261Y-110404152D01*
X76218051Y-110370497D01*
X76214000Y-110329362D01*
X76214000Y-108999638D01*
X76218051Y-108958503D01*
X76228261Y-108924848D01*
X76244838Y-108893835D01*
X76267149Y-108866649D01*
X76294335Y-108844338D01*
X76325348Y-108827761D01*
X76359003Y-108817551D01*
X76400138Y-108813500D01*
X79129862Y-108813500D01*
X79170997Y-108817551D01*
G37*
G36*
X96442997Y-108754051D02*
G01*
X96476652Y-108764261D01*
X96507665Y-108780838D01*
X96534851Y-108803149D01*
X96557162Y-108830335D01*
X96573739Y-108861348D01*
X96583949Y-108895003D01*
X96588000Y-108936138D01*
X96588000Y-110265862D01*
X96583949Y-110306997D01*
X96573739Y-110340652D01*
X96557162Y-110371665D01*
X96534851Y-110398851D01*
X96507665Y-110421162D01*
X96476652Y-110437739D01*
X96442997Y-110447949D01*
X96401862Y-110452000D01*
X93672138Y-110452000D01*
X93631003Y-110447949D01*
X93597348Y-110437739D01*
X93566335Y-110421162D01*
X93539149Y-110398851D01*
X93516838Y-110371665D01*
X93500261Y-110340652D01*
X93490051Y-110306997D01*
X93486000Y-110265862D01*
X93486000Y-108936138D01*
X93490051Y-108895003D01*
X93500261Y-108861348D01*
X93516838Y-108830335D01*
X93539149Y-108803149D01*
X93566335Y-108780838D01*
X93597348Y-108764261D01*
X93631003Y-108754051D01*
X93672138Y-108750000D01*
X96401862Y-108750000D01*
X96442997Y-108754051D01*
G37*
G36*
X92042997Y-108754051D02*
G01*
X92076652Y-108764261D01*
X92107665Y-108780838D01*
X92134851Y-108803149D01*
X92157162Y-108830335D01*
X92173739Y-108861348D01*
X92183949Y-108895003D01*
X92188000Y-108936138D01*
X92188000Y-110265862D01*
X92183949Y-110306997D01*
X92173739Y-110340652D01*
X92157162Y-110371665D01*
X92134851Y-110398851D01*
X92107665Y-110421162D01*
X92076652Y-110437739D01*
X92042997Y-110447949D01*
X92001862Y-110452000D01*
X89272138Y-110452000D01*
X89231003Y-110447949D01*
X89197348Y-110437739D01*
X89166335Y-110421162D01*
X89139149Y-110398851D01*
X89116838Y-110371665D01*
X89100261Y-110340652D01*
X89090051Y-110306997D01*
X89086000Y-110265862D01*
X89086000Y-108936138D01*
X89090051Y-108895003D01*
X89100261Y-108861348D01*
X89116838Y-108830335D01*
X89139149Y-108803149D01*
X89166335Y-108780838D01*
X89197348Y-108764261D01*
X89231003Y-108754051D01*
X89272138Y-108750000D01*
X92001862Y-108750000D01*
X92042997Y-108754051D01*
G37*
G36*
X78342499Y-104937445D02*
G01*
X78379995Y-104948820D01*
X78414554Y-104967292D01*
X78444847Y-104992153D01*
X78469708Y-105022446D01*
X78488180Y-105057005D01*
X78499555Y-105094501D01*
X78504000Y-105139638D01*
X78504000Y-105878362D01*
X78499555Y-105923499D01*
X78488180Y-105960995D01*
X78469708Y-105995554D01*
X78444847Y-106025847D01*
X78414554Y-106050708D01*
X78379995Y-106069180D01*
X78342499Y-106080555D01*
X78297362Y-106085000D01*
X77658638Y-106085000D01*
X77613501Y-106080555D01*
X77576005Y-106069180D01*
X77541446Y-106050708D01*
X77511153Y-106025847D01*
X77486292Y-105995554D01*
X77467820Y-105960995D01*
X77456445Y-105923499D01*
X77452000Y-105878362D01*
X77452000Y-105139638D01*
X77456445Y-105094501D01*
X77467820Y-105057005D01*
X77486292Y-105022446D01*
X77511153Y-104992153D01*
X77541446Y-104967292D01*
X77576005Y-104948820D01*
X77613501Y-104937445D01*
X77658638Y-104933000D01*
X78297362Y-104933000D01*
X78342499Y-104937445D01*
G37*
G36*
X75073000Y-106037000D02*
G01*
X73771000Y-106037000D01*
X73771000Y-105035000D01*
X75073000Y-105035000D01*
X75073000Y-106037000D01*
G37*
G36*
X95139000Y-106037000D02*
G01*
X93837000Y-106037000D01*
X93837000Y-105035000D01*
X95139000Y-105035000D01*
X95139000Y-106037000D01*
G37*
G36*
X91296499Y-104887945D02*
G01*
X91333995Y-104899320D01*
X91368554Y-104917792D01*
X91398847Y-104942653D01*
X91423708Y-104972946D01*
X91442180Y-105007505D01*
X91453555Y-105045001D01*
X91458000Y-105090138D01*
X91458000Y-105828862D01*
X91453555Y-105873999D01*
X91442180Y-105911495D01*
X91423708Y-105946054D01*
X91398847Y-105976347D01*
X91368554Y-106001208D01*
X91333995Y-106019680D01*
X91296499Y-106031055D01*
X91251362Y-106035500D01*
X90612638Y-106035500D01*
X90567501Y-106031055D01*
X90530005Y-106019680D01*
X90495446Y-106001208D01*
X90465153Y-105976347D01*
X90440292Y-105946054D01*
X90421820Y-105911495D01*
X90410445Y-105873999D01*
X90406000Y-105828862D01*
X90406000Y-105090138D01*
X90410445Y-105045001D01*
X90421820Y-105007505D01*
X90440292Y-104972946D01*
X90465153Y-104942653D01*
X90495446Y-104917792D01*
X90530005Y-104899320D01*
X90567501Y-104887945D01*
X90612638Y-104883500D01*
X91251362Y-104883500D01*
X91296499Y-104887945D01*
G37*
G36*
X78342499Y-103187445D02*
G01*
X78379995Y-103198820D01*
X78414554Y-103217292D01*
X78444847Y-103242153D01*
X78469708Y-103272446D01*
X78488180Y-103307005D01*
X78499555Y-103344501D01*
X78504000Y-103389638D01*
X78504000Y-104128362D01*
X78499555Y-104173499D01*
X78488180Y-104210995D01*
X78469708Y-104245554D01*
X78444847Y-104275847D01*
X78414554Y-104300708D01*
X78379995Y-104319180D01*
X78342499Y-104330555D01*
X78297362Y-104335000D01*
X77658638Y-104335000D01*
X77613501Y-104330555D01*
X77576005Y-104319180D01*
X77541446Y-104300708D01*
X77511153Y-104275847D01*
X77486292Y-104245554D01*
X77467820Y-104210995D01*
X77456445Y-104173499D01*
X77452000Y-104128362D01*
X77452000Y-103389638D01*
X77456445Y-103344501D01*
X77467820Y-103307005D01*
X77486292Y-103272446D01*
X77511153Y-103242153D01*
X77541446Y-103217292D01*
X77576005Y-103198820D01*
X77613501Y-103187445D01*
X77658638Y-103183000D01*
X78297362Y-103183000D01*
X78342499Y-103187445D01*
G37*
G36*
X91296499Y-103137945D02*
G01*
X91333995Y-103149320D01*
X91368554Y-103167792D01*
X91398847Y-103192653D01*
X91423708Y-103222946D01*
X91442180Y-103257505D01*
X91453555Y-103295001D01*
X91458000Y-103340138D01*
X91458000Y-104078862D01*
X91453555Y-104123999D01*
X91442180Y-104161495D01*
X91423708Y-104196054D01*
X91398847Y-104226347D01*
X91368554Y-104251208D01*
X91333995Y-104269680D01*
X91296499Y-104281055D01*
X91251362Y-104285500D01*
X90612638Y-104285500D01*
X90567501Y-104281055D01*
X90530005Y-104269680D01*
X90495446Y-104251208D01*
X90465153Y-104226347D01*
X90440292Y-104196054D01*
X90421820Y-104161495D01*
X90410445Y-104123999D01*
X90406000Y-104078862D01*
X90406000Y-103340138D01*
X90410445Y-103295001D01*
X90421820Y-103257505D01*
X90440292Y-103222946D01*
X90465153Y-103192653D01*
X90495446Y-103167792D01*
X90530005Y-103149320D01*
X90567501Y-103137945D01*
X90612638Y-103133500D01*
X91251362Y-103133500D01*
X91296499Y-103137945D01*
G37*
G36*
X86557446Y-101805781D02*
G01*
X86627783Y-101819772D01*
X86826551Y-101902105D01*
X86916600Y-101962274D01*
X87005436Y-102021632D01*
X87157568Y-102173764D01*
X87277096Y-102352651D01*
X87359428Y-102551418D01*
X87393103Y-102720714D01*
X87400216Y-102744163D01*
X87411767Y-102765774D01*
X87427312Y-102784716D01*
X87446254Y-102800261D01*
X87467865Y-102811812D01*
X87491314Y-102818925D01*
X87515700Y-102821327D01*
X87540086Y-102818925D01*
X87563535Y-102811812D01*
X87585146Y-102800261D01*
X87604088Y-102784716D01*
X87619633Y-102765774D01*
X87631184Y-102744163D01*
X87638297Y-102720714D01*
X87671972Y-102551418D01*
X87754304Y-102352651D01*
X87873832Y-102173764D01*
X88025964Y-102021632D01*
X88114800Y-101962274D01*
X88204849Y-101902105D01*
X88403617Y-101819772D01*
X88473954Y-101805781D01*
X88614626Y-101777800D01*
X88829774Y-101777800D01*
X88970446Y-101805781D01*
X89040783Y-101819772D01*
X89239551Y-101902105D01*
X89418437Y-102021633D01*
X89570567Y-102173763D01*
X89690095Y-102352649D01*
X89772428Y-102551417D01*
X89814400Y-102762428D01*
X89814400Y-102977572D01*
X89772428Y-103188583D01*
X89690095Y-103387351D01*
X89570567Y-103566237D01*
X89418437Y-103718367D01*
X89239551Y-103837895D01*
X89040783Y-103920228D01*
X88970446Y-103934219D01*
X88829774Y-103962200D01*
X88614626Y-103962200D01*
X88473954Y-103934219D01*
X88403617Y-103920228D01*
X88204849Y-103837895D01*
X88025963Y-103718367D01*
X87873833Y-103566237D01*
X87754305Y-103387351D01*
X87671972Y-103188583D01*
X87638297Y-103019286D01*
X87631184Y-102995837D01*
X87619633Y-102974226D01*
X87604088Y-102955284D01*
X87585146Y-102939739D01*
X87563535Y-102928188D01*
X87540086Y-102921075D01*
X87515700Y-102918673D01*
X87491314Y-102921075D01*
X87467865Y-102928188D01*
X87446254Y-102939739D01*
X87427312Y-102955284D01*
X87411767Y-102974226D01*
X87400216Y-102995837D01*
X87393103Y-103019286D01*
X87359428Y-103188583D01*
X87277095Y-103387351D01*
X87157567Y-103566237D01*
X87005437Y-103718367D01*
X86826551Y-103837895D01*
X86627783Y-103920228D01*
X86557446Y-103934219D01*
X86416774Y-103962200D01*
X86201626Y-103962200D01*
X86060954Y-103934219D01*
X85990617Y-103920228D01*
X85791849Y-103837895D01*
X85612963Y-103718367D01*
X85460833Y-103566237D01*
X85341305Y-103387351D01*
X85258972Y-103188583D01*
X85217000Y-102977572D01*
X85217000Y-102762428D01*
X85258972Y-102551417D01*
X85341305Y-102352649D01*
X85460833Y-102173763D01*
X85612963Y-102021633D01*
X85791849Y-101902105D01*
X85990617Y-101819772D01*
X86060954Y-101805781D01*
X86201626Y-101777800D01*
X86416774Y-101777800D01*
X86557446Y-101805781D01*
G37*
G36*
X80436046Y-101805781D02*
G01*
X80506383Y-101819772D01*
X80705151Y-101902105D01*
X80795200Y-101962274D01*
X80884036Y-102021632D01*
X81036168Y-102173764D01*
X81155696Y-102352651D01*
X81238028Y-102551418D01*
X81271703Y-102720714D01*
X81278816Y-102744163D01*
X81290367Y-102765774D01*
X81305912Y-102784716D01*
X81324854Y-102800261D01*
X81346465Y-102811812D01*
X81369914Y-102818925D01*
X81394300Y-102821327D01*
X81418686Y-102818925D01*
X81442135Y-102811812D01*
X81463746Y-102800261D01*
X81482688Y-102784716D01*
X81498233Y-102765774D01*
X81509784Y-102744163D01*
X81516897Y-102720714D01*
X81550572Y-102551418D01*
X81632904Y-102352651D01*
X81752432Y-102173764D01*
X81904564Y-102021632D01*
X81993400Y-101962274D01*
X82083449Y-101902105D01*
X82282217Y-101819772D01*
X82352554Y-101805781D01*
X82493226Y-101777800D01*
X82708374Y-101777800D01*
X82849046Y-101805781D01*
X82919383Y-101819772D01*
X83118151Y-101902105D01*
X83297037Y-102021633D01*
X83449167Y-102173763D01*
X83568695Y-102352649D01*
X83651028Y-102551417D01*
X83693000Y-102762428D01*
X83693000Y-102977572D01*
X83651028Y-103188583D01*
X83568695Y-103387351D01*
X83449167Y-103566237D01*
X83297037Y-103718367D01*
X83118151Y-103837895D01*
X82919383Y-103920228D01*
X82849046Y-103934219D01*
X82708374Y-103962200D01*
X82493226Y-103962200D01*
X82352554Y-103934219D01*
X82282217Y-103920228D01*
X82083449Y-103837895D01*
X81904563Y-103718367D01*
X81752433Y-103566237D01*
X81632905Y-103387351D01*
X81550572Y-103188583D01*
X81516897Y-103019286D01*
X81509784Y-102995837D01*
X81498233Y-102974226D01*
X81482688Y-102955284D01*
X81463746Y-102939739D01*
X81442135Y-102928188D01*
X81418686Y-102921075D01*
X81394300Y-102918673D01*
X81369914Y-102921075D01*
X81346465Y-102928188D01*
X81324854Y-102939739D01*
X81305912Y-102955284D01*
X81290367Y-102974226D01*
X81278816Y-102995837D01*
X81271703Y-103019286D01*
X81238028Y-103188583D01*
X81155695Y-103387351D01*
X81036167Y-103566237D01*
X80884037Y-103718367D01*
X80705151Y-103837895D01*
X80506383Y-103920228D01*
X80436046Y-103934219D01*
X80295374Y-103962200D01*
X80080226Y-103962200D01*
X79939554Y-103934219D01*
X79869217Y-103920228D01*
X79670449Y-103837895D01*
X79491563Y-103718367D01*
X79339433Y-103566237D01*
X79219905Y-103387351D01*
X79137572Y-103188583D01*
X79095600Y-102977572D01*
X79095600Y-102762428D01*
X79137572Y-102551417D01*
X79219905Y-102352649D01*
X79339433Y-102173763D01*
X79491563Y-102021633D01*
X79670449Y-101902105D01*
X79869217Y-101819772D01*
X79939554Y-101805781D01*
X80080226Y-101777800D01*
X80295374Y-101777800D01*
X80436046Y-101805781D01*
G37*
G36*
X71876246Y-101805781D02*
G01*
X71946583Y-101819772D01*
X72145351Y-101902105D01*
X72324237Y-102021633D01*
X72476367Y-102173763D01*
X72595895Y-102352649D01*
X72678228Y-102551417D01*
X72720200Y-102762428D01*
X72720200Y-102977572D01*
X72678228Y-103188583D01*
X72595895Y-103387351D01*
X72476367Y-103566237D01*
X72324237Y-103718367D01*
X72145351Y-103837895D01*
X71946583Y-103920228D01*
X71876246Y-103934219D01*
X71735574Y-103962200D01*
X71520426Y-103962200D01*
X71379754Y-103934219D01*
X71309417Y-103920228D01*
X71110649Y-103837895D01*
X70931763Y-103718367D01*
X70779633Y-103566237D01*
X70660105Y-103387351D01*
X70577772Y-103188583D01*
X70535800Y-102977572D01*
X70535800Y-102762428D01*
X70577772Y-102551417D01*
X70660105Y-102352649D01*
X70779633Y-102173763D01*
X70931763Y-102021633D01*
X71110649Y-101902105D01*
X71309417Y-101819772D01*
X71379754Y-101805781D01*
X71520426Y-101777800D01*
X71735574Y-101777800D01*
X71876246Y-101805781D01*
G37*
G36*
X97530246Y-101805781D02*
G01*
X97600583Y-101819772D01*
X97799351Y-101902105D01*
X97978237Y-102021633D01*
X98130367Y-102173763D01*
X98249895Y-102352649D01*
X98332228Y-102551417D01*
X98374200Y-102762428D01*
X98374200Y-102977572D01*
X98332228Y-103188583D01*
X98249895Y-103387351D01*
X98130367Y-103566237D01*
X97978237Y-103718367D01*
X97799351Y-103837895D01*
X97600583Y-103920228D01*
X97530246Y-103934219D01*
X97389574Y-103962200D01*
X97174426Y-103962200D01*
X97033754Y-103934219D01*
X96963417Y-103920228D01*
X96764649Y-103837895D01*
X96585763Y-103718367D01*
X96433633Y-103566237D01*
X96314105Y-103387351D01*
X96231772Y-103188583D01*
X96189800Y-102977572D01*
X96189800Y-102762428D01*
X96231772Y-102551417D01*
X96314105Y-102352649D01*
X96433633Y-102173763D01*
X96585763Y-102021633D01*
X96764649Y-101902105D01*
X96963417Y-101819772D01*
X97033754Y-101805781D01*
X97174426Y-101777800D01*
X97389574Y-101777800D01*
X97530246Y-101805781D01*
G37*
G36*
X95139000Y-102737000D02*
G01*
X93837000Y-102737000D01*
X93837000Y-101735000D01*
X95139000Y-101735000D01*
X95139000Y-102737000D01*
G37*
G36*
X75073000Y-102737000D02*
G01*
X73771000Y-102737000D01*
X73771000Y-101735000D01*
X75073000Y-101735000D01*
X75073000Y-102737000D01*
G37*
G36*
X86665000Y-100635000D02*
G01*
X85039000Y-100635000D01*
X85039000Y-99009000D01*
X86665000Y-99009000D01*
X86665000Y-100635000D01*
G37*
G36*
X83549142Y-99040242D02*
G01*
X83697101Y-99101529D01*
X83830255Y-99190499D01*
X83943501Y-99303745D01*
X84032471Y-99436899D01*
X84093758Y-99584858D01*
X84125000Y-99741925D01*
X84125000Y-99902075D01*
X84093758Y-100059142D01*
X84032471Y-100207101D01*
X83943501Y-100340255D01*
X83830255Y-100453501D01*
X83697101Y-100542471D01*
X83549142Y-100603758D01*
X83392075Y-100635000D01*
X83231925Y-100635000D01*
X83074858Y-100603758D01*
X82926899Y-100542471D01*
X82793745Y-100453501D01*
X82680499Y-100340255D01*
X82591529Y-100207101D01*
X82530242Y-100059142D01*
X82499000Y-99902075D01*
X82499000Y-99741925D01*
X82530242Y-99584858D01*
X82591529Y-99436899D01*
X82680499Y-99303745D01*
X82793745Y-99190499D01*
X82926899Y-99101529D01*
X83074858Y-99040242D01*
X83231925Y-99009000D01*
X83392075Y-99009000D01*
X83549142Y-99040242D01*
G37*
G36*
X86089142Y-96500242D02*
G01*
X86237101Y-96561529D01*
X86370255Y-96650499D01*
X86483501Y-96763745D01*
X86572471Y-96896899D01*
X86633758Y-97044858D01*
X86665000Y-97201925D01*
X86665000Y-97362075D01*
X86633758Y-97519142D01*
X86572471Y-97667101D01*
X86483501Y-97800255D01*
X86370255Y-97913501D01*
X86237101Y-98002471D01*
X86089142Y-98063758D01*
X85932075Y-98095000D01*
X85771925Y-98095000D01*
X85614858Y-98063758D01*
X85466899Y-98002471D01*
X85333745Y-97913501D01*
X85220499Y-97800255D01*
X85131529Y-97667101D01*
X85070242Y-97519142D01*
X85039000Y-97362075D01*
X85039000Y-97201925D01*
X85070242Y-97044858D01*
X85131529Y-96896899D01*
X85220499Y-96763745D01*
X85333745Y-96650499D01*
X85466899Y-96561529D01*
X85614858Y-96500242D01*
X85771925Y-96469000D01*
X85932075Y-96469000D01*
X86089142Y-96500242D01*
G37*
G36*
X83549142Y-96500242D02*
G01*
X83697101Y-96561529D01*
X83830255Y-96650499D01*
X83943501Y-96763745D01*
X84032471Y-96896899D01*
X84093758Y-97044858D01*
X84125000Y-97201925D01*
X84125000Y-97362075D01*
X84093758Y-97519142D01*
X84032471Y-97667101D01*
X83943501Y-97800255D01*
X83830255Y-97913501D01*
X83697101Y-98002471D01*
X83549142Y-98063758D01*
X83392075Y-98095000D01*
X83231925Y-98095000D01*
X83074858Y-98063758D01*
X82926899Y-98002471D01*
X82793745Y-97913501D01*
X82680499Y-97800255D01*
X82591529Y-97667101D01*
X82530242Y-97519142D01*
X82499000Y-97362075D01*
X82499000Y-97201925D01*
X82530242Y-97044858D01*
X82591529Y-96896899D01*
X82680499Y-96763745D01*
X82793745Y-96650499D01*
X82926899Y-96561529D01*
X83074858Y-96500242D01*
X83231925Y-96469000D01*
X83392075Y-96469000D01*
X83549142Y-96500242D01*
G37*
G36*
X72051193Y-94447086D02*
G01*
X72143764Y-94475168D01*
X72229079Y-94520770D01*
X72303860Y-94582140D01*
X72365230Y-94656921D01*
X72410832Y-94742236D01*
X72438914Y-94834807D01*
X72449000Y-94937220D01*
X72449000Y-95562780D01*
X72438914Y-95665193D01*
X72410832Y-95757764D01*
X72365230Y-95843079D01*
X72303860Y-95917860D01*
X72229079Y-95979230D01*
X72143764Y-96024832D01*
X72051193Y-96052914D01*
X71948780Y-96063000D01*
X70799220Y-96063000D01*
X70696807Y-96052914D01*
X70604236Y-96024832D01*
X70518921Y-95979230D01*
X70444140Y-95917860D01*
X70382770Y-95843079D01*
X70337168Y-95757764D01*
X70309086Y-95665193D01*
X70299000Y-95562780D01*
X70299000Y-94937220D01*
X70309086Y-94834807D01*
X70337168Y-94742236D01*
X70382770Y-94656921D01*
X70444140Y-94582140D01*
X70518921Y-94520770D01*
X70604236Y-94475168D01*
X70696807Y-94447086D01*
X70799220Y-94437000D01*
X71948780Y-94437000D01*
X72051193Y-94447086D01*
G37*
G36*
X98213193Y-94447086D02*
G01*
X98305764Y-94475168D01*
X98391079Y-94520770D01*
X98465860Y-94582140D01*
X98527230Y-94656921D01*
X98572832Y-94742236D01*
X98600914Y-94834807D01*
X98611000Y-94937220D01*
X98611000Y-95562780D01*
X98600914Y-95665193D01*
X98572832Y-95757764D01*
X98527230Y-95843079D01*
X98465860Y-95917860D01*
X98391079Y-95979230D01*
X98305764Y-96024832D01*
X98213193Y-96052914D01*
X98110780Y-96063000D01*
X96961220Y-96063000D01*
X96858807Y-96052914D01*
X96766236Y-96024832D01*
X96680921Y-95979230D01*
X96606140Y-95917860D01*
X96544770Y-95843079D01*
X96499168Y-95757764D01*
X96471086Y-95665193D01*
X96461000Y-95562780D01*
X96461000Y-94937220D01*
X96471086Y-94834807D01*
X96499168Y-94742236D01*
X96544770Y-94656921D01*
X96606140Y-94582140D01*
X96680921Y-94520770D01*
X96766236Y-94475168D01*
X96858807Y-94447086D01*
X96961220Y-94437000D01*
X98110780Y-94437000D01*
X98213193Y-94447086D01*
G37*
G36*
X86089142Y-93960242D02*
G01*
X86237101Y-94021529D01*
X86370255Y-94110499D01*
X86483501Y-94223745D01*
X86572471Y-94356899D01*
X86633758Y-94504858D01*
X86665000Y-94661925D01*
X86665000Y-94822075D01*
X86633758Y-94979142D01*
X86572471Y-95127101D01*
X86483501Y-95260255D01*
X86370255Y-95373501D01*
X86237101Y-95462471D01*
X86089142Y-95523758D01*
X85932075Y-95555000D01*
X85771925Y-95555000D01*
X85614858Y-95523758D01*
X85466899Y-95462471D01*
X85333745Y-95373501D01*
X85220499Y-95260255D01*
X85131529Y-95127101D01*
X85070242Y-94979142D01*
X85039000Y-94822075D01*
X85039000Y-94661925D01*
X85070242Y-94504858D01*
X85131529Y-94356899D01*
X85220499Y-94223745D01*
X85333745Y-94110499D01*
X85466899Y-94021529D01*
X85614858Y-93960242D01*
X85771925Y-93929000D01*
X85932075Y-93929000D01*
X86089142Y-93960242D01*
G37*
G36*
X83549142Y-93960242D02*
G01*
X83697101Y-94021529D01*
X83830255Y-94110499D01*
X83943501Y-94223745D01*
X84032471Y-94356899D01*
X84093758Y-94504858D01*
X84125000Y-94661925D01*
X84125000Y-94822075D01*
X84093758Y-94979142D01*
X84032471Y-95127101D01*
X83943501Y-95260255D01*
X83830255Y-95373501D01*
X83697101Y-95462471D01*
X83549142Y-95523758D01*
X83392075Y-95555000D01*
X83231925Y-95555000D01*
X83074858Y-95523758D01*
X82926899Y-95462471D01*
X82793745Y-95373501D01*
X82680499Y-95260255D01*
X82591529Y-95127101D01*
X82530242Y-94979142D01*
X82499000Y-94822075D01*
X82499000Y-94661925D01*
X82530242Y-94504858D01*
X82591529Y-94356899D01*
X82680499Y-94223745D01*
X82793745Y-94110499D01*
X82926899Y-94021529D01*
X83074858Y-93960242D01*
X83231925Y-93929000D01*
X83392075Y-93929000D01*
X83549142Y-93960242D01*
G37*
G36*
X89812395Y-93065546D02*
G01*
X89985466Y-93137234D01*
X89985467Y-93137235D01*
X90141227Y-93241310D01*
X90273690Y-93373773D01*
X90273691Y-93373775D01*
X90377766Y-93529534D01*
X90449454Y-93702605D01*
X90486000Y-93886333D01*
X90486000Y-94073667D01*
X90449454Y-94257395D01*
X90377766Y-94430466D01*
X90377765Y-94430467D01*
X90273690Y-94586227D01*
X90141227Y-94718690D01*
X90067070Y-94768240D01*
X89985466Y-94822766D01*
X89812395Y-94894454D01*
X89628667Y-94931000D01*
X89441333Y-94931000D01*
X89257605Y-94894454D01*
X89084534Y-94822766D01*
X89002930Y-94768240D01*
X88928773Y-94718690D01*
X88796310Y-94586227D01*
X88692235Y-94430467D01*
X88692234Y-94430466D01*
X88620546Y-94257395D01*
X88584000Y-94073667D01*
X88584000Y-93886333D01*
X88620546Y-93702605D01*
X88692234Y-93529534D01*
X88796309Y-93373775D01*
X88796310Y-93373773D01*
X88928773Y-93241310D01*
X89084533Y-93137235D01*
X89084534Y-93137234D01*
X89257605Y-93065546D01*
X89441333Y-93029000D01*
X89628667Y-93029000D01*
X89812395Y-93065546D01*
G37*
G36*
X79652395Y-93065546D02*
G01*
X79825466Y-93137234D01*
X79825467Y-93137235D01*
X79981227Y-93241310D01*
X80113690Y-93373773D01*
X80113691Y-93373775D01*
X80217766Y-93529534D01*
X80289454Y-93702605D01*
X80326000Y-93886333D01*
X80326000Y-94073667D01*
X80289454Y-94257395D01*
X80217766Y-94430466D01*
X80217765Y-94430467D01*
X80113690Y-94586227D01*
X79981227Y-94718690D01*
X79907070Y-94768240D01*
X79825466Y-94822766D01*
X79652395Y-94894454D01*
X79468667Y-94931000D01*
X79281333Y-94931000D01*
X79097605Y-94894454D01*
X78924534Y-94822766D01*
X78842930Y-94768240D01*
X78768773Y-94718690D01*
X78636310Y-94586227D01*
X78532235Y-94430467D01*
X78532234Y-94430466D01*
X78460546Y-94257395D01*
X78424000Y-94073667D01*
X78424000Y-93886333D01*
X78460546Y-93702605D01*
X78532234Y-93529534D01*
X78636309Y-93373775D01*
X78636310Y-93373773D01*
X78768773Y-93241310D01*
X78924533Y-93137235D01*
X78924534Y-93137234D01*
X79097605Y-93065546D01*
X79281333Y-93029000D01*
X79468667Y-93029000D01*
X79652395Y-93065546D01*
G37*
G36*
X77112395Y-93065546D02*
G01*
X77285466Y-93137234D01*
X77285467Y-93137235D01*
X77441227Y-93241310D01*
X77573690Y-93373773D01*
X77573691Y-93373775D01*
X77677766Y-93529534D01*
X77749454Y-93702605D01*
X77786000Y-93886333D01*
X77786000Y-94073667D01*
X77749454Y-94257395D01*
X77677766Y-94430466D01*
X77677765Y-94430467D01*
X77573690Y-94586227D01*
X77441227Y-94718690D01*
X77367070Y-94768240D01*
X77285466Y-94822766D01*
X77112395Y-94894454D01*
X76928667Y-94931000D01*
X76741333Y-94931000D01*
X76557605Y-94894454D01*
X76384534Y-94822766D01*
X76302930Y-94768240D01*
X76228773Y-94718690D01*
X76096310Y-94586227D01*
X75992235Y-94430467D01*
X75992234Y-94430466D01*
X75920546Y-94257395D01*
X75884000Y-94073667D01*
X75884000Y-93886333D01*
X75920546Y-93702605D01*
X75992234Y-93529534D01*
X76096309Y-93373775D01*
X76096310Y-93373773D01*
X76228773Y-93241310D01*
X76384533Y-93137235D01*
X76384534Y-93137234D01*
X76557605Y-93065546D01*
X76741333Y-93029000D01*
X76928667Y-93029000D01*
X77112395Y-93065546D01*
G37*
G36*
X74572395Y-93065546D02*
G01*
X74745466Y-93137234D01*
X74745467Y-93137235D01*
X74901227Y-93241310D01*
X75033690Y-93373773D01*
X75033691Y-93373775D01*
X75137766Y-93529534D01*
X75209454Y-93702605D01*
X75246000Y-93886333D01*
X75246000Y-94073667D01*
X75209454Y-94257395D01*
X75137766Y-94430466D01*
X75137765Y-94430467D01*
X75033690Y-94586227D01*
X74901227Y-94718690D01*
X74827070Y-94768240D01*
X74745466Y-94822766D01*
X74572395Y-94894454D01*
X74388667Y-94931000D01*
X74201333Y-94931000D01*
X74017605Y-94894454D01*
X73844534Y-94822766D01*
X73762930Y-94768240D01*
X73688773Y-94718690D01*
X73556310Y-94586227D01*
X73452235Y-94430467D01*
X73452234Y-94430466D01*
X73380546Y-94257395D01*
X73344000Y-94073667D01*
X73344000Y-93886333D01*
X73380546Y-93702605D01*
X73452234Y-93529534D01*
X73556309Y-93373775D01*
X73556310Y-93373773D01*
X73688773Y-93241310D01*
X73844533Y-93137235D01*
X73844534Y-93137234D01*
X74017605Y-93065546D01*
X74201333Y-93029000D01*
X74388667Y-93029000D01*
X74572395Y-93065546D01*
G37*
G36*
X94892395Y-93065546D02*
G01*
X95065466Y-93137234D01*
X95065467Y-93137235D01*
X95221227Y-93241310D01*
X95353690Y-93373773D01*
X95353691Y-93373775D01*
X95457766Y-93529534D01*
X95529454Y-93702605D01*
X95566000Y-93886333D01*
X95566000Y-94073667D01*
X95529454Y-94257395D01*
X95457766Y-94430466D01*
X95457765Y-94430467D01*
X95353690Y-94586227D01*
X95221227Y-94718690D01*
X95147070Y-94768240D01*
X95065466Y-94822766D01*
X94892395Y-94894454D01*
X94708667Y-94931000D01*
X94521333Y-94931000D01*
X94337605Y-94894454D01*
X94164534Y-94822766D01*
X94082930Y-94768240D01*
X94008773Y-94718690D01*
X93876310Y-94586227D01*
X93772235Y-94430467D01*
X93772234Y-94430466D01*
X93700546Y-94257395D01*
X93664000Y-94073667D01*
X93664000Y-93886333D01*
X93700546Y-93702605D01*
X93772234Y-93529534D01*
X93876309Y-93373775D01*
X93876310Y-93373773D01*
X94008773Y-93241310D01*
X94164533Y-93137235D01*
X94164534Y-93137234D01*
X94337605Y-93065546D01*
X94521333Y-93029000D01*
X94708667Y-93029000D01*
X94892395Y-93065546D01*
G37*
G36*
X92352395Y-93065546D02*
G01*
X92525466Y-93137234D01*
X92525467Y-93137235D01*
X92681227Y-93241310D01*
X92813690Y-93373773D01*
X92813691Y-93373775D01*
X92917766Y-93529534D01*
X92989454Y-93702605D01*
X93026000Y-93886333D01*
X93026000Y-94073667D01*
X92989454Y-94257395D01*
X92917766Y-94430466D01*
X92917765Y-94430467D01*
X92813690Y-94586227D01*
X92681227Y-94718690D01*
X92607070Y-94768240D01*
X92525466Y-94822766D01*
X92352395Y-94894454D01*
X92168667Y-94931000D01*
X91981333Y-94931000D01*
X91797605Y-94894454D01*
X91624534Y-94822766D01*
X91542930Y-94768240D01*
X91468773Y-94718690D01*
X91336310Y-94586227D01*
X91232235Y-94430467D01*
X91232234Y-94430466D01*
X91160546Y-94257395D01*
X91124000Y-94073667D01*
X91124000Y-93886333D01*
X91160546Y-93702605D01*
X91232234Y-93529534D01*
X91336309Y-93373775D01*
X91336310Y-93373773D01*
X91468773Y-93241310D01*
X91624533Y-93137235D01*
X91624534Y-93137234D01*
X91797605Y-93065546D01*
X91981333Y-93029000D01*
X92168667Y-93029000D01*
X92352395Y-93065546D01*
G37*
G36*
X72449000Y-93523000D02*
G01*
X70299000Y-93523000D01*
X70299000Y-91897000D01*
X72449000Y-91897000D01*
X72449000Y-93523000D01*
G37*
G36*
X98611000Y-93523000D02*
G01*
X96461000Y-93523000D01*
X96461000Y-91897000D01*
X98611000Y-91897000D01*
X98611000Y-93523000D01*
G37*
G36*
X83549142Y-91420242D02*
G01*
X83697101Y-91481529D01*
X83830255Y-91570499D01*
X83943501Y-91683745D01*
X84032471Y-91816899D01*
X84093758Y-91964858D01*
X84125000Y-92121925D01*
X84125000Y-92282075D01*
X84093758Y-92439142D01*
X84032471Y-92587101D01*
X83943501Y-92720255D01*
X83830255Y-92833501D01*
X83697101Y-92922471D01*
X83549142Y-92983758D01*
X83392075Y-93015000D01*
X83231925Y-93015000D01*
X83074858Y-92983758D01*
X82926899Y-92922471D01*
X82793745Y-92833501D01*
X82680499Y-92720255D01*
X82591529Y-92587101D01*
X82530242Y-92439142D01*
X82499000Y-92282075D01*
X82499000Y-92121925D01*
X82530242Y-91964858D01*
X82591529Y-91816899D01*
X82680499Y-91683745D01*
X82793745Y-91570499D01*
X82926899Y-91481529D01*
X83074858Y-91420242D01*
X83231925Y-91389000D01*
X83392075Y-91389000D01*
X83549142Y-91420242D01*
G37*
G36*
X86089142Y-91420242D02*
G01*
X86237101Y-91481529D01*
X86370255Y-91570499D01*
X86483501Y-91683745D01*
X86572471Y-91816899D01*
X86633758Y-91964858D01*
X86665000Y-92121925D01*
X86665000Y-92282075D01*
X86633758Y-92439142D01*
X86572471Y-92587101D01*
X86483501Y-92720255D01*
X86370255Y-92833501D01*
X86237101Y-92922471D01*
X86089142Y-92983758D01*
X85932075Y-93015000D01*
X85771925Y-93015000D01*
X85614858Y-92983758D01*
X85466899Y-92922471D01*
X85333745Y-92833501D01*
X85220499Y-92720255D01*
X85131529Y-92587101D01*
X85070242Y-92439142D01*
X85039000Y-92282075D01*
X85039000Y-92121925D01*
X85070242Y-91964858D01*
X85131529Y-91816899D01*
X85220499Y-91683745D01*
X85333745Y-91570499D01*
X85466899Y-91481529D01*
X85614858Y-91420242D01*
X85771925Y-91389000D01*
X85932075Y-91389000D01*
X86089142Y-91420242D01*
G37*
G36*
X83549142Y-88880242D02*
G01*
X83697101Y-88941529D01*
X83830255Y-89030499D01*
X83943501Y-89143745D01*
X84032471Y-89276899D01*
X84093758Y-89424858D01*
X84125000Y-89581925D01*
X84125000Y-89742075D01*
X84093758Y-89899142D01*
X84032471Y-90047101D01*
X83943501Y-90180255D01*
X83830255Y-90293501D01*
X83697101Y-90382471D01*
X83549142Y-90443758D01*
X83392075Y-90475000D01*
X83231925Y-90475000D01*
X83074858Y-90443758D01*
X82926899Y-90382471D01*
X82793745Y-90293501D01*
X82680499Y-90180255D01*
X82591529Y-90047101D01*
X82530242Y-89899142D01*
X82499000Y-89742075D01*
X82499000Y-89581925D01*
X82530242Y-89424858D01*
X82591529Y-89276899D01*
X82680499Y-89143745D01*
X82793745Y-89030499D01*
X82926899Y-88941529D01*
X83074858Y-88880242D01*
X83231925Y-88849000D01*
X83392075Y-88849000D01*
X83549142Y-88880242D01*
G37*
G36*
X86089142Y-88880242D02*
G01*
X86237101Y-88941529D01*
X86370255Y-89030499D01*
X86483501Y-89143745D01*
X86572471Y-89276899D01*
X86633758Y-89424858D01*
X86665000Y-89581925D01*
X86665000Y-89742075D01*
X86633758Y-89899142D01*
X86572471Y-90047101D01*
X86483501Y-90180255D01*
X86370255Y-90293501D01*
X86237101Y-90382471D01*
X86089142Y-90443758D01*
X85932075Y-90475000D01*
X85771925Y-90475000D01*
X85614858Y-90443758D01*
X85466899Y-90382471D01*
X85333745Y-90293501D01*
X85220499Y-90180255D01*
X85131529Y-90047101D01*
X85070242Y-89899142D01*
X85039000Y-89742075D01*
X85039000Y-89581925D01*
X85070242Y-89424858D01*
X85131529Y-89276899D01*
X85220499Y-89143745D01*
X85333745Y-89030499D01*
X85466899Y-88941529D01*
X85614858Y-88880242D01*
X85771925Y-88849000D01*
X85932075Y-88849000D01*
X86089142Y-88880242D01*
G37*
G36*
X78164424Y-85560760D02*
G01*
X78164427Y-85560761D01*
X78164428Y-85560761D01*
X78343692Y-85615140D01*
X78343695Y-85615142D01*
X78343696Y-85615142D01*
X78508903Y-85703446D01*
X78653712Y-85822288D01*
X78772554Y-85967097D01*
X78860858Y-86132303D01*
X78860860Y-86132307D01*
X78860860Y-86132308D01*
X78915240Y-86311575D01*
X78929000Y-86451282D01*
X78929000Y-87284717D01*
X78915240Y-87424426D01*
X78860859Y-87603695D01*
X78772554Y-87768903D01*
X78653712Y-87913712D01*
X78508903Y-88032554D01*
X78343697Y-88120858D01*
X78343693Y-88120860D01*
X78164429Y-88175239D01*
X78164428Y-88175239D01*
X78164425Y-88175240D01*
X77978000Y-88193601D01*
X77791576Y-88175240D01*
X77791573Y-88175239D01*
X77791572Y-88175239D01*
X77612308Y-88120860D01*
X77612304Y-88120858D01*
X77447098Y-88032554D01*
X77302289Y-87913712D01*
X77183447Y-87768903D01*
X77095140Y-87603692D01*
X77040760Y-87424430D01*
X77027000Y-87284718D01*
X77027000Y-86451283D01*
X77040760Y-86311576D01*
X77040761Y-86311572D01*
X77095140Y-86132308D01*
X77095143Y-86132303D01*
X77183446Y-85967097D01*
X77302288Y-85822288D01*
X77447097Y-85703446D01*
X77612303Y-85615142D01*
X77612304Y-85615142D01*
X77612307Y-85615140D01*
X77791571Y-85560761D01*
X77791572Y-85560761D01*
X77791575Y-85560760D01*
X77978000Y-85542399D01*
X78164424Y-85560760D01*
G37*
G36*
X88451424Y-85560760D02*
G01*
X88451427Y-85560761D01*
X88451428Y-85560761D01*
X88630692Y-85615140D01*
X88630695Y-85615142D01*
X88630696Y-85615142D01*
X88795903Y-85703446D01*
X88940712Y-85822288D01*
X89059554Y-85967097D01*
X89147858Y-86132303D01*
X89147860Y-86132307D01*
X89147860Y-86132308D01*
X89202240Y-86311575D01*
X89216000Y-86451282D01*
X89216000Y-87284717D01*
X89202240Y-87424426D01*
X89147859Y-87603695D01*
X89059554Y-87768903D01*
X88940712Y-87913712D01*
X88795903Y-88032554D01*
X88630697Y-88120858D01*
X88630693Y-88120860D01*
X88451429Y-88175239D01*
X88451428Y-88175239D01*
X88451425Y-88175240D01*
X88265000Y-88193601D01*
X88078576Y-88175240D01*
X88078573Y-88175239D01*
X88078572Y-88175239D01*
X87899308Y-88120860D01*
X87899304Y-88120858D01*
X87734098Y-88032554D01*
X87589289Y-87913712D01*
X87470447Y-87768903D01*
X87382140Y-87603692D01*
X87327760Y-87424430D01*
X87314000Y-87284718D01*
X87314000Y-86451283D01*
X87327760Y-86311576D01*
X87327761Y-86311572D01*
X87382140Y-86132308D01*
X87382143Y-86132303D01*
X87470446Y-85967097D01*
X87589288Y-85822288D01*
X87734097Y-85703446D01*
X87899303Y-85615142D01*
X87899304Y-85615142D01*
X87899307Y-85615140D01*
X88078571Y-85560761D01*
X88078572Y-85560761D01*
X88078575Y-85560760D01*
X88265000Y-85542399D01*
X88451424Y-85560760D01*
G37*
G36*
X90991424Y-85560760D02*
G01*
X90991427Y-85560761D01*
X90991428Y-85560761D01*
X91170692Y-85615140D01*
X91170695Y-85615142D01*
X91170696Y-85615142D01*
X91335903Y-85703446D01*
X91480712Y-85822288D01*
X91599554Y-85967097D01*
X91687858Y-86132303D01*
X91687860Y-86132307D01*
X91687860Y-86132308D01*
X91742240Y-86311575D01*
X91756000Y-86451282D01*
X91756000Y-87284717D01*
X91742240Y-87424426D01*
X91687859Y-87603695D01*
X91599554Y-87768903D01*
X91480712Y-87913712D01*
X91335903Y-88032554D01*
X91170697Y-88120858D01*
X91170693Y-88120860D01*
X90991429Y-88175239D01*
X90991428Y-88175239D01*
X90991425Y-88175240D01*
X90805000Y-88193601D01*
X90618576Y-88175240D01*
X90618573Y-88175239D01*
X90618572Y-88175239D01*
X90439308Y-88120860D01*
X90439304Y-88120858D01*
X90274098Y-88032554D01*
X90129289Y-87913712D01*
X90010447Y-87768903D01*
X89922140Y-87603692D01*
X89867760Y-87424430D01*
X89854000Y-87284718D01*
X89854000Y-86451283D01*
X89867760Y-86311576D01*
X89867761Y-86311572D01*
X89922140Y-86132308D01*
X89922143Y-86132303D01*
X90010446Y-85967097D01*
X90129288Y-85822288D01*
X90274097Y-85703446D01*
X90439303Y-85615142D01*
X90439304Y-85615142D01*
X90439307Y-85615140D01*
X90618571Y-85560761D01*
X90618572Y-85560761D01*
X90618575Y-85560760D01*
X90805000Y-85542399D01*
X90991424Y-85560760D01*
G37*
G36*
X93531424Y-85560760D02*
G01*
X93531427Y-85560761D01*
X93531428Y-85560761D01*
X93710692Y-85615140D01*
X93710695Y-85615142D01*
X93710696Y-85615142D01*
X93875903Y-85703446D01*
X94020712Y-85822288D01*
X94139554Y-85967097D01*
X94227858Y-86132303D01*
X94227860Y-86132307D01*
X94227860Y-86132308D01*
X94282240Y-86311575D01*
X94296000Y-86451282D01*
X94296000Y-87284717D01*
X94282240Y-87424426D01*
X94227859Y-87603695D01*
X94139554Y-87768903D01*
X94020712Y-87913712D01*
X93875903Y-88032554D01*
X93710697Y-88120858D01*
X93710693Y-88120860D01*
X93531429Y-88175239D01*
X93531428Y-88175239D01*
X93531425Y-88175240D01*
X93345000Y-88193601D01*
X93158576Y-88175240D01*
X93158573Y-88175239D01*
X93158572Y-88175239D01*
X92979308Y-88120860D01*
X92979304Y-88120858D01*
X92814098Y-88032554D01*
X92669289Y-87913712D01*
X92550447Y-87768903D01*
X92462140Y-87603692D01*
X92407760Y-87424430D01*
X92394000Y-87284718D01*
X92394000Y-86451283D01*
X92407760Y-86311576D01*
X92407761Y-86311572D01*
X92462140Y-86132308D01*
X92462143Y-86132303D01*
X92550446Y-85967097D01*
X92669288Y-85822288D01*
X92814097Y-85703446D01*
X92979303Y-85615142D01*
X92979304Y-85615142D01*
X92979307Y-85615140D01*
X93158571Y-85560761D01*
X93158572Y-85560761D01*
X93158575Y-85560760D01*
X93345000Y-85542399D01*
X93531424Y-85560760D01*
G37*
G36*
X96071424Y-85560760D02*
G01*
X96071427Y-85560761D01*
X96071428Y-85560761D01*
X96250692Y-85615140D01*
X96250695Y-85615142D01*
X96250696Y-85615142D01*
X96415903Y-85703446D01*
X96560712Y-85822288D01*
X96679554Y-85967097D01*
X96767858Y-86132303D01*
X96767860Y-86132307D01*
X96767860Y-86132308D01*
X96822240Y-86311575D01*
X96836000Y-86451282D01*
X96836000Y-87284717D01*
X96822240Y-87424426D01*
X96767859Y-87603695D01*
X96679554Y-87768903D01*
X96560712Y-87913712D01*
X96415903Y-88032554D01*
X96250697Y-88120858D01*
X96250693Y-88120860D01*
X96071429Y-88175239D01*
X96071428Y-88175239D01*
X96071425Y-88175240D01*
X95885000Y-88193601D01*
X95698576Y-88175240D01*
X95698573Y-88175239D01*
X95698572Y-88175239D01*
X95519308Y-88120860D01*
X95519304Y-88120858D01*
X95354098Y-88032554D01*
X95209289Y-87913712D01*
X95090447Y-87768903D01*
X95002140Y-87603692D01*
X94947760Y-87424430D01*
X94934000Y-87284718D01*
X94934000Y-86451283D01*
X94947760Y-86311576D01*
X94947761Y-86311572D01*
X95002140Y-86132308D01*
X95002143Y-86132303D01*
X95090446Y-85967097D01*
X95209288Y-85822288D01*
X95354097Y-85703446D01*
X95519303Y-85615142D01*
X95519304Y-85615142D01*
X95519307Y-85615140D01*
X95698571Y-85560761D01*
X95698572Y-85560761D01*
X95698575Y-85560760D01*
X95885000Y-85542399D01*
X96071424Y-85560760D01*
G37*
G36*
X75624424Y-85560760D02*
G01*
X75624427Y-85560761D01*
X75624428Y-85560761D01*
X75803692Y-85615140D01*
X75803695Y-85615142D01*
X75803696Y-85615142D01*
X75968903Y-85703446D01*
X76113712Y-85822288D01*
X76232554Y-85967097D01*
X76320858Y-86132303D01*
X76320860Y-86132307D01*
X76320860Y-86132308D01*
X76375240Y-86311575D01*
X76389000Y-86451282D01*
X76389000Y-87284717D01*
X76375240Y-87424426D01*
X76320859Y-87603695D01*
X76232554Y-87768903D01*
X76113712Y-87913712D01*
X75968903Y-88032554D01*
X75803697Y-88120858D01*
X75803693Y-88120860D01*
X75624429Y-88175239D01*
X75624428Y-88175239D01*
X75624425Y-88175240D01*
X75438000Y-88193601D01*
X75251576Y-88175240D01*
X75251573Y-88175239D01*
X75251572Y-88175239D01*
X75072308Y-88120860D01*
X75072304Y-88120858D01*
X74907098Y-88032554D01*
X74762289Y-87913712D01*
X74643447Y-87768903D01*
X74555140Y-87603692D01*
X74500760Y-87424430D01*
X74487000Y-87284718D01*
X74487000Y-86451283D01*
X74500760Y-86311576D01*
X74500761Y-86311572D01*
X74555140Y-86132308D01*
X74555143Y-86132303D01*
X74643446Y-85967097D01*
X74762288Y-85822288D01*
X74907097Y-85703446D01*
X75072303Y-85615142D01*
X75072304Y-85615142D01*
X75072307Y-85615140D01*
X75251571Y-85560761D01*
X75251572Y-85560761D01*
X75251575Y-85560760D01*
X75438000Y-85542399D01*
X75624424Y-85560760D01*
G37*
G36*
X80704424Y-85560760D02*
G01*
X80704427Y-85560761D01*
X80704428Y-85560761D01*
X80883692Y-85615140D01*
X80883695Y-85615142D01*
X80883696Y-85615142D01*
X81048903Y-85703446D01*
X81193712Y-85822288D01*
X81312554Y-85967097D01*
X81400858Y-86132303D01*
X81400860Y-86132307D01*
X81400860Y-86132308D01*
X81455240Y-86311575D01*
X81469000Y-86451282D01*
X81469000Y-87284717D01*
X81455240Y-87424426D01*
X81400859Y-87603695D01*
X81312554Y-87768903D01*
X81193712Y-87913712D01*
X81048903Y-88032554D01*
X80883697Y-88120858D01*
X80883693Y-88120860D01*
X80704429Y-88175239D01*
X80704428Y-88175239D01*
X80704425Y-88175240D01*
X80518000Y-88193601D01*
X80331576Y-88175240D01*
X80331573Y-88175239D01*
X80331572Y-88175239D01*
X80152308Y-88120860D01*
X80152304Y-88120858D01*
X79987098Y-88032554D01*
X79842289Y-87913712D01*
X79723447Y-87768903D01*
X79635140Y-87603692D01*
X79580760Y-87424430D01*
X79567000Y-87284718D01*
X79567000Y-86451283D01*
X79580760Y-86311576D01*
X79580761Y-86311572D01*
X79635140Y-86132308D01*
X79635143Y-86132303D01*
X79723446Y-85967097D01*
X79842288Y-85822288D01*
X79987097Y-85703446D01*
X80152303Y-85615142D01*
X80152304Y-85615142D01*
X80152307Y-85615140D01*
X80331571Y-85560761D01*
X80331572Y-85560761D01*
X80331575Y-85560760D01*
X80518000Y-85542399D01*
X80704424Y-85560760D01*
G37*
G36*
X73084424Y-85560760D02*
G01*
X73084427Y-85560761D01*
X73084428Y-85560761D01*
X73263692Y-85615140D01*
X73263695Y-85615142D01*
X73263696Y-85615142D01*
X73428903Y-85703446D01*
X73573712Y-85822288D01*
X73692554Y-85967097D01*
X73780858Y-86132303D01*
X73780860Y-86132307D01*
X73780860Y-86132308D01*
X73835240Y-86311575D01*
X73849000Y-86451282D01*
X73849000Y-87284717D01*
X73835240Y-87424426D01*
X73780859Y-87603695D01*
X73692554Y-87768903D01*
X73573712Y-87913712D01*
X73428903Y-88032554D01*
X73263697Y-88120858D01*
X73263693Y-88120860D01*
X73084429Y-88175239D01*
X73084428Y-88175239D01*
X73084425Y-88175240D01*
X72898000Y-88193601D01*
X72711576Y-88175240D01*
X72711573Y-88175239D01*
X72711572Y-88175239D01*
X72532308Y-88120860D01*
X72532304Y-88120858D01*
X72367098Y-88032554D01*
X72222289Y-87913712D01*
X72103447Y-87768903D01*
X72015140Y-87603692D01*
X71960760Y-87424430D01*
X71947000Y-87284718D01*
X71947000Y-86451283D01*
X71960760Y-86311576D01*
X71960761Y-86311572D01*
X72015140Y-86132308D01*
X72015143Y-86132303D01*
X72103446Y-85967097D01*
X72222288Y-85822288D01*
X72367097Y-85703446D01*
X72532303Y-85615142D01*
X72532304Y-85615142D01*
X72532307Y-85615140D01*
X72711571Y-85560761D01*
X72711572Y-85560761D01*
X72711575Y-85560760D01*
X72898000Y-85542399D01*
X73084424Y-85560760D01*
G37*
G36*
X80741999Y-83171445D02*
G01*
X80779495Y-83182820D01*
X80814054Y-83201292D01*
X80844347Y-83226153D01*
X80869208Y-83256446D01*
X80887680Y-83291005D01*
X80899055Y-83328501D01*
X80903500Y-83373638D01*
X80903500Y-84012362D01*
X80899055Y-84057499D01*
X80887680Y-84094995D01*
X80869208Y-84129554D01*
X80844347Y-84159847D01*
X80814054Y-84184708D01*
X80779495Y-84203180D01*
X80741999Y-84214555D01*
X80696862Y-84219000D01*
X79958138Y-84219000D01*
X79913001Y-84214555D01*
X79875505Y-84203180D01*
X79840946Y-84184708D01*
X79810653Y-84159847D01*
X79785792Y-84129554D01*
X79767320Y-84094995D01*
X79755945Y-84057499D01*
X79751500Y-84012362D01*
X79751500Y-83373638D01*
X79755945Y-83328501D01*
X79767320Y-83291005D01*
X79785792Y-83256446D01*
X79810653Y-83226153D01*
X79840946Y-83201292D01*
X79875505Y-83182820D01*
X79913001Y-83171445D01*
X79958138Y-83167000D01*
X80696862Y-83167000D01*
X80741999Y-83171445D01*
G37*
G36*
X82491999Y-83171445D02*
G01*
X82529495Y-83182820D01*
X82564054Y-83201292D01*
X82594347Y-83226153D01*
X82619208Y-83256446D01*
X82637680Y-83291005D01*
X82649055Y-83328501D01*
X82653500Y-83373638D01*
X82653500Y-84012362D01*
X82649055Y-84057499D01*
X82637680Y-84094995D01*
X82619208Y-84129554D01*
X82594347Y-84159847D01*
X82564054Y-84184708D01*
X82529495Y-84203180D01*
X82491999Y-84214555D01*
X82446862Y-84219000D01*
X81708138Y-84219000D01*
X81663001Y-84214555D01*
X81625505Y-84203180D01*
X81590946Y-84184708D01*
X81560653Y-84159847D01*
X81535792Y-84129554D01*
X81517320Y-84094995D01*
X81505945Y-84057499D01*
X81501500Y-84012362D01*
X81501500Y-83373638D01*
X81505945Y-83328501D01*
X81517320Y-83291005D01*
X81535792Y-83256446D01*
X81560653Y-83226153D01*
X81590946Y-83201292D01*
X81625505Y-83182820D01*
X81663001Y-83171445D01*
X81708138Y-83167000D01*
X82446862Y-83167000D01*
X82491999Y-83171445D01*
G37*
G36*
X97809499Y-81774445D02*
G01*
X97846995Y-81785820D01*
X97881554Y-81804292D01*
X97911847Y-81829153D01*
X97936708Y-81859446D01*
X97955180Y-81894005D01*
X97966555Y-81931501D01*
X97971000Y-81976638D01*
X97971000Y-82615362D01*
X97966555Y-82660499D01*
X97955180Y-82697995D01*
X97936708Y-82732554D01*
X97911847Y-82762847D01*
X97881554Y-82787708D01*
X97846995Y-82806180D01*
X97809499Y-82817555D01*
X97764362Y-82822000D01*
X97025638Y-82822000D01*
X96980501Y-82817555D01*
X96943005Y-82806180D01*
X96908446Y-82787708D01*
X96878153Y-82762847D01*
X96853292Y-82732554D01*
X96834820Y-82697995D01*
X96823445Y-82660499D01*
X96819000Y-82615362D01*
X96819000Y-81976638D01*
X96823445Y-81931501D01*
X96834820Y-81894005D01*
X96853292Y-81859446D01*
X96878153Y-81829153D01*
X96908446Y-81804292D01*
X96943005Y-81785820D01*
X96980501Y-81774445D01*
X97025638Y-81770000D01*
X97764362Y-81770000D01*
X97809499Y-81774445D01*
G37*
G36*
X96059499Y-81774445D02*
G01*
X96096995Y-81785820D01*
X96131554Y-81804292D01*
X96161847Y-81829153D01*
X96186708Y-81859446D01*
X96205180Y-81894005D01*
X96216555Y-81931501D01*
X96221000Y-81976638D01*
X96221000Y-82615362D01*
X96216555Y-82660499D01*
X96205180Y-82697995D01*
X96186708Y-82732554D01*
X96161847Y-82762847D01*
X96131554Y-82787708D01*
X96096995Y-82806180D01*
X96059499Y-82817555D01*
X96014362Y-82822000D01*
X95275638Y-82822000D01*
X95230501Y-82817555D01*
X95193005Y-82806180D01*
X95158446Y-82787708D01*
X95128153Y-82762847D01*
X95103292Y-82732554D01*
X95084820Y-82697995D01*
X95073445Y-82660499D01*
X95069000Y-82615362D01*
X95069000Y-81976638D01*
X95073445Y-81931501D01*
X95084820Y-81894005D01*
X95103292Y-81859446D01*
X95128153Y-81829153D01*
X95158446Y-81804292D01*
X95193005Y-81785820D01*
X95230501Y-81774445D01*
X95275638Y-81770000D01*
X96014362Y-81770000D01*
X96059499Y-81774445D01*
G37*
G36*
X72691499Y-81774445D02*
G01*
X72728995Y-81785820D01*
X72763554Y-81804292D01*
X72793847Y-81829153D01*
X72818708Y-81859446D01*
X72837180Y-81894005D01*
X72848555Y-81931501D01*
X72853000Y-81976638D01*
X72853000Y-82615362D01*
X72848555Y-82660499D01*
X72837180Y-82697995D01*
X72818708Y-82732554D01*
X72793847Y-82762847D01*
X72763554Y-82787708D01*
X72728995Y-82806180D01*
X72691499Y-82817555D01*
X72646362Y-82822000D01*
X71907638Y-82822000D01*
X71862501Y-82817555D01*
X71825005Y-82806180D01*
X71790446Y-82787708D01*
X71760153Y-82762847D01*
X71735292Y-82732554D01*
X71716820Y-82697995D01*
X71705445Y-82660499D01*
X71701000Y-82615362D01*
X71701000Y-81976638D01*
X71705445Y-81931501D01*
X71716820Y-81894005D01*
X71735292Y-81859446D01*
X71760153Y-81829153D01*
X71790446Y-81804292D01*
X71825005Y-81785820D01*
X71862501Y-81774445D01*
X71907638Y-81770000D01*
X72646362Y-81770000D01*
X72691499Y-81774445D01*
G37*
G36*
X74441499Y-81774445D02*
G01*
X74478995Y-81785820D01*
X74513554Y-81804292D01*
X74543847Y-81829153D01*
X74568708Y-81859446D01*
X74587180Y-81894005D01*
X74598555Y-81931501D01*
X74603000Y-81976638D01*
X74603000Y-82615362D01*
X74598555Y-82660499D01*
X74587180Y-82697995D01*
X74568708Y-82732554D01*
X74543847Y-82762847D01*
X74513554Y-82787708D01*
X74478995Y-82806180D01*
X74441499Y-82817555D01*
X74396362Y-82822000D01*
X73657638Y-82822000D01*
X73612501Y-82817555D01*
X73575005Y-82806180D01*
X73540446Y-82787708D01*
X73510153Y-82762847D01*
X73485292Y-82732554D01*
X73466820Y-82697995D01*
X73455445Y-82660499D01*
X73451000Y-82615362D01*
X73451000Y-81976638D01*
X73455445Y-81931501D01*
X73466820Y-81894005D01*
X73485292Y-81859446D01*
X73510153Y-81829153D01*
X73540446Y-81804292D01*
X73575005Y-81785820D01*
X73612501Y-81774445D01*
X73657638Y-81770000D01*
X74396362Y-81770000D01*
X74441499Y-81774445D01*
G37*
G36*
X80361000Y-81821000D02*
G01*
X79659000Y-81821000D01*
X79659000Y-80219000D01*
X80361000Y-80219000D01*
X80361000Y-81821000D01*
G37*
G36*
X81631000Y-81821000D02*
G01*
X80929000Y-81821000D01*
X80929000Y-80219000D01*
X81631000Y-80219000D01*
X81631000Y-81821000D01*
G37*
G36*
X89251000Y-81821000D02*
G01*
X88549000Y-81821000D01*
X88549000Y-80219000D01*
X89251000Y-80219000D01*
X89251000Y-81821000D01*
G37*
G36*
X87981000Y-81821000D02*
G01*
X87279000Y-81821000D01*
X87279000Y-80219000D01*
X87981000Y-80219000D01*
X87981000Y-81821000D01*
G37*
G36*
X86711000Y-81821000D02*
G01*
X86009000Y-81821000D01*
X86009000Y-80219000D01*
X86711000Y-80219000D01*
X86711000Y-81821000D01*
G37*
G36*
X84171000Y-81821000D02*
G01*
X83469000Y-81821000D01*
X83469000Y-80219000D01*
X84171000Y-80219000D01*
X84171000Y-81821000D01*
G37*
G36*
X85441000Y-81821000D02*
G01*
X84739000Y-81821000D01*
X84739000Y-80219000D01*
X85441000Y-80219000D01*
X85441000Y-81821000D01*
G37*
G36*
X82901000Y-81821000D02*
G01*
X82199000Y-81821000D01*
X82199000Y-80219000D01*
X82901000Y-80219000D01*
X82901000Y-81821000D01*
G37*
G36*
X91882499Y-79742445D02*
G01*
X91919995Y-79753820D01*
X91954554Y-79772292D01*
X91984847Y-79797153D01*
X92009708Y-79827446D01*
X92028180Y-79862005D01*
X92039555Y-79899501D01*
X92044000Y-79944638D01*
X92044000Y-80583362D01*
X92039555Y-80628499D01*
X92028180Y-80665995D01*
X92009708Y-80700554D01*
X91984847Y-80730847D01*
X91954554Y-80755708D01*
X91919995Y-80774180D01*
X91882499Y-80785555D01*
X91837362Y-80790000D01*
X91098638Y-80790000D01*
X91053501Y-80785555D01*
X91016005Y-80774180D01*
X90981446Y-80755708D01*
X90951153Y-80730847D01*
X90926292Y-80700554D01*
X90907820Y-80665995D01*
X90896445Y-80628499D01*
X90892000Y-80583362D01*
X90892000Y-79944638D01*
X90896445Y-79899501D01*
X90907820Y-79862005D01*
X90926292Y-79827446D01*
X90951153Y-79797153D01*
X90981446Y-79772292D01*
X91016005Y-79753820D01*
X91053501Y-79742445D01*
X91098638Y-79738000D01*
X91837362Y-79738000D01*
X91882499Y-79742445D01*
G37*
G36*
X74441499Y-79742445D02*
G01*
X74478995Y-79753820D01*
X74513554Y-79772292D01*
X74543847Y-79797153D01*
X74568708Y-79827446D01*
X74587180Y-79862005D01*
X74598555Y-79899501D01*
X74603000Y-79944638D01*
X74603000Y-80583362D01*
X74598555Y-80628499D01*
X74587180Y-80665995D01*
X74568708Y-80700554D01*
X74543847Y-80730847D01*
X74513554Y-80755708D01*
X74478995Y-80774180D01*
X74441499Y-80785555D01*
X74396362Y-80790000D01*
X73657638Y-80790000D01*
X73612501Y-80785555D01*
X73575005Y-80774180D01*
X73540446Y-80755708D01*
X73510153Y-80730847D01*
X73485292Y-80700554D01*
X73466820Y-80665995D01*
X73455445Y-80628499D01*
X73451000Y-80583362D01*
X73451000Y-79944638D01*
X73455445Y-79899501D01*
X73466820Y-79862005D01*
X73485292Y-79827446D01*
X73510153Y-79797153D01*
X73540446Y-79772292D01*
X73575005Y-79753820D01*
X73612501Y-79742445D01*
X73657638Y-79738000D01*
X74396362Y-79738000D01*
X74441499Y-79742445D01*
G37*
G36*
X93632499Y-79742445D02*
G01*
X93669995Y-79753820D01*
X93704554Y-79772292D01*
X93734847Y-79797153D01*
X93759708Y-79827446D01*
X93778180Y-79862005D01*
X93789555Y-79899501D01*
X93794000Y-79944638D01*
X93794000Y-80583362D01*
X93789555Y-80628499D01*
X93778180Y-80665995D01*
X93759708Y-80700554D01*
X93734847Y-80730847D01*
X93704554Y-80755708D01*
X93669995Y-80774180D01*
X93632499Y-80785555D01*
X93587362Y-80790000D01*
X92848638Y-80790000D01*
X92803501Y-80785555D01*
X92766005Y-80774180D01*
X92731446Y-80755708D01*
X92701153Y-80730847D01*
X92676292Y-80700554D01*
X92657820Y-80665995D01*
X92646445Y-80628499D01*
X92642000Y-80583362D01*
X92642000Y-79944638D01*
X92646445Y-79899501D01*
X92657820Y-79862005D01*
X92676292Y-79827446D01*
X92701153Y-79797153D01*
X92731446Y-79772292D01*
X92766005Y-79753820D01*
X92803501Y-79742445D01*
X92848638Y-79738000D01*
X93587362Y-79738000D01*
X93632499Y-79742445D01*
G37*
G36*
X72691499Y-79742445D02*
G01*
X72728995Y-79753820D01*
X72763554Y-79772292D01*
X72793847Y-79797153D01*
X72818708Y-79827446D01*
X72837180Y-79862005D01*
X72848555Y-79899501D01*
X72853000Y-79944638D01*
X72853000Y-80583362D01*
X72848555Y-80628499D01*
X72837180Y-80665995D01*
X72818708Y-80700554D01*
X72793847Y-80730847D01*
X72763554Y-80755708D01*
X72728995Y-80774180D01*
X72691499Y-80785555D01*
X72646362Y-80790000D01*
X71907638Y-80790000D01*
X71862501Y-80785555D01*
X71825005Y-80774180D01*
X71790446Y-80755708D01*
X71760153Y-80730847D01*
X71735292Y-80700554D01*
X71716820Y-80665995D01*
X71705445Y-80628499D01*
X71701000Y-80583362D01*
X71701000Y-79944638D01*
X71705445Y-79899501D01*
X71716820Y-79862005D01*
X71735292Y-79827446D01*
X71760153Y-79797153D01*
X71790446Y-79772292D01*
X71825005Y-79753820D01*
X71862501Y-79742445D01*
X71907638Y-79738000D01*
X72646362Y-79738000D01*
X72691499Y-79742445D01*
G37*
G36*
X78490000Y-80765000D02*
G01*
X77588000Y-80765000D01*
X77588000Y-79763000D01*
X78490000Y-79763000D01*
X78490000Y-80765000D01*
G37*
G36*
X76590000Y-80765000D02*
G01*
X75688000Y-80765000D01*
X75688000Y-79763000D01*
X76590000Y-79763000D01*
X76590000Y-80765000D01*
G37*
G36*
X96021000Y-80765000D02*
G01*
X95119000Y-80765000D01*
X95119000Y-79763000D01*
X96021000Y-79763000D01*
X96021000Y-80765000D01*
G37*
G36*
X97921000Y-80765000D02*
G01*
X97019000Y-80765000D01*
X97019000Y-79763000D01*
X97921000Y-79763000D01*
X97921000Y-80765000D01*
G37*
G36*
X96971000Y-78765000D02*
G01*
X96069000Y-78765000D01*
X96069000Y-77763000D01*
X96971000Y-77763000D01*
X96971000Y-78765000D01*
G37*
G36*
X77540000Y-78765000D02*
G01*
X76638000Y-78765000D01*
X76638000Y-77763000D01*
X77540000Y-77763000D01*
X77540000Y-78765000D01*
G37*
G36*
X93632499Y-77710445D02*
G01*
X93669995Y-77721820D01*
X93704554Y-77740292D01*
X93734847Y-77765153D01*
X93759708Y-77795446D01*
X93778180Y-77830005D01*
X93789555Y-77867501D01*
X93794000Y-77912638D01*
X93794000Y-78551362D01*
X93789555Y-78596499D01*
X93778180Y-78633995D01*
X93759708Y-78668554D01*
X93734847Y-78698847D01*
X93704554Y-78723708D01*
X93669995Y-78742180D01*
X93632499Y-78753555D01*
X93587362Y-78758000D01*
X92848638Y-78758000D01*
X92803501Y-78753555D01*
X92766005Y-78742180D01*
X92731446Y-78723708D01*
X92701153Y-78698847D01*
X92676292Y-78668554D01*
X92657820Y-78633995D01*
X92646445Y-78596499D01*
X92642000Y-78551362D01*
X92642000Y-77912638D01*
X92646445Y-77867501D01*
X92657820Y-77830005D01*
X92676292Y-77795446D01*
X92701153Y-77765153D01*
X92731446Y-77740292D01*
X92766005Y-77721820D01*
X92803501Y-77710445D01*
X92848638Y-77706000D01*
X93587362Y-77706000D01*
X93632499Y-77710445D01*
G37*
G36*
X74455499Y-77710445D02*
G01*
X74492995Y-77721820D01*
X74527554Y-77740292D01*
X74557847Y-77765153D01*
X74582708Y-77795446D01*
X74601180Y-77830005D01*
X74612555Y-77867501D01*
X74617000Y-77912638D01*
X74617000Y-78551362D01*
X74612555Y-78596499D01*
X74601180Y-78633995D01*
X74582708Y-78668554D01*
X74557847Y-78698847D01*
X74527554Y-78723708D01*
X74492995Y-78742180D01*
X74455499Y-78753555D01*
X74410362Y-78758000D01*
X73671638Y-78758000D01*
X73626501Y-78753555D01*
X73589005Y-78742180D01*
X73554446Y-78723708D01*
X73524153Y-78698847D01*
X73499292Y-78668554D01*
X73480820Y-78633995D01*
X73469445Y-78596499D01*
X73465000Y-78551362D01*
X73465000Y-77912638D01*
X73469445Y-77867501D01*
X73480820Y-77830005D01*
X73499292Y-77795446D01*
X73524153Y-77765153D01*
X73554446Y-77740292D01*
X73589005Y-77721820D01*
X73626501Y-77710445D01*
X73671638Y-77706000D01*
X74410362Y-77706000D01*
X74455499Y-77710445D01*
G37*
G36*
X72705499Y-77710445D02*
G01*
X72742995Y-77721820D01*
X72777554Y-77740292D01*
X72807847Y-77765153D01*
X72832708Y-77795446D01*
X72851180Y-77830005D01*
X72862555Y-77867501D01*
X72867000Y-77912638D01*
X72867000Y-78551362D01*
X72862555Y-78596499D01*
X72851180Y-78633995D01*
X72832708Y-78668554D01*
X72807847Y-78698847D01*
X72777554Y-78723708D01*
X72742995Y-78742180D01*
X72705499Y-78753555D01*
X72660362Y-78758000D01*
X71921638Y-78758000D01*
X71876501Y-78753555D01*
X71839005Y-78742180D01*
X71804446Y-78723708D01*
X71774153Y-78698847D01*
X71749292Y-78668554D01*
X71730820Y-78633995D01*
X71719445Y-78596499D01*
X71715000Y-78551362D01*
X71715000Y-77912638D01*
X71719445Y-77867501D01*
X71730820Y-77830005D01*
X71749292Y-77795446D01*
X71774153Y-77765153D01*
X71804446Y-77740292D01*
X71839005Y-77721820D01*
X71876501Y-77710445D01*
X71921638Y-77706000D01*
X72660362Y-77706000D01*
X72705499Y-77710445D01*
G37*
G36*
X91882499Y-77710445D02*
G01*
X91919995Y-77721820D01*
X91954554Y-77740292D01*
X91984847Y-77765153D01*
X92009708Y-77795446D01*
X92028180Y-77830005D01*
X92039555Y-77867501D01*
X92044000Y-77912638D01*
X92044000Y-78551362D01*
X92039555Y-78596499D01*
X92028180Y-78633995D01*
X92009708Y-78668554D01*
X91984847Y-78698847D01*
X91954554Y-78723708D01*
X91919995Y-78742180D01*
X91882499Y-78753555D01*
X91837362Y-78758000D01*
X91098638Y-78758000D01*
X91053501Y-78753555D01*
X91016005Y-78742180D01*
X90981446Y-78723708D01*
X90951153Y-78698847D01*
X90926292Y-78668554D01*
X90907820Y-78633995D01*
X90896445Y-78596499D01*
X90892000Y-78551362D01*
X90892000Y-77912638D01*
X90896445Y-77867501D01*
X90907820Y-77830005D01*
X90926292Y-77795446D01*
X90951153Y-77765153D01*
X90981446Y-77740292D01*
X91016005Y-77721820D01*
X91053501Y-77710445D01*
X91098638Y-77706000D01*
X91837362Y-77706000D01*
X91882499Y-77710445D01*
G37*
G36*
X72691499Y-75678445D02*
G01*
X72728995Y-75689820D01*
X72763554Y-75708292D01*
X72793847Y-75733153D01*
X72818708Y-75763446D01*
X72837180Y-75798005D01*
X72848555Y-75835501D01*
X72853000Y-75880638D01*
X72853000Y-76519362D01*
X72848555Y-76564499D01*
X72837180Y-76601995D01*
X72818708Y-76636554D01*
X72793847Y-76666847D01*
X72763554Y-76691708D01*
X72728995Y-76710180D01*
X72691499Y-76721555D01*
X72646362Y-76726000D01*
X71907638Y-76726000D01*
X71862501Y-76721555D01*
X71825005Y-76710180D01*
X71790446Y-76691708D01*
X71760153Y-76666847D01*
X71735292Y-76636554D01*
X71716820Y-76601995D01*
X71705445Y-76564499D01*
X71701000Y-76519362D01*
X71701000Y-75880638D01*
X71705445Y-75835501D01*
X71716820Y-75798005D01*
X71735292Y-75763446D01*
X71760153Y-75733153D01*
X71790446Y-75708292D01*
X71825005Y-75689820D01*
X71862501Y-75678445D01*
X71907638Y-75674000D01*
X72646362Y-75674000D01*
X72691499Y-75678445D01*
G37*
G36*
X74441499Y-75678445D02*
G01*
X74478995Y-75689820D01*
X74513554Y-75708292D01*
X74543847Y-75733153D01*
X74568708Y-75763446D01*
X74587180Y-75798005D01*
X74598555Y-75835501D01*
X74603000Y-75880638D01*
X74603000Y-76519362D01*
X74598555Y-76564499D01*
X74587180Y-76601995D01*
X74568708Y-76636554D01*
X74543847Y-76666847D01*
X74513554Y-76691708D01*
X74478995Y-76710180D01*
X74441499Y-76721555D01*
X74396362Y-76726000D01*
X73657638Y-76726000D01*
X73612501Y-76721555D01*
X73575005Y-76710180D01*
X73540446Y-76691708D01*
X73510153Y-76666847D01*
X73485292Y-76636554D01*
X73466820Y-76601995D01*
X73455445Y-76564499D01*
X73451000Y-76519362D01*
X73451000Y-75880638D01*
X73455445Y-75835501D01*
X73466820Y-75798005D01*
X73485292Y-75763446D01*
X73510153Y-75733153D01*
X73540446Y-75708292D01*
X73575005Y-75689820D01*
X73612501Y-75678445D01*
X73657638Y-75674000D01*
X74396362Y-75674000D01*
X74441499Y-75678445D01*
G37*
G36*
X93632499Y-75678445D02*
G01*
X93669995Y-75689820D01*
X93704554Y-75708292D01*
X93734847Y-75733153D01*
X93759708Y-75763446D01*
X93778180Y-75798005D01*
X93789555Y-75835501D01*
X93794000Y-75880638D01*
X93794000Y-76519362D01*
X93789555Y-76564499D01*
X93778180Y-76601995D01*
X93759708Y-76636554D01*
X93734847Y-76666847D01*
X93704554Y-76691708D01*
X93669995Y-76710180D01*
X93632499Y-76721555D01*
X93587362Y-76726000D01*
X92848638Y-76726000D01*
X92803501Y-76721555D01*
X92766005Y-76710180D01*
X92731446Y-76691708D01*
X92701153Y-76666847D01*
X92676292Y-76636554D01*
X92657820Y-76601995D01*
X92646445Y-76564499D01*
X92642000Y-76519362D01*
X92642000Y-75880638D01*
X92646445Y-75835501D01*
X92657820Y-75798005D01*
X92676292Y-75763446D01*
X92701153Y-75733153D01*
X92731446Y-75708292D01*
X92766005Y-75689820D01*
X92803501Y-75678445D01*
X92848638Y-75674000D01*
X93587362Y-75674000D01*
X93632499Y-75678445D01*
G37*
G36*
X91882499Y-75678445D02*
G01*
X91919995Y-75689820D01*
X91954554Y-75708292D01*
X91984847Y-75733153D01*
X92009708Y-75763446D01*
X92028180Y-75798005D01*
X92039555Y-75835501D01*
X92044000Y-75880638D01*
X92044000Y-76519362D01*
X92039555Y-76564499D01*
X92028180Y-76601995D01*
X92009708Y-76636554D01*
X91984847Y-76666847D01*
X91954554Y-76691708D01*
X91919995Y-76710180D01*
X91882499Y-76721555D01*
X91837362Y-76726000D01*
X91098638Y-76726000D01*
X91053501Y-76721555D01*
X91016005Y-76710180D01*
X90981446Y-76691708D01*
X90951153Y-76666847D01*
X90926292Y-76636554D01*
X90907820Y-76601995D01*
X90896445Y-76564499D01*
X90892000Y-76519362D01*
X90892000Y-75880638D01*
X90896445Y-75835501D01*
X90907820Y-75798005D01*
X90926292Y-75763446D01*
X90951153Y-75733153D01*
X90981446Y-75708292D01*
X91016005Y-75689820D01*
X91053501Y-75678445D01*
X91098638Y-75674000D01*
X91837362Y-75674000D01*
X91882499Y-75678445D01*
G37*
G36*
X76590000Y-76685000D02*
G01*
X75688000Y-76685000D01*
X75688000Y-75683000D01*
X76590000Y-75683000D01*
X76590000Y-76685000D01*
G37*
G36*
X78490000Y-76685000D02*
G01*
X77588000Y-76685000D01*
X77588000Y-75683000D01*
X78490000Y-75683000D01*
X78490000Y-76685000D01*
G37*
G36*
X96021000Y-76685000D02*
G01*
X95119000Y-76685000D01*
X95119000Y-75683000D01*
X96021000Y-75683000D01*
X96021000Y-76685000D01*
G37*
G36*
X97921000Y-76685000D02*
G01*
X97019000Y-76685000D01*
X97019000Y-75683000D01*
X97921000Y-75683000D01*
X97921000Y-76685000D01*
G37*
G36*
X84171000Y-74721000D02*
G01*
X83469000Y-74721000D01*
X83469000Y-73119000D01*
X84171000Y-73119000D01*
X84171000Y-74721000D01*
G37*
G36*
X89251000Y-74721000D02*
G01*
X88549000Y-74721000D01*
X88549000Y-73119000D01*
X89251000Y-73119000D01*
X89251000Y-74721000D01*
G37*
G36*
X87981000Y-74721000D02*
G01*
X87279000Y-74721000D01*
X87279000Y-73119000D01*
X87981000Y-73119000D01*
X87981000Y-74721000D01*
G37*
G36*
X86711000Y-74721000D02*
G01*
X86009000Y-74721000D01*
X86009000Y-73119000D01*
X86711000Y-73119000D01*
X86711000Y-74721000D01*
G37*
G36*
X85441000Y-74721000D02*
G01*
X84739000Y-74721000D01*
X84739000Y-73119000D01*
X85441000Y-73119000D01*
X85441000Y-74721000D01*
G37*
G36*
X80361000Y-74721000D02*
G01*
X79659000Y-74721000D01*
X79659000Y-73119000D01*
X80361000Y-73119000D01*
X80361000Y-74721000D01*
G37*
G36*
X82901000Y-74721000D02*
G01*
X82199000Y-74721000D01*
X82199000Y-73119000D01*
X82901000Y-73119000D01*
X82901000Y-74721000D01*
G37*
G36*
X81631000Y-74721000D02*
G01*
X80929000Y-74721000D01*
X80929000Y-73119000D01*
X81631000Y-73119000D01*
X81631000Y-74721000D01*
G37*
G36*
X93632499Y-73646445D02*
G01*
X93669995Y-73657820D01*
X93704554Y-73676292D01*
X93734847Y-73701153D01*
X93759708Y-73731446D01*
X93778180Y-73766005D01*
X93789555Y-73803501D01*
X93794000Y-73848638D01*
X93794000Y-74487362D01*
X93789555Y-74532499D01*
X93778180Y-74569995D01*
X93759708Y-74604554D01*
X93734847Y-74634847D01*
X93704554Y-74659708D01*
X93669995Y-74678180D01*
X93632499Y-74689555D01*
X93587362Y-74694000D01*
X92848638Y-74694000D01*
X92803501Y-74689555D01*
X92766005Y-74678180D01*
X92731446Y-74659708D01*
X92701153Y-74634847D01*
X92676292Y-74604554D01*
X92657820Y-74569995D01*
X92646445Y-74532499D01*
X92642000Y-74487362D01*
X92642000Y-73848638D01*
X92646445Y-73803501D01*
X92657820Y-73766005D01*
X92676292Y-73731446D01*
X92701153Y-73701153D01*
X92731446Y-73676292D01*
X92766005Y-73657820D01*
X92803501Y-73646445D01*
X92848638Y-73642000D01*
X93587362Y-73642000D01*
X93632499Y-73646445D01*
G37*
G36*
X74441499Y-73646445D02*
G01*
X74478995Y-73657820D01*
X74513554Y-73676292D01*
X74543847Y-73701153D01*
X74568708Y-73731446D01*
X74587180Y-73766005D01*
X74598555Y-73803501D01*
X74603000Y-73848638D01*
X74603000Y-74487362D01*
X74598555Y-74532499D01*
X74587180Y-74569995D01*
X74568708Y-74604554D01*
X74543847Y-74634847D01*
X74513554Y-74659708D01*
X74478995Y-74678180D01*
X74441499Y-74689555D01*
X74396362Y-74694000D01*
X73657638Y-74694000D01*
X73612501Y-74689555D01*
X73575005Y-74678180D01*
X73540446Y-74659708D01*
X73510153Y-74634847D01*
X73485292Y-74604554D01*
X73466820Y-74569995D01*
X73455445Y-74532499D01*
X73451000Y-74487362D01*
X73451000Y-73848638D01*
X73455445Y-73803501D01*
X73466820Y-73766005D01*
X73485292Y-73731446D01*
X73510153Y-73701153D01*
X73540446Y-73676292D01*
X73575005Y-73657820D01*
X73612501Y-73646445D01*
X73657638Y-73642000D01*
X74396362Y-73642000D01*
X74441499Y-73646445D01*
G37*
G36*
X72691499Y-73646445D02*
G01*
X72728995Y-73657820D01*
X72763554Y-73676292D01*
X72793847Y-73701153D01*
X72818708Y-73731446D01*
X72837180Y-73766005D01*
X72848555Y-73803501D01*
X72853000Y-73848638D01*
X72853000Y-74487362D01*
X72848555Y-74532499D01*
X72837180Y-74569995D01*
X72818708Y-74604554D01*
X72793847Y-74634847D01*
X72763554Y-74659708D01*
X72728995Y-74678180D01*
X72691499Y-74689555D01*
X72646362Y-74694000D01*
X71907638Y-74694000D01*
X71862501Y-74689555D01*
X71825005Y-74678180D01*
X71790446Y-74659708D01*
X71760153Y-74634847D01*
X71735292Y-74604554D01*
X71716820Y-74569995D01*
X71705445Y-74532499D01*
X71701000Y-74487362D01*
X71701000Y-73848638D01*
X71705445Y-73803501D01*
X71716820Y-73766005D01*
X71735292Y-73731446D01*
X71760153Y-73701153D01*
X71790446Y-73676292D01*
X71825005Y-73657820D01*
X71862501Y-73646445D01*
X71907638Y-73642000D01*
X72646362Y-73642000D01*
X72691499Y-73646445D01*
G37*
G36*
X91882499Y-73646445D02*
G01*
X91919995Y-73657820D01*
X91954554Y-73676292D01*
X91984847Y-73701153D01*
X92009708Y-73731446D01*
X92028180Y-73766005D01*
X92039555Y-73803501D01*
X92044000Y-73848638D01*
X92044000Y-74487362D01*
X92039555Y-74532499D01*
X92028180Y-74569995D01*
X92009708Y-74604554D01*
X91984847Y-74634847D01*
X91954554Y-74659708D01*
X91919995Y-74678180D01*
X91882499Y-74689555D01*
X91837362Y-74694000D01*
X91098638Y-74694000D01*
X91053501Y-74689555D01*
X91016005Y-74678180D01*
X90981446Y-74659708D01*
X90951153Y-74634847D01*
X90926292Y-74604554D01*
X90907820Y-74569995D01*
X90896445Y-74532499D01*
X90892000Y-74487362D01*
X90892000Y-73848638D01*
X90896445Y-73803501D01*
X90907820Y-73766005D01*
X90926292Y-73731446D01*
X90951153Y-73701153D01*
X90981446Y-73676292D01*
X91016005Y-73657820D01*
X91053501Y-73646445D01*
X91098638Y-73642000D01*
X91837362Y-73642000D01*
X91882499Y-73646445D01*
G37*
G36*
X77540000Y-74685000D02*
G01*
X76638000Y-74685000D01*
X76638000Y-73683000D01*
X77540000Y-73683000D01*
X77540000Y-74685000D01*
G37*
G36*
X96971000Y-74685000D02*
G01*
X96069000Y-74685000D01*
X96069000Y-73683000D01*
X96971000Y-73683000D01*
X96971000Y-74685000D01*
G37*
G36*
X93632499Y-71614445D02*
G01*
X93669995Y-71625820D01*
X93704554Y-71644292D01*
X93734847Y-71669153D01*
X93759708Y-71699446D01*
X93778180Y-71734005D01*
X93789555Y-71771501D01*
X93794000Y-71816638D01*
X93794000Y-72455362D01*
X93789555Y-72500499D01*
X93778180Y-72537995D01*
X93759708Y-72572554D01*
X93734847Y-72602847D01*
X93704554Y-72627708D01*
X93669995Y-72646180D01*
X93632499Y-72657555D01*
X93587362Y-72662000D01*
X92848638Y-72662000D01*
X92803501Y-72657555D01*
X92766005Y-72646180D01*
X92731446Y-72627708D01*
X92701153Y-72602847D01*
X92676292Y-72572554D01*
X92657820Y-72537995D01*
X92646445Y-72500499D01*
X92642000Y-72455362D01*
X92642000Y-71816638D01*
X92646445Y-71771501D01*
X92657820Y-71734005D01*
X92676292Y-71699446D01*
X92701153Y-71669153D01*
X92731446Y-71644292D01*
X92766005Y-71625820D01*
X92803501Y-71614445D01*
X92848638Y-71610000D01*
X93587362Y-71610000D01*
X93632499Y-71614445D01*
G37*
G36*
X72691499Y-71614445D02*
G01*
X72728995Y-71625820D01*
X72763554Y-71644292D01*
X72793847Y-71669153D01*
X72818708Y-71699446D01*
X72837180Y-71734005D01*
X72848555Y-71771501D01*
X72853000Y-71816638D01*
X72853000Y-72455362D01*
X72848555Y-72500499D01*
X72837180Y-72537995D01*
X72818708Y-72572554D01*
X72793847Y-72602847D01*
X72763554Y-72627708D01*
X72728995Y-72646180D01*
X72691499Y-72657555D01*
X72646362Y-72662000D01*
X71907638Y-72662000D01*
X71862501Y-72657555D01*
X71825005Y-72646180D01*
X71790446Y-72627708D01*
X71760153Y-72602847D01*
X71735292Y-72572554D01*
X71716820Y-72537995D01*
X71705445Y-72500499D01*
X71701000Y-72455362D01*
X71701000Y-71816638D01*
X71705445Y-71771501D01*
X71716820Y-71734005D01*
X71735292Y-71699446D01*
X71760153Y-71669153D01*
X71790446Y-71644292D01*
X71825005Y-71625820D01*
X71862501Y-71614445D01*
X71907638Y-71610000D01*
X72646362Y-71610000D01*
X72691499Y-71614445D01*
G37*
G36*
X74441499Y-71614445D02*
G01*
X74478995Y-71625820D01*
X74513554Y-71644292D01*
X74543847Y-71669153D01*
X74568708Y-71699446D01*
X74587180Y-71734005D01*
X74598555Y-71771501D01*
X74603000Y-71816638D01*
X74603000Y-72455362D01*
X74598555Y-72500499D01*
X74587180Y-72537995D01*
X74568708Y-72572554D01*
X74543847Y-72602847D01*
X74513554Y-72627708D01*
X74478995Y-72646180D01*
X74441499Y-72657555D01*
X74396362Y-72662000D01*
X73657638Y-72662000D01*
X73612501Y-72657555D01*
X73575005Y-72646180D01*
X73540446Y-72627708D01*
X73510153Y-72602847D01*
X73485292Y-72572554D01*
X73466820Y-72537995D01*
X73455445Y-72500499D01*
X73451000Y-72455362D01*
X73451000Y-71816638D01*
X73455445Y-71771501D01*
X73466820Y-71734005D01*
X73485292Y-71699446D01*
X73510153Y-71669153D01*
X73540446Y-71644292D01*
X73575005Y-71625820D01*
X73612501Y-71614445D01*
X73657638Y-71610000D01*
X74396362Y-71610000D01*
X74441499Y-71614445D01*
G37*
G36*
X91882499Y-71614445D02*
G01*
X91919995Y-71625820D01*
X91954554Y-71644292D01*
X91984847Y-71669153D01*
X92009708Y-71699446D01*
X92028180Y-71734005D01*
X92039555Y-71771501D01*
X92044000Y-71816638D01*
X92044000Y-72455362D01*
X92039555Y-72500499D01*
X92028180Y-72537995D01*
X92009708Y-72572554D01*
X91984847Y-72602847D01*
X91954554Y-72627708D01*
X91919995Y-72646180D01*
X91882499Y-72657555D01*
X91837362Y-72662000D01*
X91098638Y-72662000D01*
X91053501Y-72657555D01*
X91016005Y-72646180D01*
X90981446Y-72627708D01*
X90951153Y-72602847D01*
X90926292Y-72572554D01*
X90907820Y-72537995D01*
X90896445Y-72500499D01*
X90892000Y-72455362D01*
X90892000Y-71816638D01*
X90896445Y-71771501D01*
X90907820Y-71734005D01*
X90926292Y-71699446D01*
X90951153Y-71669153D01*
X90981446Y-71644292D01*
X91016005Y-71625820D01*
X91053501Y-71614445D01*
X91098638Y-71610000D01*
X91837362Y-71610000D01*
X91882499Y-71614445D01*
G37*
G36*
X77540000Y-72621000D02*
G01*
X76638000Y-72621000D01*
X76638000Y-71619000D01*
X77540000Y-71619000D01*
X77540000Y-72621000D01*
G37*
G36*
X96971000Y-72621000D02*
G01*
X96069000Y-72621000D01*
X96069000Y-71619000D01*
X96971000Y-71619000D01*
X96971000Y-72621000D01*
G37*
G36*
X82392999Y-70915945D02*
G01*
X82430495Y-70927320D01*
X82465054Y-70945792D01*
X82495347Y-70970653D01*
X82520208Y-71000946D01*
X82538680Y-71035505D01*
X82550055Y-71073001D01*
X82554500Y-71118138D01*
X82554500Y-71756862D01*
X82550055Y-71801999D01*
X82538680Y-71839495D01*
X82520208Y-71874054D01*
X82495347Y-71904347D01*
X82465054Y-71929208D01*
X82430495Y-71947680D01*
X82392999Y-71959055D01*
X82347862Y-71963500D01*
X81609138Y-71963500D01*
X81564001Y-71959055D01*
X81526505Y-71947680D01*
X81491946Y-71929208D01*
X81461653Y-71904347D01*
X81436792Y-71874054D01*
X81418320Y-71839495D01*
X81406945Y-71801999D01*
X81402500Y-71756862D01*
X81402500Y-71118138D01*
X81406945Y-71073001D01*
X81418320Y-71035505D01*
X81436792Y-71000946D01*
X81461653Y-70970653D01*
X81491946Y-70945792D01*
X81526505Y-70927320D01*
X81564001Y-70915945D01*
X81609138Y-70911500D01*
X82347862Y-70911500D01*
X82392999Y-70915945D01*
G37*
G36*
X80642999Y-70915945D02*
G01*
X80680495Y-70927320D01*
X80715054Y-70945792D01*
X80745347Y-70970653D01*
X80770208Y-71000946D01*
X80788680Y-71035505D01*
X80800055Y-71073001D01*
X80804500Y-71118138D01*
X80804500Y-71756862D01*
X80800055Y-71801999D01*
X80788680Y-71839495D01*
X80770208Y-71874054D01*
X80745347Y-71904347D01*
X80715054Y-71929208D01*
X80680495Y-71947680D01*
X80642999Y-71959055D01*
X80597862Y-71963500D01*
X79859138Y-71963500D01*
X79814001Y-71959055D01*
X79776505Y-71947680D01*
X79741946Y-71929208D01*
X79711653Y-71904347D01*
X79686792Y-71874054D01*
X79668320Y-71839495D01*
X79656945Y-71801999D01*
X79652500Y-71756862D01*
X79652500Y-71118138D01*
X79656945Y-71073001D01*
X79668320Y-71035505D01*
X79686792Y-71000946D01*
X79711653Y-70970653D01*
X79741946Y-70945792D01*
X79776505Y-70927320D01*
X79814001Y-70915945D01*
X79859138Y-70911500D01*
X80597862Y-70911500D01*
X80642999Y-70915945D01*
G37*
G36*
X74427499Y-69582445D02*
G01*
X74464995Y-69593820D01*
X74499554Y-69612292D01*
X74529847Y-69637153D01*
X74554708Y-69667446D01*
X74573180Y-69702005D01*
X74584555Y-69739501D01*
X74589000Y-69784638D01*
X74589000Y-70423362D01*
X74584555Y-70468499D01*
X74573180Y-70505995D01*
X74554708Y-70540554D01*
X74529847Y-70570847D01*
X74499554Y-70595708D01*
X74464995Y-70614180D01*
X74427499Y-70625555D01*
X74382362Y-70630000D01*
X73643638Y-70630000D01*
X73598501Y-70625555D01*
X73561005Y-70614180D01*
X73526446Y-70595708D01*
X73496153Y-70570847D01*
X73471292Y-70540554D01*
X73452820Y-70505995D01*
X73441445Y-70468499D01*
X73437000Y-70423362D01*
X73437000Y-69784638D01*
X73441445Y-69739501D01*
X73452820Y-69702005D01*
X73471292Y-69667446D01*
X73496153Y-69637153D01*
X73526446Y-69612292D01*
X73561005Y-69593820D01*
X73598501Y-69582445D01*
X73643638Y-69578000D01*
X74382362Y-69578000D01*
X74427499Y-69582445D01*
G37*
G36*
X72677499Y-69582445D02*
G01*
X72714995Y-69593820D01*
X72749554Y-69612292D01*
X72779847Y-69637153D01*
X72804708Y-69667446D01*
X72823180Y-69702005D01*
X72834555Y-69739501D01*
X72839000Y-69784638D01*
X72839000Y-70423362D01*
X72834555Y-70468499D01*
X72823180Y-70505995D01*
X72804708Y-70540554D01*
X72779847Y-70570847D01*
X72749554Y-70595708D01*
X72714995Y-70614180D01*
X72677499Y-70625555D01*
X72632362Y-70630000D01*
X71893638Y-70630000D01*
X71848501Y-70625555D01*
X71811005Y-70614180D01*
X71776446Y-70595708D01*
X71746153Y-70570847D01*
X71721292Y-70540554D01*
X71702820Y-70505995D01*
X71691445Y-70468499D01*
X71687000Y-70423362D01*
X71687000Y-69784638D01*
X71691445Y-69739501D01*
X71702820Y-69702005D01*
X71721292Y-69667446D01*
X71746153Y-69637153D01*
X71776446Y-69612292D01*
X71811005Y-69593820D01*
X71848501Y-69582445D01*
X71893638Y-69578000D01*
X72632362Y-69578000D01*
X72677499Y-69582445D01*
G37*
G36*
X91882499Y-69582445D02*
G01*
X91919995Y-69593820D01*
X91954554Y-69612292D01*
X91984847Y-69637153D01*
X92009708Y-69667446D01*
X92028180Y-69702005D01*
X92039555Y-69739501D01*
X92044000Y-69784638D01*
X92044000Y-70423362D01*
X92039555Y-70468499D01*
X92028180Y-70505995D01*
X92009708Y-70540554D01*
X91984847Y-70570847D01*
X91954554Y-70595708D01*
X91919995Y-70614180D01*
X91882499Y-70625555D01*
X91837362Y-70630000D01*
X91098638Y-70630000D01*
X91053501Y-70625555D01*
X91016005Y-70614180D01*
X90981446Y-70595708D01*
X90951153Y-70570847D01*
X90926292Y-70540554D01*
X90907820Y-70505995D01*
X90896445Y-70468499D01*
X90892000Y-70423362D01*
X90892000Y-69784638D01*
X90896445Y-69739501D01*
X90907820Y-69702005D01*
X90926292Y-69667446D01*
X90951153Y-69637153D01*
X90981446Y-69612292D01*
X91016005Y-69593820D01*
X91053501Y-69582445D01*
X91098638Y-69578000D01*
X91837362Y-69578000D01*
X91882499Y-69582445D01*
G37*
G36*
X93632499Y-69582445D02*
G01*
X93669995Y-69593820D01*
X93704554Y-69612292D01*
X93734847Y-69637153D01*
X93759708Y-69667446D01*
X93778180Y-69702005D01*
X93789555Y-69739501D01*
X93794000Y-69784638D01*
X93794000Y-70423362D01*
X93789555Y-70468499D01*
X93778180Y-70505995D01*
X93759708Y-70540554D01*
X93734847Y-70570847D01*
X93704554Y-70595708D01*
X93669995Y-70614180D01*
X93632499Y-70625555D01*
X93587362Y-70630000D01*
X92848638Y-70630000D01*
X92803501Y-70625555D01*
X92766005Y-70614180D01*
X92731446Y-70595708D01*
X92701153Y-70570847D01*
X92676292Y-70540554D01*
X92657820Y-70505995D01*
X92646445Y-70468499D01*
X92642000Y-70423362D01*
X92642000Y-69784638D01*
X92646445Y-69739501D01*
X92657820Y-69702005D01*
X92676292Y-69667446D01*
X92701153Y-69637153D01*
X92731446Y-69612292D01*
X92766005Y-69593820D01*
X92803501Y-69582445D01*
X92848638Y-69578000D01*
X93587362Y-69578000D01*
X93632499Y-69582445D01*
G37*
G36*
X76590000Y-70621000D02*
G01*
X75688000Y-70621000D01*
X75688000Y-69619000D01*
X76590000Y-69619000D01*
X76590000Y-70621000D01*
G37*
G36*
X78490000Y-70621000D02*
G01*
X77588000Y-70621000D01*
X77588000Y-69619000D01*
X78490000Y-69619000D01*
X78490000Y-70621000D01*
G37*
G36*
X96021000Y-70621000D02*
G01*
X95119000Y-70621000D01*
X95119000Y-69619000D01*
X96021000Y-69619000D01*
X96021000Y-70621000D01*
G37*
G36*
X97921000Y-70621000D02*
G01*
X97019000Y-70621000D01*
X97019000Y-69619000D01*
X97921000Y-69619000D01*
X97921000Y-70621000D01*
G37*
G36*
X93632499Y-67550445D02*
G01*
X93669995Y-67561820D01*
X93704554Y-67580292D01*
X93734847Y-67605153D01*
X93759708Y-67635446D01*
X93778180Y-67670005D01*
X93789555Y-67707501D01*
X93794000Y-67752638D01*
X93794000Y-68391362D01*
X93789555Y-68436499D01*
X93778180Y-68473995D01*
X93759708Y-68508554D01*
X93734847Y-68538847D01*
X93704554Y-68563708D01*
X93669995Y-68582180D01*
X93632499Y-68593555D01*
X93587362Y-68598000D01*
X92848638Y-68598000D01*
X92803501Y-68593555D01*
X92766005Y-68582180D01*
X92731446Y-68563708D01*
X92701153Y-68538847D01*
X92676292Y-68508554D01*
X92657820Y-68473995D01*
X92646445Y-68436499D01*
X92642000Y-68391362D01*
X92642000Y-67752638D01*
X92646445Y-67707501D01*
X92657820Y-67670005D01*
X92676292Y-67635446D01*
X92701153Y-67605153D01*
X92731446Y-67580292D01*
X92766005Y-67561820D01*
X92803501Y-67550445D01*
X92848638Y-67546000D01*
X93587362Y-67546000D01*
X93632499Y-67550445D01*
G37*
G36*
X97682499Y-67550445D02*
G01*
X97719995Y-67561820D01*
X97754554Y-67580292D01*
X97784847Y-67605153D01*
X97809708Y-67635446D01*
X97828180Y-67670005D01*
X97839555Y-67707501D01*
X97844000Y-67752638D01*
X97844000Y-68391362D01*
X97839555Y-68436499D01*
X97828180Y-68473995D01*
X97809708Y-68508554D01*
X97784847Y-68538847D01*
X97754554Y-68563708D01*
X97719995Y-68582180D01*
X97682499Y-68593555D01*
X97637362Y-68598000D01*
X96898638Y-68598000D01*
X96853501Y-68593555D01*
X96816005Y-68582180D01*
X96781446Y-68563708D01*
X96751153Y-68538847D01*
X96726292Y-68508554D01*
X96707820Y-68473995D01*
X96696445Y-68436499D01*
X96692000Y-68391362D01*
X96692000Y-67752638D01*
X96696445Y-67707501D01*
X96707820Y-67670005D01*
X96726292Y-67635446D01*
X96751153Y-67605153D01*
X96781446Y-67580292D01*
X96816005Y-67561820D01*
X96853501Y-67550445D01*
X96898638Y-67546000D01*
X97637362Y-67546000D01*
X97682499Y-67550445D01*
G37*
G36*
X72705499Y-67550445D02*
G01*
X72742995Y-67561820D01*
X72777554Y-67580292D01*
X72807847Y-67605153D01*
X72832708Y-67635446D01*
X72851180Y-67670005D01*
X72862555Y-67707501D01*
X72867000Y-67752638D01*
X72867000Y-68391362D01*
X72862555Y-68436499D01*
X72851180Y-68473995D01*
X72832708Y-68508554D01*
X72807847Y-68538847D01*
X72777554Y-68563708D01*
X72742995Y-68582180D01*
X72705499Y-68593555D01*
X72660362Y-68598000D01*
X71921638Y-68598000D01*
X71876501Y-68593555D01*
X71839005Y-68582180D01*
X71804446Y-68563708D01*
X71774153Y-68538847D01*
X71749292Y-68508554D01*
X71730820Y-68473995D01*
X71719445Y-68436499D01*
X71715000Y-68391362D01*
X71715000Y-67752638D01*
X71719445Y-67707501D01*
X71730820Y-67670005D01*
X71749292Y-67635446D01*
X71774153Y-67605153D01*
X71804446Y-67580292D01*
X71839005Y-67561820D01*
X71876501Y-67550445D01*
X71921638Y-67546000D01*
X72660362Y-67546000D01*
X72705499Y-67550445D01*
G37*
G36*
X74455499Y-67550445D02*
G01*
X74492995Y-67561820D01*
X74527554Y-67580292D01*
X74557847Y-67605153D01*
X74582708Y-67635446D01*
X74601180Y-67670005D01*
X74612555Y-67707501D01*
X74617000Y-67752638D01*
X74617000Y-68391362D01*
X74612555Y-68436499D01*
X74601180Y-68473995D01*
X74582708Y-68508554D01*
X74557847Y-68538847D01*
X74527554Y-68563708D01*
X74492995Y-68582180D01*
X74455499Y-68593555D01*
X74410362Y-68598000D01*
X73671638Y-68598000D01*
X73626501Y-68593555D01*
X73589005Y-68582180D01*
X73554446Y-68563708D01*
X73524153Y-68538847D01*
X73499292Y-68508554D01*
X73480820Y-68473995D01*
X73469445Y-68436499D01*
X73465000Y-68391362D01*
X73465000Y-67752638D01*
X73469445Y-67707501D01*
X73480820Y-67670005D01*
X73499292Y-67635446D01*
X73524153Y-67605153D01*
X73554446Y-67580292D01*
X73589005Y-67561820D01*
X73626501Y-67550445D01*
X73671638Y-67546000D01*
X74410362Y-67546000D01*
X74455499Y-67550445D01*
G37*
G36*
X95932499Y-67550445D02*
G01*
X95969995Y-67561820D01*
X96004554Y-67580292D01*
X96034847Y-67605153D01*
X96059708Y-67635446D01*
X96078180Y-67670005D01*
X96089555Y-67707501D01*
X96094000Y-67752638D01*
X96094000Y-68391362D01*
X96089555Y-68436499D01*
X96078180Y-68473995D01*
X96059708Y-68508554D01*
X96034847Y-68538847D01*
X96004554Y-68563708D01*
X95969995Y-68582180D01*
X95932499Y-68593555D01*
X95887362Y-68598000D01*
X95148638Y-68598000D01*
X95103501Y-68593555D01*
X95066005Y-68582180D01*
X95031446Y-68563708D01*
X95001153Y-68538847D01*
X94976292Y-68508554D01*
X94957820Y-68473995D01*
X94946445Y-68436499D01*
X94942000Y-68391362D01*
X94942000Y-67752638D01*
X94946445Y-67707501D01*
X94957820Y-67670005D01*
X94976292Y-67635446D01*
X95001153Y-67605153D01*
X95031446Y-67580292D01*
X95066005Y-67561820D01*
X95103501Y-67550445D01*
X95148638Y-67546000D01*
X95887362Y-67546000D01*
X95932499Y-67550445D01*
G37*
G36*
X78378499Y-67550445D02*
G01*
X78415995Y-67561820D01*
X78450554Y-67580292D01*
X78480847Y-67605153D01*
X78505708Y-67635446D01*
X78524180Y-67670005D01*
X78535555Y-67707501D01*
X78540000Y-67752638D01*
X78540000Y-68391362D01*
X78535555Y-68436499D01*
X78524180Y-68473995D01*
X78505708Y-68508554D01*
X78480847Y-68538847D01*
X78450554Y-68563708D01*
X78415995Y-68582180D01*
X78378499Y-68593555D01*
X78333362Y-68598000D01*
X77594638Y-68598000D01*
X77549501Y-68593555D01*
X77512005Y-68582180D01*
X77477446Y-68563708D01*
X77447153Y-68538847D01*
X77422292Y-68508554D01*
X77403820Y-68473995D01*
X77392445Y-68436499D01*
X77388000Y-68391362D01*
X77388000Y-67752638D01*
X77392445Y-67707501D01*
X77403820Y-67670005D01*
X77422292Y-67635446D01*
X77447153Y-67605153D01*
X77477446Y-67580292D01*
X77512005Y-67561820D01*
X77549501Y-67550445D01*
X77594638Y-67546000D01*
X78333362Y-67546000D01*
X78378499Y-67550445D01*
G37*
G36*
X76628499Y-67550445D02*
G01*
X76665995Y-67561820D01*
X76700554Y-67580292D01*
X76730847Y-67605153D01*
X76755708Y-67635446D01*
X76774180Y-67670005D01*
X76785555Y-67707501D01*
X76790000Y-67752638D01*
X76790000Y-68391362D01*
X76785555Y-68436499D01*
X76774180Y-68473995D01*
X76755708Y-68508554D01*
X76730847Y-68538847D01*
X76700554Y-68563708D01*
X76665995Y-68582180D01*
X76628499Y-68593555D01*
X76583362Y-68598000D01*
X75844638Y-68598000D01*
X75799501Y-68593555D01*
X75762005Y-68582180D01*
X75727446Y-68563708D01*
X75697153Y-68538847D01*
X75672292Y-68508554D01*
X75653820Y-68473995D01*
X75642445Y-68436499D01*
X75638000Y-68391362D01*
X75638000Y-67752638D01*
X75642445Y-67707501D01*
X75653820Y-67670005D01*
X75672292Y-67635446D01*
X75697153Y-67605153D01*
X75727446Y-67580292D01*
X75762005Y-67561820D01*
X75799501Y-67550445D01*
X75844638Y-67546000D01*
X76583362Y-67546000D01*
X76628499Y-67550445D01*
G37*
G36*
X91882499Y-67550445D02*
G01*
X91919995Y-67561820D01*
X91954554Y-67580292D01*
X91984847Y-67605153D01*
X92009708Y-67635446D01*
X92028180Y-67670005D01*
X92039555Y-67707501D01*
X92044000Y-67752638D01*
X92044000Y-68391362D01*
X92039555Y-68436499D01*
X92028180Y-68473995D01*
X92009708Y-68508554D01*
X91984847Y-68538847D01*
X91954554Y-68563708D01*
X91919995Y-68582180D01*
X91882499Y-68593555D01*
X91837362Y-68598000D01*
X91098638Y-68598000D01*
X91053501Y-68593555D01*
X91016005Y-68582180D01*
X90981446Y-68563708D01*
X90951153Y-68538847D01*
X90926292Y-68508554D01*
X90907820Y-68473995D01*
X90896445Y-68436499D01*
X90892000Y-68391362D01*
X90892000Y-67752638D01*
X90896445Y-67707501D01*
X90907820Y-67670005D01*
X90926292Y-67635446D01*
X90951153Y-67605153D01*
X90981446Y-67580292D01*
X91016005Y-67561820D01*
X91053501Y-67550445D01*
X91098638Y-67546000D01*
X91837362Y-67546000D01*
X91882499Y-67550445D01*
G37*
G36*
X97668499Y-65518445D02*
G01*
X97705995Y-65529820D01*
X97740554Y-65548292D01*
X97770847Y-65573153D01*
X97795708Y-65603446D01*
X97814180Y-65638005D01*
X97825555Y-65675501D01*
X97830000Y-65720638D01*
X97830000Y-66359362D01*
X97825555Y-66404499D01*
X97814180Y-66441995D01*
X97795708Y-66476554D01*
X97770847Y-66506847D01*
X97740554Y-66531708D01*
X97705995Y-66550180D01*
X97668499Y-66561555D01*
X97623362Y-66566000D01*
X96884638Y-66566000D01*
X96839501Y-66561555D01*
X96802005Y-66550180D01*
X96767446Y-66531708D01*
X96737153Y-66506847D01*
X96712292Y-66476554D01*
X96693820Y-66441995D01*
X96682445Y-66404499D01*
X96678000Y-66359362D01*
X96678000Y-65720638D01*
X96682445Y-65675501D01*
X96693820Y-65638005D01*
X96712292Y-65603446D01*
X96737153Y-65573153D01*
X96767446Y-65548292D01*
X96802005Y-65529820D01*
X96839501Y-65518445D01*
X96884638Y-65514000D01*
X97623362Y-65514000D01*
X97668499Y-65518445D01*
G37*
G36*
X91882499Y-65518445D02*
G01*
X91919995Y-65529820D01*
X91954554Y-65548292D01*
X91984847Y-65573153D01*
X92009708Y-65603446D01*
X92028180Y-65638005D01*
X92039555Y-65675501D01*
X92044000Y-65720638D01*
X92044000Y-66359362D01*
X92039555Y-66404499D01*
X92028180Y-66441995D01*
X92009708Y-66476554D01*
X91984847Y-66506847D01*
X91954554Y-66531708D01*
X91919995Y-66550180D01*
X91882499Y-66561555D01*
X91837362Y-66566000D01*
X91098638Y-66566000D01*
X91053501Y-66561555D01*
X91016005Y-66550180D01*
X90981446Y-66531708D01*
X90951153Y-66506847D01*
X90926292Y-66476554D01*
X90907820Y-66441995D01*
X90896445Y-66404499D01*
X90892000Y-66359362D01*
X90892000Y-65720638D01*
X90896445Y-65675501D01*
X90907820Y-65638005D01*
X90926292Y-65603446D01*
X90951153Y-65573153D01*
X90981446Y-65548292D01*
X91016005Y-65529820D01*
X91053501Y-65518445D01*
X91098638Y-65514000D01*
X91837362Y-65514000D01*
X91882499Y-65518445D01*
G37*
G36*
X76642499Y-65518445D02*
G01*
X76679995Y-65529820D01*
X76714554Y-65548292D01*
X76744847Y-65573153D01*
X76769708Y-65603446D01*
X76788180Y-65638005D01*
X76799555Y-65675501D01*
X76804000Y-65720638D01*
X76804000Y-66359362D01*
X76799555Y-66404499D01*
X76788180Y-66441995D01*
X76769708Y-66476554D01*
X76744847Y-66506847D01*
X76714554Y-66531708D01*
X76679995Y-66550180D01*
X76642499Y-66561555D01*
X76597362Y-66566000D01*
X75858638Y-66566000D01*
X75813501Y-66561555D01*
X75776005Y-66550180D01*
X75741446Y-66531708D01*
X75711153Y-66506847D01*
X75686292Y-66476554D01*
X75667820Y-66441995D01*
X75656445Y-66404499D01*
X75652000Y-66359362D01*
X75652000Y-65720638D01*
X75656445Y-65675501D01*
X75667820Y-65638005D01*
X75686292Y-65603446D01*
X75711153Y-65573153D01*
X75741446Y-65548292D01*
X75776005Y-65529820D01*
X75813501Y-65518445D01*
X75858638Y-65514000D01*
X76597362Y-65514000D01*
X76642499Y-65518445D01*
G37*
G36*
X78392499Y-65518445D02*
G01*
X78429995Y-65529820D01*
X78464554Y-65548292D01*
X78494847Y-65573153D01*
X78519708Y-65603446D01*
X78538180Y-65638005D01*
X78549555Y-65675501D01*
X78554000Y-65720638D01*
X78554000Y-66359362D01*
X78549555Y-66404499D01*
X78538180Y-66441995D01*
X78519708Y-66476554D01*
X78494847Y-66506847D01*
X78464554Y-66531708D01*
X78429995Y-66550180D01*
X78392499Y-66561555D01*
X78347362Y-66566000D01*
X77608638Y-66566000D01*
X77563501Y-66561555D01*
X77526005Y-66550180D01*
X77491446Y-66531708D01*
X77461153Y-66506847D01*
X77436292Y-66476554D01*
X77417820Y-66441995D01*
X77406445Y-66404499D01*
X77402000Y-66359362D01*
X77402000Y-65720638D01*
X77406445Y-65675501D01*
X77417820Y-65638005D01*
X77436292Y-65603446D01*
X77461153Y-65573153D01*
X77491446Y-65548292D01*
X77526005Y-65529820D01*
X77563501Y-65518445D01*
X77608638Y-65514000D01*
X78347362Y-65514000D01*
X78392499Y-65518445D01*
G37*
G36*
X93632499Y-65518445D02*
G01*
X93669995Y-65529820D01*
X93704554Y-65548292D01*
X93734847Y-65573153D01*
X93759708Y-65603446D01*
X93778180Y-65638005D01*
X93789555Y-65675501D01*
X93794000Y-65720638D01*
X93794000Y-66359362D01*
X93789555Y-66404499D01*
X93778180Y-66441995D01*
X93759708Y-66476554D01*
X93734847Y-66506847D01*
X93704554Y-66531708D01*
X93669995Y-66550180D01*
X93632499Y-66561555D01*
X93587362Y-66566000D01*
X92848638Y-66566000D01*
X92803501Y-66561555D01*
X92766005Y-66550180D01*
X92731446Y-66531708D01*
X92701153Y-66506847D01*
X92676292Y-66476554D01*
X92657820Y-66441995D01*
X92646445Y-66404499D01*
X92642000Y-66359362D01*
X92642000Y-65720638D01*
X92646445Y-65675501D01*
X92657820Y-65638005D01*
X92676292Y-65603446D01*
X92701153Y-65573153D01*
X92731446Y-65548292D01*
X92766005Y-65529820D01*
X92803501Y-65518445D01*
X92848638Y-65514000D01*
X93587362Y-65514000D01*
X93632499Y-65518445D01*
G37*
G36*
X72705499Y-65518445D02*
G01*
X72742995Y-65529820D01*
X72777554Y-65548292D01*
X72807847Y-65573153D01*
X72832708Y-65603446D01*
X72851180Y-65638005D01*
X72862555Y-65675501D01*
X72867000Y-65720638D01*
X72867000Y-66359362D01*
X72862555Y-66404499D01*
X72851180Y-66441995D01*
X72832708Y-66476554D01*
X72807847Y-66506847D01*
X72777554Y-66531708D01*
X72742995Y-66550180D01*
X72705499Y-66561555D01*
X72660362Y-66566000D01*
X71921638Y-66566000D01*
X71876501Y-66561555D01*
X71839005Y-66550180D01*
X71804446Y-66531708D01*
X71774153Y-66506847D01*
X71749292Y-66476554D01*
X71730820Y-66441995D01*
X71719445Y-66404499D01*
X71715000Y-66359362D01*
X71715000Y-65720638D01*
X71719445Y-65675501D01*
X71730820Y-65638005D01*
X71749292Y-65603446D01*
X71774153Y-65573153D01*
X71804446Y-65548292D01*
X71839005Y-65529820D01*
X71876501Y-65518445D01*
X71921638Y-65514000D01*
X72660362Y-65514000D01*
X72705499Y-65518445D01*
G37*
G36*
X74455499Y-65518445D02*
G01*
X74492995Y-65529820D01*
X74527554Y-65548292D01*
X74557847Y-65573153D01*
X74582708Y-65603446D01*
X74601180Y-65638005D01*
X74612555Y-65675501D01*
X74617000Y-65720638D01*
X74617000Y-66359362D01*
X74612555Y-66404499D01*
X74601180Y-66441995D01*
X74582708Y-66476554D01*
X74557847Y-66506847D01*
X74527554Y-66531708D01*
X74492995Y-66550180D01*
X74455499Y-66561555D01*
X74410362Y-66566000D01*
X73671638Y-66566000D01*
X73626501Y-66561555D01*
X73589005Y-66550180D01*
X73554446Y-66531708D01*
X73524153Y-66506847D01*
X73499292Y-66476554D01*
X73480820Y-66441995D01*
X73469445Y-66404499D01*
X73465000Y-66359362D01*
X73465000Y-65720638D01*
X73469445Y-65675501D01*
X73480820Y-65638005D01*
X73499292Y-65603446D01*
X73524153Y-65573153D01*
X73554446Y-65548292D01*
X73589005Y-65529820D01*
X73626501Y-65518445D01*
X73671638Y-65514000D01*
X74410362Y-65514000D01*
X74455499Y-65518445D01*
G37*
G36*
X95918499Y-65518445D02*
G01*
X95955995Y-65529820D01*
X95990554Y-65548292D01*
X96020847Y-65573153D01*
X96045708Y-65603446D01*
X96064180Y-65638005D01*
X96075555Y-65675501D01*
X96080000Y-65720638D01*
X96080000Y-66359362D01*
X96075555Y-66404499D01*
X96064180Y-66441995D01*
X96045708Y-66476554D01*
X96020847Y-66506847D01*
X95990554Y-66531708D01*
X95955995Y-66550180D01*
X95918499Y-66561555D01*
X95873362Y-66566000D01*
X95134638Y-66566000D01*
X95089501Y-66561555D01*
X95052005Y-66550180D01*
X95017446Y-66531708D01*
X94987153Y-66506847D01*
X94962292Y-66476554D01*
X94943820Y-66441995D01*
X94932445Y-66404499D01*
X94928000Y-66359362D01*
X94928000Y-65720638D01*
X94932445Y-65675501D01*
X94943820Y-65638005D01*
X94962292Y-65603446D01*
X94987153Y-65573153D01*
X95017446Y-65548292D01*
X95052005Y-65529820D01*
X95089501Y-65518445D01*
X95134638Y-65514000D01*
X95873362Y-65514000D01*
X95918499Y-65518445D01*
G37*
G36*
X96435000Y-64299000D02*
G01*
X92033000Y-64299000D01*
X92033000Y-62997000D01*
X96435000Y-62997000D01*
X96435000Y-64299000D01*
G37*
G36*
X77131000Y-64299000D02*
G01*
X72729000Y-64299000D01*
X72729000Y-62997000D01*
X77131000Y-62997000D01*
X77131000Y-64299000D01*
G37*
G36*
X79866499Y-63041445D02*
G01*
X79903995Y-63052820D01*
X79938554Y-63071292D01*
X79968847Y-63096153D01*
X79993708Y-63126446D01*
X80012180Y-63161005D01*
X80023555Y-63198501D01*
X80028000Y-63243638D01*
X80028000Y-63982362D01*
X80023555Y-64027499D01*
X80012180Y-64064995D01*
X79993708Y-64099554D01*
X79968847Y-64129847D01*
X79938554Y-64154708D01*
X79903995Y-64173180D01*
X79866499Y-64184555D01*
X79821362Y-64189000D01*
X79182638Y-64189000D01*
X79137501Y-64184555D01*
X79100005Y-64173180D01*
X79065446Y-64154708D01*
X79035153Y-64129847D01*
X79010292Y-64099554D01*
X78991820Y-64064995D01*
X78980445Y-64027499D01*
X78976000Y-63982362D01*
X78976000Y-63243638D01*
X78980445Y-63198501D01*
X78991820Y-63161005D01*
X79010292Y-63126446D01*
X79035153Y-63096153D01*
X79065446Y-63071292D01*
X79100005Y-63052820D01*
X79137501Y-63041445D01*
X79182638Y-63037000D01*
X79821362Y-63037000D01*
X79866499Y-63041445D01*
G37*
G36*
X90026499Y-63041445D02*
G01*
X90063995Y-63052820D01*
X90098554Y-63071292D01*
X90128847Y-63096153D01*
X90153708Y-63126446D01*
X90172180Y-63161005D01*
X90183555Y-63198501D01*
X90188000Y-63243638D01*
X90188000Y-63982362D01*
X90183555Y-64027499D01*
X90172180Y-64064995D01*
X90153708Y-64099554D01*
X90128847Y-64129847D01*
X90098554Y-64154708D01*
X90063995Y-64173180D01*
X90026499Y-64184555D01*
X89981362Y-64189000D01*
X89342638Y-64189000D01*
X89297501Y-64184555D01*
X89260005Y-64173180D01*
X89225446Y-64154708D01*
X89195153Y-64129847D01*
X89170292Y-64099554D01*
X89151820Y-64064995D01*
X89140445Y-64027499D01*
X89136000Y-63982362D01*
X89136000Y-63243638D01*
X89140445Y-63198501D01*
X89151820Y-63161005D01*
X89170292Y-63126446D01*
X89195153Y-63096153D01*
X89225446Y-63071292D01*
X89260005Y-63052820D01*
X89297501Y-63041445D01*
X89342638Y-63037000D01*
X89981362Y-63037000D01*
X90026499Y-63041445D01*
G37*
G36*
X90026499Y-61291445D02*
G01*
X90063995Y-61302820D01*
X90098554Y-61321292D01*
X90128847Y-61346153D01*
X90153708Y-61376446D01*
X90172180Y-61411005D01*
X90183555Y-61448501D01*
X90188000Y-61493638D01*
X90188000Y-62232362D01*
X90183555Y-62277499D01*
X90172180Y-62314995D01*
X90153708Y-62349554D01*
X90128847Y-62379847D01*
X90098554Y-62404708D01*
X90063995Y-62423180D01*
X90026499Y-62434555D01*
X89981362Y-62439000D01*
X89342638Y-62439000D01*
X89297501Y-62434555D01*
X89260005Y-62423180D01*
X89225446Y-62404708D01*
X89195153Y-62379847D01*
X89170292Y-62349554D01*
X89151820Y-62314995D01*
X89140445Y-62277499D01*
X89136000Y-62232362D01*
X89136000Y-61493638D01*
X89140445Y-61448501D01*
X89151820Y-61411005D01*
X89170292Y-61376446D01*
X89195153Y-61346153D01*
X89225446Y-61321292D01*
X89260005Y-61302820D01*
X89297501Y-61291445D01*
X89342638Y-61287000D01*
X89981362Y-61287000D01*
X90026499Y-61291445D01*
G37*
G36*
X79866499Y-61291445D02*
G01*
X79903995Y-61302820D01*
X79938554Y-61321292D01*
X79968847Y-61346153D01*
X79993708Y-61376446D01*
X80012180Y-61411005D01*
X80023555Y-61448501D01*
X80028000Y-61493638D01*
X80028000Y-62232362D01*
X80023555Y-62277499D01*
X80012180Y-62314995D01*
X79993708Y-62349554D01*
X79968847Y-62379847D01*
X79938554Y-62404708D01*
X79903995Y-62423180D01*
X79866499Y-62434555D01*
X79821362Y-62439000D01*
X79182638Y-62439000D01*
X79137501Y-62434555D01*
X79100005Y-62423180D01*
X79065446Y-62404708D01*
X79035153Y-62379847D01*
X79010292Y-62349554D01*
X78991820Y-62314995D01*
X78980445Y-62277499D01*
X78976000Y-62232362D01*
X78976000Y-61493638D01*
X78980445Y-61448501D01*
X78991820Y-61411005D01*
X79010292Y-61376446D01*
X79035153Y-61346153D01*
X79065446Y-61321292D01*
X79100005Y-61302820D01*
X79137501Y-61291445D01*
X79182638Y-61287000D01*
X79821362Y-61287000D01*
X79866499Y-61291445D01*
G37*
G36*
X86783193Y-60411086D02*
G01*
X86875764Y-60439168D01*
X86961079Y-60484770D01*
X87035860Y-60546140D01*
X87097230Y-60620921D01*
X87142832Y-60706236D01*
X87170914Y-60798807D01*
X87181000Y-60901220D01*
X87181000Y-61526780D01*
X87170914Y-61629193D01*
X87142832Y-61721764D01*
X87097230Y-61807079D01*
X87035860Y-61881860D01*
X86961079Y-61943230D01*
X86875764Y-61988832D01*
X86783193Y-62016914D01*
X86680780Y-62027000D01*
X85531220Y-62027000D01*
X85428807Y-62016914D01*
X85336236Y-61988832D01*
X85250921Y-61943230D01*
X85176140Y-61881860D01*
X85114770Y-61807079D01*
X85069168Y-61721764D01*
X85041086Y-61629193D01*
X85031000Y-61526780D01*
X85031000Y-60901220D01*
X85041086Y-60798807D01*
X85069168Y-60706236D01*
X85114770Y-60620921D01*
X85176140Y-60546140D01*
X85250921Y-60484770D01*
X85336236Y-60439168D01*
X85428807Y-60411086D01*
X85531220Y-60401000D01*
X86680780Y-60401000D01*
X86783193Y-60411086D01*
G37*
G36*
X84243193Y-60411086D02*
G01*
X84335764Y-60439168D01*
X84421079Y-60484770D01*
X84495860Y-60546140D01*
X84557230Y-60620921D01*
X84602832Y-60706236D01*
X84630914Y-60798807D01*
X84641000Y-60901220D01*
X84641000Y-61526780D01*
X84630914Y-61629193D01*
X84602832Y-61721764D01*
X84557230Y-61807079D01*
X84495860Y-61881860D01*
X84421079Y-61943230D01*
X84335764Y-61988832D01*
X84243193Y-62016914D01*
X84140780Y-62027000D01*
X82991220Y-62027000D01*
X82888807Y-62016914D01*
X82796236Y-61988832D01*
X82710921Y-61943230D01*
X82636140Y-61881860D01*
X82574770Y-61807079D01*
X82529168Y-61721764D01*
X82501086Y-61629193D01*
X82491000Y-61526780D01*
X82491000Y-60901220D01*
X82501086Y-60798807D01*
X82529168Y-60706236D01*
X82574770Y-60620921D01*
X82636140Y-60546140D01*
X82710921Y-60484770D01*
X82796236Y-60439168D01*
X82888807Y-60411086D01*
X82991220Y-60401000D01*
X84140780Y-60401000D01*
X84243193Y-60411086D01*
G37*
G36*
X90026499Y-59344445D02*
G01*
X90063995Y-59355820D01*
X90098554Y-59374292D01*
X90128847Y-59399153D01*
X90153708Y-59429446D01*
X90172180Y-59464005D01*
X90183555Y-59501501D01*
X90188000Y-59546638D01*
X90188000Y-60285362D01*
X90183555Y-60330499D01*
X90172180Y-60367995D01*
X90153708Y-60402554D01*
X90128847Y-60432847D01*
X90098554Y-60457708D01*
X90063995Y-60476180D01*
X90026499Y-60487555D01*
X89981362Y-60492000D01*
X89342638Y-60492000D01*
X89297501Y-60487555D01*
X89260005Y-60476180D01*
X89225446Y-60457708D01*
X89195153Y-60432847D01*
X89170292Y-60402554D01*
X89151820Y-60367995D01*
X89140445Y-60330499D01*
X89136000Y-60285362D01*
X89136000Y-59546638D01*
X89140445Y-59501501D01*
X89151820Y-59464005D01*
X89170292Y-59429446D01*
X89195153Y-59399153D01*
X89225446Y-59374292D01*
X89260005Y-59355820D01*
X89297501Y-59344445D01*
X89342638Y-59340000D01*
X89981362Y-59340000D01*
X90026499Y-59344445D01*
G37*
G36*
X79802999Y-59344445D02*
G01*
X79840495Y-59355820D01*
X79875054Y-59374292D01*
X79905347Y-59399153D01*
X79930208Y-59429446D01*
X79948680Y-59464005D01*
X79960055Y-59501501D01*
X79964500Y-59546638D01*
X79964500Y-60285362D01*
X79960055Y-60330499D01*
X79948680Y-60367995D01*
X79930208Y-60402554D01*
X79905347Y-60432847D01*
X79875054Y-60457708D01*
X79840495Y-60476180D01*
X79802999Y-60487555D01*
X79757862Y-60492000D01*
X79119138Y-60492000D01*
X79074001Y-60487555D01*
X79036505Y-60476180D01*
X79001946Y-60457708D01*
X78971653Y-60432847D01*
X78946792Y-60402554D01*
X78928320Y-60367995D01*
X78916945Y-60330499D01*
X78912500Y-60285362D01*
X78912500Y-59546638D01*
X78916945Y-59501501D01*
X78928320Y-59464005D01*
X78946792Y-59429446D01*
X78971653Y-59399153D01*
X79001946Y-59374292D01*
X79036505Y-59355820D01*
X79074001Y-59344445D01*
X79119138Y-59340000D01*
X79757862Y-59340000D01*
X79802999Y-59344445D01*
G37*
G36*
X84641000Y-59487000D02*
G01*
X82491000Y-59487000D01*
X82491000Y-57861000D01*
X84641000Y-57861000D01*
X84641000Y-59487000D01*
G37*
G36*
X87181000Y-59487000D02*
G01*
X85031000Y-59487000D01*
X85031000Y-57861000D01*
X87181000Y-57861000D01*
X87181000Y-59487000D01*
G37*
G36*
X90026499Y-57594445D02*
G01*
X90063995Y-57605820D01*
X90098554Y-57624292D01*
X90128847Y-57649153D01*
X90153708Y-57679446D01*
X90172180Y-57714005D01*
X90183555Y-57751501D01*
X90188000Y-57796638D01*
X90188000Y-58535362D01*
X90183555Y-58580499D01*
X90172180Y-58617995D01*
X90153708Y-58652554D01*
X90128847Y-58682847D01*
X90098554Y-58707708D01*
X90063995Y-58726180D01*
X90026499Y-58737555D01*
X89981362Y-58742000D01*
X89342638Y-58742000D01*
X89297501Y-58737555D01*
X89260005Y-58726180D01*
X89225446Y-58707708D01*
X89195153Y-58682847D01*
X89170292Y-58652554D01*
X89151820Y-58617995D01*
X89140445Y-58580499D01*
X89136000Y-58535362D01*
X89136000Y-57796638D01*
X89140445Y-57751501D01*
X89151820Y-57714005D01*
X89170292Y-57679446D01*
X89195153Y-57649153D01*
X89225446Y-57624292D01*
X89260005Y-57605820D01*
X89297501Y-57594445D01*
X89342638Y-57590000D01*
X89981362Y-57590000D01*
X90026499Y-57594445D01*
G37*
G36*
X79802999Y-57594445D02*
G01*
X79840495Y-57605820D01*
X79875054Y-57624292D01*
X79905347Y-57649153D01*
X79930208Y-57679446D01*
X79948680Y-57714005D01*
X79960055Y-57751501D01*
X79964500Y-57796638D01*
X79964500Y-58535362D01*
X79960055Y-58580499D01*
X79948680Y-58617995D01*
X79930208Y-58652554D01*
X79905347Y-58682847D01*
X79875054Y-58707708D01*
X79840495Y-58726180D01*
X79802999Y-58737555D01*
X79757862Y-58742000D01*
X79119138Y-58742000D01*
X79074001Y-58737555D01*
X79036505Y-58726180D01*
X79001946Y-58707708D01*
X78971653Y-58682847D01*
X78946792Y-58652554D01*
X78928320Y-58617995D01*
X78916945Y-58580499D01*
X78912500Y-58535362D01*
X78912500Y-57796638D01*
X78916945Y-57751501D01*
X78928320Y-57714005D01*
X78946792Y-57679446D01*
X78971653Y-57649153D01*
X79001946Y-57624292D01*
X79036505Y-57605820D01*
X79074001Y-57594445D01*
X79119138Y-57590000D01*
X79757862Y-57590000D01*
X79802999Y-57594445D01*
G37*
G36*
X96435000Y-57399000D02*
G01*
X92033000Y-57399000D01*
X92033000Y-56097000D01*
X96435000Y-56097000D01*
X96435000Y-57399000D01*
G37*
G36*
X77131000Y-57399000D02*
G01*
X72729000Y-57399000D01*
X72729000Y-56097000D01*
X77131000Y-56097000D01*
X77131000Y-57399000D01*
G37*
G36*
X80588000Y-56285500D02*
G01*
X79686000Y-56285500D01*
X79686000Y-55283500D01*
X80588000Y-55283500D01*
X80588000Y-56285500D01*
G37*
G36*
X89221500Y-56285500D02*
G01*
X88319500Y-56285500D01*
X88319500Y-55283500D01*
X89221500Y-55283500D01*
X89221500Y-56285500D01*
G37*
G36*
X72070499Y-53326445D02*
G01*
X72107995Y-53337820D01*
X72142554Y-53356292D01*
X72172847Y-53381153D01*
X72197708Y-53411446D01*
X72216180Y-53446005D01*
X72227555Y-53483501D01*
X72232000Y-53528638D01*
X72232000Y-54167362D01*
X72227555Y-54212499D01*
X72216180Y-54249995D01*
X72197708Y-54284554D01*
X72172847Y-54314847D01*
X72142554Y-54339708D01*
X72107995Y-54358180D01*
X72070499Y-54369555D01*
X72025362Y-54374000D01*
X71286638Y-54374000D01*
X71241501Y-54369555D01*
X71204005Y-54358180D01*
X71169446Y-54339708D01*
X71139153Y-54314847D01*
X71114292Y-54284554D01*
X71095820Y-54249995D01*
X71084445Y-54212499D01*
X71080000Y-54167362D01*
X71080000Y-53528638D01*
X71084445Y-53483501D01*
X71095820Y-53446005D01*
X71114292Y-53411446D01*
X71139153Y-53381153D01*
X71169446Y-53356292D01*
X71204005Y-53337820D01*
X71241501Y-53326445D01*
X71286638Y-53322000D01*
X72025362Y-53322000D01*
X72070499Y-53326445D01*
G37*
G36*
X73820499Y-53326445D02*
G01*
X73857995Y-53337820D01*
X73892554Y-53356292D01*
X73922847Y-53381153D01*
X73947708Y-53411446D01*
X73966180Y-53446005D01*
X73977555Y-53483501D01*
X73982000Y-53528638D01*
X73982000Y-54167362D01*
X73977555Y-54212499D01*
X73966180Y-54249995D01*
X73947708Y-54284554D01*
X73922847Y-54314847D01*
X73892554Y-54339708D01*
X73857995Y-54358180D01*
X73820499Y-54369555D01*
X73775362Y-54374000D01*
X73036638Y-54374000D01*
X72991501Y-54369555D01*
X72954005Y-54358180D01*
X72919446Y-54339708D01*
X72889153Y-54314847D01*
X72864292Y-54284554D01*
X72845820Y-54249995D01*
X72834445Y-54212499D01*
X72830000Y-54167362D01*
X72830000Y-53528638D01*
X72834445Y-53483501D01*
X72845820Y-53446005D01*
X72864292Y-53411446D01*
X72889153Y-53381153D01*
X72919446Y-53356292D01*
X72954005Y-53337820D01*
X72991501Y-53326445D01*
X73036638Y-53322000D01*
X73775362Y-53322000D01*
X73820499Y-53326445D01*
G37*
G36*
X75866499Y-53326445D02*
G01*
X75903995Y-53337820D01*
X75938554Y-53356292D01*
X75968847Y-53381153D01*
X75993708Y-53411446D01*
X76012180Y-53446005D01*
X76023555Y-53483501D01*
X76028000Y-53528638D01*
X76028000Y-54167362D01*
X76023555Y-54212499D01*
X76012180Y-54249995D01*
X75993708Y-54284554D01*
X75968847Y-54314847D01*
X75938554Y-54339708D01*
X75903995Y-54358180D01*
X75866499Y-54369555D01*
X75821362Y-54374000D01*
X75082638Y-54374000D01*
X75037501Y-54369555D01*
X75000005Y-54358180D01*
X74965446Y-54339708D01*
X74935153Y-54314847D01*
X74910292Y-54284554D01*
X74891820Y-54249995D01*
X74880445Y-54212499D01*
X74876000Y-54167362D01*
X74876000Y-53528638D01*
X74880445Y-53483501D01*
X74891820Y-53446005D01*
X74910292Y-53411446D01*
X74935153Y-53381153D01*
X74965446Y-53356292D01*
X75000005Y-53337820D01*
X75037501Y-53326445D01*
X75082638Y-53322000D01*
X75821362Y-53322000D01*
X75866499Y-53326445D01*
G37*
G36*
X95918499Y-53326445D02*
G01*
X95955995Y-53337820D01*
X95990554Y-53356292D01*
X96020847Y-53381153D01*
X96045708Y-53411446D01*
X96064180Y-53446005D01*
X96075555Y-53483501D01*
X96080000Y-53528638D01*
X96080000Y-54167362D01*
X96075555Y-54212499D01*
X96064180Y-54249995D01*
X96045708Y-54284554D01*
X96020847Y-54314847D01*
X95990554Y-54339708D01*
X95955995Y-54358180D01*
X95918499Y-54369555D01*
X95873362Y-54374000D01*
X95134638Y-54374000D01*
X95089501Y-54369555D01*
X95052005Y-54358180D01*
X95017446Y-54339708D01*
X94987153Y-54314847D01*
X94962292Y-54284554D01*
X94943820Y-54249995D01*
X94932445Y-54212499D01*
X94928000Y-54167362D01*
X94928000Y-53528638D01*
X94932445Y-53483501D01*
X94943820Y-53446005D01*
X94962292Y-53411446D01*
X94987153Y-53381153D01*
X95017446Y-53356292D01*
X95052005Y-53337820D01*
X95089501Y-53326445D01*
X95134638Y-53322000D01*
X95873362Y-53322000D01*
X95918499Y-53326445D01*
G37*
G36*
X97668499Y-53326445D02*
G01*
X97705995Y-53337820D01*
X97740554Y-53356292D01*
X97770847Y-53381153D01*
X97795708Y-53411446D01*
X97814180Y-53446005D01*
X97825555Y-53483501D01*
X97830000Y-53528638D01*
X97830000Y-54167362D01*
X97825555Y-54212499D01*
X97814180Y-54249995D01*
X97795708Y-54284554D01*
X97770847Y-54314847D01*
X97740554Y-54339708D01*
X97705995Y-54358180D01*
X97668499Y-54369555D01*
X97623362Y-54374000D01*
X96884638Y-54374000D01*
X96839501Y-54369555D01*
X96802005Y-54358180D01*
X96767446Y-54339708D01*
X96737153Y-54314847D01*
X96712292Y-54284554D01*
X96693820Y-54249995D01*
X96682445Y-54212499D01*
X96678000Y-54167362D01*
X96678000Y-53528638D01*
X96682445Y-53483501D01*
X96693820Y-53446005D01*
X96712292Y-53411446D01*
X96737153Y-53381153D01*
X96767446Y-53356292D01*
X96802005Y-53337820D01*
X96839501Y-53326445D01*
X96884638Y-53322000D01*
X97623362Y-53322000D01*
X97668499Y-53326445D01*
G37*
G36*
X92058999Y-53326445D02*
G01*
X92096495Y-53337820D01*
X92131054Y-53356292D01*
X92161347Y-53381153D01*
X92186208Y-53411446D01*
X92204680Y-53446005D01*
X92216055Y-53483501D01*
X92220500Y-53528638D01*
X92220500Y-54167362D01*
X92216055Y-54212499D01*
X92204680Y-54249995D01*
X92186208Y-54284554D01*
X92161347Y-54314847D01*
X92131054Y-54339708D01*
X92096495Y-54358180D01*
X92058999Y-54369555D01*
X92013862Y-54374000D01*
X91275138Y-54374000D01*
X91230001Y-54369555D01*
X91192505Y-54358180D01*
X91157946Y-54339708D01*
X91127653Y-54314847D01*
X91102792Y-54284554D01*
X91084320Y-54249995D01*
X91072945Y-54212499D01*
X91068500Y-54167362D01*
X91068500Y-53528638D01*
X91072945Y-53483501D01*
X91084320Y-53446005D01*
X91102792Y-53411446D01*
X91127653Y-53381153D01*
X91157946Y-53356292D01*
X91192505Y-53337820D01*
X91230001Y-53326445D01*
X91275138Y-53322000D01*
X92013862Y-53322000D01*
X92058999Y-53326445D01*
G37*
G36*
X77616499Y-53326445D02*
G01*
X77653995Y-53337820D01*
X77688554Y-53356292D01*
X77718847Y-53381153D01*
X77743708Y-53411446D01*
X77762180Y-53446005D01*
X77773555Y-53483501D01*
X77778000Y-53528638D01*
X77778000Y-54167362D01*
X77773555Y-54212499D01*
X77762180Y-54249995D01*
X77743708Y-54284554D01*
X77718847Y-54314847D01*
X77688554Y-54339708D01*
X77653995Y-54358180D01*
X77616499Y-54369555D01*
X77571362Y-54374000D01*
X76832638Y-54374000D01*
X76787501Y-54369555D01*
X76750005Y-54358180D01*
X76715446Y-54339708D01*
X76685153Y-54314847D01*
X76660292Y-54284554D01*
X76641820Y-54249995D01*
X76630445Y-54212499D01*
X76626000Y-54167362D01*
X76626000Y-53528638D01*
X76630445Y-53483501D01*
X76641820Y-53446005D01*
X76660292Y-53411446D01*
X76685153Y-53381153D01*
X76715446Y-53356292D01*
X76750005Y-53337820D01*
X76787501Y-53326445D01*
X76832638Y-53322000D01*
X77571362Y-53322000D01*
X77616499Y-53326445D01*
G37*
G36*
X93808999Y-53326445D02*
G01*
X93846495Y-53337820D01*
X93881054Y-53356292D01*
X93911347Y-53381153D01*
X93936208Y-53411446D01*
X93954680Y-53446005D01*
X93966055Y-53483501D01*
X93970500Y-53528638D01*
X93970500Y-54167362D01*
X93966055Y-54212499D01*
X93954680Y-54249995D01*
X93936208Y-54284554D01*
X93911347Y-54314847D01*
X93881054Y-54339708D01*
X93846495Y-54358180D01*
X93808999Y-54369555D01*
X93763862Y-54374000D01*
X93025138Y-54374000D01*
X92980001Y-54369555D01*
X92942505Y-54358180D01*
X92907946Y-54339708D01*
X92877653Y-54314847D01*
X92852792Y-54284554D01*
X92834320Y-54249995D01*
X92822945Y-54212499D01*
X92818500Y-54167362D01*
X92818500Y-53528638D01*
X92822945Y-53483501D01*
X92834320Y-53446005D01*
X92852792Y-53411446D01*
X92877653Y-53381153D01*
X92907946Y-53356292D01*
X92942505Y-53337820D01*
X92980001Y-53326445D01*
X93025138Y-53322000D01*
X93763862Y-53322000D01*
X93808999Y-53326445D01*
G37*
G36*
X81538000Y-54285500D02*
G01*
X80636000Y-54285500D01*
X80636000Y-53283500D01*
X81538000Y-53283500D01*
X81538000Y-54285500D01*
G37*
G36*
X79638000Y-54285500D02*
G01*
X78736000Y-54285500D01*
X78736000Y-53283500D01*
X79638000Y-53283500D01*
X79638000Y-54285500D01*
G37*
G36*
X88271500Y-54285500D02*
G01*
X87369500Y-54285500D01*
X87369500Y-53283500D01*
X88271500Y-53283500D01*
X88271500Y-54285500D01*
G37*
G36*
X90171500Y-54285500D02*
G01*
X89269500Y-54285500D01*
X89269500Y-53283500D01*
X90171500Y-53283500D01*
X90171500Y-54285500D01*
G37*
G36*
X88298499Y-51484945D02*
G01*
X88335995Y-51496320D01*
X88370554Y-51514792D01*
X88400847Y-51539653D01*
X88425708Y-51569946D01*
X88444180Y-51604505D01*
X88455555Y-51642001D01*
X88460000Y-51687138D01*
X88460000Y-52325862D01*
X88455555Y-52370999D01*
X88444180Y-52408495D01*
X88425708Y-52443054D01*
X88400847Y-52473347D01*
X88370554Y-52498208D01*
X88335995Y-52516680D01*
X88298499Y-52528055D01*
X88253362Y-52532500D01*
X87514638Y-52532500D01*
X87469501Y-52528055D01*
X87432005Y-52516680D01*
X87397446Y-52498208D01*
X87367153Y-52473347D01*
X87342292Y-52443054D01*
X87323820Y-52408495D01*
X87312445Y-52370999D01*
X87308000Y-52325862D01*
X87308000Y-51687138D01*
X87312445Y-51642001D01*
X87323820Y-51604505D01*
X87342292Y-51569946D01*
X87367153Y-51539653D01*
X87397446Y-51514792D01*
X87432005Y-51496320D01*
X87469501Y-51484945D01*
X87514638Y-51480500D01*
X88253362Y-51480500D01*
X88298499Y-51484945D01*
G37*
G36*
X93808999Y-51484945D02*
G01*
X93846495Y-51496320D01*
X93881054Y-51514792D01*
X93911347Y-51539653D01*
X93936208Y-51569946D01*
X93954680Y-51604505D01*
X93966055Y-51642001D01*
X93970500Y-51687138D01*
X93970500Y-52325862D01*
X93966055Y-52370999D01*
X93954680Y-52408495D01*
X93936208Y-52443054D01*
X93911347Y-52473347D01*
X93881054Y-52498208D01*
X93846495Y-52516680D01*
X93808999Y-52528055D01*
X93763862Y-52532500D01*
X93025138Y-52532500D01*
X92980001Y-52528055D01*
X92942505Y-52516680D01*
X92907946Y-52498208D01*
X92877653Y-52473347D01*
X92852792Y-52443054D01*
X92834320Y-52408495D01*
X92822945Y-52370999D01*
X92818500Y-52325862D01*
X92818500Y-51687138D01*
X92822945Y-51642001D01*
X92834320Y-51604505D01*
X92852792Y-51569946D01*
X92877653Y-51539653D01*
X92907946Y-51514792D01*
X92942505Y-51496320D01*
X92980001Y-51484945D01*
X93025138Y-51480500D01*
X93763862Y-51480500D01*
X93808999Y-51484945D01*
G37*
G36*
X92058999Y-51484945D02*
G01*
X92096495Y-51496320D01*
X92131054Y-51514792D01*
X92161347Y-51539653D01*
X92186208Y-51569946D01*
X92204680Y-51604505D01*
X92216055Y-51642001D01*
X92220500Y-51687138D01*
X92220500Y-52325862D01*
X92216055Y-52370999D01*
X92204680Y-52408495D01*
X92186208Y-52443054D01*
X92161347Y-52473347D01*
X92131054Y-52498208D01*
X92096495Y-52516680D01*
X92058999Y-52528055D01*
X92013862Y-52532500D01*
X91275138Y-52532500D01*
X91230001Y-52528055D01*
X91192505Y-52516680D01*
X91157946Y-52498208D01*
X91127653Y-52473347D01*
X91102792Y-52443054D01*
X91084320Y-52408495D01*
X91072945Y-52370999D01*
X91068500Y-52325862D01*
X91068500Y-51687138D01*
X91072945Y-51642001D01*
X91084320Y-51604505D01*
X91102792Y-51569946D01*
X91127653Y-51539653D01*
X91157946Y-51514792D01*
X91192505Y-51496320D01*
X91230001Y-51484945D01*
X91275138Y-51480500D01*
X92013862Y-51480500D01*
X92058999Y-51484945D01*
G37*
G36*
X95946499Y-51484945D02*
G01*
X95983995Y-51496320D01*
X96018554Y-51514792D01*
X96048847Y-51539653D01*
X96073708Y-51569946D01*
X96092180Y-51604505D01*
X96103555Y-51642001D01*
X96108000Y-51687138D01*
X96108000Y-52325862D01*
X96103555Y-52370999D01*
X96092180Y-52408495D01*
X96073708Y-52443054D01*
X96048847Y-52473347D01*
X96018554Y-52498208D01*
X95983995Y-52516680D01*
X95946499Y-52528055D01*
X95901362Y-52532500D01*
X95162638Y-52532500D01*
X95117501Y-52528055D01*
X95080005Y-52516680D01*
X95045446Y-52498208D01*
X95015153Y-52473347D01*
X94990292Y-52443054D01*
X94971820Y-52408495D01*
X94960445Y-52370999D01*
X94956000Y-52325862D01*
X94956000Y-51687138D01*
X94960445Y-51642001D01*
X94971820Y-51604505D01*
X94990292Y-51569946D01*
X95015153Y-51539653D01*
X95045446Y-51514792D01*
X95080005Y-51496320D01*
X95117501Y-51484945D01*
X95162638Y-51480500D01*
X95901362Y-51480500D01*
X95946499Y-51484945D01*
G37*
G36*
X97696499Y-51484945D02*
G01*
X97733995Y-51496320D01*
X97768554Y-51514792D01*
X97798847Y-51539653D01*
X97823708Y-51569946D01*
X97842180Y-51604505D01*
X97853555Y-51642001D01*
X97858000Y-51687138D01*
X97858000Y-52325862D01*
X97853555Y-52370999D01*
X97842180Y-52408495D01*
X97823708Y-52443054D01*
X97798847Y-52473347D01*
X97768554Y-52498208D01*
X97733995Y-52516680D01*
X97696499Y-52528055D01*
X97651362Y-52532500D01*
X96912638Y-52532500D01*
X96867501Y-52528055D01*
X96830005Y-52516680D01*
X96795446Y-52498208D01*
X96765153Y-52473347D01*
X96740292Y-52443054D01*
X96721820Y-52408495D01*
X96710445Y-52370999D01*
X96706000Y-52325862D01*
X96706000Y-51687138D01*
X96710445Y-51642001D01*
X96721820Y-51604505D01*
X96740292Y-51569946D01*
X96765153Y-51539653D01*
X96795446Y-51514792D01*
X96830005Y-51496320D01*
X96867501Y-51484945D01*
X96912638Y-51480500D01*
X97651362Y-51480500D01*
X97696499Y-51484945D01*
G37*
G36*
X75866499Y-51484945D02*
G01*
X75903995Y-51496320D01*
X75938554Y-51514792D01*
X75968847Y-51539653D01*
X75993708Y-51569946D01*
X76012180Y-51604505D01*
X76023555Y-51642001D01*
X76028000Y-51687138D01*
X76028000Y-52325862D01*
X76023555Y-52370999D01*
X76012180Y-52408495D01*
X75993708Y-52443054D01*
X75968847Y-52473347D01*
X75938554Y-52498208D01*
X75903995Y-52516680D01*
X75866499Y-52528055D01*
X75821362Y-52532500D01*
X75082638Y-52532500D01*
X75037501Y-52528055D01*
X75000005Y-52516680D01*
X74965446Y-52498208D01*
X74935153Y-52473347D01*
X74910292Y-52443054D01*
X74891820Y-52408495D01*
X74880445Y-52370999D01*
X74876000Y-52325862D01*
X74876000Y-51687138D01*
X74880445Y-51642001D01*
X74891820Y-51604505D01*
X74910292Y-51569946D01*
X74935153Y-51539653D01*
X74965446Y-51514792D01*
X75000005Y-51496320D01*
X75037501Y-51484945D01*
X75082638Y-51480500D01*
X75821362Y-51480500D01*
X75866499Y-51484945D01*
G37*
G36*
X77616499Y-51484945D02*
G01*
X77653995Y-51496320D01*
X77688554Y-51514792D01*
X77718847Y-51539653D01*
X77743708Y-51569946D01*
X77762180Y-51604505D01*
X77773555Y-51642001D01*
X77778000Y-51687138D01*
X77778000Y-52325862D01*
X77773555Y-52370999D01*
X77762180Y-52408495D01*
X77743708Y-52443054D01*
X77718847Y-52473347D01*
X77688554Y-52498208D01*
X77653995Y-52516680D01*
X77616499Y-52528055D01*
X77571362Y-52532500D01*
X76832638Y-52532500D01*
X76787501Y-52528055D01*
X76750005Y-52516680D01*
X76715446Y-52498208D01*
X76685153Y-52473347D01*
X76660292Y-52443054D01*
X76641820Y-52408495D01*
X76630445Y-52370999D01*
X76626000Y-52325862D01*
X76626000Y-51687138D01*
X76630445Y-51642001D01*
X76641820Y-51604505D01*
X76660292Y-51569946D01*
X76685153Y-51539653D01*
X76715446Y-51514792D01*
X76750005Y-51496320D01*
X76787501Y-51484945D01*
X76832638Y-51480500D01*
X77571362Y-51480500D01*
X77616499Y-51484945D01*
G37*
G36*
X73806499Y-51484945D02*
G01*
X73843995Y-51496320D01*
X73878554Y-51514792D01*
X73908847Y-51539653D01*
X73933708Y-51569946D01*
X73952180Y-51604505D01*
X73963555Y-51642001D01*
X73968000Y-51687138D01*
X73968000Y-52325862D01*
X73963555Y-52370999D01*
X73952180Y-52408495D01*
X73933708Y-52443054D01*
X73908847Y-52473347D01*
X73878554Y-52498208D01*
X73843995Y-52516680D01*
X73806499Y-52528055D01*
X73761362Y-52532500D01*
X73022638Y-52532500D01*
X72977501Y-52528055D01*
X72940005Y-52516680D01*
X72905446Y-52498208D01*
X72875153Y-52473347D01*
X72850292Y-52443054D01*
X72831820Y-52408495D01*
X72820445Y-52370999D01*
X72816000Y-52325862D01*
X72816000Y-51687138D01*
X72820445Y-51642001D01*
X72831820Y-51604505D01*
X72850292Y-51569946D01*
X72875153Y-51539653D01*
X72905446Y-51514792D01*
X72940005Y-51496320D01*
X72977501Y-51484945D01*
X73022638Y-51480500D01*
X73761362Y-51480500D01*
X73806499Y-51484945D01*
G37*
G36*
X72056499Y-51484945D02*
G01*
X72093995Y-51496320D01*
X72128554Y-51514792D01*
X72158847Y-51539653D01*
X72183708Y-51569946D01*
X72202180Y-51604505D01*
X72213555Y-51642001D01*
X72218000Y-51687138D01*
X72218000Y-52325862D01*
X72213555Y-52370999D01*
X72202180Y-52408495D01*
X72183708Y-52443054D01*
X72158847Y-52473347D01*
X72128554Y-52498208D01*
X72093995Y-52516680D01*
X72056499Y-52528055D01*
X72011362Y-52532500D01*
X71272638Y-52532500D01*
X71227501Y-52528055D01*
X71190005Y-52516680D01*
X71155446Y-52498208D01*
X71125153Y-52473347D01*
X71100292Y-52443054D01*
X71081820Y-52408495D01*
X71070445Y-52370999D01*
X71066000Y-52325862D01*
X71066000Y-51687138D01*
X71070445Y-51642001D01*
X71081820Y-51604505D01*
X71100292Y-51569946D01*
X71125153Y-51539653D01*
X71155446Y-51514792D01*
X71190005Y-51496320D01*
X71227501Y-51484945D01*
X71272638Y-51480500D01*
X72011362Y-51480500D01*
X72056499Y-51484945D01*
G37*
G36*
X79676499Y-51484945D02*
G01*
X79713995Y-51496320D01*
X79748554Y-51514792D01*
X79778847Y-51539653D01*
X79803708Y-51569946D01*
X79822180Y-51604505D01*
X79833555Y-51642001D01*
X79838000Y-51687138D01*
X79838000Y-52325862D01*
X79833555Y-52370999D01*
X79822180Y-52408495D01*
X79803708Y-52443054D01*
X79778847Y-52473347D01*
X79748554Y-52498208D01*
X79713995Y-52516680D01*
X79676499Y-52528055D01*
X79631362Y-52532500D01*
X78892638Y-52532500D01*
X78847501Y-52528055D01*
X78810005Y-52516680D01*
X78775446Y-52498208D01*
X78745153Y-52473347D01*
X78720292Y-52443054D01*
X78701820Y-52408495D01*
X78690445Y-52370999D01*
X78686000Y-52325862D01*
X78686000Y-51687138D01*
X78690445Y-51642001D01*
X78701820Y-51604505D01*
X78720292Y-51569946D01*
X78745153Y-51539653D01*
X78775446Y-51514792D01*
X78810005Y-51496320D01*
X78847501Y-51484945D01*
X78892638Y-51480500D01*
X79631362Y-51480500D01*
X79676499Y-51484945D01*
G37*
G36*
X81426499Y-51484945D02*
G01*
X81463995Y-51496320D01*
X81498554Y-51514792D01*
X81528847Y-51539653D01*
X81553708Y-51569946D01*
X81572180Y-51604505D01*
X81583555Y-51642001D01*
X81588000Y-51687138D01*
X81588000Y-52325862D01*
X81583555Y-52370999D01*
X81572180Y-52408495D01*
X81553708Y-52443054D01*
X81528847Y-52473347D01*
X81498554Y-52498208D01*
X81463995Y-52516680D01*
X81426499Y-52528055D01*
X81381362Y-52532500D01*
X80642638Y-52532500D01*
X80597501Y-52528055D01*
X80560005Y-52516680D01*
X80525446Y-52498208D01*
X80495153Y-52473347D01*
X80470292Y-52443054D01*
X80451820Y-52408495D01*
X80440445Y-52370999D01*
X80436000Y-52325862D01*
X80436000Y-51687138D01*
X80440445Y-51642001D01*
X80451820Y-51604505D01*
X80470292Y-51569946D01*
X80495153Y-51539653D01*
X80525446Y-51514792D01*
X80560005Y-51496320D01*
X80597501Y-51484945D01*
X80642638Y-51480500D01*
X81381362Y-51480500D01*
X81426499Y-51484945D01*
G37*
G36*
X90048499Y-51484945D02*
G01*
X90085995Y-51496320D01*
X90120554Y-51514792D01*
X90150847Y-51539653D01*
X90175708Y-51569946D01*
X90194180Y-51604505D01*
X90205555Y-51642001D01*
X90210000Y-51687138D01*
X90210000Y-52325862D01*
X90205555Y-52370999D01*
X90194180Y-52408495D01*
X90175708Y-52443054D01*
X90150847Y-52473347D01*
X90120554Y-52498208D01*
X90085995Y-52516680D01*
X90048499Y-52528055D01*
X90003362Y-52532500D01*
X89264638Y-52532500D01*
X89219501Y-52528055D01*
X89182005Y-52516680D01*
X89147446Y-52498208D01*
X89117153Y-52473347D01*
X89092292Y-52443054D01*
X89073820Y-52408495D01*
X89062445Y-52370999D01*
X89058000Y-52325862D01*
X89058000Y-51687138D01*
X89062445Y-51642001D01*
X89073820Y-51604505D01*
X89092292Y-51569946D01*
X89117153Y-51539653D01*
X89147446Y-51514792D01*
X89182005Y-51496320D01*
X89219501Y-51484945D01*
X89264638Y-51480500D01*
X90003362Y-51480500D01*
X90048499Y-51484945D01*
G37*
G36*
X72042499Y-49706945D02*
G01*
X72079995Y-49718320D01*
X72114554Y-49736792D01*
X72144847Y-49761653D01*
X72169708Y-49791946D01*
X72188180Y-49826505D01*
X72199555Y-49864001D01*
X72204000Y-49909138D01*
X72204000Y-50547862D01*
X72199555Y-50592999D01*
X72188180Y-50630495D01*
X72169708Y-50665054D01*
X72144847Y-50695347D01*
X72114554Y-50720208D01*
X72079995Y-50738680D01*
X72042499Y-50750055D01*
X71997362Y-50754500D01*
X71258638Y-50754500D01*
X71213501Y-50750055D01*
X71176005Y-50738680D01*
X71141446Y-50720208D01*
X71111153Y-50695347D01*
X71086292Y-50665054D01*
X71067820Y-50630495D01*
X71056445Y-50592999D01*
X71052000Y-50547862D01*
X71052000Y-49909138D01*
X71056445Y-49864001D01*
X71067820Y-49826505D01*
X71086292Y-49791946D01*
X71111153Y-49761653D01*
X71141446Y-49736792D01*
X71176005Y-49718320D01*
X71213501Y-49706945D01*
X71258638Y-49702500D01*
X71997362Y-49702500D01*
X72042499Y-49706945D01*
G37*
G36*
X79721499Y-49706945D02*
G01*
X79758995Y-49718320D01*
X79793554Y-49736792D01*
X79823847Y-49761653D01*
X79848708Y-49791946D01*
X79867180Y-49826505D01*
X79878555Y-49864001D01*
X79883000Y-49909138D01*
X79883000Y-50547862D01*
X79878555Y-50592999D01*
X79867180Y-50630495D01*
X79848708Y-50665054D01*
X79823847Y-50695347D01*
X79793554Y-50720208D01*
X79758995Y-50738680D01*
X79721499Y-50750055D01*
X79676362Y-50754500D01*
X78937638Y-50754500D01*
X78892501Y-50750055D01*
X78855005Y-50738680D01*
X78820446Y-50720208D01*
X78790153Y-50695347D01*
X78765292Y-50665054D01*
X78746820Y-50630495D01*
X78735445Y-50592999D01*
X78731000Y-50547862D01*
X78731000Y-49909138D01*
X78735445Y-49864001D01*
X78746820Y-49826505D01*
X78765292Y-49791946D01*
X78790153Y-49761653D01*
X78820446Y-49736792D01*
X78855005Y-49718320D01*
X78892501Y-49706945D01*
X78937638Y-49702500D01*
X79676362Y-49702500D01*
X79721499Y-49706945D01*
G37*
G36*
X73792499Y-49706945D02*
G01*
X73829995Y-49718320D01*
X73864554Y-49736792D01*
X73894847Y-49761653D01*
X73919708Y-49791946D01*
X73938180Y-49826505D01*
X73949555Y-49864001D01*
X73954000Y-49909138D01*
X73954000Y-50547862D01*
X73949555Y-50592999D01*
X73938180Y-50630495D01*
X73919708Y-50665054D01*
X73894847Y-50695347D01*
X73864554Y-50720208D01*
X73829995Y-50738680D01*
X73792499Y-50750055D01*
X73747362Y-50754500D01*
X73008638Y-50754500D01*
X72963501Y-50750055D01*
X72926005Y-50738680D01*
X72891446Y-50720208D01*
X72861153Y-50695347D01*
X72836292Y-50665054D01*
X72817820Y-50630495D01*
X72806445Y-50592999D01*
X72802000Y-50547862D01*
X72802000Y-49909138D01*
X72806445Y-49864001D01*
X72817820Y-49826505D01*
X72836292Y-49791946D01*
X72861153Y-49761653D01*
X72891446Y-49736792D01*
X72926005Y-49718320D01*
X72963501Y-49706945D01*
X73008638Y-49702500D01*
X73747362Y-49702500D01*
X73792499Y-49706945D01*
G37*
G36*
X75880499Y-49706945D02*
G01*
X75917995Y-49718320D01*
X75952554Y-49736792D01*
X75982847Y-49761653D01*
X76007708Y-49791946D01*
X76026180Y-49826505D01*
X76037555Y-49864001D01*
X76042000Y-49909138D01*
X76042000Y-50547862D01*
X76037555Y-50592999D01*
X76026180Y-50630495D01*
X76007708Y-50665054D01*
X75982847Y-50695347D01*
X75952554Y-50720208D01*
X75917995Y-50738680D01*
X75880499Y-50750055D01*
X75835362Y-50754500D01*
X75096638Y-50754500D01*
X75051501Y-50750055D01*
X75014005Y-50738680D01*
X74979446Y-50720208D01*
X74949153Y-50695347D01*
X74924292Y-50665054D01*
X74905820Y-50630495D01*
X74894445Y-50592999D01*
X74890000Y-50547862D01*
X74890000Y-49909138D01*
X74894445Y-49864001D01*
X74905820Y-49826505D01*
X74924292Y-49791946D01*
X74949153Y-49761653D01*
X74979446Y-49736792D01*
X75014005Y-49718320D01*
X75051501Y-49706945D01*
X75096638Y-49702500D01*
X75835362Y-49702500D01*
X75880499Y-49706945D01*
G37*
G36*
X81471499Y-49706945D02*
G01*
X81508995Y-49718320D01*
X81543554Y-49736792D01*
X81573847Y-49761653D01*
X81598708Y-49791946D01*
X81617180Y-49826505D01*
X81628555Y-49864001D01*
X81633000Y-49909138D01*
X81633000Y-50547862D01*
X81628555Y-50592999D01*
X81617180Y-50630495D01*
X81598708Y-50665054D01*
X81573847Y-50695347D01*
X81543554Y-50720208D01*
X81508995Y-50738680D01*
X81471499Y-50750055D01*
X81426362Y-50754500D01*
X80687638Y-50754500D01*
X80642501Y-50750055D01*
X80605005Y-50738680D01*
X80570446Y-50720208D01*
X80540153Y-50695347D01*
X80515292Y-50665054D01*
X80496820Y-50630495D01*
X80485445Y-50592999D01*
X80481000Y-50547862D01*
X80481000Y-49909138D01*
X80485445Y-49864001D01*
X80496820Y-49826505D01*
X80515292Y-49791946D01*
X80540153Y-49761653D01*
X80570446Y-49736792D01*
X80605005Y-49718320D01*
X80642501Y-49706945D01*
X80687638Y-49702500D01*
X81426362Y-49702500D01*
X81471499Y-49706945D01*
G37*
G36*
X90048499Y-49706945D02*
G01*
X90085995Y-49718320D01*
X90120554Y-49736792D01*
X90150847Y-49761653D01*
X90175708Y-49791946D01*
X90194180Y-49826505D01*
X90205555Y-49864001D01*
X90210000Y-49909138D01*
X90210000Y-50547862D01*
X90205555Y-50592999D01*
X90194180Y-50630495D01*
X90175708Y-50665054D01*
X90150847Y-50695347D01*
X90120554Y-50720208D01*
X90085995Y-50738680D01*
X90048499Y-50750055D01*
X90003362Y-50754500D01*
X89264638Y-50754500D01*
X89219501Y-50750055D01*
X89182005Y-50738680D01*
X89147446Y-50720208D01*
X89117153Y-50695347D01*
X89092292Y-50665054D01*
X89073820Y-50630495D01*
X89062445Y-50592999D01*
X89058000Y-50547862D01*
X89058000Y-49909138D01*
X89062445Y-49864001D01*
X89073820Y-49826505D01*
X89092292Y-49791946D01*
X89117153Y-49761653D01*
X89147446Y-49736792D01*
X89182005Y-49718320D01*
X89219501Y-49706945D01*
X89264638Y-49702500D01*
X90003362Y-49702500D01*
X90048499Y-49706945D01*
G37*
G36*
X88298499Y-49706945D02*
G01*
X88335995Y-49718320D01*
X88370554Y-49736792D01*
X88400847Y-49761653D01*
X88425708Y-49791946D01*
X88444180Y-49826505D01*
X88455555Y-49864001D01*
X88460000Y-49909138D01*
X88460000Y-50547862D01*
X88455555Y-50592999D01*
X88444180Y-50630495D01*
X88425708Y-50665054D01*
X88400847Y-50695347D01*
X88370554Y-50720208D01*
X88335995Y-50738680D01*
X88298499Y-50750055D01*
X88253362Y-50754500D01*
X87514638Y-50754500D01*
X87469501Y-50750055D01*
X87432005Y-50738680D01*
X87397446Y-50720208D01*
X87367153Y-50695347D01*
X87342292Y-50665054D01*
X87323820Y-50630495D01*
X87312445Y-50592999D01*
X87308000Y-50547862D01*
X87308000Y-49909138D01*
X87312445Y-49864001D01*
X87323820Y-49826505D01*
X87342292Y-49791946D01*
X87367153Y-49761653D01*
X87397446Y-49736792D01*
X87432005Y-49718320D01*
X87469501Y-49706945D01*
X87514638Y-49702500D01*
X88253362Y-49702500D01*
X88298499Y-49706945D01*
G37*
G36*
X77630499Y-49706945D02*
G01*
X77667995Y-49718320D01*
X77702554Y-49736792D01*
X77732847Y-49761653D01*
X77757708Y-49791946D01*
X77776180Y-49826505D01*
X77787555Y-49864001D01*
X77792000Y-49909138D01*
X77792000Y-50547862D01*
X77787555Y-50592999D01*
X77776180Y-50630495D01*
X77757708Y-50665054D01*
X77732847Y-50695347D01*
X77702554Y-50720208D01*
X77667995Y-50738680D01*
X77630499Y-50750055D01*
X77585362Y-50754500D01*
X76846638Y-50754500D01*
X76801501Y-50750055D01*
X76764005Y-50738680D01*
X76729446Y-50720208D01*
X76699153Y-50695347D01*
X76674292Y-50665054D01*
X76655820Y-50630495D01*
X76644445Y-50592999D01*
X76640000Y-50547862D01*
X76640000Y-49909138D01*
X76644445Y-49864001D01*
X76655820Y-49826505D01*
X76674292Y-49791946D01*
X76699153Y-49761653D01*
X76729446Y-49736792D01*
X76764005Y-49718320D01*
X76801501Y-49706945D01*
X76846638Y-49702500D01*
X77585362Y-49702500D01*
X77630499Y-49706945D01*
G37*
G36*
X95918499Y-49643445D02*
G01*
X95955995Y-49654820D01*
X95990554Y-49673292D01*
X96020847Y-49698153D01*
X96045708Y-49728446D01*
X96064180Y-49763005D01*
X96075555Y-49800501D01*
X96080000Y-49845638D01*
X96080000Y-50484362D01*
X96075555Y-50529499D01*
X96064180Y-50566995D01*
X96045708Y-50601554D01*
X96020847Y-50631847D01*
X95990554Y-50656708D01*
X95955995Y-50675180D01*
X95918499Y-50686555D01*
X95873362Y-50691000D01*
X95134638Y-50691000D01*
X95089501Y-50686555D01*
X95052005Y-50675180D01*
X95017446Y-50656708D01*
X94987153Y-50631847D01*
X94962292Y-50601554D01*
X94943820Y-50566995D01*
X94932445Y-50529499D01*
X94928000Y-50484362D01*
X94928000Y-49845638D01*
X94932445Y-49800501D01*
X94943820Y-49763005D01*
X94962292Y-49728446D01*
X94987153Y-49698153D01*
X95017446Y-49673292D01*
X95052005Y-49654820D01*
X95089501Y-49643445D01*
X95134638Y-49639000D01*
X95873362Y-49639000D01*
X95918499Y-49643445D01*
G37*
G36*
X93822999Y-49643445D02*
G01*
X93860495Y-49654820D01*
X93895054Y-49673292D01*
X93925347Y-49698153D01*
X93950208Y-49728446D01*
X93968680Y-49763005D01*
X93980055Y-49800501D01*
X93984500Y-49845638D01*
X93984500Y-50484362D01*
X93980055Y-50529499D01*
X93968680Y-50566995D01*
X93950208Y-50601554D01*
X93925347Y-50631847D01*
X93895054Y-50656708D01*
X93860495Y-50675180D01*
X93822999Y-50686555D01*
X93777862Y-50691000D01*
X93039138Y-50691000D01*
X92994001Y-50686555D01*
X92956505Y-50675180D01*
X92921946Y-50656708D01*
X92891653Y-50631847D01*
X92866792Y-50601554D01*
X92848320Y-50566995D01*
X92836945Y-50529499D01*
X92832500Y-50484362D01*
X92832500Y-49845638D01*
X92836945Y-49800501D01*
X92848320Y-49763005D01*
X92866792Y-49728446D01*
X92891653Y-49698153D01*
X92921946Y-49673292D01*
X92956505Y-49654820D01*
X92994001Y-49643445D01*
X93039138Y-49639000D01*
X93777862Y-49639000D01*
X93822999Y-49643445D01*
G37*
G36*
X92072999Y-49643445D02*
G01*
X92110495Y-49654820D01*
X92145054Y-49673292D01*
X92175347Y-49698153D01*
X92200208Y-49728446D01*
X92218680Y-49763005D01*
X92230055Y-49800501D01*
X92234500Y-49845638D01*
X92234500Y-50484362D01*
X92230055Y-50529499D01*
X92218680Y-50566995D01*
X92200208Y-50601554D01*
X92175347Y-50631847D01*
X92145054Y-50656708D01*
X92110495Y-50675180D01*
X92072999Y-50686555D01*
X92027862Y-50691000D01*
X91289138Y-50691000D01*
X91244001Y-50686555D01*
X91206505Y-50675180D01*
X91171946Y-50656708D01*
X91141653Y-50631847D01*
X91116792Y-50601554D01*
X91098320Y-50566995D01*
X91086945Y-50529499D01*
X91082500Y-50484362D01*
X91082500Y-49845638D01*
X91086945Y-49800501D01*
X91098320Y-49763005D01*
X91116792Y-49728446D01*
X91141653Y-49698153D01*
X91171946Y-49673292D01*
X91206505Y-49654820D01*
X91244001Y-49643445D01*
X91289138Y-49639000D01*
X92027862Y-49639000D01*
X92072999Y-49643445D01*
G37*
G36*
X97668499Y-49643445D02*
G01*
X97705995Y-49654820D01*
X97740554Y-49673292D01*
X97770847Y-49698153D01*
X97795708Y-49728446D01*
X97814180Y-49763005D01*
X97825555Y-49800501D01*
X97830000Y-49845638D01*
X97830000Y-50484362D01*
X97825555Y-50529499D01*
X97814180Y-50566995D01*
X97795708Y-50601554D01*
X97770847Y-50631847D01*
X97740554Y-50656708D01*
X97705995Y-50675180D01*
X97668499Y-50686555D01*
X97623362Y-50691000D01*
X96884638Y-50691000D01*
X96839501Y-50686555D01*
X96802005Y-50675180D01*
X96767446Y-50656708D01*
X96737153Y-50631847D01*
X96712292Y-50601554D01*
X96693820Y-50566995D01*
X96682445Y-50529499D01*
X96678000Y-50484362D01*
X96678000Y-49845638D01*
X96682445Y-49800501D01*
X96693820Y-49763005D01*
X96712292Y-49728446D01*
X96737153Y-49698153D01*
X96767446Y-49673292D01*
X96802005Y-49654820D01*
X96839501Y-49643445D01*
X96884638Y-49639000D01*
X97623362Y-49639000D01*
X97668499Y-49643445D01*
G37*
G36*
X93531424Y-45555760D02*
G01*
X93531427Y-45555761D01*
X93531428Y-45555761D01*
X93710692Y-45610140D01*
X93710695Y-45610142D01*
X93710696Y-45610142D01*
X93875903Y-45698446D01*
X94020712Y-45817288D01*
X94139554Y-45962097D01*
X94227858Y-46127303D01*
X94227860Y-46127307D01*
X94227860Y-46127308D01*
X94282240Y-46306575D01*
X94296000Y-46446282D01*
X94296000Y-47279717D01*
X94282240Y-47419426D01*
X94227859Y-47598695D01*
X94139554Y-47763903D01*
X94020712Y-47908712D01*
X93875903Y-48027554D01*
X93710697Y-48115858D01*
X93710693Y-48115860D01*
X93531429Y-48170239D01*
X93531428Y-48170239D01*
X93531425Y-48170240D01*
X93345000Y-48188601D01*
X93158576Y-48170240D01*
X93158573Y-48170239D01*
X93158572Y-48170239D01*
X92979308Y-48115860D01*
X92979304Y-48115858D01*
X92814098Y-48027554D01*
X92669289Y-47908712D01*
X92550447Y-47763903D01*
X92462140Y-47598692D01*
X92407760Y-47419430D01*
X92394000Y-47279718D01*
X92394000Y-46446283D01*
X92407760Y-46306576D01*
X92407761Y-46306572D01*
X92462140Y-46127308D01*
X92462143Y-46127303D01*
X92550446Y-45962097D01*
X92669288Y-45817288D01*
X92814097Y-45698446D01*
X92979303Y-45610142D01*
X92979304Y-45610142D01*
X92979307Y-45610140D01*
X93158571Y-45555761D01*
X93158572Y-45555761D01*
X93158575Y-45555760D01*
X93345000Y-45537399D01*
X93531424Y-45555760D01*
G37*
G36*
X88451424Y-45555760D02*
G01*
X88451427Y-45555761D01*
X88451428Y-45555761D01*
X88630692Y-45610140D01*
X88630695Y-45610142D01*
X88630696Y-45610142D01*
X88795903Y-45698446D01*
X88940712Y-45817288D01*
X89059554Y-45962097D01*
X89147858Y-46127303D01*
X89147860Y-46127307D01*
X89147860Y-46127308D01*
X89202240Y-46306575D01*
X89216000Y-46446282D01*
X89216000Y-47279717D01*
X89202240Y-47419426D01*
X89147859Y-47598695D01*
X89059554Y-47763903D01*
X88940712Y-47908712D01*
X88795903Y-48027554D01*
X88630697Y-48115858D01*
X88630693Y-48115860D01*
X88451429Y-48170239D01*
X88451428Y-48170239D01*
X88451425Y-48170240D01*
X88265000Y-48188601D01*
X88078576Y-48170240D01*
X88078573Y-48170239D01*
X88078572Y-48170239D01*
X87899308Y-48115860D01*
X87899304Y-48115858D01*
X87734098Y-48027554D01*
X87589289Y-47908712D01*
X87470447Y-47763903D01*
X87382140Y-47598692D01*
X87327760Y-47419430D01*
X87314000Y-47279718D01*
X87314000Y-46446283D01*
X87327760Y-46306576D01*
X87327761Y-46306572D01*
X87382140Y-46127308D01*
X87382143Y-46127303D01*
X87470446Y-45962097D01*
X87589288Y-45817288D01*
X87734097Y-45698446D01*
X87899303Y-45610142D01*
X87899304Y-45610142D01*
X87899307Y-45610140D01*
X88078571Y-45555761D01*
X88078572Y-45555761D01*
X88078575Y-45555760D01*
X88265000Y-45537399D01*
X88451424Y-45555760D01*
G37*
G36*
X78164424Y-45555760D02*
G01*
X78164427Y-45555761D01*
X78164428Y-45555761D01*
X78343692Y-45610140D01*
X78343695Y-45610142D01*
X78343696Y-45610142D01*
X78508903Y-45698446D01*
X78653712Y-45817288D01*
X78772554Y-45962097D01*
X78860858Y-46127303D01*
X78860860Y-46127307D01*
X78860860Y-46127308D01*
X78915240Y-46306575D01*
X78929000Y-46446282D01*
X78929000Y-47279717D01*
X78915240Y-47419426D01*
X78860859Y-47598695D01*
X78772554Y-47763903D01*
X78653712Y-47908712D01*
X78508903Y-48027554D01*
X78343697Y-48115858D01*
X78343693Y-48115860D01*
X78164429Y-48170239D01*
X78164428Y-48170239D01*
X78164425Y-48170240D01*
X77978000Y-48188601D01*
X77791576Y-48170240D01*
X77791573Y-48170239D01*
X77791572Y-48170239D01*
X77612308Y-48115860D01*
X77612304Y-48115858D01*
X77447098Y-48027554D01*
X77302289Y-47908712D01*
X77183447Y-47763903D01*
X77095140Y-47598692D01*
X77040760Y-47419430D01*
X77027000Y-47279718D01*
X77027000Y-46446283D01*
X77040760Y-46306576D01*
X77040761Y-46306572D01*
X77095140Y-46127308D01*
X77095143Y-46127303D01*
X77183446Y-45962097D01*
X77302288Y-45817288D01*
X77447097Y-45698446D01*
X77612303Y-45610142D01*
X77612304Y-45610142D01*
X77612307Y-45610140D01*
X77791571Y-45555761D01*
X77791572Y-45555761D01*
X77791575Y-45555760D01*
X77978000Y-45537399D01*
X78164424Y-45555760D01*
G37*
G36*
X73084424Y-45555760D02*
G01*
X73084427Y-45555761D01*
X73084428Y-45555761D01*
X73263692Y-45610140D01*
X73263695Y-45610142D01*
X73263696Y-45610142D01*
X73428903Y-45698446D01*
X73573712Y-45817288D01*
X73692554Y-45962097D01*
X73780858Y-46127303D01*
X73780860Y-46127307D01*
X73780860Y-46127308D01*
X73835240Y-46306575D01*
X73849000Y-46446282D01*
X73849000Y-47279717D01*
X73835240Y-47419426D01*
X73780859Y-47598695D01*
X73692554Y-47763903D01*
X73573712Y-47908712D01*
X73428903Y-48027554D01*
X73263697Y-48115858D01*
X73263693Y-48115860D01*
X73084429Y-48170239D01*
X73084428Y-48170239D01*
X73084425Y-48170240D01*
X72898000Y-48188601D01*
X72711576Y-48170240D01*
X72711573Y-48170239D01*
X72711572Y-48170239D01*
X72532308Y-48115860D01*
X72532304Y-48115858D01*
X72367098Y-48027554D01*
X72222289Y-47908712D01*
X72103447Y-47763903D01*
X72015140Y-47598692D01*
X71960760Y-47419430D01*
X71947000Y-47279718D01*
X71947000Y-46446283D01*
X71960760Y-46306576D01*
X71960761Y-46306572D01*
X72015140Y-46127308D01*
X72015143Y-46127303D01*
X72103446Y-45962097D01*
X72222288Y-45817288D01*
X72367097Y-45698446D01*
X72532303Y-45610142D01*
X72532304Y-45610142D01*
X72532307Y-45610140D01*
X72711571Y-45555761D01*
X72711572Y-45555761D01*
X72711575Y-45555760D01*
X72898000Y-45537399D01*
X73084424Y-45555760D01*
G37*
G36*
X96021000Y-44581000D02*
G01*
X95019000Y-44581000D01*
X95019000Y-43679000D01*
X96021000Y-43679000D01*
X96021000Y-44581000D01*
G37*
G36*
X75161000Y-44581000D02*
G01*
X74159000Y-44581000D01*
X74159000Y-43679000D01*
X75161000Y-43679000D01*
X75161000Y-44581000D01*
G37*
G36*
X92072999Y-42658445D02*
G01*
X92110495Y-42669820D01*
X92145054Y-42688292D01*
X92175347Y-42713153D01*
X92200208Y-42743446D01*
X92218680Y-42778005D01*
X92230055Y-42815501D01*
X92234500Y-42860638D01*
X92234500Y-43499362D01*
X92230055Y-43544499D01*
X92218680Y-43581995D01*
X92200208Y-43616554D01*
X92175347Y-43646847D01*
X92145054Y-43671708D01*
X92110495Y-43690180D01*
X92072999Y-43701555D01*
X92027862Y-43706000D01*
X91289138Y-43706000D01*
X91244001Y-43701555D01*
X91206505Y-43690180D01*
X91171946Y-43671708D01*
X91141653Y-43646847D01*
X91116792Y-43616554D01*
X91098320Y-43581995D01*
X91086945Y-43544499D01*
X91082500Y-43499362D01*
X91082500Y-42860638D01*
X91086945Y-42815501D01*
X91098320Y-42778005D01*
X91116792Y-42743446D01*
X91141653Y-42713153D01*
X91171946Y-42688292D01*
X91206505Y-42669820D01*
X91244001Y-42658445D01*
X91289138Y-42654000D01*
X92027862Y-42654000D01*
X92072999Y-42658445D01*
G37*
G36*
X93822999Y-42658445D02*
G01*
X93860495Y-42669820D01*
X93895054Y-42688292D01*
X93925347Y-42713153D01*
X93950208Y-42743446D01*
X93968680Y-42778005D01*
X93980055Y-42815501D01*
X93984500Y-42860638D01*
X93984500Y-43499362D01*
X93980055Y-43544499D01*
X93968680Y-43581995D01*
X93950208Y-43616554D01*
X93925347Y-43646847D01*
X93895054Y-43671708D01*
X93860495Y-43690180D01*
X93822999Y-43701555D01*
X93777862Y-43706000D01*
X93039138Y-43706000D01*
X92994001Y-43701555D01*
X92956505Y-43690180D01*
X92921946Y-43671708D01*
X92891653Y-43646847D01*
X92866792Y-43616554D01*
X92848320Y-43581995D01*
X92836945Y-43544499D01*
X92832500Y-43499362D01*
X92832500Y-42860638D01*
X92836945Y-42815501D01*
X92848320Y-42778005D01*
X92866792Y-42743446D01*
X92891653Y-42713153D01*
X92921946Y-42688292D01*
X92956505Y-42669820D01*
X92994001Y-42658445D01*
X93039138Y-42654000D01*
X93777862Y-42654000D01*
X93822999Y-42658445D01*
G37*
G36*
X77023499Y-42658445D02*
G01*
X77060995Y-42669820D01*
X77095554Y-42688292D01*
X77125847Y-42713153D01*
X77150708Y-42743446D01*
X77169180Y-42778005D01*
X77180555Y-42815501D01*
X77185000Y-42860638D01*
X77185000Y-43499362D01*
X77180555Y-43544499D01*
X77169180Y-43581995D01*
X77150708Y-43616554D01*
X77125847Y-43646847D01*
X77095554Y-43671708D01*
X77060995Y-43690180D01*
X77023499Y-43701555D01*
X76978362Y-43706000D01*
X76239638Y-43706000D01*
X76194501Y-43701555D01*
X76157005Y-43690180D01*
X76122446Y-43671708D01*
X76092153Y-43646847D01*
X76067292Y-43616554D01*
X76048820Y-43581995D01*
X76037445Y-43544499D01*
X76033000Y-43499362D01*
X76033000Y-42860638D01*
X76037445Y-42815501D01*
X76048820Y-42778005D01*
X76067292Y-42743446D01*
X76092153Y-42713153D01*
X76122446Y-42688292D01*
X76157005Y-42669820D01*
X76194501Y-42658445D01*
X76239638Y-42654000D01*
X76978362Y-42654000D01*
X77023499Y-42658445D01*
G37*
G36*
X78773499Y-42658445D02*
G01*
X78810995Y-42669820D01*
X78845554Y-42688292D01*
X78875847Y-42713153D01*
X78900708Y-42743446D01*
X78919180Y-42778005D01*
X78930555Y-42815501D01*
X78935000Y-42860638D01*
X78935000Y-43499362D01*
X78930555Y-43544499D01*
X78919180Y-43581995D01*
X78900708Y-43616554D01*
X78875847Y-43646847D01*
X78845554Y-43671708D01*
X78810995Y-43690180D01*
X78773499Y-43701555D01*
X78728362Y-43706000D01*
X77989638Y-43706000D01*
X77944501Y-43701555D01*
X77907005Y-43690180D01*
X77872446Y-43671708D01*
X77842153Y-43646847D01*
X77817292Y-43616554D01*
X77798820Y-43581995D01*
X77787445Y-43544499D01*
X77783000Y-43499362D01*
X77783000Y-42860638D01*
X77787445Y-42815501D01*
X77798820Y-42778005D01*
X77817292Y-42743446D01*
X77842153Y-42713153D01*
X77872446Y-42688292D01*
X77907005Y-42669820D01*
X77944501Y-42658445D01*
X77989638Y-42654000D01*
X78728362Y-42654000D01*
X78773499Y-42658445D01*
G37*
G36*
X98021000Y-43631000D02*
G01*
X97019000Y-43631000D01*
X97019000Y-42729000D01*
X98021000Y-42729000D01*
X98021000Y-43631000D01*
G37*
G36*
X73161000Y-43631000D02*
G01*
X72159000Y-43631000D01*
X72159000Y-42729000D01*
X73161000Y-42729000D01*
X73161000Y-43631000D01*
G37*
G36*
X75161000Y-42681000D02*
G01*
X74159000Y-42681000D01*
X74159000Y-41779000D01*
X75161000Y-41779000D01*
X75161000Y-42681000D01*
G37*
G36*
X96021000Y-42681000D02*
G01*
X95019000Y-42681000D01*
X95019000Y-41779000D01*
X96021000Y-41779000D01*
X96021000Y-42681000D01*
G37*
G36*
X87181000Y-42088000D02*
G01*
X85031000Y-42088000D01*
X85031000Y-40462000D01*
X87181000Y-40462000D01*
X87181000Y-42088000D01*
G37*
G36*
X84243193Y-40472086D02*
G01*
X84335764Y-40500168D01*
X84421079Y-40545770D01*
X84495860Y-40607140D01*
X84557230Y-40681921D01*
X84602832Y-40767236D01*
X84630914Y-40859807D01*
X84641000Y-40962220D01*
X84641000Y-41587780D01*
X84630914Y-41690193D01*
X84602832Y-41782764D01*
X84557230Y-41868079D01*
X84495860Y-41942860D01*
X84421079Y-42004230D01*
X84335764Y-42049832D01*
X84243193Y-42077914D01*
X84140780Y-42088000D01*
X82991220Y-42088000D01*
X82888807Y-42077914D01*
X82796236Y-42049832D01*
X82710921Y-42004230D01*
X82636140Y-41942860D01*
X82574770Y-41868079D01*
X82529168Y-41782764D01*
X82501086Y-41690193D01*
X82491000Y-41587780D01*
X82491000Y-40962220D01*
X82501086Y-40859807D01*
X82529168Y-40767236D01*
X82574770Y-40681921D01*
X82636140Y-40607140D01*
X82710921Y-40545770D01*
X82796236Y-40500168D01*
X82888807Y-40472086D01*
X82991220Y-40462000D01*
X84140780Y-40462000D01*
X84243193Y-40472086D01*
G37*
G36*
X74572395Y-39090546D02*
G01*
X74745466Y-39162234D01*
X74745467Y-39162235D01*
X74901227Y-39266310D01*
X75033690Y-39398773D01*
X75033691Y-39398775D01*
X75137766Y-39554534D01*
X75209454Y-39727605D01*
X75246000Y-39911333D01*
X75246000Y-40098667D01*
X75209454Y-40282395D01*
X75137766Y-40455466D01*
X75137765Y-40455467D01*
X75033690Y-40611227D01*
X74901227Y-40743690D01*
X74827070Y-40793240D01*
X74745466Y-40847766D01*
X74572395Y-40919454D01*
X74388667Y-40956000D01*
X74201333Y-40956000D01*
X74017605Y-40919454D01*
X73844534Y-40847766D01*
X73762930Y-40793240D01*
X73688773Y-40743690D01*
X73556310Y-40611227D01*
X73452235Y-40455467D01*
X73452234Y-40455466D01*
X73380546Y-40282395D01*
X73344000Y-40098667D01*
X73344000Y-39911333D01*
X73380546Y-39727605D01*
X73452234Y-39554534D01*
X73556309Y-39398775D01*
X73556310Y-39398773D01*
X73688773Y-39266310D01*
X73844533Y-39162235D01*
X73844534Y-39162234D01*
X74017605Y-39090546D01*
X74201333Y-39054000D01*
X74388667Y-39054000D01*
X74572395Y-39090546D01*
G37*
G36*
X94892395Y-39090546D02*
G01*
X95065466Y-39162234D01*
X95065467Y-39162235D01*
X95221227Y-39266310D01*
X95353690Y-39398773D01*
X95353691Y-39398775D01*
X95457766Y-39554534D01*
X95529454Y-39727605D01*
X95566000Y-39911333D01*
X95566000Y-40098667D01*
X95529454Y-40282395D01*
X95457766Y-40455466D01*
X95457765Y-40455467D01*
X95353690Y-40611227D01*
X95221227Y-40743690D01*
X95147070Y-40793240D01*
X95065466Y-40847766D01*
X94892395Y-40919454D01*
X94708667Y-40956000D01*
X94521333Y-40956000D01*
X94337605Y-40919454D01*
X94164534Y-40847766D01*
X94082930Y-40793240D01*
X94008773Y-40743690D01*
X93876310Y-40611227D01*
X93772235Y-40455467D01*
X93772234Y-40455466D01*
X93700546Y-40282395D01*
X93664000Y-40098667D01*
X93664000Y-39911333D01*
X93700546Y-39727605D01*
X93772234Y-39554534D01*
X93876309Y-39398775D01*
X93876310Y-39398773D01*
X94008773Y-39266310D01*
X94164533Y-39162235D01*
X94164534Y-39162234D01*
X94337605Y-39090546D01*
X94521333Y-39054000D01*
X94708667Y-39054000D01*
X94892395Y-39090546D01*
G37*
G36*
X77112395Y-39090546D02*
G01*
X77285466Y-39162234D01*
X77285467Y-39162235D01*
X77441227Y-39266310D01*
X77573690Y-39398773D01*
X77573691Y-39398775D01*
X77677766Y-39554534D01*
X77749454Y-39727605D01*
X77786000Y-39911333D01*
X77786000Y-40098667D01*
X77749454Y-40282395D01*
X77677766Y-40455466D01*
X77677765Y-40455467D01*
X77573690Y-40611227D01*
X77441227Y-40743690D01*
X77367070Y-40793240D01*
X77285466Y-40847766D01*
X77112395Y-40919454D01*
X76928667Y-40956000D01*
X76741333Y-40956000D01*
X76557605Y-40919454D01*
X76384534Y-40847766D01*
X76302930Y-40793240D01*
X76228773Y-40743690D01*
X76096310Y-40611227D01*
X75992235Y-40455467D01*
X75992234Y-40455466D01*
X75920546Y-40282395D01*
X75884000Y-40098667D01*
X75884000Y-39911333D01*
X75920546Y-39727605D01*
X75992234Y-39554534D01*
X76096309Y-39398775D01*
X76096310Y-39398773D01*
X76228773Y-39266310D01*
X76384533Y-39162235D01*
X76384534Y-39162234D01*
X76557605Y-39090546D01*
X76741333Y-39054000D01*
X76928667Y-39054000D01*
X77112395Y-39090546D01*
G37*
G36*
X79652395Y-39090546D02*
G01*
X79825466Y-39162234D01*
X79825467Y-39162235D01*
X79981227Y-39266310D01*
X80113690Y-39398773D01*
X80113691Y-39398775D01*
X80217766Y-39554534D01*
X80289454Y-39727605D01*
X80326000Y-39911333D01*
X80326000Y-40098667D01*
X80289454Y-40282395D01*
X80217766Y-40455466D01*
X80217765Y-40455467D01*
X80113690Y-40611227D01*
X79981227Y-40743690D01*
X79907070Y-40793240D01*
X79825466Y-40847766D01*
X79652395Y-40919454D01*
X79468667Y-40956000D01*
X79281333Y-40956000D01*
X79097605Y-40919454D01*
X78924534Y-40847766D01*
X78842930Y-40793240D01*
X78768773Y-40743690D01*
X78636310Y-40611227D01*
X78532235Y-40455467D01*
X78532234Y-40455466D01*
X78460546Y-40282395D01*
X78424000Y-40098667D01*
X78424000Y-39911333D01*
X78460546Y-39727605D01*
X78532234Y-39554534D01*
X78636309Y-39398775D01*
X78636310Y-39398773D01*
X78768773Y-39266310D01*
X78924533Y-39162235D01*
X78924534Y-39162234D01*
X79097605Y-39090546D01*
X79281333Y-39054000D01*
X79468667Y-39054000D01*
X79652395Y-39090546D01*
G37*
G36*
X89812395Y-39090546D02*
G01*
X89985466Y-39162234D01*
X89985467Y-39162235D01*
X90141227Y-39266310D01*
X90273690Y-39398773D01*
X90273691Y-39398775D01*
X90377766Y-39554534D01*
X90449454Y-39727605D01*
X90486000Y-39911333D01*
X90486000Y-40098667D01*
X90449454Y-40282395D01*
X90377766Y-40455466D01*
X90377765Y-40455467D01*
X90273690Y-40611227D01*
X90141227Y-40743690D01*
X90067070Y-40793240D01*
X89985466Y-40847766D01*
X89812395Y-40919454D01*
X89628667Y-40956000D01*
X89441333Y-40956000D01*
X89257605Y-40919454D01*
X89084534Y-40847766D01*
X89002930Y-40793240D01*
X88928773Y-40743690D01*
X88796310Y-40611227D01*
X88692235Y-40455467D01*
X88692234Y-40455466D01*
X88620546Y-40282395D01*
X88584000Y-40098667D01*
X88584000Y-39911333D01*
X88620546Y-39727605D01*
X88692234Y-39554534D01*
X88796309Y-39398775D01*
X88796310Y-39398773D01*
X88928773Y-39266310D01*
X89084533Y-39162235D01*
X89084534Y-39162234D01*
X89257605Y-39090546D01*
X89441333Y-39054000D01*
X89628667Y-39054000D01*
X89812395Y-39090546D01*
G37*
G36*
X92352395Y-39090546D02*
G01*
X92525466Y-39162234D01*
X92525467Y-39162235D01*
X92681227Y-39266310D01*
X92813690Y-39398773D01*
X92813691Y-39398775D01*
X92917766Y-39554534D01*
X92989454Y-39727605D01*
X93026000Y-39911333D01*
X93026000Y-40098667D01*
X92989454Y-40282395D01*
X92917766Y-40455466D01*
X92917765Y-40455467D01*
X92813690Y-40611227D01*
X92681227Y-40743690D01*
X92607070Y-40793240D01*
X92525466Y-40847766D01*
X92352395Y-40919454D01*
X92168667Y-40956000D01*
X91981333Y-40956000D01*
X91797605Y-40919454D01*
X91624534Y-40847766D01*
X91542930Y-40793240D01*
X91468773Y-40743690D01*
X91336310Y-40611227D01*
X91232235Y-40455467D01*
X91232234Y-40455466D01*
X91160546Y-40282395D01*
X91124000Y-40098667D01*
X91124000Y-39911333D01*
X91160546Y-39727605D01*
X91232234Y-39554534D01*
X91336309Y-39398775D01*
X91336310Y-39398773D01*
X91468773Y-39266310D01*
X91624533Y-39162235D01*
X91624534Y-39162234D01*
X91797605Y-39090546D01*
X91981333Y-39054000D01*
X92168667Y-39054000D01*
X92352395Y-39090546D01*
G37*
G36*
X84641000Y-39548000D02*
G01*
X82491000Y-39548000D01*
X82491000Y-37922000D01*
X84641000Y-37922000D01*
X84641000Y-39548000D01*
G37*
G36*
X86783193Y-37932086D02*
G01*
X86875764Y-37960168D01*
X86961079Y-38005770D01*
X87035860Y-38067140D01*
X87097230Y-38141921D01*
X87142832Y-38227236D01*
X87170914Y-38319807D01*
X87181000Y-38422220D01*
X87181000Y-39047780D01*
X87170914Y-39150193D01*
X87142832Y-39242764D01*
X87097230Y-39328079D01*
X87035860Y-39402860D01*
X86961079Y-39464230D01*
X86875764Y-39509832D01*
X86783193Y-39537914D01*
X86680780Y-39548000D01*
X85531220Y-39548000D01*
X85428807Y-39537914D01*
X85336236Y-39509832D01*
X85250921Y-39464230D01*
X85176140Y-39402860D01*
X85114770Y-39328079D01*
X85069168Y-39242764D01*
X85041086Y-39150193D01*
X85031000Y-39047780D01*
X85031000Y-38422220D01*
X85041086Y-38319807D01*
X85069168Y-38227236D01*
X85114770Y-38141921D01*
X85176140Y-38067140D01*
X85250921Y-38005770D01*
X85336236Y-37960168D01*
X85428807Y-37932086D01*
X85531220Y-37922000D01*
X86680780Y-37922000D01*
X86783193Y-37932086D01*
G37*
G36*
X78124499Y-37070445D02*
G01*
X78161995Y-37081820D01*
X78196554Y-37100292D01*
X78226847Y-37125153D01*
X78251708Y-37155446D01*
X78270180Y-37190005D01*
X78281555Y-37227501D01*
X78286000Y-37272638D01*
X78286000Y-37911362D01*
X78281555Y-37956499D01*
X78270180Y-37993995D01*
X78251708Y-38028554D01*
X78226847Y-38058847D01*
X78196554Y-38083708D01*
X78161995Y-38102180D01*
X78124499Y-38113555D01*
X78079362Y-38118000D01*
X77340638Y-38118000D01*
X77295501Y-38113555D01*
X77258005Y-38102180D01*
X77223446Y-38083708D01*
X77193153Y-38058847D01*
X77168292Y-38028554D01*
X77149820Y-37993995D01*
X77138445Y-37956499D01*
X77134000Y-37911362D01*
X77134000Y-37272638D01*
X77138445Y-37227501D01*
X77149820Y-37190005D01*
X77168292Y-37155446D01*
X77193153Y-37125153D01*
X77223446Y-37100292D01*
X77258005Y-37081820D01*
X77295501Y-37070445D01*
X77340638Y-37066000D01*
X78079362Y-37066000D01*
X78124499Y-37070445D01*
G37*
G36*
X76374499Y-37070445D02*
G01*
X76411995Y-37081820D01*
X76446554Y-37100292D01*
X76476847Y-37125153D01*
X76501708Y-37155446D01*
X76520180Y-37190005D01*
X76531555Y-37227501D01*
X76536000Y-37272638D01*
X76536000Y-37911362D01*
X76531555Y-37956499D01*
X76520180Y-37993995D01*
X76501708Y-38028554D01*
X76476847Y-38058847D01*
X76446554Y-38083708D01*
X76411995Y-38102180D01*
X76374499Y-38113555D01*
X76329362Y-38118000D01*
X75590638Y-38118000D01*
X75545501Y-38113555D01*
X75508005Y-38102180D01*
X75473446Y-38083708D01*
X75443153Y-38058847D01*
X75418292Y-38028554D01*
X75399820Y-37993995D01*
X75388445Y-37956499D01*
X75384000Y-37911362D01*
X75384000Y-37272638D01*
X75388445Y-37227501D01*
X75399820Y-37190005D01*
X75418292Y-37155446D01*
X75443153Y-37125153D01*
X75473446Y-37100292D01*
X75508005Y-37081820D01*
X75545501Y-37070445D01*
X75590638Y-37066000D01*
X76329362Y-37066000D01*
X76374499Y-37070445D01*
G37*
G36*
X93822999Y-37070445D02*
G01*
X93860495Y-37081820D01*
X93895054Y-37100292D01*
X93925347Y-37125153D01*
X93950208Y-37155446D01*
X93968680Y-37190005D01*
X93980055Y-37227501D01*
X93984500Y-37272638D01*
X93984500Y-37911362D01*
X93980055Y-37956499D01*
X93968680Y-37993995D01*
X93950208Y-38028554D01*
X93925347Y-38058847D01*
X93895054Y-38083708D01*
X93860495Y-38102180D01*
X93822999Y-38113555D01*
X93777862Y-38118000D01*
X93039138Y-38118000D01*
X92994001Y-38113555D01*
X92956505Y-38102180D01*
X92921946Y-38083708D01*
X92891653Y-38058847D01*
X92866792Y-38028554D01*
X92848320Y-37993995D01*
X92836945Y-37956499D01*
X92832500Y-37911362D01*
X92832500Y-37272638D01*
X92836945Y-37227501D01*
X92848320Y-37190005D01*
X92866792Y-37155446D01*
X92891653Y-37125153D01*
X92921946Y-37100292D01*
X92956505Y-37081820D01*
X92994001Y-37070445D01*
X93039138Y-37066000D01*
X93777862Y-37066000D01*
X93822999Y-37070445D01*
G37*
G36*
X92072999Y-37070445D02*
G01*
X92110495Y-37081820D01*
X92145054Y-37100292D01*
X92175347Y-37125153D01*
X92200208Y-37155446D01*
X92218680Y-37190005D01*
X92230055Y-37227501D01*
X92234500Y-37272638D01*
X92234500Y-37911362D01*
X92230055Y-37956499D01*
X92218680Y-37993995D01*
X92200208Y-38028554D01*
X92175347Y-38058847D01*
X92145054Y-38083708D01*
X92110495Y-38102180D01*
X92072999Y-38113555D01*
X92027862Y-38118000D01*
X91289138Y-38118000D01*
X91244001Y-38113555D01*
X91206505Y-38102180D01*
X91171946Y-38083708D01*
X91141653Y-38058847D01*
X91116792Y-38028554D01*
X91098320Y-37993995D01*
X91086945Y-37956499D01*
X91082500Y-37911362D01*
X91082500Y-37272638D01*
X91086945Y-37227501D01*
X91098320Y-37190005D01*
X91116792Y-37155446D01*
X91141653Y-37125153D01*
X91171946Y-37100292D01*
X91206505Y-37081820D01*
X91244001Y-37070445D01*
X91289138Y-37066000D01*
X92027862Y-37066000D01*
X92072999Y-37070445D01*
G37*
G36*
X93822999Y-35038445D02*
G01*
X93860495Y-35049820D01*
X93895054Y-35068292D01*
X93925347Y-35093153D01*
X93950208Y-35123446D01*
X93968680Y-35158005D01*
X93980055Y-35195501D01*
X93984500Y-35240638D01*
X93984500Y-35879362D01*
X93980055Y-35924499D01*
X93968680Y-35961995D01*
X93950208Y-35996554D01*
X93925347Y-36026847D01*
X93895054Y-36051708D01*
X93860495Y-36070180D01*
X93822999Y-36081555D01*
X93777862Y-36086000D01*
X93039138Y-36086000D01*
X92994001Y-36081555D01*
X92956505Y-36070180D01*
X92921946Y-36051708D01*
X92891653Y-36026847D01*
X92866792Y-35996554D01*
X92848320Y-35961995D01*
X92836945Y-35924499D01*
X92832500Y-35879362D01*
X92832500Y-35240638D01*
X92836945Y-35195501D01*
X92848320Y-35158005D01*
X92866792Y-35123446D01*
X92891653Y-35093153D01*
X92921946Y-35068292D01*
X92956505Y-35049820D01*
X92994001Y-35038445D01*
X93039138Y-35034000D01*
X93777862Y-35034000D01*
X93822999Y-35038445D01*
G37*
G36*
X92072999Y-35038445D02*
G01*
X92110495Y-35049820D01*
X92145054Y-35068292D01*
X92175347Y-35093153D01*
X92200208Y-35123446D01*
X92218680Y-35158005D01*
X92230055Y-35195501D01*
X92234500Y-35240638D01*
X92234500Y-35879362D01*
X92230055Y-35924499D01*
X92218680Y-35961995D01*
X92200208Y-35996554D01*
X92175347Y-36026847D01*
X92145054Y-36051708D01*
X92110495Y-36070180D01*
X92072999Y-36081555D01*
X92027862Y-36086000D01*
X91289138Y-36086000D01*
X91244001Y-36081555D01*
X91206505Y-36070180D01*
X91171946Y-36051708D01*
X91141653Y-36026847D01*
X91116792Y-35996554D01*
X91098320Y-35961995D01*
X91086945Y-35924499D01*
X91082500Y-35879362D01*
X91082500Y-35240638D01*
X91086945Y-35195501D01*
X91098320Y-35158005D01*
X91116792Y-35123446D01*
X91141653Y-35093153D01*
X91171946Y-35068292D01*
X91206505Y-35049820D01*
X91244001Y-35038445D01*
X91289138Y-35034000D01*
X92027862Y-35034000D01*
X92072999Y-35038445D01*
G37*
G36*
X76374499Y-35038445D02*
G01*
X76411995Y-35049820D01*
X76446554Y-35068292D01*
X76476847Y-35093153D01*
X76501708Y-35123446D01*
X76520180Y-35158005D01*
X76531555Y-35195501D01*
X76536000Y-35240638D01*
X76536000Y-35879362D01*
X76531555Y-35924499D01*
X76520180Y-35961995D01*
X76501708Y-35996554D01*
X76476847Y-36026847D01*
X76446554Y-36051708D01*
X76411995Y-36070180D01*
X76374499Y-36081555D01*
X76329362Y-36086000D01*
X75590638Y-36086000D01*
X75545501Y-36081555D01*
X75508005Y-36070180D01*
X75473446Y-36051708D01*
X75443153Y-36026847D01*
X75418292Y-35996554D01*
X75399820Y-35961995D01*
X75388445Y-35924499D01*
X75384000Y-35879362D01*
X75384000Y-35240638D01*
X75388445Y-35195501D01*
X75399820Y-35158005D01*
X75418292Y-35123446D01*
X75443153Y-35093153D01*
X75473446Y-35068292D01*
X75508005Y-35049820D01*
X75545501Y-35038445D01*
X75590638Y-35034000D01*
X76329362Y-35034000D01*
X76374499Y-35038445D01*
G37*
G36*
X78124499Y-35038445D02*
G01*
X78161995Y-35049820D01*
X78196554Y-35068292D01*
X78226847Y-35093153D01*
X78251708Y-35123446D01*
X78270180Y-35158005D01*
X78281555Y-35195501D01*
X78286000Y-35240638D01*
X78286000Y-35879362D01*
X78281555Y-35924499D01*
X78270180Y-35961995D01*
X78251708Y-35996554D01*
X78226847Y-36026847D01*
X78196554Y-36051708D01*
X78161995Y-36070180D01*
X78124499Y-36081555D01*
X78079362Y-36086000D01*
X77340638Y-36086000D01*
X77295501Y-36081555D01*
X77258005Y-36070180D01*
X77223446Y-36051708D01*
X77193153Y-36026847D01*
X77168292Y-35996554D01*
X77149820Y-35961995D01*
X77138445Y-35924499D01*
X77134000Y-35879362D01*
X77134000Y-35240638D01*
X77138445Y-35195501D01*
X77149820Y-35158005D01*
X77168292Y-35123446D01*
X77193153Y-35093153D01*
X77223446Y-35068292D01*
X77258005Y-35049820D01*
X77295501Y-35038445D01*
X77340638Y-35034000D01*
X78079362Y-35034000D01*
X78124499Y-35038445D01*
G37*
G36*
X86503244Y-30675000D02*
G01*
X86627783Y-30699772D01*
X86826551Y-30782105D01*
X86916600Y-30842274D01*
X87005436Y-30901632D01*
X87157568Y-31053764D01*
X87277096Y-31232651D01*
X87359428Y-31431418D01*
X87393103Y-31600714D01*
X87400216Y-31624163D01*
X87411767Y-31645774D01*
X87427312Y-31664716D01*
X87446254Y-31680261D01*
X87467865Y-31691812D01*
X87491314Y-31698925D01*
X87515700Y-31701327D01*
X87540086Y-31698925D01*
X87563535Y-31691812D01*
X87585146Y-31680261D01*
X87604088Y-31664716D01*
X87619633Y-31645774D01*
X87631184Y-31624163D01*
X87638297Y-31600714D01*
X87671972Y-31431418D01*
X87754304Y-31232651D01*
X87873832Y-31053764D01*
X88025964Y-30901632D01*
X88114800Y-30842274D01*
X88204849Y-30782105D01*
X88403617Y-30699772D01*
X88528156Y-30675000D01*
X88614626Y-30657800D01*
X88829774Y-30657800D01*
X88916244Y-30675000D01*
X89040783Y-30699772D01*
X89239551Y-30782105D01*
X89418437Y-30901633D01*
X89570567Y-31053763D01*
X89690095Y-31232649D01*
X89772428Y-31431417D01*
X89814400Y-31642428D01*
X89814400Y-31857572D01*
X89772428Y-32068583D01*
X89690095Y-32267351D01*
X89570567Y-32446237D01*
X89418437Y-32598367D01*
X89239551Y-32717895D01*
X89040783Y-32800228D01*
X88970446Y-32814219D01*
X88829774Y-32842200D01*
X88614626Y-32842200D01*
X88473954Y-32814219D01*
X88403617Y-32800228D01*
X88204849Y-32717895D01*
X88025963Y-32598367D01*
X87873833Y-32446237D01*
X87754305Y-32267351D01*
X87671972Y-32068583D01*
X87638297Y-31899286D01*
X87631184Y-31875837D01*
X87619633Y-31854226D01*
X87604088Y-31835284D01*
X87585146Y-31819739D01*
X87563535Y-31808188D01*
X87540086Y-31801075D01*
X87515700Y-31798673D01*
X87491314Y-31801075D01*
X87467865Y-31808188D01*
X87446254Y-31819739D01*
X87427312Y-31835284D01*
X87411767Y-31854226D01*
X87400216Y-31875837D01*
X87393103Y-31899286D01*
X87359428Y-32068583D01*
X87277095Y-32267351D01*
X87157567Y-32446237D01*
X87005437Y-32598367D01*
X86826551Y-32717895D01*
X86627783Y-32800228D01*
X86557446Y-32814219D01*
X86416774Y-32842200D01*
X86201626Y-32842200D01*
X86060954Y-32814219D01*
X85990617Y-32800228D01*
X85791849Y-32717895D01*
X85612963Y-32598367D01*
X85460833Y-32446237D01*
X85341305Y-32267351D01*
X85258972Y-32068583D01*
X85217000Y-31857572D01*
X85217000Y-31642428D01*
X85258972Y-31431417D01*
X85341305Y-31232649D01*
X85460833Y-31053763D01*
X85612963Y-30901633D01*
X85791849Y-30782105D01*
X85990617Y-30699772D01*
X86115156Y-30675000D01*
X86201626Y-30657800D01*
X86416774Y-30657800D01*
X86503244Y-30675000D01*
G37*
G36*
X97476044Y-30675000D02*
G01*
X97600583Y-30699772D01*
X97799351Y-30782105D01*
X97978237Y-30901633D01*
X98130367Y-31053763D01*
X98249895Y-31232649D01*
X98332228Y-31431417D01*
X98374200Y-31642428D01*
X98374200Y-31857572D01*
X98332228Y-32068583D01*
X98249895Y-32267351D01*
X98130367Y-32446237D01*
X97978237Y-32598367D01*
X97799351Y-32717895D01*
X97600583Y-32800228D01*
X97530246Y-32814219D01*
X97389574Y-32842200D01*
X97174426Y-32842200D01*
X97033754Y-32814219D01*
X96963417Y-32800228D01*
X96764649Y-32717895D01*
X96585763Y-32598367D01*
X96433633Y-32446237D01*
X96314105Y-32267351D01*
X96231772Y-32068583D01*
X96189800Y-31857572D01*
X96189800Y-31642428D01*
X96231772Y-31431417D01*
X96314105Y-31232649D01*
X96433633Y-31053763D01*
X96585763Y-30901633D01*
X96764649Y-30782105D01*
X96963417Y-30699772D01*
X97087956Y-30675000D01*
X97174426Y-30657800D01*
X97389574Y-30657800D01*
X97476044Y-30675000D01*
G37*
G36*
X80381844Y-30675000D02*
G01*
X80506383Y-30699772D01*
X80705151Y-30782105D01*
X80795200Y-30842274D01*
X80884036Y-30901632D01*
X81036168Y-31053764D01*
X81155696Y-31232651D01*
X81238028Y-31431418D01*
X81271703Y-31600714D01*
X81278816Y-31624163D01*
X81290367Y-31645774D01*
X81305912Y-31664716D01*
X81324854Y-31680261D01*
X81346465Y-31691812D01*
X81369914Y-31698925D01*
X81394300Y-31701327D01*
X81418686Y-31698925D01*
X81442135Y-31691812D01*
X81463746Y-31680261D01*
X81482688Y-31664716D01*
X81498233Y-31645774D01*
X81509784Y-31624163D01*
X81516897Y-31600714D01*
X81550572Y-31431418D01*
X81632904Y-31232651D01*
X81752432Y-31053764D01*
X81904564Y-30901632D01*
X81993400Y-30842274D01*
X82083449Y-30782105D01*
X82282217Y-30699772D01*
X82406756Y-30675000D01*
X82493226Y-30657800D01*
X82708374Y-30657800D01*
X82794844Y-30675000D01*
X82919383Y-30699772D01*
X83118151Y-30782105D01*
X83297037Y-30901633D01*
X83449167Y-31053763D01*
X83568695Y-31232649D01*
X83651028Y-31431417D01*
X83693000Y-31642428D01*
X83693000Y-31857572D01*
X83651028Y-32068583D01*
X83568695Y-32267351D01*
X83449167Y-32446237D01*
X83297037Y-32598367D01*
X83118151Y-32717895D01*
X82919383Y-32800228D01*
X82849046Y-32814219D01*
X82708374Y-32842200D01*
X82493226Y-32842200D01*
X82352554Y-32814219D01*
X82282217Y-32800228D01*
X82083449Y-32717895D01*
X81904563Y-32598367D01*
X81752433Y-32446237D01*
X81632905Y-32267351D01*
X81550572Y-32068583D01*
X81516897Y-31899286D01*
X81509784Y-31875837D01*
X81498233Y-31854226D01*
X81482688Y-31835284D01*
X81463746Y-31819739D01*
X81442135Y-31808188D01*
X81418686Y-31801075D01*
X81394300Y-31798673D01*
X81369914Y-31801075D01*
X81346465Y-31808188D01*
X81324854Y-31819739D01*
X81305912Y-31835284D01*
X81290367Y-31854226D01*
X81278816Y-31875837D01*
X81271703Y-31899286D01*
X81238028Y-32068583D01*
X81155695Y-32267351D01*
X81036167Y-32446237D01*
X80884037Y-32598367D01*
X80705151Y-32717895D01*
X80506383Y-32800228D01*
X80436046Y-32814219D01*
X80295374Y-32842200D01*
X80080226Y-32842200D01*
X79939554Y-32814219D01*
X79869217Y-32800228D01*
X79670449Y-32717895D01*
X79491563Y-32598367D01*
X79339433Y-32446237D01*
X79219905Y-32267351D01*
X79137572Y-32068583D01*
X79095600Y-31857572D01*
X79095600Y-31642428D01*
X79137572Y-31431417D01*
X79219905Y-31232649D01*
X79339433Y-31053763D01*
X79491563Y-30901633D01*
X79670449Y-30782105D01*
X79869217Y-30699772D01*
X79993756Y-30675000D01*
X80080226Y-30657800D01*
X80295374Y-30657800D01*
X80381844Y-30675000D01*
G37*
G36*
X71822044Y-30675000D02*
G01*
X71946583Y-30699772D01*
X72145351Y-30782105D01*
X72324237Y-30901633D01*
X72476367Y-31053763D01*
X72595895Y-31232649D01*
X72678228Y-31431417D01*
X72720200Y-31642428D01*
X72720200Y-31857572D01*
X72678228Y-32068583D01*
X72595895Y-32267351D01*
X72476367Y-32446237D01*
X72324237Y-32598367D01*
X72145351Y-32717895D01*
X71946583Y-32800228D01*
X71876246Y-32814219D01*
X71735574Y-32842200D01*
X71520426Y-32842200D01*
X71379754Y-32814219D01*
X71309417Y-32800228D01*
X71110649Y-32717895D01*
X70931763Y-32598367D01*
X70779633Y-32446237D01*
X70660105Y-32267351D01*
X70577772Y-32068583D01*
X70535800Y-31857572D01*
X70535800Y-31642428D01*
X70577772Y-31431417D01*
X70660105Y-31232649D01*
X70779633Y-31053763D01*
X70931763Y-30901633D01*
X71110649Y-30782105D01*
X71309417Y-30699772D01*
X71433956Y-30675000D01*
X71520426Y-30657800D01*
X71735574Y-30657800D01*
X71822044Y-30675000D01*
G37*
G36*
X95701997Y-27577051D02*
G01*
X95735652Y-27587261D01*
X95766665Y-27603838D01*
X95793851Y-27626149D01*
X95816162Y-27653335D01*
X95832739Y-27684348D01*
X95842949Y-27718003D01*
X95847000Y-27759138D01*
X95847000Y-30488862D01*
X95842949Y-30529997D01*
X95832739Y-30563652D01*
X95816162Y-30594665D01*
X95793851Y-30621851D01*
X95766665Y-30644162D01*
X95735652Y-30660739D01*
X95701997Y-30670949D01*
X95660862Y-30675000D01*
X94331138Y-30675000D01*
X94290003Y-30670949D01*
X94256348Y-30660739D01*
X94225335Y-30644162D01*
X94198149Y-30621851D01*
X94175838Y-30594665D01*
X94159261Y-30563652D01*
X94149051Y-30529997D01*
X94145000Y-30488862D01*
X94145000Y-27759138D01*
X94149051Y-27718003D01*
X94159261Y-27684348D01*
X94175838Y-27653335D01*
X94198149Y-27626149D01*
X94225335Y-27603838D01*
X94256348Y-27587261D01*
X94290003Y-27577051D01*
X94331138Y-27573000D01*
X95660862Y-27573000D01*
X95701997Y-27577051D01*
G37*
G36*
X74619997Y-27577051D02*
G01*
X74653652Y-27587261D01*
X74684665Y-27603838D01*
X74711851Y-27626149D01*
X74734162Y-27653335D01*
X74750739Y-27684348D01*
X74760949Y-27718003D01*
X74765000Y-27759138D01*
X74765000Y-30488862D01*
X74760949Y-30529997D01*
X74750739Y-30563652D01*
X74734162Y-30594665D01*
X74711851Y-30621851D01*
X74684665Y-30644162D01*
X74653652Y-30660739D01*
X74619997Y-30670949D01*
X74578862Y-30675000D01*
X73249138Y-30675000D01*
X73208003Y-30670949D01*
X73174348Y-30660739D01*
X73143335Y-30644162D01*
X73116149Y-30621851D01*
X73093838Y-30594665D01*
X73077261Y-30563652D01*
X73067051Y-30529997D01*
X73063000Y-30488862D01*
X73063000Y-27759138D01*
X73067051Y-27718003D01*
X73077261Y-27684348D01*
X73093838Y-27653335D01*
X73116149Y-27626149D01*
X73143335Y-27603838D01*
X73174348Y-27587261D01*
X73208003Y-27577051D01*
X73249138Y-27573000D01*
X74578862Y-27573000D01*
X74619997Y-27577051D01*
G37*
G36*
X90367997Y-27377051D02*
G01*
X90401652Y-27387261D01*
X90432665Y-27403838D01*
X90459851Y-27426149D01*
X90482162Y-27453335D01*
X90498739Y-27484348D01*
X90508949Y-27518003D01*
X90513000Y-27559138D01*
X90513000Y-29888862D01*
X90508949Y-29929997D01*
X90498739Y-29963652D01*
X90482162Y-29994665D01*
X90459851Y-30021851D01*
X90432665Y-30044162D01*
X90401652Y-30060739D01*
X90367997Y-30070949D01*
X90326862Y-30075000D01*
X88997138Y-30075000D01*
X88956003Y-30070949D01*
X88922348Y-30060739D01*
X88891335Y-30044162D01*
X88864149Y-30021851D01*
X88841838Y-29994665D01*
X88825261Y-29963652D01*
X88815051Y-29929997D01*
X88811000Y-29888862D01*
X88811000Y-27559138D01*
X88815051Y-27518003D01*
X88825261Y-27484348D01*
X88841838Y-27453335D01*
X88864149Y-27426149D01*
X88891335Y-27403838D01*
X88922348Y-27387261D01*
X88956003Y-27377051D01*
X88997138Y-27373000D01*
X90326862Y-27373000D01*
X90367997Y-27377051D01*
G37*
G36*
X79953997Y-27377051D02*
G01*
X79987652Y-27387261D01*
X80018665Y-27403838D01*
X80045851Y-27426149D01*
X80068162Y-27453335D01*
X80084739Y-27484348D01*
X80094949Y-27518003D01*
X80099000Y-27559138D01*
X80099000Y-29888862D01*
X80094949Y-29929997D01*
X80084739Y-29963652D01*
X80068162Y-29994665D01*
X80045851Y-30021851D01*
X80018665Y-30044162D01*
X79987652Y-30060739D01*
X79953997Y-30070949D01*
X79912862Y-30075000D01*
X78583138Y-30075000D01*
X78542003Y-30070949D01*
X78508348Y-30060739D01*
X78477335Y-30044162D01*
X78450149Y-30021851D01*
X78427838Y-29994665D01*
X78411261Y-29963652D01*
X78401051Y-29929997D01*
X78397000Y-29888862D01*
X78397000Y-27559138D01*
X78401051Y-27518003D01*
X78411261Y-27484348D01*
X78427838Y-27453335D01*
X78450149Y-27426149D01*
X78477335Y-27403838D01*
X78508348Y-27387261D01*
X78542003Y-27377051D01*
X78583138Y-27373000D01*
X79912862Y-27373000D01*
X79953997Y-27377051D01*
G37*
G36*
X79953997Y-23777051D02*
G01*
X79987652Y-23787261D01*
X80018665Y-23803838D01*
X80045851Y-23826149D01*
X80068162Y-23853335D01*
X80084739Y-23884348D01*
X80094949Y-23918003D01*
X80099000Y-23959138D01*
X80099000Y-26288862D01*
X80094949Y-26329997D01*
X80084739Y-26363652D01*
X80068162Y-26394665D01*
X80045851Y-26421851D01*
X80018665Y-26444162D01*
X79987652Y-26460739D01*
X79953997Y-26470949D01*
X79912862Y-26475000D01*
X78583138Y-26475000D01*
X78542003Y-26470949D01*
X78508348Y-26460739D01*
X78477335Y-26444162D01*
X78450149Y-26421851D01*
X78427838Y-26394665D01*
X78411261Y-26363652D01*
X78401051Y-26329997D01*
X78397000Y-26288862D01*
X78397000Y-23959138D01*
X78401051Y-23918003D01*
X78411261Y-23884348D01*
X78427838Y-23853335D01*
X78450149Y-23826149D01*
X78477335Y-23803838D01*
X78508348Y-23787261D01*
X78542003Y-23777051D01*
X78583138Y-23773000D01*
X79912862Y-23773000D01*
X79953997Y-23777051D01*
G37*
G36*
X90367997Y-23777051D02*
G01*
X90401652Y-23787261D01*
X90432665Y-23803838D01*
X90459851Y-23826149D01*
X90482162Y-23853335D01*
X90498739Y-23884348D01*
X90508949Y-23918003D01*
X90513000Y-23959138D01*
X90513000Y-26288862D01*
X90508949Y-26329997D01*
X90498739Y-26363652D01*
X90482162Y-26394665D01*
X90459851Y-26421851D01*
X90432665Y-26444162D01*
X90401652Y-26460739D01*
X90367997Y-26470949D01*
X90326862Y-26475000D01*
X88997138Y-26475000D01*
X88956003Y-26470949D01*
X88922348Y-26460739D01*
X88891335Y-26444162D01*
X88864149Y-26421851D01*
X88841838Y-26394665D01*
X88825261Y-26363652D01*
X88815051Y-26329997D01*
X88811000Y-26288862D01*
X88811000Y-23959138D01*
X88815051Y-23918003D01*
X88825261Y-23884348D01*
X88841838Y-23853335D01*
X88864149Y-23826149D01*
X88891335Y-23803838D01*
X88922348Y-23787261D01*
X88956003Y-23777051D01*
X88997138Y-23773000D01*
X90326862Y-23773000D01*
X90367997Y-23777051D01*
G37*
G36*
X95701997Y-23177051D02*
G01*
X95735652Y-23187261D01*
X95766665Y-23203838D01*
X95793851Y-23226149D01*
X95816162Y-23253335D01*
X95832739Y-23284348D01*
X95842949Y-23318003D01*
X95847000Y-23359138D01*
X95847000Y-26088862D01*
X95842949Y-26129997D01*
X95832739Y-26163652D01*
X95816162Y-26194665D01*
X95793851Y-26221851D01*
X95766665Y-26244162D01*
X95735652Y-26260739D01*
X95701997Y-26270949D01*
X95660862Y-26275000D01*
X94331138Y-26275000D01*
X94290003Y-26270949D01*
X94256348Y-26260739D01*
X94225335Y-26244162D01*
X94198149Y-26221851D01*
X94175838Y-26194665D01*
X94159261Y-26163652D01*
X94149051Y-26129997D01*
X94145000Y-26088862D01*
X94145000Y-23359138D01*
X94149051Y-23318003D01*
X94159261Y-23284348D01*
X94175838Y-23253335D01*
X94198149Y-23226149D01*
X94225335Y-23203838D01*
X94256348Y-23187261D01*
X94290003Y-23177051D01*
X94331138Y-23173000D01*
X95660862Y-23173000D01*
X95701997Y-23177051D01*
G37*
G36*
X74619997Y-23177051D02*
G01*
X74653652Y-23187261D01*
X74684665Y-23203838D01*
X74711851Y-23226149D01*
X74734162Y-23253335D01*
X74750739Y-23284348D01*
X74760949Y-23318003D01*
X74765000Y-23359138D01*
X74765000Y-26088862D01*
X74760949Y-26129997D01*
X74750739Y-26163652D01*
X74734162Y-26194665D01*
X74711851Y-26221851D01*
X74684665Y-26244162D01*
X74653652Y-26260739D01*
X74619997Y-26270949D01*
X74578862Y-26275000D01*
X73249138Y-26275000D01*
X73208003Y-26270949D01*
X73174348Y-26260739D01*
X73143335Y-26244162D01*
X73116149Y-26221851D01*
X73093838Y-26194665D01*
X73077261Y-26163652D01*
X73067051Y-26129997D01*
X73063000Y-26088862D01*
X73063000Y-23359138D01*
X73067051Y-23318003D01*
X73077261Y-23284348D01*
X73093838Y-23253335D01*
X73116149Y-23226149D01*
X73143335Y-23203838D01*
X73174348Y-23187261D01*
X73208003Y-23177051D01*
X73249138Y-23173000D01*
X74578862Y-23173000D01*
X74619997Y-23177051D01*
G37*
G36*
X80436046Y-21160781D02*
G01*
X80506383Y-21174772D01*
X80705151Y-21257105D01*
X80795200Y-21317274D01*
X80884036Y-21376632D01*
X81036168Y-21528764D01*
X81155696Y-21707651D01*
X81238028Y-21906418D01*
X81271703Y-22075714D01*
X81278816Y-22099163D01*
X81290367Y-22120774D01*
X81305912Y-22139716D01*
X81324854Y-22155261D01*
X81346465Y-22166812D01*
X81369914Y-22173925D01*
X81394300Y-22176327D01*
X81418686Y-22173925D01*
X81442135Y-22166812D01*
X81463746Y-22155261D01*
X81482688Y-22139716D01*
X81498233Y-22120774D01*
X81509784Y-22099163D01*
X81516897Y-22075714D01*
X81550572Y-21906418D01*
X81632904Y-21707651D01*
X81752432Y-21528764D01*
X81904564Y-21376632D01*
X81993400Y-21317274D01*
X82083449Y-21257105D01*
X82282217Y-21174772D01*
X82352554Y-21160781D01*
X82493226Y-21132800D01*
X82708374Y-21132800D01*
X82849046Y-21160781D01*
X82919383Y-21174772D01*
X83118151Y-21257105D01*
X83297037Y-21376633D01*
X83449167Y-21528763D01*
X83568695Y-21707649D01*
X83651028Y-21906417D01*
X83693000Y-22117428D01*
X83693000Y-22332572D01*
X83651028Y-22543583D01*
X83568695Y-22742351D01*
X83449167Y-22921237D01*
X83297037Y-23073367D01*
X83118151Y-23192895D01*
X83118150Y-23192896D01*
X83118149Y-23192896D01*
X83059933Y-23217010D01*
X82919383Y-23275228D01*
X82873533Y-23284348D01*
X82708374Y-23317200D01*
X82493226Y-23317200D01*
X82328067Y-23284348D01*
X82282217Y-23275228D01*
X82141667Y-23217010D01*
X82083451Y-23192896D01*
X82083450Y-23192896D01*
X82083449Y-23192895D01*
X81904563Y-23073367D01*
X81752433Y-22921237D01*
X81632905Y-22742351D01*
X81550572Y-22543583D01*
X81516897Y-22374286D01*
X81509784Y-22350837D01*
X81498233Y-22329226D01*
X81482688Y-22310284D01*
X81463746Y-22294739D01*
X81442135Y-22283188D01*
X81418686Y-22276075D01*
X81394300Y-22273673D01*
X81369914Y-22276075D01*
X81346465Y-22283188D01*
X81324854Y-22294739D01*
X81305912Y-22310284D01*
X81290367Y-22329226D01*
X81278816Y-22350837D01*
X81271703Y-22374286D01*
X81238028Y-22543583D01*
X81155695Y-22742351D01*
X81036167Y-22921237D01*
X80884037Y-23073367D01*
X80705151Y-23192895D01*
X80705150Y-23192896D01*
X80705149Y-23192896D01*
X80646933Y-23217010D01*
X80506383Y-23275228D01*
X80460533Y-23284348D01*
X80295374Y-23317200D01*
X80080226Y-23317200D01*
X79915067Y-23284348D01*
X79869217Y-23275228D01*
X79728667Y-23217010D01*
X79670451Y-23192896D01*
X79670450Y-23192896D01*
X79670449Y-23192895D01*
X79491563Y-23073367D01*
X79339433Y-22921237D01*
X79219905Y-22742351D01*
X79137572Y-22543583D01*
X79095600Y-22332572D01*
X79095600Y-22117428D01*
X79137572Y-21906417D01*
X79219905Y-21707649D01*
X79339433Y-21528763D01*
X79491563Y-21376633D01*
X79670449Y-21257105D01*
X79869217Y-21174772D01*
X79939554Y-21160781D01*
X80080226Y-21132800D01*
X80295374Y-21132800D01*
X80436046Y-21160781D01*
G37*
G36*
X97530246Y-21160781D02*
G01*
X97600583Y-21174772D01*
X97799351Y-21257105D01*
X97978237Y-21376633D01*
X98130367Y-21528763D01*
X98249895Y-21707649D01*
X98332228Y-21906417D01*
X98374200Y-22117428D01*
X98374200Y-22332572D01*
X98332228Y-22543583D01*
X98249895Y-22742351D01*
X98130367Y-22921237D01*
X97978237Y-23073367D01*
X97799351Y-23192895D01*
X97799350Y-23192896D01*
X97799349Y-23192896D01*
X97741133Y-23217010D01*
X97600583Y-23275228D01*
X97554733Y-23284348D01*
X97389574Y-23317200D01*
X97174426Y-23317200D01*
X97009267Y-23284348D01*
X96963417Y-23275228D01*
X96822867Y-23217010D01*
X96764651Y-23192896D01*
X96764650Y-23192896D01*
X96764649Y-23192895D01*
X96585763Y-23073367D01*
X96433633Y-22921237D01*
X96314105Y-22742351D01*
X96231772Y-22543583D01*
X96189800Y-22332572D01*
X96189800Y-22117428D01*
X96231772Y-21906417D01*
X96314105Y-21707649D01*
X96433633Y-21528763D01*
X96585763Y-21376633D01*
X96764649Y-21257105D01*
X96963417Y-21174772D01*
X97033754Y-21160781D01*
X97174426Y-21132800D01*
X97389574Y-21132800D01*
X97530246Y-21160781D01*
G37*
G36*
X86557446Y-21160781D02*
G01*
X86627783Y-21174772D01*
X86826551Y-21257105D01*
X86916600Y-21317274D01*
X87005436Y-21376632D01*
X87157568Y-21528764D01*
X87277096Y-21707651D01*
X87359428Y-21906418D01*
X87393103Y-22075714D01*
X87400216Y-22099163D01*
X87411767Y-22120774D01*
X87427312Y-22139716D01*
X87446254Y-22155261D01*
X87467865Y-22166812D01*
X87491314Y-22173925D01*
X87515700Y-22176327D01*
X87540086Y-22173925D01*
X87563535Y-22166812D01*
X87585146Y-22155261D01*
X87604088Y-22139716D01*
X87619633Y-22120774D01*
X87631184Y-22099163D01*
X87638297Y-22075714D01*
X87671972Y-21906418D01*
X87754304Y-21707651D01*
X87873832Y-21528764D01*
X88025964Y-21376632D01*
X88114800Y-21317274D01*
X88204849Y-21257105D01*
X88403617Y-21174772D01*
X88473954Y-21160781D01*
X88614626Y-21132800D01*
X88829774Y-21132800D01*
X88970446Y-21160781D01*
X89040783Y-21174772D01*
X89239551Y-21257105D01*
X89418437Y-21376633D01*
X89570567Y-21528763D01*
X89690095Y-21707649D01*
X89772428Y-21906417D01*
X89814400Y-22117428D01*
X89814400Y-22332572D01*
X89772428Y-22543583D01*
X89690095Y-22742351D01*
X89570567Y-22921237D01*
X89418437Y-23073367D01*
X89239551Y-23192895D01*
X89239550Y-23192896D01*
X89239549Y-23192896D01*
X89181333Y-23217010D01*
X89040783Y-23275228D01*
X88994933Y-23284348D01*
X88829774Y-23317200D01*
X88614626Y-23317200D01*
X88449467Y-23284348D01*
X88403617Y-23275228D01*
X88263067Y-23217010D01*
X88204851Y-23192896D01*
X88204850Y-23192896D01*
X88204849Y-23192895D01*
X88025963Y-23073367D01*
X87873833Y-22921237D01*
X87754305Y-22742351D01*
X87671972Y-22543583D01*
X87638297Y-22374286D01*
X87631184Y-22350837D01*
X87619633Y-22329226D01*
X87604088Y-22310284D01*
X87585146Y-22294739D01*
X87563535Y-22283188D01*
X87540086Y-22276075D01*
X87515700Y-22273673D01*
X87491314Y-22276075D01*
X87467865Y-22283188D01*
X87446254Y-22294739D01*
X87427312Y-22310284D01*
X87411767Y-22329226D01*
X87400216Y-22350837D01*
X87393103Y-22374286D01*
X87359428Y-22543583D01*
X87277095Y-22742351D01*
X87157567Y-22921237D01*
X87005437Y-23073367D01*
X86826551Y-23192895D01*
X86826550Y-23192896D01*
X86826549Y-23192896D01*
X86768333Y-23217010D01*
X86627783Y-23275228D01*
X86581933Y-23284348D01*
X86416774Y-23317200D01*
X86201626Y-23317200D01*
X86036467Y-23284348D01*
X85990617Y-23275228D01*
X85850067Y-23217010D01*
X85791851Y-23192896D01*
X85791850Y-23192896D01*
X85791849Y-23192895D01*
X85612963Y-23073367D01*
X85460833Y-22921237D01*
X85341305Y-22742351D01*
X85258972Y-22543583D01*
X85217000Y-22332572D01*
X85217000Y-22117428D01*
X85258972Y-21906417D01*
X85341305Y-21707649D01*
X85460833Y-21528763D01*
X85612963Y-21376633D01*
X85791849Y-21257105D01*
X85990617Y-21174772D01*
X86060954Y-21160781D01*
X86201626Y-21132800D01*
X86416774Y-21132800D01*
X86557446Y-21160781D01*
G37*
G36*
X71876246Y-21160781D02*
G01*
X71946583Y-21174772D01*
X72145351Y-21257105D01*
X72324237Y-21376633D01*
X72476367Y-21528763D01*
X72595895Y-21707649D01*
X72678228Y-21906417D01*
X72720200Y-22117428D01*
X72720200Y-22332572D01*
X72678228Y-22543583D01*
X72595895Y-22742351D01*
X72476367Y-22921237D01*
X72324237Y-23073367D01*
X72145351Y-23192895D01*
X72145350Y-23192896D01*
X72145349Y-23192896D01*
X72087133Y-23217010D01*
X71946583Y-23275228D01*
X71900733Y-23284348D01*
X71735574Y-23317200D01*
X71520426Y-23317200D01*
X71355267Y-23284348D01*
X71309417Y-23275228D01*
X71168867Y-23217010D01*
X71110651Y-23192896D01*
X71110650Y-23192896D01*
X71110649Y-23192895D01*
X70931763Y-23073367D01*
X70779633Y-22921237D01*
X70660105Y-22742351D01*
X70577772Y-22543583D01*
X70535800Y-22332572D01*
X70535800Y-22117428D01*
X70577772Y-21906417D01*
X70660105Y-21707649D01*
X70779633Y-21528763D01*
X70931763Y-21376633D01*
X71110649Y-21257105D01*
X71309417Y-21174772D01*
X71379754Y-21160781D01*
X71520426Y-21132800D01*
X71735574Y-21132800D01*
X71876246Y-21160781D01*
G37*
M02*
