M48
; DRILL file {KiCad (5.1.5)-2} date 12/23/2019 3:20:43 AM
; FORMAT={-:-/ absolute / inch / decimal}
; #@! TF.CreationDate,2019-12-23T03:20:43+01:00
; #@! TF.GenerationSoftware,Kicad,Pcbnew,(5.1.5)-2
; #@! TF.FileFunction,Plated,1,2,PTH
FMAT,2
INCH
T1C0.0157
T2C0.0300
T3C0.0350
T4C0.0429
T5C0.0433
T6C0.0450
%
G90
G05
T1
X2.8Y-1.935
X2.8Y-2.345
X2.8Y-3.515
X2.805Y-3.33
X2.8379Y-2.49
X2.865Y-2.555
X2.87Y-3.57
X2.87Y-2.41
X2.8835Y-1.42
X2.8896Y-3.2943
X2.89Y-2.165
X2.91Y-1.935
X2.92Y-1.37
X2.95Y-2.345
X2.955Y-2.56
X2.9572Y-3.229
X2.96Y-3.065
X2.98Y-2.16
X2.985Y-1.825
X2.99Y-2.815
X2.995Y-2.295
X3.0Y-3.235
X3.005Y-3.87
X3.01Y-1.895
X3.01Y-3.31
X3.05Y-3.3087
X3.05Y-2.19
X3.055Y-2.33
X3.06Y-1.33
X3.07Y-2.5
X3.07Y-3.975
X3.0737Y-2.845
X3.075Y-2.915
X3.0791Y-3.205
X3.105Y-2.235
X3.11Y-1.48
X3.11Y-2.56
X3.1152Y-3.3102
X3.125Y-3.52
X3.13Y-1.37
X3.13Y-1.42
X3.135Y-1.92
X3.155Y-2.245
X3.16Y-2.57
X3.19Y-3.87
X3.195Y-2.67
X3.2Y-2.415
X3.2015Y-2.295
X3.21Y-1.48
X3.225Y-3.345
X3.245Y-1.89
X3.25Y-3.085
X3.29Y-2.785
X3.295Y-2.8425
X3.2973Y-3.0877
X3.305Y-2.56
X3.305Y-2.69
X3.305Y-3.02
X3.305Y-3.255
X3.315Y-3.46
X3.3155Y-2.6438
X3.32Y-1.93
X3.3263Y-1.985
X3.34Y-1.73
X3.365Y-3.03
X3.365Y-2.5
X3.3735Y-3.32
X3.3802Y-3.2752
X3.395Y-1.705
X3.395Y-3.0915
X3.3955Y-2.9988
X3.3963Y-2.72
X3.44Y-1.925
X3.45Y-2.195
X3.495Y-2.245
X3.495Y-3.1085
X3.4975Y-3.32
X3.5039Y-2.85
X3.5248Y-2.8152
X3.5275Y-1.925
X3.56Y-1.48
X3.56Y-2.72
X3.56Y-3.0
X3.56Y-3.08
X3.565Y-2.88
X3.5673Y-2.1623
X3.5697Y-3.2953
X3.575Y-1.745
X3.575Y-1.93
X3.6Y-2.24
X3.61Y-1.32
X3.6175Y-1.9175
X3.645Y-2.165
X3.66Y-2.955
X3.675Y-3.93
X3.69Y-3.325
X3.725Y-2.64
X3.725Y-3.62
X3.735Y-2.41
X3.76Y-2.84
X3.76Y-1.9215
X3.7613Y-2.955
X3.7625Y-2.88
X3.77Y-1.86
X3.8Y-2.33
X3.815Y-3.915
X3.82Y-1.575
X3.82Y-2.18
X3.8352Y-3.2898
X3.84Y-1.66
X3.84Y-1.935
X3.845Y-1.835
X3.855Y-1.895
X3.86Y-2.41
T2
X2.81Y-3.65
X2.81Y-3.75
X3.39Y-2.31
X3.39Y-2.41
X3.84Y-3.65
X3.84Y-3.75
X3.39Y-1.525
X3.39Y-1.625
X3.28Y-3.53
X3.28Y-3.63
X3.28Y-3.73
X3.28Y-3.83
X3.28Y-3.93
X3.38Y-3.53
X3.38Y-3.63
X3.38Y-3.73
X3.38Y-3.83
X3.38Y-3.93
X3.29Y-1.525
X3.29Y-1.625
X3.29Y-2.31
X3.29Y-2.41
T3
X3.398Y-1.25
X3.398Y-4.8
X3.252Y-4.8
X3.398Y-0.875
X3.252Y-4.425
X3.398Y-4.05
X3.252Y-4.05
X3.252Y-1.25
X3.252Y-0.875
X3.398Y-4.425
T4
X3.525Y-1.575
X3.625Y-1.575
X3.725Y-1.575
X2.925Y-1.575
X3.025Y-1.575
X3.125Y-1.575
X3.525Y-3.7
X3.625Y-3.7
X3.725Y-3.7
X2.925Y-3.7
X3.025Y-3.7
X3.125Y-3.7
T5
X3.475Y-1.845
X3.475Y-3.42
X3.575Y-3.42
X3.675Y-1.845
X3.675Y-3.42
X3.775Y-3.42
X2.87Y-1.845
X2.87Y-3.42
X2.97Y-3.42
X3.07Y-1.845
X3.07Y-3.42
X3.17Y-3.42
T6
X3.493Y-1.25
X3.83Y-1.25
X3.493Y-4.8
X3.83Y-4.8
X2.82Y-4.8
X3.157Y-4.8
X3.493Y-0.875
X3.83Y-0.875
X2.82Y-4.425
X3.157Y-4.425
X3.493Y-4.05
X3.83Y-4.05
X2.82Y-4.05
X3.157Y-4.05
X2.82Y-1.25
X3.157Y-1.25
X2.82Y-0.875
X3.157Y-0.875
X3.493Y-4.425
X3.83Y-4.425
T0
M30
