G04 #@! TF.GenerationSoftware,KiCad,Pcbnew,(5.1.9)-1*
G04 #@! TF.CreationDate,2021-09-10T16:45:40+02:00*
G04 #@! TF.ProjectId,Skis,536b6973-2e6b-4696-9361-645f70636258,rev?*
G04 #@! TF.SameCoordinates,Original*
G04 #@! TF.FileFunction,Legend,Top*
G04 #@! TF.FilePolarity,Positive*
%FSLAX46Y46*%
G04 Gerber Fmt 4.6, Leading zero omitted, Abs format (unit mm)*
G04 Created by KiCad (PCBNEW (5.1.9)-1) date 2021-09-10 16:45:40*
%MOMM*%
%LPD*%
G01*
G04 APERTURE LIST*
%ADD10C,0.120000*%
%ADD11C,0.150000*%
%ADD12C,0.100000*%
G04 APERTURE END LIST*
D10*
X82008571Y-117259857D02*
X81972857Y-117295571D01*
X81865714Y-117331285D01*
X81794285Y-117331285D01*
X81687142Y-117295571D01*
X81615714Y-117224142D01*
X81580000Y-117152714D01*
X81544285Y-117009857D01*
X81544285Y-116902714D01*
X81580000Y-116759857D01*
X81615714Y-116688428D01*
X81687142Y-116617000D01*
X81794285Y-116581285D01*
X81865714Y-116581285D01*
X81972857Y-116617000D01*
X82008571Y-116652714D01*
X82758571Y-117259857D02*
X82722857Y-117295571D01*
X82615714Y-117331285D01*
X82544285Y-117331285D01*
X82437142Y-117295571D01*
X82365714Y-117224142D01*
X82330000Y-117152714D01*
X82294285Y-117009857D01*
X82294285Y-116902714D01*
X82330000Y-116759857D01*
X82365714Y-116688428D01*
X82437142Y-116617000D01*
X82544285Y-116581285D01*
X82615714Y-116581285D01*
X82722857Y-116617000D01*
X82758571Y-116652714D01*
X83080000Y-117045571D02*
X83651428Y-117045571D01*
X84258571Y-116938428D02*
X84365714Y-116974142D01*
X84401428Y-117009857D01*
X84437142Y-117081285D01*
X84437142Y-117188428D01*
X84401428Y-117259857D01*
X84365714Y-117295571D01*
X84294285Y-117331285D01*
X84008571Y-117331285D01*
X84008571Y-116581285D01*
X84258571Y-116581285D01*
X84330000Y-116617000D01*
X84365714Y-116652714D01*
X84401428Y-116724142D01*
X84401428Y-116795571D01*
X84365714Y-116867000D01*
X84330000Y-116902714D01*
X84258571Y-116938428D01*
X84008571Y-116938428D01*
X84901428Y-116974142D02*
X84901428Y-117331285D01*
X84651428Y-116581285D02*
X84901428Y-116974142D01*
X85151428Y-116581285D01*
X85401428Y-117045571D02*
X85972857Y-117045571D01*
X86294285Y-117295571D02*
X86401428Y-117331285D01*
X86580000Y-117331285D01*
X86651428Y-117295571D01*
X86687142Y-117259857D01*
X86722857Y-117188428D01*
X86722857Y-117117000D01*
X86687142Y-117045571D01*
X86651428Y-117009857D01*
X86580000Y-116974142D01*
X86437142Y-116938428D01*
X86365714Y-116902714D01*
X86330000Y-116867000D01*
X86294285Y-116795571D01*
X86294285Y-116724142D01*
X86330000Y-116652714D01*
X86365714Y-116617000D01*
X86437142Y-116581285D01*
X86615714Y-116581285D01*
X86722857Y-116617000D01*
X87008571Y-117117000D02*
X87365714Y-117117000D01*
X86937142Y-117331285D02*
X87187142Y-116581285D01*
X87437142Y-117331285D01*
X79401428Y-117826285D02*
X79651428Y-118576285D01*
X79901428Y-117826285D01*
X80115714Y-118362000D02*
X80472857Y-118362000D01*
X80044285Y-118576285D02*
X80294285Y-117826285D01*
X80544285Y-118576285D01*
X80365714Y-117540571D02*
X80258571Y-117647714D01*
X81222857Y-118504857D02*
X81187142Y-118540571D01*
X81080000Y-118576285D01*
X81008571Y-118576285D01*
X80901428Y-118540571D01*
X80830000Y-118469142D01*
X80794285Y-118397714D01*
X80758571Y-118254857D01*
X80758571Y-118147714D01*
X80794285Y-118004857D01*
X80830000Y-117933428D01*
X80901428Y-117862000D01*
X81008571Y-117826285D01*
X81080000Y-117826285D01*
X81187142Y-117862000D01*
X81222857Y-117897714D01*
X81901428Y-118576285D02*
X81544285Y-118576285D01*
X81544285Y-117826285D01*
X82115714Y-118362000D02*
X82472857Y-118362000D01*
X82044285Y-118576285D02*
X82294285Y-117826285D01*
X82544285Y-118576285D01*
X82687142Y-117826285D02*
X82937142Y-118576285D01*
X83187142Y-117826285D01*
X84008571Y-118576285D02*
X84008571Y-117826285D01*
X84294285Y-117826285D01*
X84365714Y-117862000D01*
X84401428Y-117897714D01*
X84437142Y-117969142D01*
X84437142Y-118076285D01*
X84401428Y-118147714D01*
X84365714Y-118183428D01*
X84294285Y-118219142D01*
X84008571Y-118219142D01*
X84758571Y-118183428D02*
X85008571Y-118183428D01*
X85115714Y-118576285D02*
X84758571Y-118576285D01*
X84758571Y-117826285D01*
X85115714Y-117826285D01*
X85794285Y-118576285D02*
X85437142Y-118576285D01*
X85437142Y-117826285D01*
X86187142Y-117826285D02*
X86330000Y-117826285D01*
X86401428Y-117862000D01*
X86472857Y-117933428D01*
X86508571Y-118076285D01*
X86508571Y-118326285D01*
X86472857Y-118469142D01*
X86401428Y-118540571D01*
X86330000Y-118576285D01*
X86187142Y-118576285D01*
X86115714Y-118540571D01*
X86044285Y-118469142D01*
X86008571Y-118326285D01*
X86008571Y-118076285D01*
X86044285Y-117933428D01*
X86115714Y-117862000D01*
X86187142Y-117826285D01*
X86830000Y-117826285D02*
X86830000Y-118433428D01*
X86865714Y-118504857D01*
X86901428Y-118540571D01*
X86972857Y-118576285D01*
X87115714Y-118576285D01*
X87187142Y-118540571D01*
X87222857Y-118504857D01*
X87258571Y-118433428D01*
X87258571Y-117826285D01*
X87580000Y-118540571D02*
X87687142Y-118576285D01*
X87865714Y-118576285D01*
X87937142Y-118540571D01*
X87972857Y-118504857D01*
X88008571Y-118433428D01*
X88008571Y-118362000D01*
X87972857Y-118290571D01*
X87937142Y-118254857D01*
X87865714Y-118219142D01*
X87722857Y-118183428D01*
X87651428Y-118147714D01*
X87615714Y-118112000D01*
X87580000Y-118040571D01*
X87580000Y-117969142D01*
X87615714Y-117897714D01*
X87651428Y-117862000D01*
X87722857Y-117826285D01*
X87901428Y-117826285D01*
X88008571Y-117862000D01*
X87651428Y-117540571D02*
X87794285Y-117647714D01*
X87937142Y-117540571D01*
X88330000Y-118183428D02*
X88580000Y-118183428D01*
X88687142Y-118576285D02*
X88330000Y-118576285D01*
X88330000Y-117826285D01*
X88687142Y-117826285D01*
X89008571Y-118576285D02*
X89008571Y-117826285D01*
X89437142Y-118576285D02*
X89115714Y-118147714D01*
X89437142Y-117826285D02*
X89008571Y-118254857D01*
X77615714Y-119428428D02*
X77722857Y-119464142D01*
X77758571Y-119499857D01*
X77794285Y-119571285D01*
X77794285Y-119678428D01*
X77758571Y-119749857D01*
X77722857Y-119785571D01*
X77651428Y-119821285D01*
X77365714Y-119821285D01*
X77365714Y-119071285D01*
X77615714Y-119071285D01*
X77687142Y-119107000D01*
X77722857Y-119142714D01*
X77758571Y-119214142D01*
X77758571Y-119285571D01*
X77722857Y-119357000D01*
X77687142Y-119392714D01*
X77615714Y-119428428D01*
X77365714Y-119428428D01*
X78080000Y-119607000D02*
X78437142Y-119607000D01*
X78008571Y-119821285D02*
X78258571Y-119071285D01*
X78508571Y-119821285D01*
X78722857Y-119785571D02*
X78830000Y-119821285D01*
X79008571Y-119821285D01*
X79080000Y-119785571D01*
X79115714Y-119749857D01*
X79151428Y-119678428D01*
X79151428Y-119607000D01*
X79115714Y-119535571D01*
X79080000Y-119499857D01*
X79008571Y-119464142D01*
X78865714Y-119428428D01*
X78794285Y-119392714D01*
X78758571Y-119357000D01*
X78722857Y-119285571D01*
X78722857Y-119214142D01*
X78758571Y-119142714D01*
X78794285Y-119107000D01*
X78865714Y-119071285D01*
X79044285Y-119071285D01*
X79151428Y-119107000D01*
X79365714Y-119071285D02*
X79794285Y-119071285D01*
X79580000Y-119821285D02*
X79580000Y-119071285D01*
X80401428Y-119821285D02*
X80044285Y-119821285D01*
X80044285Y-119071285D01*
X80651428Y-119535571D02*
X81222857Y-119535571D01*
X81580000Y-119821285D02*
X81580000Y-119071285D01*
X81937142Y-119821285D02*
X81937142Y-119071285D01*
X82365714Y-119821285D01*
X82365714Y-119071285D01*
X82687142Y-119785571D02*
X82794285Y-119821285D01*
X82972857Y-119821285D01*
X83044285Y-119785571D01*
X83080000Y-119749857D01*
X83115714Y-119678428D01*
X83115714Y-119607000D01*
X83080000Y-119535571D01*
X83044285Y-119499857D01*
X82972857Y-119464142D01*
X82830000Y-119428428D01*
X82758571Y-119392714D01*
X82722857Y-119357000D01*
X82687142Y-119285571D01*
X82687142Y-119214142D01*
X82722857Y-119142714D01*
X82758571Y-119107000D01*
X82830000Y-119071285D01*
X83008571Y-119071285D01*
X83115714Y-119107000D01*
X83330000Y-119071285D02*
X83758571Y-119071285D01*
X83544285Y-119821285D02*
X83544285Y-119071285D01*
X84437142Y-119821285D02*
X84187142Y-119464142D01*
X84008571Y-119821285D02*
X84008571Y-119071285D01*
X84294285Y-119071285D01*
X84365714Y-119107000D01*
X84401428Y-119142714D01*
X84437142Y-119214142D01*
X84437142Y-119321285D01*
X84401428Y-119392714D01*
X84365714Y-119428428D01*
X84294285Y-119464142D01*
X84008571Y-119464142D01*
X84758571Y-119071285D02*
X84758571Y-119678428D01*
X84794285Y-119749857D01*
X84830000Y-119785571D01*
X84901428Y-119821285D01*
X85044285Y-119821285D01*
X85115714Y-119785571D01*
X85151428Y-119749857D01*
X85187142Y-119678428D01*
X85187142Y-119071285D01*
X85544285Y-119821285D02*
X85544285Y-119071285D01*
X85794285Y-119607000D01*
X86044285Y-119071285D01*
X86044285Y-119821285D01*
X86401428Y-119428428D02*
X86651428Y-119428428D01*
X86758571Y-119821285D02*
X86401428Y-119821285D01*
X86401428Y-119071285D01*
X86758571Y-119071285D01*
X87080000Y-119821285D02*
X87080000Y-119071285D01*
X87508571Y-119821285D01*
X87508571Y-119071285D01*
X87758571Y-119071285D02*
X88187142Y-119071285D01*
X87972857Y-119821285D02*
X87972857Y-119071285D01*
X88401428Y-119785571D02*
X88508571Y-119821285D01*
X88687142Y-119821285D01*
X88758571Y-119785571D01*
X88794285Y-119749857D01*
X88830000Y-119678428D01*
X88830000Y-119607000D01*
X88794285Y-119535571D01*
X88758571Y-119499857D01*
X88687142Y-119464142D01*
X88544285Y-119428428D01*
X88472857Y-119392714D01*
X88437142Y-119357000D01*
X88401428Y-119285571D01*
X88401428Y-119214142D01*
X88437142Y-119142714D01*
X88472857Y-119107000D01*
X88544285Y-119071285D01*
X88722857Y-119071285D01*
X88830000Y-119107000D01*
X89151428Y-119749857D02*
X89187142Y-119785571D01*
X89151428Y-119821285D01*
X89115714Y-119785571D01*
X89151428Y-119749857D01*
X89151428Y-119821285D01*
X89937142Y-119749857D02*
X89901428Y-119785571D01*
X89794285Y-119821285D01*
X89722857Y-119821285D01*
X89615714Y-119785571D01*
X89544285Y-119714142D01*
X89508571Y-119642714D01*
X89472857Y-119499857D01*
X89472857Y-119392714D01*
X89508571Y-119249857D01*
X89544285Y-119178428D01*
X89615714Y-119107000D01*
X89722857Y-119071285D01*
X89794285Y-119071285D01*
X89901428Y-119107000D01*
X89937142Y-119142714D01*
X90401428Y-119071285D02*
X90544285Y-119071285D01*
X90615714Y-119107000D01*
X90687142Y-119178428D01*
X90722857Y-119321285D01*
X90722857Y-119571285D01*
X90687142Y-119714142D01*
X90615714Y-119785571D01*
X90544285Y-119821285D01*
X90401428Y-119821285D01*
X90330000Y-119785571D01*
X90258571Y-119714142D01*
X90222857Y-119571285D01*
X90222857Y-119321285D01*
X90258571Y-119178428D01*
X90330000Y-119107000D01*
X90401428Y-119071285D01*
X91044285Y-119821285D02*
X91044285Y-119071285D01*
X91294285Y-119607000D01*
X91544285Y-119071285D01*
X91544285Y-119821285D01*
D11*
X75097857Y-115387380D02*
X75097857Y-114387380D01*
X75669285Y-115387380D02*
X75240714Y-114815952D01*
X75669285Y-114387380D02*
X75097857Y-114958809D01*
X76669285Y-115387380D02*
X76335952Y-114911190D01*
X76097857Y-115387380D02*
X76097857Y-114387380D01*
X76478809Y-114387380D01*
X76574047Y-114435000D01*
X76621666Y-114482619D01*
X76669285Y-114577857D01*
X76669285Y-114720714D01*
X76621666Y-114815952D01*
X76574047Y-114863571D01*
X76478809Y-114911190D01*
X76097857Y-114911190D01*
X77050238Y-115101666D02*
X77526428Y-115101666D01*
X76955000Y-115387380D02*
X77288333Y-114387380D01*
X77621666Y-115387380D01*
X77907380Y-115101666D02*
X78383571Y-115101666D01*
X77812142Y-115387380D02*
X78145476Y-114387380D01*
X78478809Y-115387380D01*
X78812142Y-115387380D02*
X78812142Y-114387380D01*
X79383571Y-115387380D02*
X78955000Y-114815952D01*
X79383571Y-114387380D02*
X78812142Y-114958809D01*
X79812142Y-114863571D02*
X80145476Y-114863571D01*
X80288333Y-115387380D02*
X79812142Y-115387380D01*
X79812142Y-114387380D01*
X80288333Y-114387380D01*
X80716904Y-115387380D02*
X80716904Y-114387380D01*
X81288333Y-115387380D01*
X81288333Y-114387380D01*
X81716904Y-115339761D02*
X81859761Y-115387380D01*
X82097857Y-115387380D01*
X82193095Y-115339761D01*
X82240714Y-115292142D01*
X82288333Y-115196904D01*
X82288333Y-115101666D01*
X82240714Y-115006428D01*
X82193095Y-114958809D01*
X82097857Y-114911190D01*
X81907380Y-114863571D01*
X81812142Y-114815952D01*
X81764523Y-114768333D01*
X81716904Y-114673095D01*
X81716904Y-114577857D01*
X81764523Y-114482619D01*
X81812142Y-114435000D01*
X81907380Y-114387380D01*
X82145476Y-114387380D01*
X82288333Y-114435000D01*
X82574047Y-114387380D02*
X83145476Y-114387380D01*
X82859761Y-115387380D02*
X82859761Y-114387380D01*
X83478809Y-114387380D02*
X83478809Y-115196904D01*
X83526428Y-115292142D01*
X83574047Y-115339761D01*
X83669285Y-115387380D01*
X83859761Y-115387380D01*
X83955000Y-115339761D01*
X84002619Y-115292142D01*
X84050238Y-115196904D01*
X84050238Y-114387380D01*
X84859761Y-114863571D02*
X84526428Y-114863571D01*
X84526428Y-115387380D02*
X84526428Y-114387380D01*
X85002619Y-114387380D01*
X85716904Y-114863571D02*
X85383571Y-114863571D01*
X85383571Y-115387380D02*
X85383571Y-114387380D01*
X85859761Y-114387380D01*
X86955000Y-115339761D02*
X87097857Y-115387380D01*
X87335952Y-115387380D01*
X87431190Y-115339761D01*
X87478809Y-115292142D01*
X87526428Y-115196904D01*
X87526428Y-115101666D01*
X87478809Y-115006428D01*
X87431190Y-114958809D01*
X87335952Y-114911190D01*
X87145476Y-114863571D01*
X87050238Y-114815952D01*
X87002619Y-114768333D01*
X86955000Y-114673095D01*
X86955000Y-114577857D01*
X87002619Y-114482619D01*
X87050238Y-114435000D01*
X87145476Y-114387380D01*
X87383571Y-114387380D01*
X87526428Y-114435000D01*
X87955000Y-115387380D02*
X87955000Y-114387380D01*
X88526428Y-115387380D02*
X88097857Y-114815952D01*
X88526428Y-114387380D02*
X87955000Y-114958809D01*
X88955000Y-115387380D02*
X88955000Y-114387380D01*
X89383571Y-115339761D02*
X89526428Y-115387380D01*
X89764523Y-115387380D01*
X89859761Y-115339761D01*
X89907380Y-115292142D01*
X89955000Y-115196904D01*
X89955000Y-115101666D01*
X89907380Y-115006428D01*
X89859761Y-114958809D01*
X89764523Y-114911190D01*
X89574047Y-114863571D01*
X89478809Y-114815952D01*
X89431190Y-114768333D01*
X89383571Y-114673095D01*
X89383571Y-114577857D01*
X89431190Y-114482619D01*
X89478809Y-114435000D01*
X89574047Y-114387380D01*
X89812142Y-114387380D01*
X89955000Y-114435000D01*
X91050238Y-114720714D02*
X91288333Y-115387380D01*
X91526428Y-114720714D01*
X92097857Y-114387380D02*
X92193095Y-114387380D01*
X92288333Y-114435000D01*
X92335952Y-114482619D01*
X92383571Y-114577857D01*
X92431190Y-114768333D01*
X92431190Y-115006428D01*
X92383571Y-115196904D01*
X92335952Y-115292142D01*
X92288333Y-115339761D01*
X92193095Y-115387380D01*
X92097857Y-115387380D01*
X92002619Y-115339761D01*
X91955000Y-115292142D01*
X91907380Y-115196904D01*
X91859761Y-115006428D01*
X91859761Y-114768333D01*
X91907380Y-114577857D01*
X91955000Y-114482619D01*
X92002619Y-114435000D01*
X92097857Y-114387380D01*
X92859761Y-115292142D02*
X92907380Y-115339761D01*
X92859761Y-115387380D01*
X92812142Y-115339761D01*
X92859761Y-115292142D01*
X92859761Y-115387380D01*
X93288333Y-114482619D02*
X93335952Y-114435000D01*
X93431190Y-114387380D01*
X93669285Y-114387380D01*
X93764523Y-114435000D01*
X93812142Y-114482619D01*
X93859761Y-114577857D01*
X93859761Y-114673095D01*
X93812142Y-114815952D01*
X93240714Y-115387380D01*
X93859761Y-115387380D01*
D10*
X97822785Y-100433000D02*
X97822785Y-100790143D01*
X97072785Y-100790143D01*
X97072785Y-100040143D02*
X97072785Y-99897286D01*
X97108500Y-99825857D01*
X97179928Y-99754429D01*
X97322785Y-99718714D01*
X97572785Y-99718714D01*
X97715642Y-99754429D01*
X97787071Y-99825857D01*
X97822785Y-99897286D01*
X97822785Y-100040143D01*
X97787071Y-100111571D01*
X97715642Y-100183000D01*
X97572785Y-100218714D01*
X97322785Y-100218714D01*
X97179928Y-100183000D01*
X97108500Y-100111571D01*
X97072785Y-100040143D01*
X97429928Y-98575857D02*
X97429928Y-98825857D01*
X97822785Y-98825857D02*
X97072785Y-98825857D01*
X97072785Y-98468714D01*
X97822785Y-98183000D02*
X97072785Y-98183000D01*
X97608500Y-97290143D02*
X97608500Y-96933000D01*
X97822785Y-97361571D02*
X97072785Y-97111571D01*
X97822785Y-96861571D01*
X71660785Y-100540142D02*
X71660785Y-100897285D01*
X70910785Y-100897285D01*
X70910785Y-100147285D02*
X70910785Y-100004428D01*
X70946500Y-99933000D01*
X71017928Y-99861571D01*
X71160785Y-99825857D01*
X71410785Y-99825857D01*
X71553642Y-99861571D01*
X71625071Y-99933000D01*
X71660785Y-100004428D01*
X71660785Y-100147285D01*
X71625071Y-100218714D01*
X71553642Y-100290142D01*
X71410785Y-100325857D01*
X71160785Y-100325857D01*
X71017928Y-100290142D01*
X70946500Y-100218714D01*
X70910785Y-100147285D01*
X71267928Y-98683000D02*
X71267928Y-98933000D01*
X71660785Y-98933000D02*
X70910785Y-98933000D01*
X70910785Y-98575857D01*
X71660785Y-98290142D02*
X70910785Y-98290142D01*
X71267928Y-97111571D02*
X71303642Y-97004428D01*
X71339357Y-96968714D01*
X71410785Y-96933000D01*
X71517928Y-96933000D01*
X71589357Y-96968714D01*
X71625071Y-97004428D01*
X71660785Y-97075857D01*
X71660785Y-97361571D01*
X70910785Y-97361571D01*
X70910785Y-97111571D01*
X70946500Y-97040142D01*
X70982214Y-97004428D01*
X71053642Y-96968714D01*
X71125071Y-96968714D01*
X71196500Y-97004428D01*
X71232214Y-97040142D01*
X71267928Y-97111571D01*
X71267928Y-97361571D01*
X83852785Y-66843428D02*
X83102785Y-66843428D01*
X83459928Y-66843428D02*
X83459928Y-66414857D01*
X83852785Y-66414857D02*
X83102785Y-66414857D01*
X83102785Y-65914857D02*
X83102785Y-65772000D01*
X83138500Y-65700571D01*
X83209928Y-65629142D01*
X83352785Y-65593428D01*
X83602785Y-65593428D01*
X83745642Y-65629142D01*
X83817071Y-65700571D01*
X83852785Y-65772000D01*
X83852785Y-65914857D01*
X83817071Y-65986285D01*
X83745642Y-66057714D01*
X83602785Y-66093428D01*
X83352785Y-66093428D01*
X83209928Y-66057714D01*
X83138500Y-65986285D01*
X83102785Y-65914857D01*
X83852785Y-64914857D02*
X83852785Y-65272000D01*
X83102785Y-65272000D01*
X83852785Y-64664857D02*
X83102785Y-64664857D01*
X83102785Y-64486285D01*
X83138500Y-64379142D01*
X83209928Y-64307714D01*
X83281357Y-64272000D01*
X83424214Y-64236285D01*
X83531357Y-64236285D01*
X83674214Y-64272000D01*
X83745642Y-64307714D01*
X83817071Y-64379142D01*
X83852785Y-64486285D01*
X83852785Y-64664857D01*
X83459928Y-63093428D02*
X83495642Y-62986285D01*
X83531357Y-62950571D01*
X83602785Y-62914857D01*
X83709928Y-62914857D01*
X83781357Y-62950571D01*
X83817071Y-62986285D01*
X83852785Y-63057714D01*
X83852785Y-63343428D01*
X83102785Y-63343428D01*
X83102785Y-63093428D01*
X83138500Y-63022000D01*
X83174214Y-62986285D01*
X83245642Y-62950571D01*
X83317071Y-62950571D01*
X83388500Y-62986285D01*
X83424214Y-63022000D01*
X83459928Y-63093428D01*
X83459928Y-63343428D01*
X86392785Y-66789857D02*
X85642785Y-66789857D01*
X85999928Y-66789857D02*
X85999928Y-66361285D01*
X86392785Y-66361285D02*
X85642785Y-66361285D01*
X85642785Y-65861285D02*
X85642785Y-65718428D01*
X85678500Y-65647000D01*
X85749928Y-65575571D01*
X85892785Y-65539857D01*
X86142785Y-65539857D01*
X86285642Y-65575571D01*
X86357071Y-65647000D01*
X86392785Y-65718428D01*
X86392785Y-65861285D01*
X86357071Y-65932714D01*
X86285642Y-66004142D01*
X86142785Y-66039857D01*
X85892785Y-66039857D01*
X85749928Y-66004142D01*
X85678500Y-65932714D01*
X85642785Y-65861285D01*
X86392785Y-64861285D02*
X86392785Y-65218428D01*
X85642785Y-65218428D01*
X86392785Y-64611285D02*
X85642785Y-64611285D01*
X85642785Y-64432714D01*
X85678500Y-64325571D01*
X85749928Y-64254142D01*
X85821357Y-64218428D01*
X85964214Y-64182714D01*
X86071357Y-64182714D01*
X86214214Y-64218428D01*
X86285642Y-64254142D01*
X86357071Y-64325571D01*
X86392785Y-64432714D01*
X86392785Y-64611285D01*
X86178500Y-63325571D02*
X86178500Y-62968428D01*
X86392785Y-63397000D02*
X85642785Y-63147000D01*
X86392785Y-62897000D01*
X88350285Y-42388000D02*
X87600285Y-42388000D01*
X88136000Y-42138000D01*
X87600285Y-41888000D01*
X88350285Y-41888000D01*
X87600285Y-41530857D02*
X88207428Y-41530857D01*
X88278857Y-41495142D01*
X88314571Y-41459428D01*
X88350285Y-41388000D01*
X88350285Y-41245142D01*
X88314571Y-41173714D01*
X88278857Y-41138000D01*
X88207428Y-41102285D01*
X87600285Y-41102285D01*
X87600285Y-40852285D02*
X87600285Y-40423714D01*
X88350285Y-40638000D02*
X87600285Y-40638000D01*
X87957428Y-40173714D02*
X87957428Y-39923714D01*
X88350285Y-39816571D02*
X88350285Y-40173714D01*
X87600285Y-40173714D01*
X87600285Y-39816571D01*
X88136000Y-38959428D02*
X88136000Y-38602285D01*
X88350285Y-39030857D02*
X87600285Y-38780857D01*
X88350285Y-38530857D01*
X82000285Y-42441571D02*
X81250285Y-42441571D01*
X81786000Y-42191571D01*
X81250285Y-41941571D01*
X82000285Y-41941571D01*
X81250285Y-41584428D02*
X81857428Y-41584428D01*
X81928857Y-41548714D01*
X81964571Y-41513000D01*
X82000285Y-41441571D01*
X82000285Y-41298714D01*
X81964571Y-41227285D01*
X81928857Y-41191571D01*
X81857428Y-41155857D01*
X81250285Y-41155857D01*
X81250285Y-40905857D02*
X81250285Y-40477285D01*
X82000285Y-40691571D02*
X81250285Y-40691571D01*
X81607428Y-40227285D02*
X81607428Y-39977285D01*
X82000285Y-39870142D02*
X82000285Y-40227285D01*
X81250285Y-40227285D01*
X81250285Y-39870142D01*
X81607428Y-38727285D02*
X81643142Y-38620142D01*
X81678857Y-38584428D01*
X81750285Y-38548714D01*
X81857428Y-38548714D01*
X81928857Y-38584428D01*
X81964571Y-38620142D01*
X82000285Y-38691571D01*
X82000285Y-38977285D01*
X81250285Y-38977285D01*
X81250285Y-38727285D01*
X81286000Y-38655857D01*
X81321714Y-38620142D01*
X81393142Y-38584428D01*
X81464571Y-38584428D01*
X81536000Y-38620142D01*
X81571714Y-38655857D01*
X81607428Y-38727285D01*
X81607428Y-38977285D01*
X98552000Y-65278000D02*
X98552000Y-68834000D01*
X90297000Y-76200000D02*
X90297000Y-84836000D01*
X98171000Y-45339000D02*
X98171000Y-54102000D01*
X90678000Y-54102000D02*
X90678000Y-48768000D01*
X86868000Y-45339000D02*
X86868000Y-53975000D01*
X82169000Y-45339000D02*
X82169000Y-53975000D01*
X74549000Y-45339000D02*
X74549000Y-53848000D01*
X70485000Y-48768000D02*
X70485000Y-53848000D01*
X92348233Y-51496500D02*
X92690767Y-51496500D01*
X92348233Y-52516500D02*
X92690767Y-52516500D01*
X96348733Y-82806000D02*
X96691267Y-82806000D01*
X96348733Y-81786000D02*
X96691267Y-81786000D01*
X91922000Y-24664000D02*
X90722000Y-24664000D01*
X87402000Y-24664000D02*
X88602000Y-24664000D01*
X87402000Y-28119563D02*
X87402000Y-24664000D01*
X91922000Y-28119563D02*
X91922000Y-24664000D01*
X90857563Y-29184000D02*
X90722000Y-29184000D01*
X88466437Y-29184000D02*
X88602000Y-29184000D01*
X88466437Y-29184000D02*
X87402000Y-28119563D01*
X90857563Y-29184000D02*
X91922000Y-28119563D01*
X88102000Y-29924000D02*
X88102000Y-29424000D01*
X87852000Y-29674000D02*
X88352000Y-29674000D01*
X97756000Y-24164000D02*
X96056000Y-24164000D01*
X92236000Y-24164000D02*
X93936000Y-24164000D01*
X92236000Y-28619563D02*
X92236000Y-24164000D01*
X97756000Y-28619563D02*
X97756000Y-24164000D01*
X96691563Y-29684000D02*
X96056000Y-29684000D01*
X93300437Y-29684000D02*
X93936000Y-29684000D01*
X93300437Y-29684000D02*
X92236000Y-28619563D01*
X96691563Y-29684000D02*
X97756000Y-28619563D01*
X93311000Y-30549000D02*
X93311000Y-29924000D01*
X92998500Y-30236500D02*
X93623500Y-30236500D01*
X72252500Y-107667000D02*
X72252500Y-108292000D01*
X71940000Y-107979500D02*
X72565000Y-107979500D01*
X72805000Y-111360063D02*
X73869437Y-112424500D01*
X72805000Y-107968937D02*
X73869437Y-106904500D01*
X72805000Y-107968937D02*
X72805000Y-108604500D01*
X72805000Y-111360063D02*
X72805000Y-110724500D01*
X73869437Y-112424500D02*
X78325000Y-112424500D01*
X73869437Y-106904500D02*
X78325000Y-106904500D01*
X78325000Y-106904500D02*
X78325000Y-108604500D01*
X78325000Y-112424500D02*
X78325000Y-110724500D01*
X95597000Y-112361000D02*
X95597000Y-110661000D01*
X95597000Y-106841000D02*
X95597000Y-108541000D01*
X91141437Y-106841000D02*
X95597000Y-106841000D01*
X91141437Y-112361000D02*
X95597000Y-112361000D01*
X90077000Y-111296563D02*
X90077000Y-110661000D01*
X90077000Y-107905437D02*
X90077000Y-108541000D01*
X90077000Y-107905437D02*
X91141437Y-106841000D01*
X90077000Y-111296563D02*
X91141437Y-112361000D01*
X89212000Y-107916000D02*
X89837000Y-107916000D01*
X89524500Y-107603500D02*
X89524500Y-108228500D01*
X77468000Y-104805267D02*
X77468000Y-104462733D01*
X78488000Y-104805267D02*
X78488000Y-104462733D01*
X91442000Y-104755767D02*
X91442000Y-104413233D01*
X90422000Y-104755767D02*
X90422000Y-104413233D01*
X89152000Y-58869733D02*
X89152000Y-59212267D01*
X90172000Y-58869733D02*
X90172000Y-59212267D01*
X90172000Y-62566733D02*
X90172000Y-62909267D01*
X89152000Y-62566733D02*
X89152000Y-62909267D01*
X81373767Y-83183000D02*
X81031233Y-83183000D01*
X81373767Y-84203000D02*
X81031233Y-84203000D01*
X80932233Y-70927500D02*
X81274767Y-70927500D01*
X80932233Y-71947500D02*
X81274767Y-71947500D01*
X73422000Y-106136000D02*
X73422000Y-102236000D01*
X75422000Y-106136000D02*
X75422000Y-102236000D01*
X73422000Y-106136000D02*
X75422000Y-106136000D01*
X93488000Y-106136000D02*
X95488000Y-106136000D01*
X95488000Y-106136000D02*
X95488000Y-102236000D01*
X93488000Y-106136000D02*
X93488000Y-102236000D01*
D11*
X88392000Y-101092000D02*
X80772000Y-101092000D01*
X80772000Y-98552000D02*
X88392000Y-98552000D01*
D12*
G36*
X88422480Y-101107240D02*
G01*
X80655160Y-101107240D01*
X79989680Y-100822760D01*
X79557880Y-100258880D01*
X79507080Y-99588320D01*
X79852520Y-98968560D01*
X80314800Y-98612960D01*
X80888840Y-98562160D01*
X88610440Y-98572320D01*
X89154000Y-98806000D01*
X89590880Y-99369880D01*
X89656920Y-100015040D01*
X89423240Y-100584000D01*
X88920320Y-100980240D01*
X88397080Y-101107240D01*
X88422480Y-101107240D01*
G37*
X88422480Y-101107240D02*
X80655160Y-101107240D01*
X79989680Y-100822760D01*
X79557880Y-100258880D01*
X79507080Y-99588320D01*
X79852520Y-98968560D01*
X80314800Y-98612960D01*
X80888840Y-98562160D01*
X88610440Y-98572320D01*
X89154000Y-98806000D01*
X89590880Y-99369880D01*
X89656920Y-100015040D01*
X89423240Y-100584000D01*
X88920320Y-100980240D01*
X88397080Y-101107240D01*
X88422480Y-101107240D01*
D11*
X88392000Y-98552000D02*
G75*
G02*
X88392000Y-101092000I0J-1270000D01*
G01*
X80772000Y-101092000D02*
G75*
G02*
X80772000Y-98552000I0J1270000D01*
G01*
X96266000Y-91440000D02*
X98806000Y-91440000D01*
X98806000Y-91440000D02*
X98806000Y-96520000D01*
X98806000Y-96520000D02*
X96266000Y-96520000D01*
X96266000Y-96520000D02*
X96266000Y-91440000D01*
X96266000Y-93980000D02*
X98806000Y-93980000D01*
X84836000Y-59944000D02*
X87376000Y-59944000D01*
X84836000Y-62484000D02*
X84836000Y-57404000D01*
X87376000Y-62484000D02*
X84836000Y-62484000D01*
X87376000Y-57404000D02*
X87376000Y-62484000D01*
X84836000Y-57404000D02*
X87376000Y-57404000D01*
X87376000Y-40005000D02*
X84836000Y-40005000D01*
X87376000Y-37465000D02*
X87376000Y-42545000D01*
X84836000Y-37465000D02*
X87376000Y-37465000D01*
X84836000Y-42545000D02*
X84836000Y-37465000D01*
X87376000Y-42545000D02*
X84836000Y-42545000D01*
D10*
X98100000Y-74424000D02*
X97170000Y-74424000D01*
X94940000Y-74424000D02*
X95870000Y-74424000D01*
X94940000Y-74424000D02*
X94940000Y-76584000D01*
X98100000Y-74424000D02*
X98100000Y-75884000D01*
X98100000Y-78504000D02*
X98100000Y-79964000D01*
X94940000Y-78504000D02*
X94940000Y-80664000D01*
X94940000Y-78504000D02*
X95870000Y-78504000D01*
X98100000Y-78504000D02*
X97170000Y-78504000D01*
X94940000Y-71880000D02*
X95870000Y-71880000D01*
X98100000Y-71880000D02*
X97170000Y-71880000D01*
X98100000Y-71880000D02*
X98100000Y-69720000D01*
X94940000Y-71880000D02*
X94940000Y-70420000D01*
X87190500Y-55544500D02*
X88120500Y-55544500D01*
X90350500Y-55544500D02*
X89420500Y-55544500D01*
X90350500Y-55544500D02*
X90350500Y-53384500D01*
X87190500Y-55544500D02*
X87190500Y-54084500D01*
X97280000Y-44760000D02*
X95820000Y-44760000D01*
X97280000Y-41600000D02*
X95120000Y-41600000D01*
X97280000Y-41600000D02*
X97280000Y-42530000D01*
X97280000Y-44760000D02*
X97280000Y-43830000D01*
X92171733Y-74678000D02*
X92514267Y-74678000D01*
X92171733Y-73658000D02*
X92514267Y-73658000D01*
X92514267Y-71626000D02*
X92171733Y-71626000D01*
X92514267Y-72646000D02*
X92171733Y-72646000D01*
X92171733Y-70614000D02*
X92514267Y-70614000D01*
X92171733Y-69594000D02*
X92514267Y-69594000D01*
X96550267Y-49655000D02*
X96207733Y-49655000D01*
X96550267Y-50675000D02*
X96207733Y-50675000D01*
X96550267Y-54358000D02*
X96207733Y-54358000D01*
X96550267Y-53338000D02*
X96207733Y-53338000D01*
X92514267Y-67562000D02*
X92171733Y-67562000D01*
X92514267Y-68582000D02*
X92171733Y-68582000D01*
X96235733Y-52516500D02*
X96578267Y-52516500D01*
X96235733Y-51496500D02*
X96578267Y-51496500D01*
X92704767Y-50675000D02*
X92362233Y-50675000D01*
X92704767Y-49655000D02*
X92362233Y-49655000D01*
X92514267Y-78742000D02*
X92171733Y-78742000D01*
X92514267Y-77722000D02*
X92171733Y-77722000D01*
X92514267Y-79754000D02*
X92171733Y-79754000D01*
X92514267Y-80774000D02*
X92171733Y-80774000D01*
X92514267Y-66550000D02*
X92171733Y-66550000D01*
X92514267Y-65530000D02*
X92171733Y-65530000D01*
X92514267Y-76710000D02*
X92171733Y-76710000D01*
X92514267Y-75690000D02*
X92171733Y-75690000D01*
X92362233Y-37082000D02*
X92704767Y-37082000D01*
X92362233Y-38102000D02*
X92704767Y-38102000D01*
X88930267Y-50738500D02*
X88587733Y-50738500D01*
X88930267Y-49718500D02*
X88587733Y-49718500D01*
X96207733Y-66550000D02*
X96550267Y-66550000D01*
X96207733Y-65530000D02*
X96550267Y-65530000D01*
X92690767Y-54358000D02*
X92348233Y-54358000D01*
X92690767Y-53338000D02*
X92348233Y-53338000D01*
X96221733Y-67562000D02*
X96564267Y-67562000D01*
X96221733Y-68582000D02*
X96564267Y-68582000D01*
X92704767Y-36070000D02*
X92362233Y-36070000D01*
X92704767Y-35050000D02*
X92362233Y-35050000D01*
X92704767Y-42670000D02*
X92362233Y-42670000D01*
X92704767Y-43690000D02*
X92362233Y-43690000D01*
D11*
X97509000Y-57423000D02*
X96709000Y-57423000D01*
X97509000Y-62973000D02*
X96609000Y-62973000D01*
X90959000Y-62973000D02*
X91859000Y-62973000D01*
X90959000Y-57423000D02*
X91859000Y-57423000D01*
X97509000Y-57423000D02*
X97509000Y-62973000D01*
X90959000Y-57423000D02*
X90959000Y-62973000D01*
X96709000Y-57423000D02*
X96709000Y-56148000D01*
X89730000Y-74695000D02*
X89455000Y-74695000D01*
X89730000Y-80245000D02*
X89375000Y-80245000D01*
X79180000Y-80245000D02*
X79535000Y-80245000D01*
X79180000Y-74695000D02*
X79535000Y-74695000D01*
X89730000Y-74695000D02*
X89730000Y-80245000D01*
X79180000Y-74695000D02*
X79180000Y-80245000D01*
X89455000Y-74695000D02*
X89455000Y-73170000D01*
D10*
X79948500Y-58869733D02*
X79948500Y-59212267D01*
X78928500Y-58869733D02*
X78928500Y-59212267D01*
X80012000Y-62566733D02*
X80012000Y-62909267D01*
X78992000Y-62566733D02*
X78992000Y-62909267D01*
X76155733Y-52516500D02*
X76498267Y-52516500D01*
X76155733Y-51496500D02*
X76498267Y-51496500D01*
X72980733Y-82806000D02*
X73323267Y-82806000D01*
X72980733Y-81786000D02*
X73323267Y-81786000D01*
X81508000Y-24664000D02*
X80308000Y-24664000D01*
X76988000Y-24664000D02*
X78188000Y-24664000D01*
X76988000Y-28119563D02*
X76988000Y-24664000D01*
X81508000Y-28119563D02*
X81508000Y-24664000D01*
X80443563Y-29184000D02*
X80308000Y-29184000D01*
X78052437Y-29184000D02*
X78188000Y-29184000D01*
X78052437Y-29184000D02*
X76988000Y-28119563D01*
X80443563Y-29184000D02*
X81508000Y-28119563D01*
X77688000Y-29924000D02*
X77688000Y-29424000D01*
X77438000Y-29674000D02*
X77938000Y-29674000D01*
X76674000Y-24164000D02*
X74974000Y-24164000D01*
X71154000Y-24164000D02*
X72854000Y-24164000D01*
X71154000Y-28619563D02*
X71154000Y-24164000D01*
X76674000Y-28619563D02*
X76674000Y-24164000D01*
X75609563Y-29684000D02*
X74974000Y-29684000D01*
X72218437Y-29684000D02*
X72854000Y-29684000D01*
X72218437Y-29684000D02*
X71154000Y-28619563D01*
X75609563Y-29684000D02*
X76674000Y-28619563D01*
X72229000Y-30549000D02*
X72229000Y-29924000D01*
X71916500Y-30236500D02*
X72541500Y-30236500D01*
D11*
X70104000Y-93980000D02*
X72644000Y-93980000D01*
X70104000Y-96520000D02*
X70104000Y-91440000D01*
X72644000Y-96520000D02*
X70104000Y-96520000D01*
X72644000Y-91440000D02*
X72644000Y-96520000D01*
X70104000Y-91440000D02*
X72644000Y-91440000D01*
X82296000Y-59944000D02*
X84836000Y-59944000D01*
X82296000Y-62484000D02*
X82296000Y-57404000D01*
X84836000Y-62484000D02*
X82296000Y-62484000D01*
X84836000Y-57404000D02*
X84836000Y-62484000D01*
X82296000Y-57404000D02*
X84836000Y-57404000D01*
X82296000Y-37465000D02*
X84836000Y-37465000D01*
X84836000Y-37465000D02*
X84836000Y-42545000D01*
X84836000Y-42545000D02*
X82296000Y-42545000D01*
X82296000Y-42545000D02*
X82296000Y-37465000D01*
X82296000Y-40005000D02*
X84836000Y-40005000D01*
D10*
X78669000Y-74424000D02*
X77739000Y-74424000D01*
X75509000Y-74424000D02*
X76439000Y-74424000D01*
X75509000Y-74424000D02*
X75509000Y-76584000D01*
X78669000Y-74424000D02*
X78669000Y-75884000D01*
X78669000Y-78504000D02*
X78669000Y-79964000D01*
X75509000Y-78504000D02*
X75509000Y-80664000D01*
X75509000Y-78504000D02*
X76439000Y-78504000D01*
X78669000Y-78504000D02*
X77739000Y-78504000D01*
X75509000Y-71880000D02*
X76439000Y-71880000D01*
X78669000Y-71880000D02*
X77739000Y-71880000D01*
X78669000Y-71880000D02*
X78669000Y-69720000D01*
X75509000Y-71880000D02*
X75509000Y-70420000D01*
X78557000Y-55544500D02*
X79487000Y-55544500D01*
X81717000Y-55544500D02*
X80787000Y-55544500D01*
X81717000Y-55544500D02*
X81717000Y-53384500D01*
X78557000Y-55544500D02*
X78557000Y-54084500D01*
X72900000Y-41600000D02*
X74360000Y-41600000D01*
X72900000Y-44760000D02*
X75060000Y-44760000D01*
X72900000Y-44760000D02*
X72900000Y-43830000D01*
X72900000Y-41600000D02*
X72900000Y-42530000D01*
X72980733Y-74678000D02*
X73323267Y-74678000D01*
X72980733Y-73658000D02*
X73323267Y-73658000D01*
X72980733Y-72646000D02*
X73323267Y-72646000D01*
X72980733Y-71626000D02*
X73323267Y-71626000D01*
X72966733Y-69594000D02*
X73309267Y-69594000D01*
X72966733Y-70614000D02*
X73309267Y-70614000D01*
X72331733Y-50738500D02*
X72674267Y-50738500D01*
X72331733Y-49718500D02*
X72674267Y-49718500D01*
X72702267Y-53338000D02*
X72359733Y-53338000D01*
X72702267Y-54358000D02*
X72359733Y-54358000D01*
X72994733Y-68582000D02*
X73337267Y-68582000D01*
X72994733Y-67562000D02*
X73337267Y-67562000D01*
X72345733Y-51496500D02*
X72688267Y-51496500D01*
X72345733Y-52516500D02*
X72688267Y-52516500D01*
X76169733Y-49718500D02*
X76512267Y-49718500D01*
X76169733Y-50738500D02*
X76512267Y-50738500D01*
X72994733Y-77722000D02*
X73337267Y-77722000D01*
X72994733Y-78742000D02*
X73337267Y-78742000D01*
X72980733Y-80774000D02*
X73323267Y-80774000D01*
X72980733Y-79754000D02*
X73323267Y-79754000D01*
X72994733Y-65530000D02*
X73337267Y-65530000D01*
X72994733Y-66550000D02*
X73337267Y-66550000D01*
X72980733Y-76710000D02*
X73323267Y-76710000D01*
X72980733Y-75690000D02*
X73323267Y-75690000D01*
X77006267Y-37082000D02*
X76663733Y-37082000D01*
X77006267Y-38102000D02*
X76663733Y-38102000D01*
X80010733Y-50738500D02*
X80353267Y-50738500D01*
X80010733Y-49718500D02*
X80353267Y-49718500D01*
X76931733Y-65530000D02*
X77274267Y-65530000D01*
X76931733Y-66550000D02*
X77274267Y-66550000D01*
X76155733Y-53338000D02*
X76498267Y-53338000D01*
X76155733Y-54358000D02*
X76498267Y-54358000D01*
X76917733Y-67562000D02*
X77260267Y-67562000D01*
X76917733Y-68582000D02*
X77260267Y-68582000D01*
X76663733Y-35050000D02*
X77006267Y-35050000D01*
X76663733Y-36070000D02*
X77006267Y-36070000D01*
X77312733Y-43690000D02*
X77655267Y-43690000D01*
X77312733Y-42670000D02*
X77655267Y-42670000D01*
D11*
X78205000Y-57423000D02*
X77405000Y-57423000D01*
X78205000Y-62973000D02*
X77305000Y-62973000D01*
X71655000Y-62973000D02*
X72555000Y-62973000D01*
X71655000Y-57423000D02*
X72555000Y-57423000D01*
X78205000Y-57423000D02*
X78205000Y-62973000D01*
X71655000Y-57423000D02*
X71655000Y-62973000D01*
X77405000Y-57423000D02*
X77405000Y-56148000D01*
D10*
X79337000Y-52741500D02*
X81797000Y-52741500D01*
X81797000Y-52741500D02*
X81797000Y-51271500D01*
X81797000Y-51271500D02*
X79337000Y-51271500D01*
X89559000Y-51271500D02*
X87099000Y-51271500D01*
X87099000Y-51271500D02*
X87099000Y-52741500D01*
X87099000Y-52741500D02*
X89559000Y-52741500D01*
X90807000Y-47257857D02*
X90771285Y-47293571D01*
X90664142Y-47329285D01*
X90592714Y-47329285D01*
X90485571Y-47293571D01*
X90414142Y-47222142D01*
X90378428Y-47150714D01*
X90342714Y-47007857D01*
X90342714Y-46900714D01*
X90378428Y-46757857D01*
X90414142Y-46686428D01*
X90485571Y-46615000D01*
X90592714Y-46579285D01*
X90664142Y-46579285D01*
X90771285Y-46615000D01*
X90807000Y-46650714D01*
X91521285Y-47329285D02*
X91092714Y-47329285D01*
X91307000Y-47329285D02*
X91307000Y-46579285D01*
X91235571Y-46686428D01*
X91164142Y-46757857D01*
X91092714Y-46793571D01*
X93982000Y-82563857D02*
X93946285Y-82599571D01*
X93839142Y-82635285D01*
X93767714Y-82635285D01*
X93660571Y-82599571D01*
X93589142Y-82528142D01*
X93553428Y-82456714D01*
X93517714Y-82313857D01*
X93517714Y-82206714D01*
X93553428Y-82063857D01*
X93589142Y-81992428D01*
X93660571Y-81921000D01*
X93767714Y-81885285D01*
X93839142Y-81885285D01*
X93946285Y-81921000D01*
X93982000Y-81956714D01*
X94267714Y-81956714D02*
X94303428Y-81921000D01*
X94374857Y-81885285D01*
X94553428Y-81885285D01*
X94624857Y-81921000D01*
X94660571Y-81956714D01*
X94696285Y-82028142D01*
X94696285Y-82099571D01*
X94660571Y-82206714D01*
X94232000Y-82635285D01*
X94696285Y-82635285D01*
X87759000Y-24270857D02*
X87723285Y-24306571D01*
X87616142Y-24342285D01*
X87544714Y-24342285D01*
X87437571Y-24306571D01*
X87366142Y-24235142D01*
X87330428Y-24163714D01*
X87294714Y-24020857D01*
X87294714Y-23913714D01*
X87330428Y-23770857D01*
X87366142Y-23699428D01*
X87437571Y-23628000D01*
X87544714Y-23592285D01*
X87616142Y-23592285D01*
X87723285Y-23628000D01*
X87759000Y-23663714D01*
X88009000Y-23592285D02*
X88473285Y-23592285D01*
X88223285Y-23878000D01*
X88330428Y-23878000D01*
X88401857Y-23913714D01*
X88437571Y-23949428D01*
X88473285Y-24020857D01*
X88473285Y-24199428D01*
X88437571Y-24270857D01*
X88401857Y-24306571D01*
X88330428Y-24342285D01*
X88116142Y-24342285D01*
X88044714Y-24306571D01*
X88009000Y-24270857D01*
X92966000Y-23762857D02*
X92930285Y-23798571D01*
X92823142Y-23834285D01*
X92751714Y-23834285D01*
X92644571Y-23798571D01*
X92573142Y-23727142D01*
X92537428Y-23655714D01*
X92501714Y-23512857D01*
X92501714Y-23405714D01*
X92537428Y-23262857D01*
X92573142Y-23191428D01*
X92644571Y-23120000D01*
X92751714Y-23084285D01*
X92823142Y-23084285D01*
X92930285Y-23120000D01*
X92966000Y-23155714D01*
X93608857Y-23334285D02*
X93608857Y-23834285D01*
X93430285Y-23048571D02*
X93251714Y-23584285D01*
X93716000Y-23584285D01*
X79377000Y-108090857D02*
X79341285Y-108126571D01*
X79234142Y-108162285D01*
X79162714Y-108162285D01*
X79055571Y-108126571D01*
X78984142Y-108055142D01*
X78948428Y-107983714D01*
X78912714Y-107840857D01*
X78912714Y-107733714D01*
X78948428Y-107590857D01*
X78984142Y-107519428D01*
X79055571Y-107448000D01*
X79162714Y-107412285D01*
X79234142Y-107412285D01*
X79341285Y-107448000D01*
X79377000Y-107483714D01*
X80055571Y-107412285D02*
X79698428Y-107412285D01*
X79662714Y-107769428D01*
X79698428Y-107733714D01*
X79769857Y-107698000D01*
X79948428Y-107698000D01*
X80019857Y-107733714D01*
X80055571Y-107769428D01*
X80091285Y-107840857D01*
X80091285Y-108019428D01*
X80055571Y-108090857D01*
X80019857Y-108126571D01*
X79948428Y-108162285D01*
X79769857Y-108162285D01*
X79698428Y-108126571D01*
X79662714Y-108090857D01*
X96649000Y-108090857D02*
X96613285Y-108126571D01*
X96506142Y-108162285D01*
X96434714Y-108162285D01*
X96327571Y-108126571D01*
X96256142Y-108055142D01*
X96220428Y-107983714D01*
X96184714Y-107840857D01*
X96184714Y-107733714D01*
X96220428Y-107590857D01*
X96256142Y-107519428D01*
X96327571Y-107448000D01*
X96434714Y-107412285D01*
X96506142Y-107412285D01*
X96613285Y-107448000D01*
X96649000Y-107483714D01*
X97291857Y-107412285D02*
X97149000Y-107412285D01*
X97077571Y-107448000D01*
X97041857Y-107483714D01*
X96970428Y-107590857D01*
X96934714Y-107733714D01*
X96934714Y-108019428D01*
X96970428Y-108090857D01*
X97006142Y-108126571D01*
X97077571Y-108162285D01*
X97220428Y-108162285D01*
X97291857Y-108126571D01*
X97327571Y-108090857D01*
X97363285Y-108019428D01*
X97363285Y-107840857D01*
X97327571Y-107769428D01*
X97291857Y-107733714D01*
X97220428Y-107698000D01*
X97077571Y-107698000D01*
X97006142Y-107733714D01*
X96970428Y-107769428D01*
X96934714Y-107840857D01*
X76975857Y-104759000D02*
X77011571Y-104794714D01*
X77047285Y-104901857D01*
X77047285Y-104973285D01*
X77011571Y-105080428D01*
X76940142Y-105151857D01*
X76868714Y-105187571D01*
X76725857Y-105223285D01*
X76618714Y-105223285D01*
X76475857Y-105187571D01*
X76404428Y-105151857D01*
X76333000Y-105080428D01*
X76297285Y-104973285D01*
X76297285Y-104901857D01*
X76333000Y-104794714D01*
X76368714Y-104759000D01*
X76297285Y-104509000D02*
X76297285Y-104009000D01*
X77047285Y-104330428D01*
X89929857Y-104709500D02*
X89965571Y-104745214D01*
X90001285Y-104852357D01*
X90001285Y-104923785D01*
X89965571Y-105030928D01*
X89894142Y-105102357D01*
X89822714Y-105138071D01*
X89679857Y-105173785D01*
X89572714Y-105173785D01*
X89429857Y-105138071D01*
X89358428Y-105102357D01*
X89287000Y-105030928D01*
X89251285Y-104923785D01*
X89251285Y-104852357D01*
X89287000Y-104745214D01*
X89322714Y-104709500D01*
X89572714Y-104280928D02*
X89537000Y-104352357D01*
X89501285Y-104388071D01*
X89429857Y-104423785D01*
X89394142Y-104423785D01*
X89322714Y-104388071D01*
X89287000Y-104352357D01*
X89251285Y-104280928D01*
X89251285Y-104138071D01*
X89287000Y-104066642D01*
X89322714Y-104030928D01*
X89394142Y-103995214D01*
X89429857Y-103995214D01*
X89501285Y-104030928D01*
X89537000Y-104066642D01*
X89572714Y-104138071D01*
X89572714Y-104280928D01*
X89608428Y-104352357D01*
X89644142Y-104388071D01*
X89715571Y-104423785D01*
X89858428Y-104423785D01*
X89929857Y-104388071D01*
X89965571Y-104352357D01*
X90001285Y-104280928D01*
X90001285Y-104138071D01*
X89965571Y-104066642D01*
X89929857Y-104030928D01*
X89858428Y-103995214D01*
X89715571Y-103995214D01*
X89644142Y-104030928D01*
X89608428Y-104066642D01*
X89572714Y-104138071D01*
X88659857Y-59166000D02*
X88695571Y-59201714D01*
X88731285Y-59308857D01*
X88731285Y-59380285D01*
X88695571Y-59487428D01*
X88624142Y-59558857D01*
X88552714Y-59594571D01*
X88409857Y-59630285D01*
X88302714Y-59630285D01*
X88159857Y-59594571D01*
X88088428Y-59558857D01*
X88017000Y-59487428D01*
X87981285Y-59380285D01*
X87981285Y-59308857D01*
X88017000Y-59201714D01*
X88052714Y-59166000D01*
X88731285Y-58808857D02*
X88731285Y-58666000D01*
X88695571Y-58594571D01*
X88659857Y-58558857D01*
X88552714Y-58487428D01*
X88409857Y-58451714D01*
X88124142Y-58451714D01*
X88052714Y-58487428D01*
X88017000Y-58523142D01*
X87981285Y-58594571D01*
X87981285Y-58737428D01*
X88017000Y-58808857D01*
X88052714Y-58844571D01*
X88124142Y-58880285D01*
X88302714Y-58880285D01*
X88374142Y-58844571D01*
X88409857Y-58808857D01*
X88445571Y-58737428D01*
X88445571Y-58594571D01*
X88409857Y-58523142D01*
X88374142Y-58487428D01*
X88302714Y-58451714D01*
X88659857Y-63220142D02*
X88695571Y-63255857D01*
X88731285Y-63363000D01*
X88731285Y-63434428D01*
X88695571Y-63541571D01*
X88624142Y-63613000D01*
X88552714Y-63648714D01*
X88409857Y-63684428D01*
X88302714Y-63684428D01*
X88159857Y-63648714D01*
X88088428Y-63613000D01*
X88017000Y-63541571D01*
X87981285Y-63434428D01*
X87981285Y-63363000D01*
X88017000Y-63255857D01*
X88052714Y-63220142D01*
X88731285Y-62505857D02*
X88731285Y-62934428D01*
X88731285Y-62720142D02*
X87981285Y-62720142D01*
X88088428Y-62791571D01*
X88159857Y-62863000D01*
X88195571Y-62934428D01*
X87981285Y-62041571D02*
X87981285Y-61970142D01*
X88017000Y-61898714D01*
X88052714Y-61863000D01*
X88124142Y-61827285D01*
X88267000Y-61791571D01*
X88445571Y-61791571D01*
X88588428Y-61827285D01*
X88659857Y-61863000D01*
X88695571Y-61898714D01*
X88731285Y-61970142D01*
X88731285Y-62041571D01*
X88695571Y-62113000D01*
X88659857Y-62148714D01*
X88588428Y-62184428D01*
X88445571Y-62220142D01*
X88267000Y-62220142D01*
X88124142Y-62184428D01*
X88052714Y-62148714D01*
X88017000Y-62113000D01*
X87981285Y-62041571D01*
X83464857Y-83960857D02*
X83429142Y-83996571D01*
X83322000Y-84032285D01*
X83250571Y-84032285D01*
X83143428Y-83996571D01*
X83072000Y-83925142D01*
X83036285Y-83853714D01*
X83000571Y-83710857D01*
X83000571Y-83603714D01*
X83036285Y-83460857D01*
X83072000Y-83389428D01*
X83143428Y-83318000D01*
X83250571Y-83282285D01*
X83322000Y-83282285D01*
X83429142Y-83318000D01*
X83464857Y-83353714D01*
X84179142Y-84032285D02*
X83750571Y-84032285D01*
X83964857Y-84032285D02*
X83964857Y-83282285D01*
X83893428Y-83389428D01*
X83822000Y-83460857D01*
X83750571Y-83496571D01*
X84893428Y-84032285D02*
X84464857Y-84032285D01*
X84679142Y-84032285D02*
X84679142Y-83282285D01*
X84607714Y-83389428D01*
X84536285Y-83460857D01*
X84464857Y-83496571D01*
X83464857Y-71768857D02*
X83429142Y-71804571D01*
X83322000Y-71840285D01*
X83250571Y-71840285D01*
X83143428Y-71804571D01*
X83072000Y-71733142D01*
X83036285Y-71661714D01*
X83000571Y-71518857D01*
X83000571Y-71411714D01*
X83036285Y-71268857D01*
X83072000Y-71197428D01*
X83143428Y-71126000D01*
X83250571Y-71090285D01*
X83322000Y-71090285D01*
X83429142Y-71126000D01*
X83464857Y-71161714D01*
X84179142Y-71840285D02*
X83750571Y-71840285D01*
X83964857Y-71840285D02*
X83964857Y-71090285D01*
X83893428Y-71197428D01*
X83822000Y-71268857D01*
X83750571Y-71304571D01*
X84464857Y-71161714D02*
X84500571Y-71126000D01*
X84572000Y-71090285D01*
X84750571Y-71090285D01*
X84822000Y-71126000D01*
X84857714Y-71161714D01*
X84893428Y-71233142D01*
X84893428Y-71304571D01*
X84857714Y-71411714D01*
X84429142Y-71840285D01*
X84893428Y-71840285D01*
X72983285Y-105963571D02*
X72233285Y-105963571D01*
X72233285Y-105785000D01*
X72269000Y-105677857D01*
X72340428Y-105606428D01*
X72411857Y-105570714D01*
X72554714Y-105535000D01*
X72661857Y-105535000D01*
X72804714Y-105570714D01*
X72876142Y-105606428D01*
X72947571Y-105677857D01*
X72983285Y-105785000D01*
X72983285Y-105963571D01*
X72233285Y-105285000D02*
X72233285Y-104820714D01*
X72519000Y-105070714D01*
X72519000Y-104963571D01*
X72554714Y-104892142D01*
X72590428Y-104856428D01*
X72661857Y-104820714D01*
X72840428Y-104820714D01*
X72911857Y-104856428D01*
X72947571Y-104892142D01*
X72983285Y-104963571D01*
X72983285Y-105177857D01*
X72947571Y-105249285D01*
X72911857Y-105285000D01*
X96605285Y-106153071D02*
X95855285Y-106153071D01*
X95855285Y-105974500D01*
X95891000Y-105867357D01*
X95962428Y-105795928D01*
X96033857Y-105760214D01*
X96176714Y-105724500D01*
X96283857Y-105724500D01*
X96426714Y-105760214D01*
X96498142Y-105795928D01*
X96569571Y-105867357D01*
X96605285Y-105974500D01*
X96605285Y-106153071D01*
X96105285Y-105081642D02*
X96605285Y-105081642D01*
X95819571Y-105260214D02*
X96355285Y-105438785D01*
X96355285Y-104974500D01*
X84332000Y-87346285D02*
X84332000Y-87882000D01*
X84296285Y-87989142D01*
X84224857Y-88060571D01*
X84117714Y-88096285D01*
X84046285Y-88096285D01*
X85010571Y-87346285D02*
X84867714Y-87346285D01*
X84796285Y-87382000D01*
X84760571Y-87417714D01*
X84689142Y-87524857D01*
X84653428Y-87667714D01*
X84653428Y-87953428D01*
X84689142Y-88024857D01*
X84724857Y-88060571D01*
X84796285Y-88096285D01*
X84939142Y-88096285D01*
X85010571Y-88060571D01*
X85046285Y-88024857D01*
X85082000Y-87953428D01*
X85082000Y-87774857D01*
X85046285Y-87703428D01*
X85010571Y-87667714D01*
X84939142Y-87632000D01*
X84796285Y-87632000D01*
X84724857Y-87667714D01*
X84689142Y-87703428D01*
X84653428Y-87774857D01*
X96911000Y-89759285D02*
X96911000Y-90295000D01*
X96875285Y-90402142D01*
X96803857Y-90473571D01*
X96696714Y-90509285D01*
X96625285Y-90509285D01*
X97268142Y-90509285D02*
X97268142Y-89759285D01*
X97553857Y-89759285D01*
X97625285Y-89795000D01*
X97661000Y-89830714D01*
X97696714Y-89902142D01*
X97696714Y-90009285D01*
X97661000Y-90080714D01*
X97625285Y-90116428D01*
X97553857Y-90152142D01*
X97268142Y-90152142D01*
X98411000Y-90509285D02*
X97982428Y-90509285D01*
X98196714Y-90509285D02*
X98196714Y-89759285D01*
X98125285Y-89866428D01*
X98053857Y-89937857D01*
X97982428Y-89973571D01*
X85481000Y-55723285D02*
X85481000Y-56259000D01*
X85445285Y-56366142D01*
X85373857Y-56437571D01*
X85266714Y-56473285D01*
X85195285Y-56473285D01*
X85838142Y-56473285D02*
X85838142Y-55723285D01*
X86123857Y-55723285D01*
X86195285Y-55759000D01*
X86231000Y-55794714D01*
X86266714Y-55866142D01*
X86266714Y-55973285D01*
X86231000Y-56044714D01*
X86195285Y-56080428D01*
X86123857Y-56116142D01*
X85838142Y-56116142D01*
X86552428Y-55794714D02*
X86588142Y-55759000D01*
X86659571Y-55723285D01*
X86838142Y-55723285D01*
X86909571Y-55759000D01*
X86945285Y-55794714D01*
X86981000Y-55866142D01*
X86981000Y-55937571D01*
X86945285Y-56044714D01*
X86516714Y-56473285D01*
X86981000Y-56473285D01*
X85862000Y-36419285D02*
X85862000Y-36955000D01*
X85826285Y-37062142D01*
X85754857Y-37133571D01*
X85647714Y-37169285D01*
X85576285Y-37169285D01*
X86219142Y-37169285D02*
X86219142Y-36419285D01*
X86504857Y-36419285D01*
X86576285Y-36455000D01*
X86612000Y-36490714D01*
X86647714Y-36562142D01*
X86647714Y-36669285D01*
X86612000Y-36740714D01*
X86576285Y-36776428D01*
X86504857Y-36812142D01*
X86219142Y-36812142D01*
X86897714Y-36419285D02*
X87362000Y-36419285D01*
X87112000Y-36705000D01*
X87219142Y-36705000D01*
X87290571Y-36740714D01*
X87326285Y-36776428D01*
X87362000Y-36847857D01*
X87362000Y-37026428D01*
X87326285Y-37097857D01*
X87290571Y-37133571D01*
X87219142Y-37169285D01*
X87004857Y-37169285D01*
X86933428Y-37133571D01*
X86897714Y-37097857D01*
X95051571Y-74197714D02*
X94980142Y-74162000D01*
X94908714Y-74090571D01*
X94801571Y-73983428D01*
X94730142Y-73947714D01*
X94658714Y-73947714D01*
X94694428Y-74126285D02*
X94623000Y-74090571D01*
X94551571Y-74019142D01*
X94515857Y-73876285D01*
X94515857Y-73626285D01*
X94551571Y-73483428D01*
X94623000Y-73412000D01*
X94694428Y-73376285D01*
X94837285Y-73376285D01*
X94908714Y-73412000D01*
X94980142Y-73483428D01*
X95015857Y-73626285D01*
X95015857Y-73876285D01*
X94980142Y-74019142D01*
X94908714Y-74090571D01*
X94837285Y-74126285D01*
X94694428Y-74126285D01*
X95730142Y-74126285D02*
X95301571Y-74126285D01*
X95515857Y-74126285D02*
X95515857Y-73376285D01*
X95444428Y-73483428D01*
X95373000Y-73554857D01*
X95301571Y-73590571D01*
X95051571Y-78261714D02*
X94980142Y-78226000D01*
X94908714Y-78154571D01*
X94801571Y-78047428D01*
X94730142Y-78011714D01*
X94658714Y-78011714D01*
X94694428Y-78190285D02*
X94623000Y-78154571D01*
X94551571Y-78083142D01*
X94515857Y-77940285D01*
X94515857Y-77690285D01*
X94551571Y-77547428D01*
X94623000Y-77476000D01*
X94694428Y-77440285D01*
X94837285Y-77440285D01*
X94908714Y-77476000D01*
X94980142Y-77547428D01*
X95015857Y-77690285D01*
X95015857Y-77940285D01*
X94980142Y-78083142D01*
X94908714Y-78154571D01*
X94837285Y-78190285D01*
X94694428Y-78190285D01*
X95301571Y-77511714D02*
X95337285Y-77476000D01*
X95408714Y-77440285D01*
X95587285Y-77440285D01*
X95658714Y-77476000D01*
X95694428Y-77511714D01*
X95730142Y-77583142D01*
X95730142Y-77654571D01*
X95694428Y-77761714D01*
X95265857Y-78190285D01*
X95730142Y-78190285D01*
X97845571Y-73054714D02*
X97774142Y-73019000D01*
X97702714Y-72947571D01*
X97595571Y-72840428D01*
X97524142Y-72804714D01*
X97452714Y-72804714D01*
X97488428Y-72983285D02*
X97417000Y-72947571D01*
X97345571Y-72876142D01*
X97309857Y-72733285D01*
X97309857Y-72483285D01*
X97345571Y-72340428D01*
X97417000Y-72269000D01*
X97488428Y-72233285D01*
X97631285Y-72233285D01*
X97702714Y-72269000D01*
X97774142Y-72340428D01*
X97809857Y-72483285D01*
X97809857Y-72733285D01*
X97774142Y-72876142D01*
X97702714Y-72947571D01*
X97631285Y-72983285D01*
X97488428Y-72983285D01*
X98059857Y-72233285D02*
X98524142Y-72233285D01*
X98274142Y-72519000D01*
X98381285Y-72519000D01*
X98452714Y-72554714D01*
X98488428Y-72590428D01*
X98524142Y-72661857D01*
X98524142Y-72840428D01*
X98488428Y-72911857D01*
X98452714Y-72947571D01*
X98381285Y-72983285D01*
X98167000Y-72983285D01*
X98095571Y-72947571D01*
X98059857Y-72911857D01*
X86034571Y-48543714D02*
X85963142Y-48508000D01*
X85891714Y-48436571D01*
X85784571Y-48329428D01*
X85713142Y-48293714D01*
X85641714Y-48293714D01*
X85677428Y-48472285D02*
X85606000Y-48436571D01*
X85534571Y-48365142D01*
X85498857Y-48222285D01*
X85498857Y-47972285D01*
X85534571Y-47829428D01*
X85606000Y-47758000D01*
X85677428Y-47722285D01*
X85820285Y-47722285D01*
X85891714Y-47758000D01*
X85963142Y-47829428D01*
X85998857Y-47972285D01*
X85998857Y-48222285D01*
X85963142Y-48365142D01*
X85891714Y-48436571D01*
X85820285Y-48472285D01*
X85677428Y-48472285D01*
X86641714Y-47972285D02*
X86641714Y-48472285D01*
X86463142Y-47686571D02*
X86284571Y-48222285D01*
X86748857Y-48222285D01*
X96321571Y-41304714D02*
X96250142Y-41269000D01*
X96178714Y-41197571D01*
X96071571Y-41090428D01*
X96000142Y-41054714D01*
X95928714Y-41054714D01*
X95964428Y-41233285D02*
X95893000Y-41197571D01*
X95821571Y-41126142D01*
X95785857Y-40983285D01*
X95785857Y-40733285D01*
X95821571Y-40590428D01*
X95893000Y-40519000D01*
X95964428Y-40483285D01*
X96107285Y-40483285D01*
X96178714Y-40519000D01*
X96250142Y-40590428D01*
X96285857Y-40733285D01*
X96285857Y-40983285D01*
X96250142Y-41126142D01*
X96178714Y-41197571D01*
X96107285Y-41233285D01*
X95964428Y-41233285D01*
X96964428Y-40483285D02*
X96607285Y-40483285D01*
X96571571Y-40840428D01*
X96607285Y-40804714D01*
X96678714Y-40769000D01*
X96857285Y-40769000D01*
X96928714Y-40804714D01*
X96964428Y-40840428D01*
X97000142Y-40911857D01*
X97000142Y-41090428D01*
X96964428Y-41161857D01*
X96928714Y-41197571D01*
X96857285Y-41233285D01*
X96678714Y-41233285D01*
X96607285Y-41197571D01*
X96571571Y-41161857D01*
X90575522Y-73861299D02*
X90146208Y-73785538D01*
X90272477Y-74164345D02*
X89742147Y-73634015D01*
X89944177Y-73431984D01*
X90019938Y-73406730D01*
X90070446Y-73406730D01*
X90146208Y-73431984D01*
X90221969Y-73507746D01*
X90247223Y-73583507D01*
X90247223Y-73634015D01*
X90221969Y-73709776D01*
X90019938Y-73911807D01*
X91080599Y-73356223D02*
X90777553Y-73659269D01*
X90929076Y-73507746D02*
X90398746Y-72977416D01*
X90424000Y-73103685D01*
X90424000Y-73204700D01*
X90398746Y-73280461D01*
X90575522Y-71829299D02*
X90146208Y-71753538D01*
X90272477Y-72132345D02*
X89742147Y-71602015D01*
X89944177Y-71399984D01*
X90019938Y-71374730D01*
X90070446Y-71374730D01*
X90146208Y-71399984D01*
X90221969Y-71475746D01*
X90247223Y-71551507D01*
X90247223Y-71602015D01*
X90221969Y-71677776D01*
X90019938Y-71879807D01*
X90297730Y-71147446D02*
X90297730Y-71096938D01*
X90322984Y-71021177D01*
X90449253Y-70894908D01*
X90525015Y-70869654D01*
X90575522Y-70869654D01*
X90651284Y-70894908D01*
X90701791Y-70945416D01*
X90752299Y-71046431D01*
X90752299Y-71652522D01*
X91080599Y-71324223D01*
X90575522Y-69797299D02*
X90146208Y-69721538D01*
X90272477Y-70100345D02*
X89742147Y-69570015D01*
X89944177Y-69367984D01*
X90019938Y-69342730D01*
X90070446Y-69342730D01*
X90146208Y-69367984D01*
X90221969Y-69443746D01*
X90247223Y-69519507D01*
X90247223Y-69570015D01*
X90221969Y-69645776D01*
X90019938Y-69847807D01*
X90221969Y-69090192D02*
X90550269Y-68761893D01*
X90575522Y-69140700D01*
X90651284Y-69064938D01*
X90727045Y-69039685D01*
X90777553Y-69039685D01*
X90853314Y-69064938D01*
X90979583Y-69191208D01*
X91004837Y-69266969D01*
X91004837Y-69317477D01*
X90979583Y-69393238D01*
X90828061Y-69544761D01*
X90752299Y-69570015D01*
X90701791Y-69570015D01*
X97157000Y-46186285D02*
X96907000Y-45829142D01*
X96728428Y-46186285D02*
X96728428Y-45436285D01*
X97014142Y-45436285D01*
X97085571Y-45472000D01*
X97121285Y-45507714D01*
X97157000Y-45579142D01*
X97157000Y-45686285D01*
X97121285Y-45757714D01*
X97085571Y-45793428D01*
X97014142Y-45829142D01*
X96728428Y-45829142D01*
X97799857Y-45686285D02*
X97799857Y-46186285D01*
X97621285Y-45400571D02*
X97442714Y-45936285D01*
X97907000Y-45936285D01*
X97157000Y-48472285D02*
X96907000Y-48115142D01*
X96728428Y-48472285D02*
X96728428Y-47722285D01*
X97014142Y-47722285D01*
X97085571Y-47758000D01*
X97121285Y-47793714D01*
X97157000Y-47865142D01*
X97157000Y-47972285D01*
X97121285Y-48043714D01*
X97085571Y-48079428D01*
X97014142Y-48115142D01*
X96728428Y-48115142D01*
X97835571Y-47722285D02*
X97478428Y-47722285D01*
X97442714Y-48079428D01*
X97478428Y-48043714D01*
X97549857Y-48008000D01*
X97728428Y-48008000D01*
X97799857Y-48043714D01*
X97835571Y-48079428D01*
X97871285Y-48150857D01*
X97871285Y-48329428D01*
X97835571Y-48400857D01*
X97799857Y-48436571D01*
X97728428Y-48472285D01*
X97549857Y-48472285D01*
X97478428Y-48436571D01*
X97442714Y-48400857D01*
X90448522Y-67892299D02*
X90019208Y-67816538D01*
X90145477Y-68195345D02*
X89615147Y-67665015D01*
X89817177Y-67462984D01*
X89892938Y-67437730D01*
X89943446Y-67437730D01*
X90019208Y-67462984D01*
X90094969Y-67538746D01*
X90120223Y-67614507D01*
X90120223Y-67665015D01*
X90094969Y-67740776D01*
X89892938Y-67942807D01*
X90372761Y-66907400D02*
X90271746Y-67008416D01*
X90246492Y-67084177D01*
X90246492Y-67134685D01*
X90271746Y-67260954D01*
X90347507Y-67387223D01*
X90549538Y-67589253D01*
X90625299Y-67614507D01*
X90675807Y-67614507D01*
X90751568Y-67589253D01*
X90852583Y-67488238D01*
X90877837Y-67412477D01*
X90877837Y-67361969D01*
X90852583Y-67286208D01*
X90726314Y-67159938D01*
X90650553Y-67134685D01*
X90600045Y-67134685D01*
X90524284Y-67159938D01*
X90423269Y-67260954D01*
X90398015Y-67336715D01*
X90398015Y-67387223D01*
X90423269Y-67462984D01*
X97157000Y-47329285D02*
X96907000Y-46972142D01*
X96728428Y-47329285D02*
X96728428Y-46579285D01*
X97014142Y-46579285D01*
X97085571Y-46615000D01*
X97121285Y-46650714D01*
X97157000Y-46722142D01*
X97157000Y-46829285D01*
X97121285Y-46900714D01*
X97085571Y-46936428D01*
X97014142Y-46972142D01*
X96728428Y-46972142D01*
X97407000Y-46579285D02*
X97907000Y-46579285D01*
X97585571Y-47329285D01*
X90807000Y-46186285D02*
X90557000Y-45829142D01*
X90378428Y-46186285D02*
X90378428Y-45436285D01*
X90664142Y-45436285D01*
X90735571Y-45472000D01*
X90771285Y-45507714D01*
X90807000Y-45579142D01*
X90807000Y-45686285D01*
X90771285Y-45757714D01*
X90735571Y-45793428D01*
X90664142Y-45829142D01*
X90378428Y-45829142D01*
X91235571Y-45757714D02*
X91164142Y-45722000D01*
X91128428Y-45686285D01*
X91092714Y-45614857D01*
X91092714Y-45579142D01*
X91128428Y-45507714D01*
X91164142Y-45472000D01*
X91235571Y-45436285D01*
X91378428Y-45436285D01*
X91449857Y-45472000D01*
X91485571Y-45507714D01*
X91521285Y-45579142D01*
X91521285Y-45614857D01*
X91485571Y-45686285D01*
X91449857Y-45722000D01*
X91378428Y-45757714D01*
X91235571Y-45757714D01*
X91164142Y-45793428D01*
X91128428Y-45829142D01*
X91092714Y-45900571D01*
X91092714Y-46043428D01*
X91128428Y-46114857D01*
X91164142Y-46150571D01*
X91235571Y-46186285D01*
X91378428Y-46186285D01*
X91449857Y-46150571D01*
X91485571Y-46114857D01*
X91521285Y-46043428D01*
X91521285Y-45900571D01*
X91485571Y-45829142D01*
X91449857Y-45793428D01*
X91378428Y-45757714D01*
X91188000Y-83651285D02*
X90938000Y-83294142D01*
X90759428Y-83651285D02*
X90759428Y-82901285D01*
X91045142Y-82901285D01*
X91116571Y-82937000D01*
X91152285Y-82972714D01*
X91188000Y-83044142D01*
X91188000Y-83151285D01*
X91152285Y-83222714D01*
X91116571Y-83258428D01*
X91045142Y-83294142D01*
X90759428Y-83294142D01*
X91545142Y-83651285D02*
X91688000Y-83651285D01*
X91759428Y-83615571D01*
X91795142Y-83579857D01*
X91866571Y-83472714D01*
X91902285Y-83329857D01*
X91902285Y-83044142D01*
X91866571Y-82972714D01*
X91830857Y-82937000D01*
X91759428Y-82901285D01*
X91616571Y-82901285D01*
X91545142Y-82937000D01*
X91509428Y-82972714D01*
X91473714Y-83044142D01*
X91473714Y-83222714D01*
X91509428Y-83294142D01*
X91545142Y-83329857D01*
X91616571Y-83365571D01*
X91759428Y-83365571D01*
X91830857Y-83329857D01*
X91866571Y-83294142D01*
X91902285Y-83222714D01*
X91211857Y-84794285D02*
X90961857Y-84437142D01*
X90783285Y-84794285D02*
X90783285Y-84044285D01*
X91069000Y-84044285D01*
X91140428Y-84080000D01*
X91176142Y-84115714D01*
X91211857Y-84187142D01*
X91211857Y-84294285D01*
X91176142Y-84365714D01*
X91140428Y-84401428D01*
X91069000Y-84437142D01*
X90783285Y-84437142D01*
X91926142Y-84794285D02*
X91497571Y-84794285D01*
X91711857Y-84794285D02*
X91711857Y-84044285D01*
X91640428Y-84151428D01*
X91569000Y-84222857D01*
X91497571Y-84258571D01*
X92390428Y-84044285D02*
X92461857Y-84044285D01*
X92533285Y-84080000D01*
X92569000Y-84115714D01*
X92604714Y-84187142D01*
X92640428Y-84330000D01*
X92640428Y-84508571D01*
X92604714Y-84651428D01*
X92569000Y-84722857D01*
X92533285Y-84758571D01*
X92461857Y-84794285D01*
X92390428Y-84794285D01*
X92319000Y-84758571D01*
X92283285Y-84722857D01*
X92247571Y-84651428D01*
X92211857Y-84508571D01*
X92211857Y-84330000D01*
X92247571Y-84187142D01*
X92283285Y-84115714D01*
X92319000Y-84080000D01*
X92390428Y-84044285D01*
X90322984Y-65985837D02*
X89893669Y-65910076D01*
X90019938Y-66288883D02*
X89489608Y-65758553D01*
X89691639Y-65556522D01*
X89767400Y-65531269D01*
X89817908Y-65531269D01*
X89893669Y-65556522D01*
X89969431Y-65632284D01*
X89994685Y-65708045D01*
X89994685Y-65758553D01*
X89969431Y-65834314D01*
X89767400Y-66036345D01*
X90828061Y-65480761D02*
X90525015Y-65783807D01*
X90676538Y-65632284D02*
X90146208Y-65101954D01*
X90171461Y-65228223D01*
X90171461Y-65329238D01*
X90146208Y-65404999D01*
X91333137Y-64975685D02*
X91030091Y-65278730D01*
X91181614Y-65127208D02*
X90651284Y-64596877D01*
X90676538Y-64723147D01*
X90676538Y-64824162D01*
X90651284Y-64899923D01*
X91211857Y-82508285D02*
X90961857Y-82151142D01*
X90783285Y-82508285D02*
X90783285Y-81758285D01*
X91069000Y-81758285D01*
X91140428Y-81794000D01*
X91176142Y-81829714D01*
X91211857Y-81901142D01*
X91211857Y-82008285D01*
X91176142Y-82079714D01*
X91140428Y-82115428D01*
X91069000Y-82151142D01*
X90783285Y-82151142D01*
X91926142Y-82508285D02*
X91497571Y-82508285D01*
X91711857Y-82508285D02*
X91711857Y-81758285D01*
X91640428Y-81865428D01*
X91569000Y-81936857D01*
X91497571Y-81972571D01*
X92211857Y-81829714D02*
X92247571Y-81794000D01*
X92319000Y-81758285D01*
X92497571Y-81758285D01*
X92569000Y-81794000D01*
X92604714Y-81829714D01*
X92640428Y-81901142D01*
X92640428Y-81972571D01*
X92604714Y-82079714D01*
X92176142Y-82508285D01*
X92640428Y-82508285D01*
X94767857Y-37931285D02*
X94517857Y-37574142D01*
X94339285Y-37931285D02*
X94339285Y-37181285D01*
X94625000Y-37181285D01*
X94696428Y-37217000D01*
X94732142Y-37252714D01*
X94767857Y-37324142D01*
X94767857Y-37431285D01*
X94732142Y-37502714D01*
X94696428Y-37538428D01*
X94625000Y-37574142D01*
X94339285Y-37574142D01*
X95482142Y-37931285D02*
X95053571Y-37931285D01*
X95267857Y-37931285D02*
X95267857Y-37181285D01*
X95196428Y-37288428D01*
X95125000Y-37359857D01*
X95053571Y-37395571D01*
X95732142Y-37181285D02*
X96196428Y-37181285D01*
X95946428Y-37467000D01*
X96053571Y-37467000D01*
X96125000Y-37502714D01*
X96160714Y-37538428D01*
X96196428Y-37609857D01*
X96196428Y-37788428D01*
X96160714Y-37859857D01*
X96125000Y-37895571D01*
X96053571Y-37931285D01*
X95839285Y-37931285D01*
X95767857Y-37895571D01*
X95732142Y-37859857D01*
X85242857Y-46186285D02*
X84992857Y-45829142D01*
X84814285Y-46186285D02*
X84814285Y-45436285D01*
X85100000Y-45436285D01*
X85171428Y-45472000D01*
X85207142Y-45507714D01*
X85242857Y-45579142D01*
X85242857Y-45686285D01*
X85207142Y-45757714D01*
X85171428Y-45793428D01*
X85100000Y-45829142D01*
X84814285Y-45829142D01*
X85957142Y-46186285D02*
X85528571Y-46186285D01*
X85742857Y-46186285D02*
X85742857Y-45436285D01*
X85671428Y-45543428D01*
X85600000Y-45614857D01*
X85528571Y-45650571D01*
X86600000Y-45686285D02*
X86600000Y-46186285D01*
X86421428Y-45400571D02*
X86242857Y-45936285D01*
X86707142Y-45936285D01*
X97180857Y-63966285D02*
X96930857Y-63609142D01*
X96752285Y-63966285D02*
X96752285Y-63216285D01*
X97038000Y-63216285D01*
X97109428Y-63252000D01*
X97145142Y-63287714D01*
X97180857Y-63359142D01*
X97180857Y-63466285D01*
X97145142Y-63537714D01*
X97109428Y-63573428D01*
X97038000Y-63609142D01*
X96752285Y-63609142D01*
X97895142Y-63966285D02*
X97466571Y-63966285D01*
X97680857Y-63966285D02*
X97680857Y-63216285D01*
X97609428Y-63323428D01*
X97538000Y-63394857D01*
X97466571Y-63430571D01*
X98573714Y-63216285D02*
X98216571Y-63216285D01*
X98180857Y-63573428D01*
X98216571Y-63537714D01*
X98288000Y-63502000D01*
X98466571Y-63502000D01*
X98538000Y-63537714D01*
X98573714Y-63573428D01*
X98609428Y-63644857D01*
X98609428Y-63823428D01*
X98573714Y-63894857D01*
X98538000Y-63930571D01*
X98466571Y-63966285D01*
X98288000Y-63966285D01*
X98216571Y-63930571D01*
X98180857Y-63894857D01*
X90830857Y-48472285D02*
X90580857Y-48115142D01*
X90402285Y-48472285D02*
X90402285Y-47722285D01*
X90688000Y-47722285D01*
X90759428Y-47758000D01*
X90795142Y-47793714D01*
X90830857Y-47865142D01*
X90830857Y-47972285D01*
X90795142Y-48043714D01*
X90759428Y-48079428D01*
X90688000Y-48115142D01*
X90402285Y-48115142D01*
X91545142Y-48472285D02*
X91116571Y-48472285D01*
X91330857Y-48472285D02*
X91330857Y-47722285D01*
X91259428Y-47829428D01*
X91188000Y-47900857D01*
X91116571Y-47936571D01*
X92188000Y-47722285D02*
X92045142Y-47722285D01*
X91973714Y-47758000D01*
X91938000Y-47793714D01*
X91866571Y-47900857D01*
X91830857Y-48043714D01*
X91830857Y-48329428D01*
X91866571Y-48400857D01*
X91902285Y-48436571D01*
X91973714Y-48472285D01*
X92116571Y-48472285D01*
X92188000Y-48436571D01*
X92223714Y-48400857D01*
X92259428Y-48329428D01*
X92259428Y-48150857D01*
X92223714Y-48079428D01*
X92188000Y-48043714D01*
X92116571Y-48008000D01*
X91973714Y-48008000D01*
X91902285Y-48043714D01*
X91866571Y-48079428D01*
X91830857Y-48150857D01*
X97180857Y-65109285D02*
X96930857Y-64752142D01*
X96752285Y-65109285D02*
X96752285Y-64359285D01*
X97038000Y-64359285D01*
X97109428Y-64395000D01*
X97145142Y-64430714D01*
X97180857Y-64502142D01*
X97180857Y-64609285D01*
X97145142Y-64680714D01*
X97109428Y-64716428D01*
X97038000Y-64752142D01*
X96752285Y-64752142D01*
X97895142Y-65109285D02*
X97466571Y-65109285D01*
X97680857Y-65109285D02*
X97680857Y-64359285D01*
X97609428Y-64466428D01*
X97538000Y-64537857D01*
X97466571Y-64573571D01*
X98145142Y-64359285D02*
X98645142Y-64359285D01*
X98323714Y-65109285D01*
X94767857Y-35899285D02*
X94517857Y-35542142D01*
X94339285Y-35899285D02*
X94339285Y-35149285D01*
X94625000Y-35149285D01*
X94696428Y-35185000D01*
X94732142Y-35220714D01*
X94767857Y-35292142D01*
X94767857Y-35399285D01*
X94732142Y-35470714D01*
X94696428Y-35506428D01*
X94625000Y-35542142D01*
X94339285Y-35542142D01*
X95482142Y-35899285D02*
X95053571Y-35899285D01*
X95267857Y-35899285D02*
X95267857Y-35149285D01*
X95196428Y-35256428D01*
X95125000Y-35327857D01*
X95053571Y-35363571D01*
X95910714Y-35470714D02*
X95839285Y-35435000D01*
X95803571Y-35399285D01*
X95767857Y-35327857D01*
X95767857Y-35292142D01*
X95803571Y-35220714D01*
X95839285Y-35185000D01*
X95910714Y-35149285D01*
X96053571Y-35149285D01*
X96125000Y-35185000D01*
X96160714Y-35220714D01*
X96196428Y-35292142D01*
X96196428Y-35327857D01*
X96160714Y-35399285D01*
X96125000Y-35435000D01*
X96053571Y-35470714D01*
X95910714Y-35470714D01*
X95839285Y-35506428D01*
X95803571Y-35542142D01*
X95767857Y-35613571D01*
X95767857Y-35756428D01*
X95803571Y-35827857D01*
X95839285Y-35863571D01*
X95910714Y-35899285D01*
X96053571Y-35899285D01*
X96125000Y-35863571D01*
X96160714Y-35827857D01*
X96196428Y-35756428D01*
X96196428Y-35613571D01*
X96160714Y-35542142D01*
X96125000Y-35506428D01*
X96053571Y-35470714D01*
X92051357Y-42249285D02*
X91801357Y-41892142D01*
X91622785Y-42249285D02*
X91622785Y-41499285D01*
X91908500Y-41499285D01*
X91979928Y-41535000D01*
X92015642Y-41570714D01*
X92051357Y-41642142D01*
X92051357Y-41749285D01*
X92015642Y-41820714D01*
X91979928Y-41856428D01*
X91908500Y-41892142D01*
X91622785Y-41892142D01*
X92765642Y-42249285D02*
X92337071Y-42249285D01*
X92551357Y-42249285D02*
X92551357Y-41499285D01*
X92479928Y-41606428D01*
X92408500Y-41677857D01*
X92337071Y-41713571D01*
X93122785Y-42249285D02*
X93265642Y-42249285D01*
X93337071Y-42213571D01*
X93372785Y-42177857D01*
X93444214Y-42070714D01*
X93479928Y-41927857D01*
X93479928Y-41642142D01*
X93444214Y-41570714D01*
X93408500Y-41535000D01*
X93337071Y-41499285D01*
X93194214Y-41499285D01*
X93122785Y-41535000D01*
X93087071Y-41570714D01*
X93051357Y-41642142D01*
X93051357Y-41820714D01*
X93087071Y-41892142D01*
X93122785Y-41927857D01*
X93194214Y-41963571D01*
X93337071Y-41963571D01*
X93408500Y-41927857D01*
X93444214Y-41892142D01*
X93479928Y-41820714D01*
X98023285Y-60769428D02*
X98630428Y-60769428D01*
X98701857Y-60733714D01*
X98737571Y-60698000D01*
X98773285Y-60626571D01*
X98773285Y-60483714D01*
X98737571Y-60412285D01*
X98701857Y-60376571D01*
X98630428Y-60340857D01*
X98023285Y-60340857D01*
X98773285Y-59590857D02*
X98773285Y-60019428D01*
X98773285Y-59805142D02*
X98023285Y-59805142D01*
X98130428Y-59876571D01*
X98201857Y-59948000D01*
X98237571Y-60019428D01*
X87185571Y-71725285D02*
X87185571Y-72332428D01*
X87221285Y-72403857D01*
X87257000Y-72439571D01*
X87328428Y-72475285D01*
X87471285Y-72475285D01*
X87542714Y-72439571D01*
X87578428Y-72403857D01*
X87614142Y-72332428D01*
X87614142Y-71725285D01*
X87935571Y-71796714D02*
X87971285Y-71761000D01*
X88042714Y-71725285D01*
X88221285Y-71725285D01*
X88292714Y-71761000D01*
X88328428Y-71796714D01*
X88364142Y-71868142D01*
X88364142Y-71939571D01*
X88328428Y-72046714D01*
X87899857Y-72475285D01*
X88364142Y-72475285D01*
X81136357Y-59523142D02*
X81172071Y-59558857D01*
X81207785Y-59666000D01*
X81207785Y-59737428D01*
X81172071Y-59844571D01*
X81100642Y-59916000D01*
X81029214Y-59951714D01*
X80886357Y-59987428D01*
X80779214Y-59987428D01*
X80636357Y-59951714D01*
X80564928Y-59916000D01*
X80493500Y-59844571D01*
X80457785Y-59737428D01*
X80457785Y-59666000D01*
X80493500Y-59558857D01*
X80529214Y-59523142D01*
X81207785Y-58808857D02*
X81207785Y-59237428D01*
X81207785Y-59023142D02*
X80457785Y-59023142D01*
X80564928Y-59094571D01*
X80636357Y-59166000D01*
X80672071Y-59237428D01*
X80457785Y-58558857D02*
X80457785Y-58094571D01*
X80743500Y-58344571D01*
X80743500Y-58237428D01*
X80779214Y-58166000D01*
X80814928Y-58130285D01*
X80886357Y-58094571D01*
X81064928Y-58094571D01*
X81136357Y-58130285D01*
X81172071Y-58166000D01*
X81207785Y-58237428D01*
X81207785Y-58451714D01*
X81172071Y-58523142D01*
X81136357Y-58558857D01*
X81199857Y-63220142D02*
X81235571Y-63255857D01*
X81271285Y-63363000D01*
X81271285Y-63434428D01*
X81235571Y-63541571D01*
X81164142Y-63613000D01*
X81092714Y-63648714D01*
X80949857Y-63684428D01*
X80842714Y-63684428D01*
X80699857Y-63648714D01*
X80628428Y-63613000D01*
X80557000Y-63541571D01*
X80521285Y-63434428D01*
X80521285Y-63363000D01*
X80557000Y-63255857D01*
X80592714Y-63220142D01*
X81271285Y-62505857D02*
X81271285Y-62934428D01*
X81271285Y-62720142D02*
X80521285Y-62720142D01*
X80628428Y-62791571D01*
X80699857Y-62863000D01*
X80735571Y-62934428D01*
X80771285Y-61863000D02*
X81271285Y-61863000D01*
X80485571Y-62041571D02*
X81021285Y-62220142D01*
X81021285Y-61755857D01*
X75209857Y-47257857D02*
X75174142Y-47293571D01*
X75067000Y-47329285D01*
X74995571Y-47329285D01*
X74888428Y-47293571D01*
X74817000Y-47222142D01*
X74781285Y-47150714D01*
X74745571Y-47007857D01*
X74745571Y-46900714D01*
X74781285Y-46757857D01*
X74817000Y-46686428D01*
X74888428Y-46615000D01*
X74995571Y-46579285D01*
X75067000Y-46579285D01*
X75174142Y-46615000D01*
X75209857Y-46650714D01*
X75924142Y-47329285D02*
X75495571Y-47329285D01*
X75709857Y-47329285D02*
X75709857Y-46579285D01*
X75638428Y-46686428D01*
X75567000Y-46757857D01*
X75495571Y-46793571D01*
X76602714Y-46579285D02*
X76245571Y-46579285D01*
X76209857Y-46936428D01*
X76245571Y-46900714D01*
X76317000Y-46865000D01*
X76495571Y-46865000D01*
X76567000Y-46900714D01*
X76602714Y-46936428D01*
X76638428Y-47007857D01*
X76638428Y-47186428D01*
X76602714Y-47257857D01*
X76567000Y-47293571D01*
X76495571Y-47329285D01*
X76317000Y-47329285D01*
X76245571Y-47293571D01*
X76209857Y-47257857D01*
X70714477Y-82572330D02*
X70714477Y-82622837D01*
X70663969Y-82723852D01*
X70613461Y-82774360D01*
X70512446Y-82824868D01*
X70411431Y-82824868D01*
X70335669Y-82799614D01*
X70209400Y-82723852D01*
X70133639Y-82648091D01*
X70057877Y-82521822D01*
X70032624Y-82446061D01*
X70032624Y-82345045D01*
X70083131Y-82244030D01*
X70133639Y-82193522D01*
X70234654Y-82143015D01*
X70285162Y-82143015D01*
X71270061Y-82117761D02*
X70967015Y-82420807D01*
X71118538Y-82269284D02*
X70588208Y-81738954D01*
X70613461Y-81865223D01*
X70613461Y-81966238D01*
X70588208Y-82042000D01*
X71194299Y-81132862D02*
X71093284Y-81233877D01*
X71068030Y-81309639D01*
X71068030Y-81360147D01*
X71093284Y-81486416D01*
X71169045Y-81612685D01*
X71371076Y-81814715D01*
X71446837Y-81839969D01*
X71497345Y-81839969D01*
X71573106Y-81814715D01*
X71674122Y-81713700D01*
X71699375Y-81637938D01*
X71699375Y-81587431D01*
X71674122Y-81511669D01*
X71547852Y-81385400D01*
X71472091Y-81360147D01*
X71421583Y-81360147D01*
X71345822Y-81385400D01*
X71244807Y-81486416D01*
X71219553Y-81562177D01*
X71219553Y-81612685D01*
X71244807Y-81688446D01*
X80924857Y-24270857D02*
X80889142Y-24306571D01*
X80782000Y-24342285D01*
X80710571Y-24342285D01*
X80603428Y-24306571D01*
X80532000Y-24235142D01*
X80496285Y-24163714D01*
X80460571Y-24020857D01*
X80460571Y-23913714D01*
X80496285Y-23770857D01*
X80532000Y-23699428D01*
X80603428Y-23628000D01*
X80710571Y-23592285D01*
X80782000Y-23592285D01*
X80889142Y-23628000D01*
X80924857Y-23663714D01*
X81639142Y-24342285D02*
X81210571Y-24342285D01*
X81424857Y-24342285D02*
X81424857Y-23592285D01*
X81353428Y-23699428D01*
X81282000Y-23770857D01*
X81210571Y-23806571D01*
X81889142Y-23592285D02*
X82389142Y-23592285D01*
X82067714Y-24342285D01*
X75590857Y-23762857D02*
X75555142Y-23798571D01*
X75448000Y-23834285D01*
X75376571Y-23834285D01*
X75269428Y-23798571D01*
X75198000Y-23727142D01*
X75162285Y-23655714D01*
X75126571Y-23512857D01*
X75126571Y-23405714D01*
X75162285Y-23262857D01*
X75198000Y-23191428D01*
X75269428Y-23120000D01*
X75376571Y-23084285D01*
X75448000Y-23084285D01*
X75555142Y-23120000D01*
X75590857Y-23155714D01*
X76305142Y-23834285D02*
X75876571Y-23834285D01*
X76090857Y-23834285D02*
X76090857Y-23084285D01*
X76019428Y-23191428D01*
X75948000Y-23262857D01*
X75876571Y-23298571D01*
X76733714Y-23405714D02*
X76662285Y-23370000D01*
X76626571Y-23334285D01*
X76590857Y-23262857D01*
X76590857Y-23227142D01*
X76626571Y-23155714D01*
X76662285Y-23120000D01*
X76733714Y-23084285D01*
X76876571Y-23084285D01*
X76948000Y-23120000D01*
X76983714Y-23155714D01*
X77019428Y-23227142D01*
X77019428Y-23262857D01*
X76983714Y-23334285D01*
X76948000Y-23370000D01*
X76876571Y-23405714D01*
X76733714Y-23405714D01*
X76662285Y-23441428D01*
X76626571Y-23477142D01*
X76590857Y-23548571D01*
X76590857Y-23691428D01*
X76626571Y-23762857D01*
X76662285Y-23798571D01*
X76733714Y-23834285D01*
X76876571Y-23834285D01*
X76948000Y-23798571D01*
X76983714Y-23762857D01*
X77019428Y-23691428D01*
X77019428Y-23548571D01*
X76983714Y-23477142D01*
X76948000Y-23441428D01*
X76876571Y-23405714D01*
X70749000Y-89759285D02*
X70749000Y-90295000D01*
X70713285Y-90402142D01*
X70641857Y-90473571D01*
X70534714Y-90509285D01*
X70463285Y-90509285D01*
X71106142Y-90509285D02*
X71106142Y-89759285D01*
X71391857Y-89759285D01*
X71463285Y-89795000D01*
X71499000Y-89830714D01*
X71534714Y-89902142D01*
X71534714Y-90009285D01*
X71499000Y-90080714D01*
X71463285Y-90116428D01*
X71391857Y-90152142D01*
X71106142Y-90152142D01*
X72177571Y-90009285D02*
X72177571Y-90509285D01*
X71999000Y-89723571D02*
X71820428Y-90259285D01*
X72284714Y-90259285D01*
X82941000Y-55723285D02*
X82941000Y-56259000D01*
X82905285Y-56366142D01*
X82833857Y-56437571D01*
X82726714Y-56473285D01*
X82655285Y-56473285D01*
X83298142Y-56473285D02*
X83298142Y-55723285D01*
X83583857Y-55723285D01*
X83655285Y-55759000D01*
X83691000Y-55794714D01*
X83726714Y-55866142D01*
X83726714Y-55973285D01*
X83691000Y-56044714D01*
X83655285Y-56080428D01*
X83583857Y-56116142D01*
X83298142Y-56116142D01*
X84405285Y-55723285D02*
X84048142Y-55723285D01*
X84012428Y-56080428D01*
X84048142Y-56044714D01*
X84119571Y-56009000D01*
X84298142Y-56009000D01*
X84369571Y-56044714D01*
X84405285Y-56080428D01*
X84441000Y-56151857D01*
X84441000Y-56330428D01*
X84405285Y-56401857D01*
X84369571Y-56437571D01*
X84298142Y-56473285D01*
X84119571Y-56473285D01*
X84048142Y-56437571D01*
X84012428Y-56401857D01*
X82560000Y-36419285D02*
X82560000Y-36955000D01*
X82524285Y-37062142D01*
X82452857Y-37133571D01*
X82345714Y-37169285D01*
X82274285Y-37169285D01*
X82917142Y-37169285D02*
X82917142Y-36419285D01*
X83202857Y-36419285D01*
X83274285Y-36455000D01*
X83310000Y-36490714D01*
X83345714Y-36562142D01*
X83345714Y-36669285D01*
X83310000Y-36740714D01*
X83274285Y-36776428D01*
X83202857Y-36812142D01*
X82917142Y-36812142D01*
X83988571Y-36419285D02*
X83845714Y-36419285D01*
X83774285Y-36455000D01*
X83738571Y-36490714D01*
X83667142Y-36597857D01*
X83631428Y-36740714D01*
X83631428Y-37026428D01*
X83667142Y-37097857D01*
X83702857Y-37133571D01*
X83774285Y-37169285D01*
X83917142Y-37169285D01*
X83988571Y-37133571D01*
X84024285Y-37097857D01*
X84060000Y-37026428D01*
X84060000Y-36847857D01*
X84024285Y-36776428D01*
X83988571Y-36740714D01*
X83917142Y-36705000D01*
X83774285Y-36705000D01*
X83702857Y-36740714D01*
X83667142Y-36776428D01*
X83631428Y-36847857D01*
X75747571Y-74197714D02*
X75676142Y-74162000D01*
X75604714Y-74090571D01*
X75497571Y-73983428D01*
X75426142Y-73947714D01*
X75354714Y-73947714D01*
X75390428Y-74126285D02*
X75319000Y-74090571D01*
X75247571Y-74019142D01*
X75211857Y-73876285D01*
X75211857Y-73626285D01*
X75247571Y-73483428D01*
X75319000Y-73412000D01*
X75390428Y-73376285D01*
X75533285Y-73376285D01*
X75604714Y-73412000D01*
X75676142Y-73483428D01*
X75711857Y-73626285D01*
X75711857Y-73876285D01*
X75676142Y-74019142D01*
X75604714Y-74090571D01*
X75533285Y-74126285D01*
X75390428Y-74126285D01*
X76354714Y-73376285D02*
X76211857Y-73376285D01*
X76140428Y-73412000D01*
X76104714Y-73447714D01*
X76033285Y-73554857D01*
X75997571Y-73697714D01*
X75997571Y-73983428D01*
X76033285Y-74054857D01*
X76069000Y-74090571D01*
X76140428Y-74126285D01*
X76283285Y-74126285D01*
X76354714Y-74090571D01*
X76390428Y-74054857D01*
X76426142Y-73983428D01*
X76426142Y-73804857D01*
X76390428Y-73733428D01*
X76354714Y-73697714D01*
X76283285Y-73662000D01*
X76140428Y-73662000D01*
X76069000Y-73697714D01*
X76033285Y-73733428D01*
X75997571Y-73804857D01*
X75747571Y-78261714D02*
X75676142Y-78226000D01*
X75604714Y-78154571D01*
X75497571Y-78047428D01*
X75426142Y-78011714D01*
X75354714Y-78011714D01*
X75390428Y-78190285D02*
X75319000Y-78154571D01*
X75247571Y-78083142D01*
X75211857Y-77940285D01*
X75211857Y-77690285D01*
X75247571Y-77547428D01*
X75319000Y-77476000D01*
X75390428Y-77440285D01*
X75533285Y-77440285D01*
X75604714Y-77476000D01*
X75676142Y-77547428D01*
X75711857Y-77690285D01*
X75711857Y-77940285D01*
X75676142Y-78083142D01*
X75604714Y-78154571D01*
X75533285Y-78190285D01*
X75390428Y-78190285D01*
X75961857Y-77440285D02*
X76461857Y-77440285D01*
X76140428Y-78190285D01*
X79557571Y-70260714D02*
X79486142Y-70225000D01*
X79414714Y-70153571D01*
X79307571Y-70046428D01*
X79236142Y-70010714D01*
X79164714Y-70010714D01*
X79200428Y-70189285D02*
X79129000Y-70153571D01*
X79057571Y-70082142D01*
X79021857Y-69939285D01*
X79021857Y-69689285D01*
X79057571Y-69546428D01*
X79129000Y-69475000D01*
X79200428Y-69439285D01*
X79343285Y-69439285D01*
X79414714Y-69475000D01*
X79486142Y-69546428D01*
X79521857Y-69689285D01*
X79521857Y-69939285D01*
X79486142Y-70082142D01*
X79414714Y-70153571D01*
X79343285Y-70189285D01*
X79200428Y-70189285D01*
X79950428Y-69760714D02*
X79879000Y-69725000D01*
X79843285Y-69689285D01*
X79807571Y-69617857D01*
X79807571Y-69582142D01*
X79843285Y-69510714D01*
X79879000Y-69475000D01*
X79950428Y-69439285D01*
X80093285Y-69439285D01*
X80164714Y-69475000D01*
X80200428Y-69510714D01*
X80236142Y-69582142D01*
X80236142Y-69617857D01*
X80200428Y-69689285D01*
X80164714Y-69725000D01*
X80093285Y-69760714D01*
X79950428Y-69760714D01*
X79879000Y-69796428D01*
X79843285Y-69832142D01*
X79807571Y-69903571D01*
X79807571Y-70046428D01*
X79843285Y-70117857D01*
X79879000Y-70153571D01*
X79950428Y-70189285D01*
X80093285Y-70189285D01*
X80164714Y-70153571D01*
X80200428Y-70117857D01*
X80236142Y-70046428D01*
X80236142Y-69903571D01*
X80200428Y-69832142D01*
X80164714Y-69796428D01*
X80093285Y-69760714D01*
X81335571Y-48543714D02*
X81264142Y-48508000D01*
X81192714Y-48436571D01*
X81085571Y-48329428D01*
X81014142Y-48293714D01*
X80942714Y-48293714D01*
X80978428Y-48472285D02*
X80907000Y-48436571D01*
X80835571Y-48365142D01*
X80799857Y-48222285D01*
X80799857Y-47972285D01*
X80835571Y-47829428D01*
X80907000Y-47758000D01*
X80978428Y-47722285D01*
X81121285Y-47722285D01*
X81192714Y-47758000D01*
X81264142Y-47829428D01*
X81299857Y-47972285D01*
X81299857Y-48222285D01*
X81264142Y-48365142D01*
X81192714Y-48436571D01*
X81121285Y-48472285D01*
X80978428Y-48472285D01*
X81657000Y-48472285D02*
X81799857Y-48472285D01*
X81871285Y-48436571D01*
X81907000Y-48400857D01*
X81978428Y-48293714D01*
X82014142Y-48150857D01*
X82014142Y-47865142D01*
X81978428Y-47793714D01*
X81942714Y-47758000D01*
X81871285Y-47722285D01*
X81728428Y-47722285D01*
X81657000Y-47758000D01*
X81621285Y-47793714D01*
X81585571Y-47865142D01*
X81585571Y-48043714D01*
X81621285Y-48115142D01*
X81657000Y-48150857D01*
X81728428Y-48186571D01*
X81871285Y-48186571D01*
X81942714Y-48150857D01*
X81978428Y-48115142D01*
X82014142Y-48043714D01*
X71834428Y-41304714D02*
X71763000Y-41269000D01*
X71691571Y-41197571D01*
X71584428Y-41090428D01*
X71513000Y-41054714D01*
X71441571Y-41054714D01*
X71477285Y-41233285D02*
X71405857Y-41197571D01*
X71334428Y-41126142D01*
X71298714Y-40983285D01*
X71298714Y-40733285D01*
X71334428Y-40590428D01*
X71405857Y-40519000D01*
X71477285Y-40483285D01*
X71620142Y-40483285D01*
X71691571Y-40519000D01*
X71763000Y-40590428D01*
X71798714Y-40733285D01*
X71798714Y-40983285D01*
X71763000Y-41126142D01*
X71691571Y-41197571D01*
X71620142Y-41233285D01*
X71477285Y-41233285D01*
X72513000Y-41233285D02*
X72084428Y-41233285D01*
X72298714Y-41233285D02*
X72298714Y-40483285D01*
X72227285Y-40590428D01*
X72155857Y-40661857D01*
X72084428Y-40697571D01*
X72977285Y-40483285D02*
X73048714Y-40483285D01*
X73120142Y-40519000D01*
X73155857Y-40554714D01*
X73191571Y-40626142D01*
X73227285Y-40769000D01*
X73227285Y-40947571D01*
X73191571Y-41090428D01*
X73155857Y-41161857D01*
X73120142Y-41197571D01*
X73048714Y-41233285D01*
X72977285Y-41233285D01*
X72905857Y-41197571D01*
X72870142Y-41161857D01*
X72834428Y-41090428D01*
X72798714Y-40947571D01*
X72798714Y-40769000D01*
X72834428Y-40626142D01*
X72870142Y-40554714D01*
X72905857Y-40519000D01*
X72977285Y-40483285D01*
X70891984Y-74367837D02*
X70462669Y-74292076D01*
X70588938Y-74670883D02*
X70058608Y-74140553D01*
X70260639Y-73938522D01*
X70336400Y-73913269D01*
X70386908Y-73913269D01*
X70462669Y-73938522D01*
X70538431Y-74014284D01*
X70563685Y-74090045D01*
X70563685Y-74140553D01*
X70538431Y-74216314D01*
X70336400Y-74418345D01*
X70614192Y-73685984D02*
X70614192Y-73635477D01*
X70639446Y-73559715D01*
X70765715Y-73433446D01*
X70841477Y-73408192D01*
X70891984Y-73408192D01*
X70967746Y-73433446D01*
X71018253Y-73483954D01*
X71068761Y-73584969D01*
X71068761Y-74191061D01*
X71397061Y-73862761D01*
X71195030Y-73004131D02*
X71245538Y-72953624D01*
X71321299Y-72928370D01*
X71371807Y-72928370D01*
X71447568Y-72953624D01*
X71573837Y-73029385D01*
X71700106Y-73155654D01*
X71775868Y-73281923D01*
X71801122Y-73357685D01*
X71801122Y-73408192D01*
X71775868Y-73483954D01*
X71725360Y-73534461D01*
X71649599Y-73559715D01*
X71599091Y-73559715D01*
X71523330Y-73534461D01*
X71397061Y-73458700D01*
X71270791Y-73332431D01*
X71195030Y-73206162D01*
X71169776Y-73130400D01*
X71169776Y-73079893D01*
X71195030Y-73004131D01*
X70891984Y-72335837D02*
X70462669Y-72260076D01*
X70588938Y-72638883D02*
X70058608Y-72108553D01*
X70260639Y-71906522D01*
X70336400Y-71881269D01*
X70386908Y-71881269D01*
X70462669Y-71906522D01*
X70538431Y-71982284D01*
X70563685Y-72058045D01*
X70563685Y-72108553D01*
X70538431Y-72184314D01*
X70336400Y-72386345D01*
X70614192Y-71653984D02*
X70614192Y-71603477D01*
X70639446Y-71527715D01*
X70765715Y-71401446D01*
X70841477Y-71376192D01*
X70891984Y-71376192D01*
X70967746Y-71401446D01*
X71018253Y-71451954D01*
X71068761Y-71552969D01*
X71068761Y-72159061D01*
X71397061Y-71830761D01*
X71902137Y-71325685D02*
X71599091Y-71628730D01*
X71750614Y-71477208D02*
X71220284Y-70946877D01*
X71245538Y-71073147D01*
X71245538Y-71174162D01*
X71220284Y-71249923D01*
X70891984Y-70303837D02*
X70462669Y-70228076D01*
X70588938Y-70606883D02*
X70058608Y-70076553D01*
X70260639Y-69874522D01*
X70336400Y-69849269D01*
X70386908Y-69849269D01*
X70462669Y-69874522D01*
X70538431Y-69950284D01*
X70563685Y-70026045D01*
X70563685Y-70076553D01*
X70538431Y-70152314D01*
X70336400Y-70354345D01*
X70614192Y-69621984D02*
X70614192Y-69571477D01*
X70639446Y-69495715D01*
X70765715Y-69369446D01*
X70841477Y-69344192D01*
X70891984Y-69344192D01*
X70967746Y-69369446D01*
X71018253Y-69419954D01*
X71068761Y-69520969D01*
X71068761Y-70127061D01*
X71397061Y-69798761D01*
X71119269Y-69116908D02*
X71119269Y-69066400D01*
X71144522Y-68990639D01*
X71270791Y-68864370D01*
X71346553Y-68839116D01*
X71397061Y-68839116D01*
X71472822Y-68864370D01*
X71523330Y-68914877D01*
X71573837Y-69015893D01*
X71573837Y-69621984D01*
X71902137Y-69293685D01*
X70383857Y-46186285D02*
X70133857Y-45829142D01*
X69955285Y-46186285D02*
X69955285Y-45436285D01*
X70241000Y-45436285D01*
X70312428Y-45472000D01*
X70348142Y-45507714D01*
X70383857Y-45579142D01*
X70383857Y-45686285D01*
X70348142Y-45757714D01*
X70312428Y-45793428D01*
X70241000Y-45829142D01*
X69955285Y-45829142D01*
X70669571Y-45507714D02*
X70705285Y-45472000D01*
X70776714Y-45436285D01*
X70955285Y-45436285D01*
X71026714Y-45472000D01*
X71062428Y-45507714D01*
X71098142Y-45579142D01*
X71098142Y-45650571D01*
X71062428Y-45757714D01*
X70633857Y-46186285D01*
X71098142Y-46186285D01*
X71348142Y-45436285D02*
X71812428Y-45436285D01*
X71562428Y-45722000D01*
X71669571Y-45722000D01*
X71741000Y-45757714D01*
X71776714Y-45793428D01*
X71812428Y-45864857D01*
X71812428Y-46043428D01*
X71776714Y-46114857D01*
X71741000Y-46150571D01*
X71669571Y-46186285D01*
X71455285Y-46186285D01*
X71383857Y-46150571D01*
X71348142Y-46114857D01*
X70383857Y-48472285D02*
X70133857Y-48115142D01*
X69955285Y-48472285D02*
X69955285Y-47722285D01*
X70241000Y-47722285D01*
X70312428Y-47758000D01*
X70348142Y-47793714D01*
X70383857Y-47865142D01*
X70383857Y-47972285D01*
X70348142Y-48043714D01*
X70312428Y-48079428D01*
X70241000Y-48115142D01*
X69955285Y-48115142D01*
X70669571Y-47793714D02*
X70705285Y-47758000D01*
X70776714Y-47722285D01*
X70955285Y-47722285D01*
X71026714Y-47758000D01*
X71062428Y-47793714D01*
X71098142Y-47865142D01*
X71098142Y-47936571D01*
X71062428Y-48043714D01*
X70633857Y-48472285D01*
X71098142Y-48472285D01*
X71741000Y-47972285D02*
X71741000Y-48472285D01*
X71562428Y-47686571D02*
X71383857Y-48222285D01*
X71848142Y-48222285D01*
X70891984Y-68271837D02*
X70462669Y-68196076D01*
X70588938Y-68574883D02*
X70058608Y-68044553D01*
X70260639Y-67842522D01*
X70336400Y-67817269D01*
X70386908Y-67817269D01*
X70462669Y-67842522D01*
X70538431Y-67918284D01*
X70563685Y-67994045D01*
X70563685Y-68044553D01*
X70538431Y-68120314D01*
X70336400Y-68322345D01*
X70614192Y-67589984D02*
X70614192Y-67539477D01*
X70639446Y-67463715D01*
X70765715Y-67337446D01*
X70841477Y-67312192D01*
X70891984Y-67312192D01*
X70967746Y-67337446D01*
X71018253Y-67387954D01*
X71068761Y-67488969D01*
X71068761Y-68095061D01*
X71397061Y-67766761D01*
X71346553Y-66756608D02*
X71094015Y-67009147D01*
X71321299Y-67286938D01*
X71321299Y-67236431D01*
X71346553Y-67160669D01*
X71472822Y-67034400D01*
X71548583Y-67009147D01*
X71599091Y-67009147D01*
X71674852Y-67034400D01*
X71801122Y-67160669D01*
X71826375Y-67236431D01*
X71826375Y-67286938D01*
X71801122Y-67362700D01*
X71674852Y-67488969D01*
X71599091Y-67514223D01*
X71548583Y-67514223D01*
X70383857Y-47329285D02*
X70133857Y-46972142D01*
X69955285Y-47329285D02*
X69955285Y-46579285D01*
X70241000Y-46579285D01*
X70312428Y-46615000D01*
X70348142Y-46650714D01*
X70383857Y-46722142D01*
X70383857Y-46829285D01*
X70348142Y-46900714D01*
X70312428Y-46936428D01*
X70241000Y-46972142D01*
X69955285Y-46972142D01*
X70669571Y-46650714D02*
X70705285Y-46615000D01*
X70776714Y-46579285D01*
X70955285Y-46579285D01*
X71026714Y-46615000D01*
X71062428Y-46650714D01*
X71098142Y-46722142D01*
X71098142Y-46793571D01*
X71062428Y-46900714D01*
X70633857Y-47329285D01*
X71098142Y-47329285D01*
X71741000Y-46579285D02*
X71598142Y-46579285D01*
X71526714Y-46615000D01*
X71491000Y-46650714D01*
X71419571Y-46757857D01*
X71383857Y-46900714D01*
X71383857Y-47186428D01*
X71419571Y-47257857D01*
X71455285Y-47293571D01*
X71526714Y-47329285D01*
X71669571Y-47329285D01*
X71741000Y-47293571D01*
X71776714Y-47257857D01*
X71812428Y-47186428D01*
X71812428Y-47007857D01*
X71776714Y-46936428D01*
X71741000Y-46900714D01*
X71669571Y-46865000D01*
X71526714Y-46865000D01*
X71455285Y-46900714D01*
X71419571Y-46936428D01*
X71383857Y-47007857D01*
X75209857Y-46186285D02*
X74959857Y-45829142D01*
X74781285Y-46186285D02*
X74781285Y-45436285D01*
X75067000Y-45436285D01*
X75138428Y-45472000D01*
X75174142Y-45507714D01*
X75209857Y-45579142D01*
X75209857Y-45686285D01*
X75174142Y-45757714D01*
X75138428Y-45793428D01*
X75067000Y-45829142D01*
X74781285Y-45829142D01*
X75495571Y-45507714D02*
X75531285Y-45472000D01*
X75602714Y-45436285D01*
X75781285Y-45436285D01*
X75852714Y-45472000D01*
X75888428Y-45507714D01*
X75924142Y-45579142D01*
X75924142Y-45650571D01*
X75888428Y-45757714D01*
X75459857Y-46186285D01*
X75924142Y-46186285D01*
X76174142Y-45436285D02*
X76674142Y-45436285D01*
X76352714Y-46186285D01*
X70891984Y-78431837D02*
X70462669Y-78356076D01*
X70588938Y-78734883D02*
X70058608Y-78204553D01*
X70260639Y-78002522D01*
X70336400Y-77977269D01*
X70386908Y-77977269D01*
X70462669Y-78002522D01*
X70538431Y-78078284D01*
X70563685Y-78154045D01*
X70563685Y-78204553D01*
X70538431Y-78280314D01*
X70336400Y-78482345D01*
X70614192Y-77749984D02*
X70614192Y-77699477D01*
X70639446Y-77623715D01*
X70765715Y-77497446D01*
X70841477Y-77472192D01*
X70891984Y-77472192D01*
X70967746Y-77497446D01*
X71018253Y-77547954D01*
X71068761Y-77648969D01*
X71068761Y-78255061D01*
X71397061Y-77926761D01*
X71397061Y-77320669D02*
X71321299Y-77345923D01*
X71270791Y-77345923D01*
X71195030Y-77320669D01*
X71169776Y-77295416D01*
X71144522Y-77219654D01*
X71144522Y-77169147D01*
X71169776Y-77093385D01*
X71270791Y-76992370D01*
X71346553Y-76967116D01*
X71397061Y-76967116D01*
X71472822Y-76992370D01*
X71498076Y-77017624D01*
X71523330Y-77093385D01*
X71523330Y-77143893D01*
X71498076Y-77219654D01*
X71397061Y-77320669D01*
X71371807Y-77396431D01*
X71371807Y-77446938D01*
X71397061Y-77522700D01*
X71498076Y-77623715D01*
X71573837Y-77648969D01*
X71624345Y-77648969D01*
X71700106Y-77623715D01*
X71801122Y-77522700D01*
X71826375Y-77446938D01*
X71826375Y-77396431D01*
X71801122Y-77320669D01*
X71700106Y-77219654D01*
X71624345Y-77194400D01*
X71573837Y-77194400D01*
X71498076Y-77219654D01*
X70891984Y-80463837D02*
X70462669Y-80388076D01*
X70588938Y-80766883D02*
X70058608Y-80236553D01*
X70260639Y-80034522D01*
X70336400Y-80009269D01*
X70386908Y-80009269D01*
X70462669Y-80034522D01*
X70538431Y-80110284D01*
X70563685Y-80186045D01*
X70563685Y-80236553D01*
X70538431Y-80312314D01*
X70336400Y-80514345D01*
X70614192Y-79781984D02*
X70614192Y-79731477D01*
X70639446Y-79655715D01*
X70765715Y-79529446D01*
X70841477Y-79504192D01*
X70891984Y-79504192D01*
X70967746Y-79529446D01*
X71018253Y-79579954D01*
X71068761Y-79680969D01*
X71068761Y-80287061D01*
X71397061Y-79958761D01*
X71649599Y-79706223D02*
X71750614Y-79605208D01*
X71775868Y-79529446D01*
X71775868Y-79478938D01*
X71750614Y-79352669D01*
X71674852Y-79226400D01*
X71472822Y-79024370D01*
X71397061Y-78999116D01*
X71346553Y-78999116D01*
X71270791Y-79024370D01*
X71169776Y-79125385D01*
X71144522Y-79201147D01*
X71144522Y-79251654D01*
X71169776Y-79327416D01*
X71296045Y-79453685D01*
X71371807Y-79478938D01*
X71422314Y-79478938D01*
X71498076Y-79453685D01*
X71599091Y-79352669D01*
X71624345Y-79276908D01*
X71624345Y-79226400D01*
X71599091Y-79150639D01*
X70891984Y-66239837D02*
X70462669Y-66164076D01*
X70588938Y-66542883D02*
X70058608Y-66012553D01*
X70260639Y-65810522D01*
X70336400Y-65785269D01*
X70386908Y-65785269D01*
X70462669Y-65810522D01*
X70538431Y-65886284D01*
X70563685Y-65962045D01*
X70563685Y-66012553D01*
X70538431Y-66088314D01*
X70336400Y-66290345D01*
X70538431Y-65532730D02*
X70866730Y-65204431D01*
X70891984Y-65583238D01*
X70967746Y-65507477D01*
X71043507Y-65482223D01*
X71094015Y-65482223D01*
X71169776Y-65507477D01*
X71296045Y-65633746D01*
X71321299Y-65709507D01*
X71321299Y-65760015D01*
X71296045Y-65835776D01*
X71144522Y-65987299D01*
X71068761Y-66012553D01*
X71018253Y-66012553D01*
X71195030Y-64876131D02*
X71245538Y-64825624D01*
X71321299Y-64800370D01*
X71371807Y-64800370D01*
X71447568Y-64825624D01*
X71573837Y-64901385D01*
X71700106Y-65027654D01*
X71775868Y-65153923D01*
X71801122Y-65229685D01*
X71801122Y-65280192D01*
X71775868Y-65355954D01*
X71725360Y-65406461D01*
X71649599Y-65431715D01*
X71599091Y-65431715D01*
X71523330Y-65406461D01*
X71397061Y-65330700D01*
X71270791Y-65204431D01*
X71195030Y-65078162D01*
X71169776Y-65002400D01*
X71169776Y-64951893D01*
X71195030Y-64876131D01*
X70891984Y-76399837D02*
X70462669Y-76324076D01*
X70588938Y-76702883D02*
X70058608Y-76172553D01*
X70260639Y-75970522D01*
X70336400Y-75945269D01*
X70386908Y-75945269D01*
X70462669Y-75970522D01*
X70538431Y-76046284D01*
X70563685Y-76122045D01*
X70563685Y-76172553D01*
X70538431Y-76248314D01*
X70336400Y-76450345D01*
X70538431Y-75692730D02*
X70866730Y-75364431D01*
X70891984Y-75743238D01*
X70967746Y-75667477D01*
X71043507Y-75642223D01*
X71094015Y-75642223D01*
X71169776Y-75667477D01*
X71296045Y-75793746D01*
X71321299Y-75869507D01*
X71321299Y-75920015D01*
X71296045Y-75995776D01*
X71144522Y-76147299D01*
X71068761Y-76172553D01*
X71018253Y-76172553D01*
X71902137Y-75389685D02*
X71599091Y-75692730D01*
X71750614Y-75541208D02*
X71220284Y-75010877D01*
X71245538Y-75137147D01*
X71245538Y-75238162D01*
X71220284Y-75313923D01*
X73558857Y-37931285D02*
X73308857Y-37574142D01*
X73130285Y-37931285D02*
X73130285Y-37181285D01*
X73416000Y-37181285D01*
X73487428Y-37217000D01*
X73523142Y-37252714D01*
X73558857Y-37324142D01*
X73558857Y-37431285D01*
X73523142Y-37502714D01*
X73487428Y-37538428D01*
X73416000Y-37574142D01*
X73130285Y-37574142D01*
X73808857Y-37181285D02*
X74273142Y-37181285D01*
X74023142Y-37467000D01*
X74130285Y-37467000D01*
X74201714Y-37502714D01*
X74237428Y-37538428D01*
X74273142Y-37609857D01*
X74273142Y-37788428D01*
X74237428Y-37859857D01*
X74201714Y-37895571D01*
X74130285Y-37931285D01*
X73916000Y-37931285D01*
X73844571Y-37895571D01*
X73808857Y-37859857D01*
X74558857Y-37252714D02*
X74594571Y-37217000D01*
X74666000Y-37181285D01*
X74844571Y-37181285D01*
X74916000Y-37217000D01*
X74951714Y-37252714D01*
X74987428Y-37324142D01*
X74987428Y-37395571D01*
X74951714Y-37502714D01*
X74523142Y-37931285D01*
X74987428Y-37931285D01*
X80543857Y-46186285D02*
X80293857Y-45829142D01*
X80115285Y-46186285D02*
X80115285Y-45436285D01*
X80401000Y-45436285D01*
X80472428Y-45472000D01*
X80508142Y-45507714D01*
X80543857Y-45579142D01*
X80543857Y-45686285D01*
X80508142Y-45757714D01*
X80472428Y-45793428D01*
X80401000Y-45829142D01*
X80115285Y-45829142D01*
X80793857Y-45436285D02*
X81258142Y-45436285D01*
X81008142Y-45722000D01*
X81115285Y-45722000D01*
X81186714Y-45757714D01*
X81222428Y-45793428D01*
X81258142Y-45864857D01*
X81258142Y-46043428D01*
X81222428Y-46114857D01*
X81186714Y-46150571D01*
X81115285Y-46186285D01*
X80901000Y-46186285D01*
X80829571Y-46150571D01*
X80793857Y-46114857D01*
X81508142Y-45436285D02*
X81972428Y-45436285D01*
X81722428Y-45722000D01*
X81829571Y-45722000D01*
X81901000Y-45757714D01*
X81936714Y-45793428D01*
X81972428Y-45864857D01*
X81972428Y-46043428D01*
X81936714Y-46114857D01*
X81901000Y-46150571D01*
X81829571Y-46186285D01*
X81615285Y-46186285D01*
X81543857Y-46150571D01*
X81508142Y-46114857D01*
X79400857Y-66379285D02*
X79150857Y-66022142D01*
X78972285Y-66379285D02*
X78972285Y-65629285D01*
X79258000Y-65629285D01*
X79329428Y-65665000D01*
X79365142Y-65700714D01*
X79400857Y-65772142D01*
X79400857Y-65879285D01*
X79365142Y-65950714D01*
X79329428Y-65986428D01*
X79258000Y-66022142D01*
X78972285Y-66022142D01*
X79650857Y-65629285D02*
X80115142Y-65629285D01*
X79865142Y-65915000D01*
X79972285Y-65915000D01*
X80043714Y-65950714D01*
X80079428Y-65986428D01*
X80115142Y-66057857D01*
X80115142Y-66236428D01*
X80079428Y-66307857D01*
X80043714Y-66343571D01*
X79972285Y-66379285D01*
X79758000Y-66379285D01*
X79686571Y-66343571D01*
X79650857Y-66307857D01*
X80758000Y-65879285D02*
X80758000Y-66379285D01*
X80579428Y-65593571D02*
X80400857Y-66129285D01*
X80865142Y-66129285D01*
X75209857Y-48472285D02*
X74959857Y-48115142D01*
X74781285Y-48472285D02*
X74781285Y-47722285D01*
X75067000Y-47722285D01*
X75138428Y-47758000D01*
X75174142Y-47793714D01*
X75209857Y-47865142D01*
X75209857Y-47972285D01*
X75174142Y-48043714D01*
X75138428Y-48079428D01*
X75067000Y-48115142D01*
X74781285Y-48115142D01*
X75459857Y-47722285D02*
X75924142Y-47722285D01*
X75674142Y-48008000D01*
X75781285Y-48008000D01*
X75852714Y-48043714D01*
X75888428Y-48079428D01*
X75924142Y-48150857D01*
X75924142Y-48329428D01*
X75888428Y-48400857D01*
X75852714Y-48436571D01*
X75781285Y-48472285D01*
X75567000Y-48472285D01*
X75495571Y-48436571D01*
X75459857Y-48400857D01*
X76602714Y-47722285D02*
X76245571Y-47722285D01*
X76209857Y-48079428D01*
X76245571Y-48043714D01*
X76317000Y-48008000D01*
X76495571Y-48008000D01*
X76567000Y-48043714D01*
X76602714Y-48079428D01*
X76638428Y-48150857D01*
X76638428Y-48329428D01*
X76602714Y-48400857D01*
X76567000Y-48436571D01*
X76495571Y-48472285D01*
X76317000Y-48472285D01*
X76245571Y-48436571D01*
X76209857Y-48400857D01*
X79400857Y-68411285D02*
X79150857Y-68054142D01*
X78972285Y-68411285D02*
X78972285Y-67661285D01*
X79258000Y-67661285D01*
X79329428Y-67697000D01*
X79365142Y-67732714D01*
X79400857Y-67804142D01*
X79400857Y-67911285D01*
X79365142Y-67982714D01*
X79329428Y-68018428D01*
X79258000Y-68054142D01*
X78972285Y-68054142D01*
X79650857Y-67661285D02*
X80115142Y-67661285D01*
X79865142Y-67947000D01*
X79972285Y-67947000D01*
X80043714Y-67982714D01*
X80079428Y-68018428D01*
X80115142Y-68089857D01*
X80115142Y-68268428D01*
X80079428Y-68339857D01*
X80043714Y-68375571D01*
X79972285Y-68411285D01*
X79758000Y-68411285D01*
X79686571Y-68375571D01*
X79650857Y-68339857D01*
X80758000Y-67661285D02*
X80615142Y-67661285D01*
X80543714Y-67697000D01*
X80508000Y-67732714D01*
X80436571Y-67839857D01*
X80400857Y-67982714D01*
X80400857Y-68268428D01*
X80436571Y-68339857D01*
X80472285Y-68375571D01*
X80543714Y-68411285D01*
X80686571Y-68411285D01*
X80758000Y-68375571D01*
X80793714Y-68339857D01*
X80829428Y-68268428D01*
X80829428Y-68089857D01*
X80793714Y-68018428D01*
X80758000Y-67982714D01*
X80686571Y-67947000D01*
X80543714Y-67947000D01*
X80472285Y-67982714D01*
X80436571Y-68018428D01*
X80400857Y-68089857D01*
X73558857Y-35899285D02*
X73308857Y-35542142D01*
X73130285Y-35899285D02*
X73130285Y-35149285D01*
X73416000Y-35149285D01*
X73487428Y-35185000D01*
X73523142Y-35220714D01*
X73558857Y-35292142D01*
X73558857Y-35399285D01*
X73523142Y-35470714D01*
X73487428Y-35506428D01*
X73416000Y-35542142D01*
X73130285Y-35542142D01*
X73808857Y-35149285D02*
X74273142Y-35149285D01*
X74023142Y-35435000D01*
X74130285Y-35435000D01*
X74201714Y-35470714D01*
X74237428Y-35506428D01*
X74273142Y-35577857D01*
X74273142Y-35756428D01*
X74237428Y-35827857D01*
X74201714Y-35863571D01*
X74130285Y-35899285D01*
X73916000Y-35899285D01*
X73844571Y-35863571D01*
X73808857Y-35827857D01*
X74523142Y-35149285D02*
X75023142Y-35149285D01*
X74701714Y-35899285D01*
X77001857Y-42249285D02*
X76751857Y-41892142D01*
X76573285Y-42249285D02*
X76573285Y-41499285D01*
X76859000Y-41499285D01*
X76930428Y-41535000D01*
X76966142Y-41570714D01*
X77001857Y-41642142D01*
X77001857Y-41749285D01*
X76966142Y-41820714D01*
X76930428Y-41856428D01*
X76859000Y-41892142D01*
X76573285Y-41892142D01*
X77251857Y-41499285D02*
X77716142Y-41499285D01*
X77466142Y-41785000D01*
X77573285Y-41785000D01*
X77644714Y-41820714D01*
X77680428Y-41856428D01*
X77716142Y-41927857D01*
X77716142Y-42106428D01*
X77680428Y-42177857D01*
X77644714Y-42213571D01*
X77573285Y-42249285D01*
X77359000Y-42249285D01*
X77287571Y-42213571D01*
X77251857Y-42177857D01*
X78144714Y-41820714D02*
X78073285Y-41785000D01*
X78037571Y-41749285D01*
X78001857Y-41677857D01*
X78001857Y-41642142D01*
X78037571Y-41570714D01*
X78073285Y-41535000D01*
X78144714Y-41499285D01*
X78287571Y-41499285D01*
X78359000Y-41535000D01*
X78394714Y-41570714D01*
X78430428Y-41642142D01*
X78430428Y-41677857D01*
X78394714Y-41749285D01*
X78359000Y-41785000D01*
X78287571Y-41820714D01*
X78144714Y-41820714D01*
X78073285Y-41856428D01*
X78037571Y-41892142D01*
X78001857Y-41963571D01*
X78001857Y-42106428D01*
X78037571Y-42177857D01*
X78073285Y-42213571D01*
X78144714Y-42249285D01*
X78287571Y-42249285D01*
X78359000Y-42213571D01*
X78394714Y-42177857D01*
X78430428Y-42106428D01*
X78430428Y-41963571D01*
X78394714Y-41892142D01*
X78359000Y-41856428D01*
X78287571Y-41820714D01*
X70455285Y-60769428D02*
X71062428Y-60769428D01*
X71133857Y-60733714D01*
X71169571Y-60698000D01*
X71205285Y-60626571D01*
X71205285Y-60483714D01*
X71169571Y-60412285D01*
X71133857Y-60376571D01*
X71062428Y-60340857D01*
X70455285Y-60340857D01*
X70455285Y-60055142D02*
X70455285Y-59590857D01*
X70741000Y-59840857D01*
X70741000Y-59733714D01*
X70776714Y-59662285D01*
X70812428Y-59626571D01*
X70883857Y-59590857D01*
X71062428Y-59590857D01*
X71133857Y-59626571D01*
X71169571Y-59662285D01*
X71205285Y-59733714D01*
X71205285Y-59948000D01*
X71169571Y-60019428D01*
X71133857Y-60055142D01*
X80853428Y-47329285D02*
X80853428Y-46579285D01*
X81032000Y-46579285D01*
X81139142Y-46615000D01*
X81210571Y-46686428D01*
X81246285Y-46757857D01*
X81282000Y-46900714D01*
X81282000Y-47007857D01*
X81246285Y-47150714D01*
X81210571Y-47222142D01*
X81139142Y-47293571D01*
X81032000Y-47329285D01*
X80853428Y-47329285D01*
X81960571Y-46579285D02*
X81603428Y-46579285D01*
X81567714Y-46936428D01*
X81603428Y-46900714D01*
X81674857Y-46865000D01*
X81853428Y-46865000D01*
X81924857Y-46900714D01*
X81960571Y-46936428D01*
X81996285Y-47007857D01*
X81996285Y-47186428D01*
X81960571Y-47257857D01*
X81924857Y-47293571D01*
X81853428Y-47329285D01*
X81674857Y-47329285D01*
X81603428Y-47293571D01*
X81567714Y-47257857D01*
X85552428Y-47329285D02*
X85552428Y-46579285D01*
X85731000Y-46579285D01*
X85838142Y-46615000D01*
X85909571Y-46686428D01*
X85945285Y-46757857D01*
X85981000Y-46900714D01*
X85981000Y-47007857D01*
X85945285Y-47150714D01*
X85909571Y-47222142D01*
X85838142Y-47293571D01*
X85731000Y-47329285D01*
X85552428Y-47329285D01*
X86695285Y-47329285D02*
X86266714Y-47329285D01*
X86481000Y-47329285D02*
X86481000Y-46579285D01*
X86409571Y-46686428D01*
X86338142Y-46757857D01*
X86266714Y-46793571D01*
M02*
